<svg width="64" height="64" viewBox="0 0 64 64" fill="none" xmlns="http://www.w3.org/2000/svg">
<g clip-path="url(#clip0_929_4233)">
<rect width="64" height="64" rx="32" fill="#1A47B8"/>
<path d="M81.0667 0H8.53333C3.8205 0 0 3.8205 0 8.53333V55.4667C0 60.1795 3.8205 64 8.53333 64H81.0667C85.7795 64 89.6 60.1795 89.6 55.4667V8.53333C89.6 3.8205 85.7795 0 81.0667 0Z" fill="#1A47B8"/>
<path opacity="0.5" fill-rule="evenodd" clip-rule="evenodd" d="M8.53333 49.0667L12.8 46.9333L14.9333 42.6667L17.0667 46.9333L21.3333 49.0667L17.0667 51.2L14.9333 55.4667L12.8 51.2L8.53333 49.0667ZM51.2 12.8V17.0667H55.4667V12.8H51.2ZM64 17.0667V21.3333H68.2667V17.0667H64ZM46.9333 25.6V29.8667H51.2V25.6H46.9333ZM59.7333 29.8667V34.1333H64V29.8667H59.7333ZM55.4667 42.6667V46.9333H59.7333V42.6667H55.4667Z" fill="white"/>
<path d="M40.5334 10.8688H10.6667C8.31028 10.8688 6.40002 12.779 6.40002 15.1354V36.4688C6.40002 38.8252 8.31028 40.7354 10.6667 40.7354H40.5334C42.8898 40.7354 44.8 38.8252 44.8 36.4688V15.1354C44.8 12.779 42.8898 10.8688 40.5334 10.8688Z" fill="white"/>
<path fill-rule="evenodd" clip-rule="evenodd" d="M23.4666 27.9354H10.6666V23.6688H23.4666V15.1354H27.7333V23.6688H40.5333V27.9354H27.7333V36.4688H23.4666V27.9354ZM34.1333 32.2021V36.4688H40.5333V32.2021H34.1333ZM34.1333 15.1354V19.4021H40.5333V15.1354H34.1333ZM10.6666 32.2021V36.4688H17.0666V32.2021H10.6666ZM10.6666 15.1354V19.4021H17.0666V15.1354H10.6666Z" fill="#F93939"/>
</g>
<defs>
<clipPath id="clip0_929_4233">
<rect width="64" height="64" rx="32" fill="white"/>
</clipPath>
</defs>
</svg>
