<svg width="64" height="64" viewBox="0 0 64 64" fill="none" xmlns="http://www.w3.org/2000/svg">
<g clip-path="url(#clip0_929_4250)">
<rect width="64" height="64" rx="32" fill="#F93939"/>
<path fill-rule="evenodd" clip-rule="evenodd" d="M30.5278 32.0597C18.9566 27.1615 24.0852 12.0746 35.1572 12.8255C32.9129 13.9775 32.5886 16.1279 33.8686 18.1162C35.3022 20.3519 33.7406 23.9402 31.8036 24.8149C28.6206 26.2442 27.9849 30.0629 30.5236 32.0597H30.5278ZM31.4964 31.5391C32.5758 19.025 48.5204 19.2383 51.2084 29.9946C49.4249 28.2239 47.283 28.5781 45.7812 30.4127C44.1044 32.4607 40.2089 32.0767 38.7838 30.5109C36.4372 27.9338 32.5972 28.5055 31.4964 31.5434V31.5391ZM31.8889 32.7893C44.1769 30.1653 48.6313 45.4698 39.1294 51.1957C40.307 48.9642 39.3428 47.0143 37.1497 46.1183C34.7006 45.1114 33.9241 41.2757 35.0078 39.4538C36.7913 36.4543 35.1188 32.9557 31.8932 32.785L31.8889 32.7893ZM15.9998 46.8479C18.4745 47.2746 20.0318 45.7514 20.2068 43.3919C20.4073 40.7466 23.8121 38.8266 25.8814 39.2959C29.2862 40.0639 32.098 37.393 31.2574 34.2698C37.555 45.1498 24.3753 54.1098 15.9956 46.8437L15.9998 46.8479ZM13.4526 23.4666C13.9433 25.9327 15.9188 26.8373 18.1886 26.1546C20.7273 25.3951 23.7438 27.8869 24.0468 29.9946C24.5502 33.4421 28.0489 35.1061 30.6601 33.2117C22.7668 42.9823 9.6681 33.8943 13.4526 23.4623V23.4666Z" fill="white"/>
</g>
<defs>
<clipPath id="clip0_929_4250">
<rect width="64" height="64" fill="white"/>
</clipPath>
</defs>
</svg>
