<svg width="64" height="64" viewBox="0 0 64 64" fill="none" xmlns="http://www.w3.org/2000/svg">
<g clip-path="url(#clip0_929_4129)">
<rect y="0.432434" width="64" height="64" rx="32" fill="white"/>
<path fill-rule="evenodd" clip-rule="evenodd" d="M32 43.0991C37.888 43.0991 42.6666 38.3204 42.6666 32.4324C42.6666 26.5444 37.888 21.7657 32 21.7657C26.112 21.7657 21.3333 26.5444 21.3333 32.4324C21.3333 38.3204 26.112 43.0991 32 43.0991ZM32 38.8324C35.5328 38.8324 38.4 35.9652 38.4 32.4324C38.4 28.8996 35.5328 26.0324 32 26.0324C28.4672 26.0324 25.6 28.8996 25.6 32.4324C25.6 35.9652 28.4672 38.8324 32 38.8324Z" fill="#1A47B8"/>
<path d="M32 34.5657C33.1782 34.5657 34.1334 33.6106 34.1334 32.4324C34.1334 31.2542 33.1782 30.2991 32 30.2991C30.8218 30.2991 29.8667 31.2542 29.8667 32.4324C29.8667 33.6106 30.8218 34.5657 32 34.5657Z" fill="#1A47B8"/>
<path fill-rule="evenodd" clip-rule="evenodd" d="M-12.8 43.0991H76.8V64.4325H-12.8V43.0991Z" fill="#249F58"/>
<path fill-rule="evenodd" clip-rule="evenodd" d="M-12.8 0.432434H76.8V21.7658H-12.8V0.432434Z" fill="#FF6C2D"/>
</g>
<defs>
<clipPath id="clip0_929_4129">
<rect y="0.432434" width="64" height="64" rx="32" fill="white"/>
</clipPath>
</defs>
</svg>
