<svg width="64" height="64" viewBox="0 0 64 64" fill="none" xmlns="http://www.w3.org/2000/svg">
<rect width="64" height="64" rx="32" fill="#F93939"/>
<path fill-rule="evenodd" clip-rule="evenodd" d="M46.9421 36.9153L41.9842 39.518L42.9314 34.0012L38.9208 30.0886L44.4674 29.278L46.9421 24.2604L49.4168 29.2822L54.9634 30.0929L50.9528 33.9969L51.9 39.5137" fill="white"/>
<path fill-rule="evenodd" clip-rule="evenodd" d="M27.7334 46.9333C35.9809 46.9333 42.6667 40.2475 42.6667 32C42.6667 23.7525 35.9809 17.0667 27.7334 17.0667C19.4859 17.0667 12.8 23.7525 12.8 32C12.8 40.2475 19.4859 46.9333 27.7334 46.9333ZM32 42.6667C37.8881 42.6667 42.6667 37.888 42.6667 32C42.6667 26.112 37.8881 21.3333 32 21.3333C26.112 21.3333 21.3334 26.112 21.3334 32C21.3334 37.888 26.112 42.6667 32 42.6667Z" fill="white"/>
</svg>
