<svg width="64" height="64" viewBox="0 0 64 64" fill="none" xmlns="http://www.w3.org/2000/svg">
<g clip-path="url(#clip0_929_4179)">
<rect width="64" height="64" rx="32" fill="#1A47B8"/>
<path fill-rule="evenodd" clip-rule="evenodd" d="M-3.26837 0H-12.8V10.6667L67.2167 64L76.8 64V53.3333L-3.26837 0Z" fill="white"/>
<path d="M-9.6209 0L76.8 57.7512V64H73.6954L-12.8 6.18905V0H-9.6209Z" fill="#F93939"/>
<path fill-rule="evenodd" clip-rule="evenodd" d="M68.2667 0H76.8V10.6667C76.8 10.6667 21.3752 46.1997 -4.26665 64H-12.8V53.3333L68.2667 0Z" fill="white"/>
<path d="M76.8 0H73.9062L-12.8 57.8009V64H-9.6209L76.8 6.23579V0Z" fill="#F93939"/>
<path fill-rule="evenodd" clip-rule="evenodd" d="M19.7849 0H44.2897V19.7411H76.8V44.2459H44.2897V64H19.7849V44.2459H-12.8V19.7411H19.7849V0Z" fill="white"/>
<path fill-rule="evenodd" clip-rule="evenodd" d="M24.9263 0H39.0737V24.6154H76.8V39.3846H39.0737V64H24.9263V39.3846H-12.8V24.6154H24.9263V0Z" fill="#F93939"/>
</g>
<defs>
<clipPath id="clip0_929_4179">
<rect width="64" height="64" rx="32" fill="white"/>
</clipPath>
</defs>
</svg>
