<svg width="64" height="64" viewBox="0 0 64 64" fill="none" xmlns="http://www.w3.org/2000/svg">
<g clip-path="url(#clip0_929_4151)">
<rect width="64" height="64" rx="32" fill="white"/>
<path fill-rule="evenodd" clip-rule="evenodd" d="M0 0H38.4V29.8667H0V0Z" fill="#1A47B8"/>
<path fill-rule="evenodd" clip-rule="evenodd" d="M38.4 0V4.26667H89.6V0H38.4ZM38.4 8.53333V12.8H89.6V8.53333H38.4ZM38.4 17.0667V21.3333H89.6V17.0667H38.4ZM38.4 25.6V29.8667H89.6V25.6H38.4ZM0 34.1333V38.4H89.6V34.1333H0ZM0 42.6667V46.9333H89.6V42.6667H0ZM0 51.2V55.4667H89.6V51.2H0ZM0 59.7333V64H89.6V59.7333H0Z" fill="#F93939"/>
<path fill-rule="evenodd" clip-rule="evenodd" d="M4.26666 4.26666V8.53333H8.53333V4.26666H4.26666ZM12.8 4.26666V8.53333H17.0667V4.26666H12.8ZM21.3333 4.26666V8.53333H25.6V4.26666H21.3333ZM29.8667 4.26666V8.53333H34.1333V4.26666H29.8667ZM25.6 8.53333V12.8H29.8667V8.53333H25.6ZM17.0667 8.53333V12.8H21.3333V8.53333H17.0667ZM8.53333 8.53333V12.8H12.8V8.53333H8.53333ZM4.26666 12.8V17.0667H8.53333V12.8H4.26666ZM12.8 12.8V17.0667H17.0667V12.8H12.8ZM21.3333 12.8V17.0667H25.6V12.8H21.3333ZM29.8667 12.8V17.0667H34.1333V12.8H29.8667ZM4.26666 21.3333V25.6H8.53333V21.3333H4.26666ZM12.8 21.3333V25.6H17.0667V21.3333H12.8ZM21.3333 21.3333V25.6H25.6V21.3333H21.3333ZM29.8667 21.3333V25.6H34.1333V21.3333H29.8667ZM25.6 17.0667V21.3333H29.8667V17.0667H25.6ZM17.0667 17.0667V21.3333H21.3333V17.0667H17.0667ZM8.53333 17.0667V21.3333H12.8V17.0667H8.53333Z" fill="white"/>
</g>
<defs>
<clipPath id="clip0_929_4151">
<rect width="64" height="64" rx="32" fill="white"/>
</clipPath>
</defs>
</svg>
