<svg width="33" height="32" viewBox="0 0 33 32" fill="none" xmlns="http://www.w3.org/2000/svg">
<g opacity="0.5">
<path d="M20.6426 14.7703C20.1812 14.7703 19.8002 14.93 19.4993 15.2493C19.1986 15.5689 19.0505 16.0029 19.0558 16.5509H22.2136C22.1984 15.9692 22.0405 15.527 21.7399 15.2241C21.4392 14.9213 21.0732 14.7703 20.6426 14.7703ZM13.2887 16.8225C12.9999 16.7223 12.3744 16.6727 11.4107 16.6727H9.70096V19.4764H11.6613C12.4238 19.4764 12.9079 19.4551 13.1132 19.412C13.4281 19.3549 13.6842 19.2152 13.8825 18.9934C14.08 18.7717 14.179 18.4747 14.179 18.1031C14.179 17.7882 14.103 17.5212 13.9503 17.3016C13.7975 17.082 13.5772 16.923 13.2887 16.8225Z" fill="white"/>
<path d="M16.0089 2C8.2771 2 2.00939 8.26819 2.00939 15.9999C2.00939 23.7317 8.27734 29.9999 16.0089 29.9999C23.7408 29.9999 30.0093 23.7315 30.0093 15.9999C30.009 8.26819 23.7408 2 16.0089 2ZM18.4927 11.2052H22.7234V12.2285H18.4927V11.2052ZM16.0357 19.5947C15.814 20.0452 15.5109 20.4056 15.127 20.6751C14.7431 20.944 14.2698 21.1101 13.7072 21.172C13.3541 21.2103 12.5029 21.234 11.1531 21.2439H7.58405V10.7567H11.7758C12.6056 10.7567 13.2243 10.7913 13.632 10.8605C14.0396 10.9298 14.4044 11.0738 14.7264 11.2931C15.0478 11.5124 15.3165 11.8046 15.531 12.1694C15.7455 12.5342 15.853 12.9431 15.853 13.396C15.853 13.8871 15.7205 14.3381 15.4557 14.7482C15.1909 15.1583 14.8321 15.4659 14.3792 15.671C15.0181 15.8571 15.5097 16.1745 15.853 16.6221C16.1962 17.0709 16.3678 17.5974 16.3678 18.203C16.3681 18.6802 16.2575 19.144 16.0357 19.5947ZM19.5295 19.1733C19.8554 19.5047 20.2613 19.6702 20.7474 19.6702C21.0783 19.6702 21.3564 19.5843 21.5823 19.4127C21.8074 19.241 21.9781 19.112 22.0933 18.7305L24.262 18.7177C24.2477 19.4197 23.5005 20.2132 22.9164 20.5966C22.3325 20.9806 21.6019 21.1725 20.7244 21.1725C19.3364 21.1725 18.3085 20.7414 17.6423 19.8779C17.1156 19.1863 16.8527 18.3134 16.8527 17.2597C16.8527 16.0007 17.1984 15.015 17.89 14.3021C18.5816 13.5892 19.4564 13.2326 20.514 13.2326C21.7021 13.2326 22.6392 13.6059 23.3262 14.3519C24.0127 15.0985 24.3407 16.2418 24.3109 17.7821H19.0185C19.0338 18.3776 19.2039 18.8414 19.5295 19.1733Z" fill="white"/>
<path d="M12.6269 14.8912C12.9895 14.8481 13.2742 14.7232 13.4816 14.5155C13.6891 14.3083 13.7927 14.0352 13.7927 13.6963C13.7927 13.3722 13.7034 13.1088 13.5247 12.9057C13.3461 12.7034 13.0798 12.5804 12.7271 12.5375C12.5172 12.5136 11.914 12.502 10.9171 12.502H9.7012V14.927H11.0888C11.914 14.927 12.4269 14.9152 12.6269 14.8912Z" fill="white"/>
</g>
</svg>
