<svg width="376" height="761" viewBox="0 0 376 761" fill="none" xmlns="http://www.w3.org/2000/svg">
<g clip-path="url(#clip0_0_3)">
<path d="M515.759 528.548C475.531 533.88 435.909 540.546 394.591 546.969C399.317 543.697 403.073 541.273 406.708 539.212C456.75 501.035 507.519 463.585 556.713 424.196C570.558 413.35 581.344 399.088 588.014 382.812C594.685 366.537 597.009 348.806 594.759 331.36C593.752 309.071 585.702 287.676 571.767 270.253C557.833 252.831 538.732 240.278 517.213 234.403C496.429 226.733 473.727 225.962 452.471 232.205C431.215 238.448 412.535 251.373 399.196 269.065C359.332 317.907 322.376 368.931 284.208 419.106L277.423 428.318C276.778 426.225 276.778 423.986 277.423 421.894C286.268 357.902 296.81 294.152 303.232 230.039C304.329 214.886 302.306 199.668 297.286 185.328C292.266 170.988 284.357 157.832 274.048 146.673C263.739 135.514 251.25 126.591 237.354 120.455C223.458 114.319 208.451 111.102 193.262 111.002C178.072 110.903 163.024 113.922 149.048 119.875C135.073 125.828 122.468 134.587 112.014 145.609C101.559 156.631 93.4781 169.683 88.2704 183.955C83.0628 198.228 80.8397 213.418 81.7384 228.585C83.9194 266.762 88.7661 304.818 93.8551 342.753C97.6113 371.355 103.185 399.594 108.395 430.378C104.639 425.045 102.337 421.651 99.7922 418.258C61.5034 368.204 24.4264 316.816 -15.1952 268.338C-27.6657 252.248 -44.6177 240.21 -63.9156 233.74C-83.2136 227.27 -103.994 226.657 -123.64 231.978C-143.813 235.712 -162.45 245.279 -177.245 259.496C-192.04 273.712 -202.344 291.955 -206.881 311.968C-213.18 331.963 -213.238 353.403 -207.047 373.432C-200.856 393.46 -188.71 411.126 -172.228 424.075C-124.488 463.343 -74.3247 499.702 -25.252 537.273C-21.1324 540.667 -15.9222 543.697 -9.01572 548.545L-16.2856 547.696C-80.1407 538.849 -143.996 528.547 -208.093 521.639C-223.217 520.42 -238.431 522.315 -252.794 527.208C-267.158 532.101 -280.365 539.889 -291.601 550.088C-302.837 560.288 -311.863 572.684 -318.121 586.51C-324.379 600.337 -327.736 615.299 -327.985 630.475C-328.234 645.65 -325.37 660.715 -319.569 674.739C-313.768 688.763 -305.153 701.448 -294.258 712.012C-283.363 722.575 -270.418 730.791 -256.223 736.153C-242.028 741.515 -226.884 743.909 -211.728 743.187C-168.229 740.399 -124.851 733.855 -81.5946 728.28C-58.3306 725.007 -35.3089 720.16 -12.166 716.16C-15.0947 719.49 -18.4807 722.386 -22.2229 724.765C-72.2648 763.063 -123.519 800.27 -171.985 840.023C-187.952 852.372 -199.919 869.161 -206.385 888.285C-212.852 907.409 -213.53 928.016 -208.335 947.524C-204.663 967.716 -195.154 986.388 -180.984 1001.23C-166.813 1016.07 -148.603 1026.43 -128.607 1031.03C-108.643 1037.47 -87.1849 1037.63 -67.1241 1031.5C-47.0634 1025.37 -29.3631 1013.23 -16.4069 996.73C23.6993 947.888 60.8976 896.379 99.4287 845.961C101.973 842.689 104.154 839.175 106.578 835.66C107.525 837.75 107.738 840.099 107.183 842.326C98.3382 906.196 87.7968 969.946 81.3749 1034.18C80.4326 1049.25 82.5752 1064.35 87.6716 1078.55C92.7679 1092.76 100.711 1105.78 111.013 1116.81C121.316 1127.84 133.761 1136.65 147.587 1142.7C161.413 1148.75 176.328 1151.92 191.42 1152C206.511 1152.08 221.46 1149.08 235.351 1143.18C249.242 1137.28 261.784 1128.61 272.206 1117.69C282.629 1106.78 290.714 1093.85 295.965 1079.69C301.217 1065.54 303.524 1050.47 302.747 1035.39C299.96 991.883 293.417 948.494 287.843 905.227C285.178 880.987 280.331 858.687 275.727 832.509C280.573 839.417 283.481 844.023 286.753 848.144C324.557 897.713 360.665 948.494 400.65 996.125C412.236 1009.73 426.954 1020.32 443.538 1026.97C460.122 1033.63 478.075 1036.15 495.851 1034.33C513.626 1032.5 530.692 1026.39 545.579 1016.5C560.466 1006.62 572.729 993.259 581.31 977.582C594.127 955.391 598.723 929.394 594.292 904.152C589.861 878.91 576.685 856.034 557.077 839.538C508.368 799.665 457.235 762.7 407.193 724.401C403.679 721.735 399.802 719.311 393.38 714.827L402.346 716.16C466.201 725.007 529.935 735.431 594.154 742.096C609.205 743.165 624.316 741.152 638.563 736.182C652.81 731.211 665.895 723.387 677.017 713.187C688.139 702.987 697.065 690.627 703.249 676.86C709.434 663.093 712.747 648.209 712.986 633.118C713.225 618.027 710.386 603.046 704.641 589.09C698.896 575.134 690.366 562.496 679.573 551.949C668.78 541.402 655.95 533.167 641.867 527.747C627.785 522.327 612.745 519.836 597.667 520.427C570.284 521.881 542.9 524.79 515.759 528.548Z" fill="white" fill-opacity="0.06"/>
<path d="M380.5 1102C330.532 1102 281.053 1092.16 234.889 1073.04C188.725 1053.91 146.779 1025.89 111.446 990.554C76.1132 955.221 48.0858 913.275 28.9639 867.111C9.84196 820.947 4.00346e-05 771.468 4.4403e-05 721.5C4.87713e-05 671.532 9.84198 622.053 28.9639 575.889C48.0858 529.725 76.1132 487.779 111.446 452.446C146.779 417.113 188.725 389.086 234.889 369.964C281.053 350.842 330.532 341 380.5 341L380.5 721.5L380.5 1102Z" fill="#E0FF00"/>
<path d="M380.5 1058.36C336.263 1058.36 292.459 1049.65 251.589 1032.72C210.719 1015.79 173.584 990.977 142.303 959.697C111.023 928.416 86.2099 891.281 69.281 850.411C52.3522 809.541 43.639 765.737 43.639 721.5C43.639 677.263 52.3522 633.459 69.2811 592.589C86.2099 551.719 111.023 514.584 142.303 483.303C173.584 452.023 210.719 427.21 251.589 410.281C292.459 393.352 336.263 384.639 380.5 384.639L380.5 721.5L380.5 1058.36Z" fill="#181818"/>
<path d="M380.5 1023.91C340.787 1023.91 301.463 1016.09 264.773 1000.89C228.083 985.693 194.745 963.417 166.664 935.336C138.583 907.255 116.307 873.917 101.11 837.227C85.9124 800.537 78.0903 761.213 78.0903 721.5C78.0903 681.787 85.9124 642.463 101.11 605.773C116.307 569.083 138.583 535.746 166.664 507.664C194.745 479.583 228.083 457.308 264.773 442.11C301.463 426.913 340.787 419.091 380.5 419.091L380.5 721.5L380.5 1023.91Z" fill="#E0FF00"/>
<path d="M380.5 989.075C345.362 989.075 310.567 982.154 278.104 968.707C245.64 955.26 216.143 935.551 191.296 910.704C166.45 885.857 146.74 856.36 133.293 823.897C119.846 791.433 112.925 756.638 112.925 721.5C112.925 686.362 119.846 651.567 133.293 619.104C146.74 586.64 166.45 557.143 191.296 532.296C216.143 507.449 245.64 487.74 278.104 474.293C310.567 460.846 345.362 453.925 380.5 453.925L380.5 721.5L380.5 989.075Z" fill="#181818"/>
<path d="M380.5 955.389C349.785 955.389 319.371 949.339 290.994 937.585C262.618 925.831 236.834 908.603 215.115 886.884C193.397 865.166 176.169 839.382 164.415 811.005C152.661 782.629 146.611 752.215 146.611 721.5C146.611 690.785 152.661 660.371 164.415 631.995C176.169 603.618 193.397 577.834 215.115 556.116C236.834 534.397 262.618 517.169 290.994 505.415C319.371 493.661 349.785 487.611 380.5 487.611L380.5 721.5L380.5 955.389Z" fill="#E0FF00"/>
<path d="M380.5 923.617C353.958 923.617 327.676 918.389 303.154 908.232C278.632 898.074 256.351 883.186 237.582 864.418C218.814 845.65 203.926 823.369 193.769 798.847C183.612 774.325 178.384 748.042 178.384 721.5C178.384 694.958 183.612 668.675 193.769 644.153C203.926 619.631 218.814 597.35 237.582 578.582C256.351 559.814 278.632 544.926 303.154 534.769C327.676 524.611 353.958 519.383 380.5 519.383L380.5 721.5L380.5 923.617Z" fill="#181818"/>
<path d="M380.5 890.314C358.331 890.314 336.379 885.947 315.898 877.463C295.417 868.98 276.807 856.545 261.131 840.869C245.455 825.194 233.021 806.584 224.537 786.102C216.053 765.621 211.687 743.669 211.687 721.5C211.687 699.331 216.053 677.379 224.537 656.898C233.021 636.417 245.455 617.807 261.131 602.131C276.807 586.455 295.417 574.021 315.898 565.537C336.379 557.053 358.331 552.687 380.5 552.687L380.5 721.5L380.5 890.314Z" fill="#E0FF00"/>
<path d="M380.5 858.159C362.554 858.159 344.783 854.624 328.203 847.756C311.623 840.888 296.558 830.822 283.868 818.132C271.178 805.442 261.112 790.377 254.244 773.797C247.376 757.217 243.841 739.446 243.841 721.5C243.841 703.554 247.376 685.783 254.244 669.203C261.112 652.623 271.178 637.558 283.868 624.868C296.558 612.178 311.623 602.112 328.203 595.244C344.783 588.376 362.554 584.842 380.5 584.842L380.5 721.5L380.5 858.159Z" fill="#181818"/>
<path d="M380.5 825.621C366.827 825.621 353.288 822.928 340.655 817.695C328.023 812.463 316.544 804.793 306.876 795.125C297.207 785.456 289.538 773.978 284.305 761.345C279.073 748.713 276.38 735.173 276.38 721.5C276.38 707.827 279.073 694.287 284.305 681.655C289.538 669.022 297.207 657.544 306.876 647.876C316.544 638.207 328.023 630.538 340.655 625.305C353.288 620.073 366.827 617.379 380.5 617.379L380.5 721.5L380.5 825.621Z" fill="#E0FF00"/>
<path d="M380.5 795.38C370.798 795.38 361.191 793.469 352.228 789.756C343.264 786.043 335.12 780.601 328.259 773.741C321.399 766.88 315.957 758.736 312.244 749.772C308.531 740.809 306.62 731.202 306.62 721.5C306.62 711.798 308.531 702.191 312.244 693.227C315.957 684.264 321.399 676.119 328.259 669.259C335.12 662.399 343.264 656.957 352.228 653.244C361.191 649.531 370.798 647.62 380.5 647.62L380.5 721.5L380.5 795.38Z" fill="#181818"/>
<path d="M380.5 765.904C374.669 765.904 368.894 764.756 363.507 762.524C358.12 760.293 353.225 757.022 349.101 752.899C344.978 748.775 341.707 743.88 339.476 738.493C337.244 733.105 336.095 727.331 336.095 721.5C336.095 715.669 337.244 709.894 339.476 704.507C341.707 699.12 344.978 694.225 349.101 690.101C353.225 685.978 358.12 682.707 363.507 680.476C368.894 678.244 374.669 677.095 380.5 677.095L380.5 721.5L380.5 765.904Z" fill="#E0FF00"/>
</g>
<defs>
<clipPath id="clip0_0_3">
<rect width="376" height="761" rx="26.8571" fill="white"/>
</clipPath>
</defs>
</svg>
