<svg width="105" height="106" viewBox="0 0 105 106" fill="none" xmlns="http://www.w3.org/2000/svg">
<path d="M53.1888 50.2079C75.5052 50.2079 93.5963 42.1025 93.5963 32.104C93.5963 22.1054 75.5052 14 53.1888 14C30.8723 14 12.7812 22.1054 12.7812 32.104C12.7812 42.1025 30.8723 50.2079 53.1888 50.2079Z" stroke="#FFCC02" stroke-width="6.97778" stroke-miterlimit="10"/>
<path d="M52.4466 90.85C74.7631 90.85 92.8541 82.7446 92.8541 72.7461C92.8541 62.7475 74.7631 54.6421 52.4466 54.6421C30.1301 54.6421 12.0391 62.7475 12.0391 72.7461C12.0391 82.7446 30.1301 90.85 52.4466 90.85Z" stroke="#FFCC02" stroke-width="6.97778" stroke-miterlimit="10"/>
<path d="M52.4075 70.6401C74.724 70.6401 92.8151 62.5346 92.8151 52.5361C92.8151 42.5376 74.724 34.4321 52.4075 34.4321C30.0911 34.4321 12 42.5376 12 52.5361C12 62.5346 30.0911 70.6401 52.4075 70.6401Z" stroke="#FFCC02" stroke-width="6.97778" stroke-miterlimit="10"/>
</svg>
