<svg width="79" height="66" viewBox="0 0 79 66" fill="none" xmlns="http://www.w3.org/2000/svg">
<path d="M0 33L8.64165 54.4162L22.8678 36.2242L0 33ZM79 33L70.3583 11.5837L56.1322 29.7757L79 33ZM12.9796 45.6883C18.3426 49.6888 24.5788 54.1149 30.4382 57.7263C36.2141 61.2864 41.8926 64.2284 46.0591 65.0106C48.0917 65.3923 50.3943 65.3805 52.0295 63.9043C53.714 62.3835 53.9518 59.9985 53.548 57.4964C52.7334 52.4482 48.9017 44.2691 41.196 31.94L37.804 34.0599C45.5367 46.4323 48.9292 53.9817 49.5991 58.1336C49.9376 60.2316 49.4827 60.8146 49.349 60.9352C49.1659 61.1006 48.5247 61.4037 46.7972 61.0793C43.4435 60.4497 38.3368 57.896 32.537 54.3212C26.8206 50.7979 20.6905 46.45 15.3713 42.4821L12.9796 45.6883ZM41.196 31.94C33.4633 19.5676 30.0708 12.0182 29.4009 7.86629C29.0624 5.76833 29.5173 5.18533 29.651 5.06466C29.8341 4.89935 30.4753 4.59622 32.2028 4.92056C35.5565 5.55024 40.6632 8.10392 46.463 11.6787C52.1794 15.202 58.3095 19.5499 63.6287 23.5178L66.0204 20.3116C60.6574 16.3111 54.4212 11.885 48.5618 8.27356C42.7859 4.71355 37.1074 1.77153 32.9409 0.989254C30.9083 0.607617 28.6056 0.619447 26.9705 2.0956C25.286 3.6164 25.0482 6.00138 25.452 8.50349C26.2666 13.5517 30.0983 21.7308 37.804 34.0599L41.196 31.94Z" fill="#FFE006"/>
</svg>
