<svg width="32" height="32" viewBox="0 0 32 32" fill="none" xmlns="http://www.w3.org/2000/svg">
<g opacity="0.5">
<path d="M7.185 15.9887V16.0135C7.18459 18.0754 7.90907 20.0719 9.23175 21.6537C9.92525 20.5762 12.3672 17.2097 16.557 15.8555C16.5862 15.8455 16.6157 15.836 16.6455 15.8265C16.4798 15.4627 16.3068 15.1023 16.1267 14.7455C12.1592 15.8982 8.33 15.9892 7.23675 15.9892C7.219 15.9887 7.20175 15.9887 7.185 15.9887ZM15.1282 12.893C13.8267 10.6155 12.4915 8.71847 12.0662 8.12722C9.75925 9.28272 8.0545 11.4152 7.44025 13.9072C8.531 13.898 11.615 13.7855 15.1282 12.893ZM21.1917 17.169C20.6635 17.169 20.1437 17.2022 19.6425 17.268C20.593 19.942 21.0652 22.1612 21.2412 23.096C23.0275 21.7692 24.2595 19.8052 24.6652 17.629C24.1567 17.4875 22.8305 17.169 21.1917 17.169ZM14.3045 7.36322C14.8345 8.09547 16.137 9.95548 17.372 12.1955C19.945 11.186 21.2527 9.78173 21.6677 9.26848C20.0817 7.93189 18.0743 7.19889 16.0002 7.19897C15.4287 7.19897 14.86 7.25422 14.3045 7.36322ZM23.0155 10.6837C22.472 11.3275 21.0015 12.8275 18.2947 13.9837C18.4659 14.3425 18.6299 14.7046 18.7865 15.07C18.8282 15.169 18.8697 15.2672 18.9105 15.3657C19.5515 15.2955 20.1959 15.261 20.8407 15.2625C22.6147 15.2625 24.135 15.4992 24.8052 15.6225C24.7227 13.8329 24.0985 12.1107 23.0155 10.6837ZM19.26 24.2027C19.088 23.251 18.5717 20.747 17.4595 17.8005C13.0595 19.389 11.2035 22.2827 10.7555 23.0937C12.2815 24.229 14.09 24.828 16 24.828C17.1285 24.828 18.224 24.6177 19.26 24.2027Z" fill="white"/>
<path d="M16 1.99731C8.27875 1.99731 1.99725 8.27881 1.99725 15.9998C1.99725 23.7211 8.27875 30.0028 16 30.0028C23.721 30.0028 30.0025 23.7211 30.0025 15.9998C30.0025 8.27881 23.721 1.99731 16 1.99731ZM16 26.8621C10.0108 26.8621 5.138 21.9891 5.138 15.9993C5.138 10.0103 10.0108 5.13781 16 5.13781C21.9893 5.13781 26.862 10.0103 26.862 15.9993C26.862 21.9891 21.9893 26.8621 16 26.8621Z" fill="white"/>
</g>
</svg>
