<svg width="32" height="32" viewBox="0 0 32 32" fill="none" xmlns="http://www.w3.org/2000/svg">
<g opacity="0.5">
<path d="M16.0001 1.99731C8.27883 1.99731 1.99753 8.27886 1.99753 15.9999C1.99753 23.7212 8.27883 30.003 16.0001 30.003C23.7209 30.003 30.0027 23.7212 30.0027 15.9999C30.0027 8.27886 23.7209 1.99731 16.0001 1.99731ZM19.9577 10.8369C19.9577 10.9032 19.9313 10.9668 19.8844 11.0137C19.8376 11.0605 19.774 11.0869 19.7077 11.0869L18.1159 11.0879C17.0656 11.0879 16.8736 11.4969 16.8736 12.3024V13.9734H19.6037C19.6754 13.9734 19.7439 14.0044 19.7912 14.0584C19.8384 14.1124 19.8604 14.1842 19.8517 14.2554L19.4629 17.2637C19.4551 17.324 19.4257 17.3793 19.38 17.4195C19.3344 17.4596 19.2757 17.4817 19.2149 17.4817H16.8736V24.9515C16.8736 25.0178 16.8473 25.0814 16.8004 25.1283C16.7535 25.1752 16.6899 25.2015 16.6236 25.2015H13.5176C13.4513 25.2015 13.3877 25.1752 13.3408 25.1283C13.294 25.0814 13.2676 25.0178 13.2676 24.9515V17.4817H10.9188C10.8525 17.4817 10.789 17.4553 10.7421 17.4085C10.6952 17.3616 10.6688 17.298 10.6688 17.2317V14.2234C10.6688 14.1571 10.6952 14.0935 10.7421 14.0466C10.789 13.9997 10.8525 13.9734 10.9188 13.9734H13.2676V12.0046C13.2676 9.39712 14.8456 7.77761 17.3864 7.77761C18.4787 7.77761 19.4439 7.85886 19.7404 7.89811C19.8005 7.90605 19.8557 7.93555 19.8956 7.98113C19.9356 8.0267 19.9576 8.08525 19.9577 8.14586V10.8369Z" fill="white"/>
</g>
</svg>
