<svg width="263" height="432" viewBox="0 0 263 432" fill="none" xmlns="http://www.w3.org/2000/svg">
<g clip-path="url(#clip0_1427_1931)">
<g clip-path="url(#clip1_1427_1931)">
<path fill-rule="evenodd" clip-rule="evenodd" d="M174.052 211.262C174.153 213.334 174.203 215.42 174.203 217.517C174.203 218.77 174.185 220.018 174.149 221.262H263.471V211.262H174.052ZM141.432 302.785C139.197 305.261 136.867 307.648 134.446 309.942L196.726 372.222L203.797 365.15L141.432 302.785ZM51.8953 344.729C50.2366 344.793 48.5697 344.826 46.8953 344.826C45.2209 344.826 43.554 344.793 41.8953 344.729V432.471H51.8953V344.729ZM-40.5427 310.049C-42.9658 307.758 -45.299 305.373 -47.5365 302.9L-109.43 364.784L-102.36 371.856L-40.5427 310.049ZM-80.3588 221.262C-80.3948 220.018 -80.4128 218.77 -80.4128 217.517C-80.4128 215.42 -80.3621 213.334 -80.2618 211.262H-169V221.262H-80.3588ZM-45.529 129.966C-43.2355 127.546 -40.8479 125.216 -38.3721 122.981L-101.994 59.3598L-109.065 66.4309L-45.529 129.966ZM41.8953 90.3057C43.554 90.2416 45.2209 90.2093 46.8953 90.2093C48.5697 90.2093 50.2366 90.2416 51.8953 90.3057V0H41.8953V90.3057ZM203.483 66.0649L139.442 130.095C137.151 127.672 134.767 125.338 132.294 123.1L196.413 58.9932L203.483 66.0649Z" fill="#1E1E1E"/>
</g>
</g>
<defs>
<clipPath id="clip0_1427_1931">
<rect width="263" height="432" fill="white"/>
</clipPath>
<clipPath id="clip1_1427_1931">
<rect width="432.471" height="432.471" fill="white" transform="translate(-169)"/>
</clipPath>
</defs>
</svg>
