<svg width="32" height="32" viewBox="0 0 32 32" fill="none" xmlns="http://www.w3.org/2000/svg">
<g opacity="0.5">
<path d="M21.6846 11.6995C21.5631 11.3849 21.3771 11.0992 21.1385 10.8608C20.8998 10.6225 20.6139 10.4367 20.2992 10.3156C19.8658 10.1551 19.408 10.0702 18.9458 10.0647C18.1773 10.0297 17.9469 10.021 16 10.021C14.0531 10.021 13.8227 10.0297 13.0542 10.0647C12.5915 10.07 12.1333 10.1549 11.6994 10.3156C11.3847 10.4371 11.099 10.6231 10.8607 10.8617C10.6223 11.1003 10.4366 11.3862 10.3154 11.701C10.1549 12.1344 10.0701 12.5922 10.0646 13.0543C10.0296 13.8229 10.0208 14.0533 10.0208 16.0001C10.0208 17.947 10.0296 18.1774 10.0646 18.946C10.0699 19.4086 10.1547 19.8669 10.3154 20.3008C10.4369 20.6154 10.623 20.9011 10.8616 21.1395C11.1002 21.3778 11.3861 21.5636 11.7008 21.6847C12.1343 21.8452 12.592 21.9301 13.0542 21.9356C13.8227 21.9706 14.0531 21.9793 16 21.9793C17.9469 21.9793 18.1773 21.9706 18.9458 21.9356C19.4085 21.9303 19.8668 21.8454 20.3006 21.6847C20.6153 21.5632 20.901 21.3772 21.1393 21.1386C21.3777 20.9 21.5634 20.6141 21.6846 20.2993C21.8451 19.8659 21.93 19.4081 21.9354 18.946C21.9704 18.1774 21.9792 17.947 21.9792 16.0001C21.9792 14.0533 21.9704 13.8229 21.9354 13.0543C21.9301 12.5917 21.8453 12.1334 21.6846 11.6995ZM16 19.7451C15.2593 19.7451 14.5353 19.5255 13.9194 19.114C13.3035 18.7025 12.8235 18.1176 12.5401 17.4333C12.2566 16.749 12.1825 15.996 12.327 15.2695C12.4715 14.5431 12.8281 13.8758 13.3519 13.352C13.8756 12.8283 14.5429 12.4716 15.2694 12.3271C15.9959 12.1826 16.7489 12.2568 17.4332 12.5402C18.1175 12.8237 18.7024 13.3037 19.1139 13.9195C19.5254 14.5354 19.745 15.2595 19.745 16.0001C19.745 16.9934 19.3504 17.9459 18.6481 18.6483C17.9458 19.3506 16.9932 19.7451 16 19.7451ZM19.8923 12.9829C19.7192 12.9829 19.5501 12.9315 19.4062 12.8354C19.2623 12.7393 19.1501 12.6026 19.0839 12.4427C19.0177 12.2828 19.0004 12.1069 19.0341 11.9372C19.0679 11.7674 19.1512 11.6115 19.2736 11.4891C19.396 11.3668 19.5519 11.2834 19.7216 11.2497C19.8913 11.2159 20.0673 11.2332 20.2272 11.2995C20.387 11.3657 20.5237 11.4779 20.6198 11.6217C20.716 11.7656 20.7673 11.9348 20.7673 12.1079C20.7673 12.3399 20.6751 12.5625 20.511 12.7266C20.3469 12.8907 20.1244 12.9829 19.8923 12.9829Z" fill="white"/>
<path d="M16 18.4309C17.3426 18.4309 18.431 17.3425 18.431 15.9999C18.431 14.6573 17.3426 13.5688 16 13.5688C14.6574 13.5688 13.569 14.6573 13.569 15.9999C13.569 17.3425 14.6574 18.4309 16 18.4309Z" fill="white"/>
<path d="M16 2C13.2311 2 10.5243 2.82108 8.22202 4.35942C5.91973 5.89776 4.12532 8.08425 3.06569 10.6424C2.00607 13.2006 1.72882 16.0155 2.26901 18.7312C2.80921 21.447 4.14258 23.9415 6.10051 25.8994C8.05845 27.8574 10.553 29.1907 13.2687 29.7309C15.9845 30.2711 18.7994 29.9939 21.3576 28.9342C23.9157 27.8746 26.1022 26.0802 27.6406 23.7779C29.1789 21.4756 30 18.7689 30 16C30 12.2869 28.525 8.726 25.8995 6.1005C23.274 3.47499 19.713 2 16 2ZM23.2479 19.007C23.2354 19.6117 23.1205 20.2098 22.9081 20.776C22.7208 21.2603 22.4344 21.7001 22.0673 22.0672C21.7001 22.4344 21.2603 22.7208 20.776 22.9081C20.2098 23.1205 19.6117 23.2354 19.0071 23.2479C18.2283 23.2829 17.9804 23.2916 16 23.2916C14.0196 23.2916 13.7717 23.2829 12.9929 23.2479C12.3883 23.2354 11.7902 23.1205 11.224 22.9081C10.7397 22.7208 10.2999 22.4344 9.93272 22.0672C9.56556 21.7001 9.27917 21.2603 9.09188 20.776C8.87949 20.2098 8.7646 19.6117 8.75209 19.007C8.71709 18.2283 8.70834 17.9804 8.70834 16C8.70834 14.0196 8.71709 13.7716 8.75209 12.9929C8.7646 12.3883 8.87949 11.7902 9.09188 11.2239C9.27917 10.7397 9.56556 10.2998 9.93272 9.93269C10.2999 9.56554 10.7397 9.27914 11.224 9.09186C11.7902 8.87947 12.3883 8.76458 12.9929 8.75207C13.7717 8.71707 14.0196 8.70832 16 8.70832C17.9804 8.70832 18.2283 8.71707 19.0071 8.75207C19.6117 8.76458 20.2098 8.87947 20.776 9.09186C21.2603 9.27914 21.7001 9.56554 22.0673 9.93269C22.4344 10.2998 22.7208 10.7397 22.9081 11.2239C23.1205 11.7902 23.2354 12.3883 23.2479 12.9929C23.2829 13.7716 23.2917 14.0196 23.2917 16C23.2917 17.9804 23.2829 18.2283 23.2479 19.007Z" fill="white"/>
</g>
</svg>
