<svg width="105" height="106" viewBox="0 0 105 106" fill="none" xmlns="http://www.w3.org/2000/svg">
<circle cx="52.5001" cy="52.5" r="42.7793" stroke="#8F51FC" stroke-width="8" stroke-miterlimit="10"/>
<path d="M82.8959 23.23C78.9043 27.156 74.1655 30.2703 68.9502 32.3951C63.7349 34.5199 58.1451 35.6135 52.5001 35.6135C46.8551 35.6135 41.2653 34.5199 36.05 32.3951C30.8347 30.2703 26.0959 27.156 22.1043 23.23" stroke="#8F51FC" stroke-width="8" stroke-miterlimit="10"/>
<path d="M82.8959 81.77C78.9043 77.844 74.1655 74.7297 68.9502 72.6049C63.7349 70.4801 58.1451 69.3865 52.5001 69.3865C46.8551 69.3865 41.2653 70.4801 36.05 72.6049C30.8347 74.7297 26.0959 77.844 22.1043 81.77" stroke="#8F51FC" stroke-width="8" stroke-miterlimit="10"/>
<ellipse cx="52.5001" cy="52.5" rx="23.6412" ry="42.7793" stroke="#8F51FC" stroke-width="8" stroke-miterlimit="10"/>
<path d="M52.5001 9.7207V95.2793" stroke="#8F51FC" stroke-width="8" stroke-miterlimit="10"/>
<path d="M95.2794 52.5L9.72086 52.5" stroke="#8F51FC" stroke-width="8" stroke-miterlimit="10"/>
</svg>
