<svg width="32" height="32" viewBox="0 0 32 32" fill="none" xmlns="http://www.w3.org/2000/svg">
<g opacity="0.5">
<path d="M17.6329 14.2259H17.6541V14.1926L17.6329 14.2259ZM17.6329 14.2259H17.6541V14.1926L17.6329 14.2259ZM17.6329 14.2259H17.6541V14.1926L17.6329 14.2259ZM17.6329 14.2259H17.6541V14.1926L17.6329 14.2259ZM17.6329 14.2259H17.6541V14.1926L17.6329 14.2259ZM17.6329 14.2259H17.6541V14.1926L17.6329 14.2259ZM17.6329 14.2259H17.6541V14.1926L17.6329 14.2259ZM17.6329 14.2259H17.6541V14.1926L17.6329 14.2259ZM17.6329 14.2259H17.6541V14.1926L17.6329 14.2259ZM17.6329 14.2259H17.6541V14.1926L17.6329 14.2259ZM17.6329 14.2259H17.6541V14.1926L17.6329 14.2259ZM17.6329 14.2259H17.6541V14.1926L17.6329 14.2259ZM17.6329 14.2259H17.6541V14.1926L17.6329 14.2259ZM17.6329 14.2259H17.6541V14.1926L17.6329 14.2259ZM17.6329 14.2259H17.6541V14.1926L17.6329 14.2259ZM17.6329 14.2259H17.6541V14.1926L17.6329 14.2259ZM16.256 2C13.5225 2 10.8504 2.81057 8.57762 4.32921C6.30482 5.84785 4.53339 8.00634 3.48733 10.5317C2.44128 13.0571 2.16758 15.836 2.70085 18.517C3.23413 21.1979 4.55042 23.6605 6.48328 25.5934C8.41614 27.5263 10.8788 28.8426 13.5597 29.3758C16.2407 29.9091 19.0195 29.6354 21.5449 28.5894C24.0703 27.5433 26.2288 25.7719 27.7475 23.4991C29.2661 21.2263 30.0767 18.5542 30.0767 15.8207C30.0727 12.1565 28.6153 8.64343 26.0243 6.05241C23.4333 3.4614 19.9202 2.00401 16.256 2ZM12.8001 22.0426C12.7993 22.1039 12.7744 22.1624 12.7308 22.2054C12.6871 22.2484 12.6283 22.2726 12.567 22.2726H9.90398C9.84298 22.2726 9.78448 22.2483 9.74135 22.2052C9.69822 22.1621 9.67399 22.1036 9.67399 22.0426V13.0941C9.67359 13.0636 9.67924 13.0334 9.69062 13.0051C9.702 12.9769 9.71887 12.9512 9.74027 12.9295C9.76167 12.9078 9.78716 12.8906 9.81526 12.8789C9.84336 12.8671 9.87352 12.8611 9.90398 12.8611H12.567C12.5976 12.8611 12.6279 12.8671 12.6562 12.8788C12.6845 12.8905 12.7102 12.9077 12.7318 12.9293C12.7534 12.951 12.7706 12.9766 12.7823 13.0049C12.794 13.0332 12.8001 13.0635 12.8001 13.0941V22.0426ZM11.1417 11.6657C10.8107 11.6657 10.4872 11.5676 10.212 11.3837C9.93675 11.1998 9.72225 10.9384 9.59559 10.6326C9.46893 10.3268 9.43579 9.99036 9.50036 9.66574C9.56493 9.34111 9.72432 9.04292 9.95836 8.80888C10.1924 8.57484 10.4906 8.41545 10.8152 8.35088C11.1398 8.28631 11.4763 8.31945 11.7821 8.44611C12.0879 8.57278 12.3493 8.78727 12.5332 9.06248C12.717 9.33768 12.8152 9.66123 12.8152 9.99222C12.8156 10.2121 12.7726 10.4299 12.6886 10.6331C12.6047 10.8363 12.4814 11.021 12.3259 11.1764C12.1704 11.3319 11.9858 11.4552 11.7826 11.5391C11.5794 11.6231 11.3616 11.6661 11.1417 11.6657ZM24.0697 22.0426C24.0689 22.1039 24.044 22.1624 24.0004 22.2054C23.9567 22.2484 23.8979 22.2726 23.8366 22.2726H21.1736C21.1434 22.2726 21.1135 22.2666 21.0856 22.2551C21.0577 22.2435 21.0323 22.2266 21.011 22.2052C20.9896 22.1839 20.9727 22.1585 20.9611 22.1306C20.9495 22.1027 20.9436 22.0728 20.9436 22.0426V17.2339C20.9436 15.969 20.4927 15.1156 19.3609 15.1156C19.0082 15.1176 18.6648 15.2285 18.3776 15.4333C18.0905 15.6381 17.8737 15.9267 17.757 16.2595C17.6772 16.5055 17.6424 16.7638 17.6541 17.0221V22.0426C17.6541 22.1044 17.6296 22.1637 17.5859 22.2074C17.5422 22.2511 17.4829 22.2756 17.4211 22.2756H14.758C14.7276 22.2756 14.6974 22.2696 14.6693 22.2578C14.6412 22.2461 14.6157 22.2289 14.5943 22.2072C14.5729 22.1855 14.556 22.1598 14.5447 22.1315C14.5333 22.1033 14.5276 22.073 14.528 22.0426C14.528 20.7655 14.5613 14.5648 14.528 13.1062C14.5276 13.0757 14.5333 13.0455 14.5447 13.0172C14.556 12.989 14.5729 12.9633 14.5943 12.9416C14.6157 12.9199 14.6412 12.9027 14.6693 12.891C14.6974 12.8792 14.7276 12.8732 14.758 12.8732H17.415C17.4457 12.8728 17.4762 12.8785 17.5047 12.8901C17.5331 12.9016 17.559 12.9188 17.5807 12.9405C17.6024 12.9622 17.6196 12.9881 17.6311 13.0165C17.6427 13.045 17.6485 13.0755 17.648 13.1062V14.2047C17.9311 13.7133 18.3434 13.3088 18.84 13.0352C19.3367 12.7615 19.8988 12.6291 20.4654 12.6523C22.5202 12.6523 24.0636 13.9959 24.0636 16.889L24.0697 22.0426ZM17.6541 14.235V14.2017L17.6329 14.235H17.6541ZM17.6329 14.235H17.6541V14.2017L17.6329 14.235ZM17.6329 14.235H17.6541V14.2017L17.6329 14.235ZM17.6329 14.235H17.6541V14.2017L17.6329 14.235ZM17.6329 14.235H17.6541V14.2017L17.6329 14.235ZM17.6329 14.235H17.6541V14.2017L17.6329 14.235ZM17.6329 14.235H17.6541V14.2017L17.6329 14.235ZM17.6329 14.235H17.6541V14.2017L17.6329 14.235ZM17.6329 14.235H17.6541V14.2017L17.6329 14.235ZM17.6329 14.235H17.6541V14.2017L17.6329 14.235ZM17.6329 14.235H17.6541V14.2017L17.6329 14.235ZM17.6329 14.235H17.6541V14.2017L17.6329 14.235ZM17.6329 14.235H17.6541V14.2017L17.6329 14.235ZM17.6329 14.235H17.6541V14.2017L17.6329 14.235ZM17.6329 14.235H17.6541V14.2017L17.6329 14.235Z" fill="white"/>
</g>
</svg>
