<svg width="86" height="86" viewBox="0 0 86 86" fill="none" xmlns="http://www.w3.org/2000/svg">
<g clip-path="url(#clip0_1411_1074)">
<path d="M42.9947 82.6374C64.8885 82.6374 82.6369 64.889 82.6369 42.9952C82.6369 21.1014 64.8885 3.35303 42.9947 3.35303C21.101 3.35303 3.35254 21.1014 3.35254 42.9952C3.35254 64.889 21.101 82.6374 42.9947 82.6374Z" stroke="#E0FF00" stroke-width="4" stroke-miterlimit="10"/>
<path d="M42.9951 56.8096C50.6246 56.8096 56.8095 50.6247 56.8095 42.9952C56.8095 35.3657 50.6246 29.1808 42.9951 29.1808C35.3656 29.1808 29.1807 35.3657 29.1807 42.9952C29.1807 50.6247 35.3656 56.8096 42.9951 56.8096Z" stroke="#E0FF00" stroke-width="4" stroke-miterlimit="10"/>
<path d="M43 43L85 1" stroke="#E0FF00" stroke-width="4" stroke-miterlimit="10"/>
</g>
<defs>
<clipPath id="clip0_1411_1074">
<rect width="86" height="86" fill="white"/>
</clipPath>
</defs>
</svg>
