<svg width="382" height="277" viewBox="0 0 382 277" fill="none" xmlns="http://www.w3.org/2000/svg">
<g style="mix-blend-mode:hard-light">
<path d="M264.865 277C339.167 277 382 241.06 382 167.427L382 -3.05176e-05L213.291 -1.57685e-05L213.291 153.402L287.593 153.402L287.593 168.304C287.593 190.218 278.851 195.478 260.494 195.478L217.661 195.478L217.661 277L264.865 277ZM51.5744 277C125.876 277 169.584 241.06 169.584 167.427L169.584 -1.19475e-05L6.30147e-06 2.87792e-06L1.97123e-05 153.402L74.3021 153.402L74.3021 168.304C74.3021 190.218 66.4348 195.478 48.0778 195.478L5.24484 195.478L5.24484 277L51.5744 277Z" fill="#E0FF00"/>
</g>
</svg>
