<svg width="32" height="32" viewBox="0 0 32 32" fill="none" xmlns="http://www.w3.org/2000/svg">
<g opacity="0.5">
<path fill-rule="evenodd" clip-rule="evenodd" d="M30 16C30 23.732 23.732 30 16 30C8.26801 30 2 23.732 2 16C2 8.26801 8.26801 2 16 2C23.732 2 30 8.26801 30 16ZM14.0678 16.8361L7.37598 7.88867H12.5335L16.9206 13.7545L22.3501 7.88867H23.8657L17.5977 14.6602L24.6662 24.1108H19.5087L14.7452 17.7416L8.84948 24.1108H7.33381L14.0678 16.8361ZM11.9742 9.005H9.60485L20.0677 22.9945H22.437L11.9742 9.005Z" fill="white"/>
<path d="M7.37598 7.88867V7.87413H7.34694L7.36433 7.89738L7.37598 7.88867ZM14.0678 16.8361L14.0785 16.846L14.0867 16.8371L14.0795 16.8274L14.0678 16.8361ZM12.5335 7.88867L12.553 7.87413H12.5335V7.88867ZM16.9206 13.7545L16.9089 13.7632L16.9194 13.7772L16.9312 13.7643L16.9206 13.7545ZM22.3501 7.88867V7.86726L22.3394 7.87879L22.3501 7.88867ZM23.8657 7.88867L23.8764 7.89855L23.899 7.87413H23.8657V7.88867ZM17.5977 14.6602L17.587 14.6503L17.5788 14.6592L17.5861 14.6689L17.5977 14.6602ZM24.6662 24.1108V24.1254H24.6952L24.6778 24.1021L24.6662 24.1108ZM19.5087 24.1108L19.4892 24.1254H19.5087V24.1108ZM14.7452 17.7416L14.7569 17.7329L14.7464 17.7189L14.7346 17.7317L14.7452 17.7416ZM8.84948 24.1108V24.1323L8.86015 24.1207L8.84948 24.1108ZM7.33381 24.1108L7.32313 24.101L7.30053 24.1254H7.33381V24.1108ZM9.60485 9.005V8.99045H9.57581L9.5932 9.01371L9.60485 9.005ZM11.9742 9.005L11.9936 8.99045H11.9742V9.005ZM20.0677 22.9945L20.0482 23.0091H20.0677V22.9945ZM22.437 22.9945V23.0091H22.4661L22.4487 22.9858L22.437 22.9945ZM16 30.0146C23.74 30.0146 30.0145 23.74 30.0145 16H29.9855C29.9855 23.724 23.724 29.9855 16 29.9855V30.0146ZM1.98546 16C1.98546 23.74 8.25998 30.0146 16 30.0146V29.9855C8.27605 29.9855 2.01454 23.724 2.01454 16H1.98546ZM16 1.98546C8.25998 1.98546 1.98546 8.25998 1.98546 16H2.01454C2.01454 8.27605 8.27605 2.01454 16 2.01454V1.98546ZM30.0145 16C30.0145 8.25998 23.74 1.98546 16 1.98546V2.01454C23.724 2.01454 29.9855 8.27605 29.9855 16H30.0145ZM7.36433 7.89738L14.0562 16.8448L14.0795 16.8274L7.38763 7.87996L7.36433 7.89738ZM12.5335 7.87413H7.37598V7.90321H12.5335V7.87413ZM16.9322 13.7458L12.5452 7.87996L12.5219 7.89738L16.9089 13.7632L16.9322 13.7458ZM22.3394 7.87879L16.9099 13.7446L16.9312 13.7643L22.3607 7.89855L22.3394 7.87879ZM23.8657 7.87413H22.3501V7.90321H23.8657V7.87413ZM17.6084 14.6701L23.8764 7.89855L23.8551 7.87879L17.587 14.6503L17.6084 14.6701ZM24.6778 24.1021L17.6093 14.6515L17.5861 14.6689L24.6546 24.1196L24.6778 24.1021ZM19.5087 24.1254H24.6662V24.0963H19.5087V24.1254ZM14.7336 17.7503L19.497 24.1196L19.5203 24.1021L14.7569 17.7329L14.7336 17.7503ZM8.86015 24.1207L14.7559 17.7515L14.7346 17.7317L8.83881 24.101L8.86015 24.1207ZM7.33381 24.1254H8.84948V24.0963H7.33381V24.1254ZM14.0571 16.8263L7.32313 24.101L7.34448 24.1207L14.0785 16.846L14.0571 16.8263ZM9.60485 9.01954H11.9742V8.99045H9.60485V9.01954ZM20.0793 22.9858L9.61649 8.99629L9.5932 9.01371L20.056 23.0032L20.0793 22.9858ZM22.437 22.98H20.0677V23.0091H22.437V22.98ZM11.9626 9.01371L22.4254 23.0032L22.4487 22.9858L11.9858 8.99629L11.9626 9.01371Z" fill="white"/>
</g>
</svg>
