<svg width="376" height="761" viewBox="0 0 376 761" fill="none" xmlns="http://www.w3.org/2000/svg">
<g clip-path="url(#clip0_2_2)">
<path d="M515.759 528.548C475.531 533.88 435.909 540.546 394.591 546.969C399.317 543.697 403.073 541.273 406.708 539.212C456.75 501.035 507.519 463.585 556.713 424.196C570.558 413.35 581.344 399.088 588.014 382.812C594.685 366.537 597.009 348.806 594.759 331.36C593.752 309.071 585.702 287.676 571.767 270.253C557.833 252.831 538.732 240.278 517.213 234.403C496.429 226.733 473.727 225.962 452.471 232.205C431.215 238.448 412.535 251.373 399.196 269.065C359.332 317.907 322.376 368.931 284.208 419.106L277.423 428.318C276.778 426.225 276.778 423.986 277.423 421.894C286.268 357.902 296.81 294.152 303.232 230.039C304.329 214.886 302.306 199.668 297.286 185.328C292.266 170.988 284.357 157.832 274.048 146.673C263.739 135.514 251.25 126.591 237.354 120.455C223.458 114.319 208.451 111.102 193.262 111.002C178.072 110.903 163.024 113.922 149.048 119.875C135.073 125.828 122.468 134.587 112.014 145.609C101.559 156.631 93.4781 169.683 88.2704 183.955C83.0628 198.228 80.8397 213.418 81.7384 228.585C83.9194 266.762 88.7661 304.818 93.8551 342.753C97.6113 371.355 103.185 399.594 108.395 430.378C104.639 425.045 102.337 421.651 99.7922 418.258C61.5034 368.204 24.4264 316.816 -15.1952 268.338C-27.6657 252.248 -44.6177 240.21 -63.9156 233.74C-83.2136 227.27 -103.994 226.657 -123.64 231.978C-143.813 235.712 -162.45 245.279 -177.245 259.496C-192.04 273.712 -202.344 291.955 -206.881 311.968C-213.18 331.963 -213.238 353.403 -207.047 373.432C-200.856 393.46 -188.71 411.126 -172.228 424.075C-124.488 463.343 -74.3247 499.702 -25.252 537.273C-21.1324 540.667 -15.9222 543.697 -9.01572 548.545L-16.2856 547.696C-80.1407 538.849 -143.996 528.547 -208.093 521.639C-223.217 520.42 -238.431 522.315 -252.794 527.208C-267.158 532.101 -280.365 539.889 -291.601 550.088C-302.837 560.288 -311.863 572.684 -318.121 586.51C-324.379 600.337 -327.736 615.299 -327.985 630.475C-328.234 645.65 -325.37 660.715 -319.569 674.739C-313.768 688.763 -305.153 701.448 -294.258 712.012C-283.363 722.575 -270.418 730.791 -256.223 736.153C-242.028 741.515 -226.884 743.909 -211.728 743.187C-168.229 740.399 -124.851 733.855 -81.5946 728.28C-58.3306 725.007 -35.3089 720.16 -12.166 716.16C-15.0947 719.49 -18.4807 722.386 -22.2229 724.765C-72.2648 763.063 -123.519 800.27 -171.985 840.023C-187.952 852.372 -199.919 869.161 -206.385 888.285C-212.852 907.409 -213.53 928.016 -208.335 947.524C-204.663 967.716 -195.154 986.388 -180.984 1001.23C-166.813 1016.07 -148.603 1026.43 -128.607 1031.03C-108.643 1037.47 -87.1849 1037.63 -67.1241 1031.5C-47.0634 1025.37 -29.3631 1013.23 -16.4069 996.73C23.6993 947.888 60.8976 896.379 99.4287 845.961C101.973 842.689 104.154 839.175 106.578 835.66C107.525 837.75 107.738 840.099 107.183 842.326C98.3382 906.196 87.7968 969.946 81.3749 1034.18C80.4326 1049.25 82.5752 1064.35 87.6716 1078.55C92.7679 1092.76 100.711 1105.78 111.013 1116.81C121.316 1127.84 133.761 1136.65 147.587 1142.7C161.413 1148.75 176.328 1151.92 191.42 1152C206.511 1152.08 221.46 1149.08 235.351 1143.18C249.242 1137.28 261.784 1128.61 272.206 1117.69C282.629 1106.78 290.714 1093.85 295.965 1079.69C301.217 1065.54 303.524 1050.47 302.747 1035.39C299.96 991.883 293.417 948.494 287.843 905.227C285.178 880.987 280.331 858.687 275.727 832.509C280.573 839.417 283.481 844.023 286.753 848.144C324.557 897.713 360.665 948.494 400.65 996.125C412.236 1009.73 426.954 1020.32 443.538 1026.97C460.122 1033.63 478.075 1036.15 495.851 1034.33C513.626 1032.5 530.692 1026.39 545.579 1016.5C560.466 1006.62 572.729 993.259 581.31 977.582C594.127 955.391 598.723 929.394 594.292 904.152C589.861 878.91 576.685 856.034 557.077 839.538C508.368 799.665 457.235 762.7 407.193 724.401C403.679 721.735 399.802 719.311 393.38 714.827L402.346 716.16C466.201 725.007 529.935 735.431 594.154 742.096C609.205 743.165 624.316 741.152 638.563 736.182C652.81 731.211 665.895 723.387 677.017 713.187C688.139 702.987 697.065 690.627 703.249 676.86C709.434 663.093 712.747 648.209 712.986 633.118C713.225 618.027 710.386 603.046 704.641 589.09C698.896 575.134 690.366 562.496 679.573 551.949C668.78 541.402 655.95 533.167 641.867 527.747C627.785 522.327 612.745 519.836 597.667 520.427C570.284 521.881 542.9 524.79 515.759 528.548Z" fill="white" fill-opacity="0.06"/>
<path d="M336.102 505.387C436.123 574.363 546.921 587.187 583.579 534.032C620.236 480.876 568.871 381.868 468.851 312.892C368.83 243.916 258.031 231.091 221.374 284.247C184.717 337.403 236.082 436.411 336.102 505.387Z" stroke="#E0FF00" stroke-width="26" stroke-miterlimit="10"/>
<path d="M161.734 750.241C261.754 819.217 372.553 832.042 409.211 778.886C445.868 725.73 394.502 626.723 294.482 557.747C194.462 488.771 83.663 475.946 47.0056 529.102C10.3482 582.257 61.7137 681.265 161.734 750.241Z" stroke="#E0FF00" stroke-width="26" stroke-miterlimit="10"/>
<path d="M246.071 632.444C346.091 701.42 456.89 714.245 493.548 661.089C530.205 607.933 478.84 508.926 378.819 439.95C278.799 370.974 168 358.149 131.343 411.305C94.6855 464.461 146.051 563.468 246.071 632.444Z" stroke="#E0FF00" stroke-width="26" stroke-miterlimit="10"/>
</g>
<defs>
<clipPath id="clip0_2_2">
<rect width="376" height="761" rx="26.8571" fill="white"/>
</clipPath>
</defs>
</svg>
