<svg width="77" height="73" viewBox="0 0 77 73" fill="none" xmlns="http://www.w3.org/2000/svg">
<path d="M38.7603 34.4147C57.9659 34.4147 73.535 27.3553 73.535 18.647C73.535 9.93881 57.9659 2.87939 38.7603 2.87939C19.5546 2.87939 3.98541 9.93881 3.98541 18.647C3.98541 27.3553 19.5546 34.4147 38.7603 34.4147Z" stroke="#E0FF00" stroke-width="5.73369" stroke-miterlimit="10"/>
<path d="M38.1008 69.7916C57.3064 69.7916 72.8757 62.7322 72.8757 54.024C72.8757 45.3158 57.3064 38.2563 38.1008 38.2563C18.8952 38.2563 3.32599 45.3158 3.32599 54.024C3.32599 62.7322 18.8952 69.7916 38.1008 69.7916Z" stroke="#E0FF00" stroke-width="5.73369" stroke-miterlimit="10"/>
<path d="M38.072 52.1891C57.2776 52.1891 72.8469 45.1297 72.8469 36.4215C72.8469 27.7132 57.2776 20.6538 38.072 20.6538C18.8664 20.6538 3.29718 27.7132 3.29718 36.4215C3.29718 45.1297 18.8664 52.1891 38.072 52.1891Z" stroke="#E0FF00" stroke-width="5.73369" stroke-miterlimit="10"/>
</svg>
