<svg width="210" height="185" viewBox="0 0 210 185" fill="none" xmlns="http://www.w3.org/2000/svg">
<path d="M107.765 90.8188C144 113.371 181.527 120.982 191.585 107.82C201.642 94.6569 180.422 65.7045 144.188 43.1527C107.954 20.6008 70.4264 12.9893 60.3686 26.1519C50.3108 39.3146 71.5311 68.2669 107.765 90.8188Z" stroke="#FE0060" stroke-width="3.95355" stroke-miterlimit="10"/>
<path d="M66.6081 142.416C102.842 164.968 140.37 172.58 150.427 159.417C160.485 146.255 139.265 117.302 103.031 94.7503C66.7963 72.1984 29.2692 64.5869 19.2114 77.7496C9.15362 90.9122 30.3738 119.865 66.6081 142.416Z" stroke="#FE0060" stroke-width="3.95355" stroke-miterlimit="10"/>
<path d="M86.4258 116.338C122.66 138.89 160.187 146.502 170.245 133.339C180.303 120.176 159.082 91.224 122.848 68.6722C86.6139 46.1203 49.0868 38.5088 39.029 51.6715C28.9712 64.8341 50.1915 93.7864 86.4258 116.338Z" stroke="#FE0060" stroke-width="3.95355" stroke-miterlimit="10"/>
</svg>
