<svg width="220" height="112" viewBox="0 0 220 112" fill="none" xmlns="http://www.w3.org/2000/svg">
<g opacity="0.4">
<path d="M111.99 28.9022C113.434 28.6915 114.582 29.741 115.551 30.6696C117.088 32.1433 120.388 36.0399 120.662 38.1115C120.967 40.424 118.63 42.2491 116.473 41.2704C114.718 40.4741 114.882 38.0766 112.238 37.7677C107.605 37.2255 106.19 43.9419 110.904 45.339C113.233 46.0296 115.255 45.22 117.54 44.9489C119.89 44.6702 123.786 44.4794 125.828 45.7849C128.702 47.6242 128.646 51.9327 125.828 53.8192C122.551 56.0126 119.731 52.918 116.632 52.0697C113.898 51.3215 110.248 51.3706 107.486 51.9733C103.818 52.7744 99.1514 56.8515 95.9448 52.8641C93.5519 49.8875 95.3989 47.4532 97.3063 45.0812C100.908 40.6007 104.876 35.5147 108.758 31.3328C109.554 30.475 110.805 29.075 111.989 28.9031L111.99 28.9022Z" fill="white"/>
<path d="M103.857 63.8296C107.516 64.1526 108.867 66.6172 108.523 70.1105C108.351 71.8477 106.685 72.764 105.224 73.3223C106.397 73.7474 108.315 74.3095 108.515 75.7869C109.025 79.5372 107.019 82.0783 103.202 82.065L88.0646 82.0613V63.8286H103.858L103.857 63.8296ZM93.4387 70.82H100.934C101.228 70.82 102.102 70.6886 102.393 70.581C103.699 70.1001 103.004 68.7578 102.114 68.3157C101.416 67.969 100.134 67.9218 99.3351 67.8878C97.3778 67.8037 95.397 67.9586 93.4387 67.8915V70.82ZM93.4387 77.9048H100.934C101.006 77.9048 101.705 77.7112 101.827 77.6658C102.613 77.3749 103.644 76.1959 102.805 75.4629C102.557 75.2466 101.807 74.9755 101.5 74.9755H93.4387V77.9039V77.9048Z" fill="white"/>
<path d="M85.6134 82.0612H80.2393V74.9764H70.4339V82.0612H65.1541C65.1306 80.7869 65.1843 79.5069 65.1579 78.2316C65.0966 75.2446 64.9071 72.1604 65.0551 69.1621C65.2267 65.6839 66.541 64.0761 70.1049 63.8305C73.5019 63.5962 77.1487 64.0071 80.573 63.8257C83.1102 63.873 85.6134 65.4496 85.6134 68.2221V82.0612ZM80.2393 70.8199C80.2185 69.2442 79.4737 68.1239 77.8389 67.9822C76.5566 67.8717 74.3165 67.8868 73.0229 67.9822C71.2985 68.1078 70.4537 69.0893 70.5282 70.8199H80.2393Z" fill="white"/>
<path d="M129.03 63.8293C130.892 64.0665 132.589 66.1607 132.47 68.0321C132.358 69.7854 131.803 70.9775 130.206 71.7143C125.976 73.6669 121.144 74.9667 116.849 76.8466L116.252 77.4795C116.179 77.6203 116.742 77.8111 116.774 77.8111H132.472V82.062H116.397C112.901 81.8202 110.611 79.8487 110.976 76.1589C111.136 74.5407 112.17 73.9616 113.497 73.3949C117.317 71.7625 121.432 70.5505 125.278 68.9503C125.782 68.6735 125.883 67.8923 125.165 67.8923H110.975V63.8303H129.03V63.8293Z" fill="white"/>
<path d="M139.618 63.8579C143.136 63.9977 146.947 63.5726 150.431 63.8305C153.735 64.0752 155.183 65.5895 155.381 68.8844C155.524 71.2545 155.522 74.5447 155.386 76.9167C155.184 80.4384 153.617 81.8365 150.149 82.0603C147.246 82.2474 143.06 82.2389 140.152 82.0651C137.114 81.8837 135.076 80.7454 134.83 77.4788C134.643 74.9915 134.653 70.9976 134.825 68.5018C135.032 65.4704 136.681 64.1186 139.618 63.8579ZM149.317 68.584C149.191 68.4574 148.799 68.259 148.621 68.1948C147.428 67.7697 143.032 67.7565 141.827 68.1476C141.154 68.3667 140.629 68.8844 140.419 69.5702C140.056 70.7557 140.056 75.3864 140.509 76.5115C140.923 77.5374 141.845 77.8349 142.886 77.9086C144.108 77.9946 147.728 78.0503 148.738 77.6233C149.336 77.3702 149.601 76.9054 149.773 76.2989C150.134 75.035 150.176 70.5404 149.743 69.3378C149.681 69.1659 149.437 68.7049 149.317 68.584Z" fill="white"/>
</g>
</svg>
