<svg width="220" height="112" viewBox="0 0 220 112" fill="none" xmlns="http://www.w3.org/2000/svg">
<g opacity="0.4">
<path fill-rule="evenodd" clip-rule="evenodd" d="M102.361 51.1423C102.688 50.8303 102.852 50.4487 102.852 49.9967V41.7222C102.852 41.2702 102.688 40.8886 102.361 40.5766C102.034 40.2647 101.59 40.1091 101.029 40.1091H99.5096V51.6098H101.029C101.59 51.6098 102.034 51.4535 102.361 51.1423ZM103.845 37.3744C104.554 37.6239 105.142 37.9669 105.61 38.4024C106.077 38.8392 106.424 39.3415 106.65 39.9095C106.876 40.4788 106.989 41.0829 106.989 41.7219L106.989 49.9963C106.989 50.6354 106.876 51.2431 106.65 51.8197C106.425 52.3963 106.077 52.9061 105.61 53.3506C105.143 53.795 104.554 54.1463 103.846 54.4027C103.136 54.6598 102.299 54.7886 101.333 54.7886H94.1909L95.3716 53.1778L95.3722 38.6102L94.1909 37H101.333C102.298 37 103.136 37.1249 103.845 37.3744ZM83.4843 39.4208C82.6226 39.0792 76.9655 36.9456 70.2323 37.0011C61.4724 37.0738 56.9736 39.3723 56.7971 39.4638L56.7918 39.4668V50.4144C56.8513 52.9865 57.1831 56.8192 61.5025 61.2077C62.016 61.7291 63.7808 63.2974 65.4013 64.7212L65.6029 64.8983C66.8655 66.0067 68.0032 66.9955 68.3374 67.2859L68.3382 67.2866L68.4284 67.365L68.4363 67.3717V67.6565C68.4363 67.6565 58.9089 60.8892 56.6983 58.2745C55.7387 57.1388 55.0323 56.0718 54.6186 55.019C53.8463 53.4174 53.7928 50.2647 53.8298 46.6385C53.8302 46.569 53.8311 46.5091 53.8318 46.458L53.8328 46.3821C54.2865 46.1161 54.9361 45.7569 55.6654 45.4232V42.2014C53.539 42.9991 51.7289 44.1989 51.6294 44.266L50.9606 44.7137V44.9103V44.9649V45.2286V45.3032L50.961 45.7834V45.864V46.1686V46.2377L50.9606 46.4703L50.9604 46.5394C50.9603 46.5691 50.9602 46.5923 50.96 46.6078C50.9544 47.1461 50.9491 47.6622 50.9478 48.1582V48.486C50.9534 52.928 51.3492 55.7899 54.8191 59.2192C55.826 60.2151 59.2364 62.6973 62.9938 65.3091L63.3077 65.5268C63.5175 65.6722 63.728 65.8179 63.9391 65.9637L64.256 66.1824L64.4977 66.3485L64.4981 66.3487L64.4984 66.3489L64.4987 66.3491L64.499 66.3493L64.4993 66.3496C64.683 66.4758 64.8669 66.6021 65.0507 66.728L65.3686 66.9454C65.5272 67.0541 65.6861 67.1625 65.8444 67.2702L66.161 67.4857L68.1251 68.8474C68.0772 68.8784 65.0907 71.3197 64.7986 71.5639C63.8003 72.3995 63.5102 72.8945 63.4957 73.4411V74.8018H76.8796V73.4411C76.836 72.802 76.5809 72.3992 75.577 71.5655C75.3566 71.3821 75.1067 71.1781 74.8081 70.9344L74.807 70.9335L74.806 70.9327L74.8054 70.9322C74.3954 70.5975 73.8936 70.188 73.2508 69.6543L66.8367 72.6262V72.4894L74.1674 67.4893C80.9261 63.0195 84.1422 60.6903 85.5938 59.2188C89.5465 55.2132 89.515 52.3302 89.4574 47.0551L89.4527 46.6075L89.4525 46.5776L89.4523 46.5146V46.4194V46.3636V45.5392V45.4589L89.4527 45.1569V45.0885L89.453 44.8185V44.7821V44.7137L88.7842 44.266C88.6837 44.1993 86.8677 42.9945 84.737 42.1978V45.4186C85.4706 45.7536 86.1248 46.1148 86.5805 46.3824C86.5811 46.419 86.5815 46.4619 86.5821 46.5118L86.5835 46.6389L86.5866 46.9358C86.6243 50.5408 86.6496 52.9536 85.6051 55.2903C85.0997 56.4378 84.4771 57.1411 83.8905 57.8037L83.8905 57.8037C83.7759 57.9331 83.6627 58.0609 83.5521 58.1902C81.4994 60.5845 73.3592 66.5859 72.0698 67.5306L71.9955 67.5848C71.9314 67.632 71.8973 67.6565 71.8973 67.6565V67.371L71.9052 67.3644L71.9491 67.327L71.9496 67.3266L71.95 67.3263L71.9506 67.3258C72.2324 67.0858 73.5947 65.9258 75.0493 64.67L75.2542 64.4929C75.3907 64.3749 75.5281 64.256 75.6649 64.1374L75.8698 63.9599C77.1297 62.8662 78.32 61.8161 78.7991 61.3452L78.8705 61.2741C83.1879 56.8883 83.5375 52.9901 83.598 50.419V39.4668C83.598 39.4668 83.5762 39.4575 83.5336 39.4407L83.4843 39.4208ZM63.1897 40.8539H69.2968V40.8543H69.1385C72.1323 40.8543 73.0932 40.9389 73.763 41.1163L73.8337 41.1358C73.8687 41.1457 73.9031 41.1556 73.9368 41.1662L74.0042 41.1873L74.0709 41.2092L74.1377 41.2316C74.1601 41.2392 74.1823 41.2468 74.2047 41.2548C74.9796 41.5274 75.4746 41.8479 75.9858 42.324C76.496 42.8009 76.8747 43.3497 77.1218 43.9713C77.3683 44.5928 77.4919 45.252 77.4919 45.9499V54.9632C77.4919 55.661 77.3683 56.3249 77.1218 56.9544C76.8747 57.5848 76.496 58.1423 75.9858 58.627C75.4749 59.1128 74.822 59.469 74.058 59.7766C72.7646 60.2965 70.1779 60.2403 69.1149 60.2172C68.9578 60.2138 68.834 60.2111 68.7526 60.2111H68.3742C68.3514 60.2111 68.3276 60.2111 68.3032 60.2108H67.8769L67.8288 60.2106L67.7791 60.2105H67.3535C67.3158 60.2101 67.2782 60.2101 67.2398 60.2101H66.885L66.8245 60.21L66.763 60.2098H66.389L66.3257 60.2096L66.2624 60.2095H65.8801C65.8378 60.2091 65.7952 60.2091 65.7529 60.2091H65.3742C65.3326 60.2088 65.2913 60.2088 65.25 60.2088L64.8862 60.2085H64.7688L64.3247 60.2082H64.2213L63.845 60.2078H63.7614L63.3215 60.2075H63.2822H63.1897L64.7708 58.5058V42.558L63.1897 40.8539ZM72.4353 44.6985C72.0843 44.3526 71.5927 44.1883 70.98 44.1883H69.2142V56.7257H70.98C71.5927 56.7257 72.0774 56.5555 72.4353 56.2145C72.7928 55.8742 72.9151 55.2701 72.9151 54.7758V46.1511C72.9151 45.5418 72.8358 45.0934 72.4353 44.6985ZM116.644 43.8565C116.644 44.7936 116.303 45.3061 115.356 45.3445H113.511V39.9151H115.156C115.616 39.9151 116.665 39.9878 116.644 41.3175V43.8565H116.644ZM118.98 46.9811C119.308 46.8255 119.609 46.619 119.892 46.3734C120.177 46.1269 120.834 45.4195 120.828 44.0386V40.8099C120.828 40.4362 120.793 40.0314 120.723 39.5946C120.653 39.1584 120.481 38.7454 120.208 38.3558C119.935 37.9662 119.522 37.6427 118.969 37.3859C118.416 37.1289 117.656 37 116.69 37H109.382V54.7886H113.511V48.6174H115.943C116.442 48.6174 116.972 48.8712 116.97 49.5727C116.97 49.7687 116.97 53.4421 116.97 54.5055L116.97 54.7886H121.178V49.763C121.178 48.9112 120.927 47.2944 118.98 46.9811ZM123.57 50.6879V41.0716C123.57 39.5619 124.057 37 127.893 37H133.269V40.273H128.463C127.644 40.2779 127.7 41.178 127.7 41.178V44.2392H132.641V47.5111H127.7V50.6509C127.7 50.6509 127.607 51.481 128.455 51.481H133.269V54.7886H127.632C125.709 54.7678 123.54 53.8895 123.57 50.6879ZM143.467 45.3394H139.789V39.92C139.789 39.92 141.245 39.9219 141.667 39.9219C143.011 39.9219 143.444 40.5042 143.467 41.6376V45.3394ZM142.082 37.0002H135.66H135.659V54.7882H139.789V48.6114H143.467V54.7882H147.674V42.1008C147.674 38.2516 145.053 37.0002 142.082 37.0002ZM159.089 37.783C160.093 37.3118 161.487 37.0059 163.145 37.0016C165.528 36.9959 166.501 37.6284 167.219 38.2774C168.311 39.2654 168.393 40.6691 168.393 41.9885V54.7882H164.263V42.2644C164.266 41.3831 163.877 41.0504 163.559 40.8941C162.901 40.57 162.087 40.7434 161.719 40.8221L161.699 40.8263C161.341 40.9033 161.17 40.9698 160.982 41.0467C161.029 41.3679 161.053 41.6666 161.053 41.9422V54.7879H157.43V42.3543C157.43 42.0258 157.423 41.2196 156.74 40.8283C156.556 40.7229 156.062 40.4721 154.189 40.6925V54.7879H150.066V37.4893C154.684 36.6308 157.487 37.136 157.932 37.2662C158.376 37.3964 158.762 37.5686 159.089 37.783ZM168.059 60.1727C167.835 59.5303 167.49 58.9679 167.035 58.502C166.579 58.0361 165.992 57.667 165.288 57.4047C164.591 57.1449 163.766 57.0134 162.835 57.0134C161.249 57.0134 159.984 57.3686 159.073 58.0702C158.157 58.7753 157.591 59.7726 157.391 61.0355C157.357 61.1382 157.341 61.2797 157.341 61.4806C157.341 61.6755 157.349 61.8282 157.364 61.9465C157.419 62.8734 157.643 63.6535 158.028 64.2552C158.406 64.8441 158.869 65.3457 159.406 65.7448C159.929 66.1354 160.491 66.4718 161.077 66.7434C161.639 67.0061 162.165 67.2853 162.64 67.5731C163.103 67.853 163.487 68.1808 163.785 68.5479C164.064 68.8932 164.205 69.3605 164.205 69.9364C164.205 70.1231 164.183 70.3048 164.141 70.475C164.1 70.6356 164.03 70.7866 163.931 70.9251C163.839 71.0536 163.709 71.1583 163.546 71.2367C163.381 71.3166 163.149 71.3573 162.857 71.3573C162.526 71.3573 162.268 71.3097 162.09 71.2175C161.918 71.1289 161.787 71.0073 161.701 70.8563C161.609 70.6957 161.549 70.5064 161.525 70.2959C161.499 70.0633 161.486 69.8161 161.486 69.5594V69.4678V69.3205H161.334H157.472H157.321V69.4678V69.5594C157.321 71.122 157.794 72.4005 158.729 73.3567C159.664 74.315 161.046 74.8014 162.835 74.8014C164.5 74.8014 165.789 74.4805 166.665 73.8481C167.55 73.2084 168.1 72.1827 168.299 70.8015C168.333 70.7017 168.35 70.5811 168.35 70.4337V70.0461C168.35 69.0399 168.176 68.1772 167.83 67.4823C167.489 66.7936 167.047 66.2071 166.517 65.7389C165.999 65.2796 165.428 64.8847 164.821 64.5655C164.251 64.2668 163.693 63.9694 163.165 63.6823C162.669 63.4126 162.254 63.1251 161.934 62.8304C161.646 62.5651 161.505 62.2465 161.505 61.8556C161.505 61.6811 161.525 61.5001 161.562 61.3183C161.597 61.1541 161.663 61.0074 161.757 60.8822C161.848 60.7602 161.982 60.6575 162.152 60.5785C162.325 60.4979 162.562 60.4569 162.856 60.4569C163.169 60.4569 163.414 60.5055 163.583 60.6023C163.75 60.6991 163.88 60.8257 163.969 60.9796C164.063 61.1432 164.126 61.3345 164.155 61.5467C164.188 61.7793 164.205 62.0179 164.205 62.2541V62.3463V62.4934H164.357H168.239H168.391V62.3463V62.2541C168.392 61.5097 168.28 60.8091 168.059 60.1727ZM123.603 69.9124C123.603 70.1248 123.616 70.3393 123.642 70.5485C123.666 70.7355 123.723 70.9047 123.814 71.0504C123.902 71.1921 124.036 71.3137 124.212 71.4109C124.388 71.5094 124.644 71.5592 124.974 71.5592C125.287 71.5592 125.532 71.51 125.701 71.4132C125.87 71.3157 126.001 71.1938 126.091 71.0504C126.183 70.9 126.245 70.7282 126.274 70.5409C126.306 70.3304 126.323 70.1186 126.323 69.912V61.901C126.323 61.6954 126.306 61.484 126.274 61.2731C126.245 61.0858 126.183 60.914 126.092 60.7643C126.002 60.6209 125.87 60.4989 125.701 60.4015C125.532 60.3046 125.287 60.2554 124.974 60.2554C124.644 60.2554 124.388 60.3046 124.212 60.4028C124.036 60.5009 123.901 60.6225 123.814 60.7636C123.723 60.9097 123.666 61.0792 123.642 61.2659C123.616 61.476 123.603 61.6898 123.603 61.9013V69.9124ZM127.371 57.3819C128.066 57.6291 128.653 57.9833 129.116 58.4347C129.579 58.8867 129.932 59.4313 130.163 60.0538C130.392 60.6708 130.509 61.3564 130.509 62.0913V69.768C130.509 70.5032 130.392 71.1849 130.163 71.7949C129.931 72.4111 129.578 72.9484 129.115 73.3918C128.651 73.8359 128.064 74.1865 127.371 74.432C126.681 74.6769 125.868 74.8011 124.952 74.8011C124.079 74.8011 123.293 74.6805 122.617 74.443C121.937 74.2054 121.354 73.8594 120.884 73.416C120.413 72.9715 120.051 72.4359 119.806 71.8216C119.562 71.2123 119.438 70.521 119.438 69.768V62.0906C119.438 61.3386 119.562 60.6407 119.805 60.0168C120.05 59.3867 120.413 58.8421 120.884 58.398C121.353 57.9562 121.935 57.6109 122.617 57.371C123.294 57.1338 124.079 57.0132 124.952 57.0132C125.868 57.0132 126.682 57.1378 127.371 57.3819ZM144.773 57.0134H144.621V57.1648V60.5352V60.6865H144.773H148.318V74.6504V74.8014H148.47H152.351H152.503V74.6504V60.6865H156.048H156.2V60.5352V57.1648V57.0134H156.048H144.773ZM102.158 57.4047C102.861 57.667 103.449 58.0355 103.905 58.5017C104.36 58.9683 104.705 59.5313 104.928 60.1714C105.149 60.8078 105.261 61.5083 105.261 62.2545V62.346V62.4934H105.108H101.227H101.074V62.346V62.2545C101.074 62.0172 101.058 61.7796 101.025 61.546C100.996 61.3339 100.933 61.1432 100.84 60.979C100.75 60.8257 100.62 60.6984 100.452 60.6023C100.283 60.5058 100.039 60.4566 99.7251 60.4566C99.4313 60.4566 99.194 60.4979 99.0212 60.5778C98.8504 60.6578 98.7179 60.7596 98.6257 60.8815C98.5319 61.0067 98.4664 61.1534 98.4324 61.3177C98.3937 61.4994 98.3749 61.6805 98.3749 61.8556C98.3749 62.2459 98.515 62.5644 98.8038 62.8304C99.124 63.1255 99.5384 63.412 100.035 63.6816C100.563 63.9694 101.121 64.2671 101.691 64.5658C102.297 64.8841 102.867 65.2779 103.387 65.7382C103.916 66.2071 104.358 66.7936 104.699 67.4816C105.044 68.1775 105.219 69.0393 105.219 70.0454V70.433C105.219 70.5814 105.202 70.7017 105.168 70.8008C104.969 72.1827 104.419 73.2077 103.533 73.8474C102.658 74.4799 101.369 74.8007 99.7046 74.8007C97.9149 74.8007 96.5331 74.3143 95.5973 73.3571C94.6641 72.4005 94.1899 71.1223 94.1899 69.5587V69.4672V69.3205H94.3419H98.2034H98.3554V69.4672V69.5587C98.3554 69.8155 98.3686 70.0633 98.3941 70.2953C98.4188 70.5064 98.4783 70.6951 98.5708 70.8563C98.6564 71.0067 98.7866 71.1283 98.9581 71.2172C99.1362 71.31 99.3943 71.3566 99.7251 71.3566C100.018 71.3566 100.25 71.316 100.416 71.236C100.579 71.1577 100.708 71.0529 100.8 70.9244C100.899 70.7863 100.969 70.6349 101.01 70.475C101.053 70.3042 101.074 70.1224 101.074 69.9357C101.074 69.3601 100.933 68.8926 100.654 68.5473C100.358 68.1801 99.9725 67.8523 99.5093 67.5725C99.0348 67.2853 98.5084 67.0061 97.945 66.7431C97.3621 66.4711 96.8 66.1354 96.2753 65.7448C95.7387 65.3443 95.2751 64.8434 94.8984 64.2546C94.5131 63.6535 94.2884 62.8743 94.2332 61.9458C94.218 61.8252 94.2114 61.6726 94.2114 61.4799C94.2114 61.28 94.2266 61.1376 94.2616 61.0351C94.4609 59.7729 95.0263 58.775 95.9422 58.0695C96.8532 57.368 98.1188 57.0134 99.7049 57.0134C100.636 57.0134 101.46 57.1453 102.158 57.4047ZM138.948 63.8876C138.948 64.8347 138.601 65.2537 137.791 65.2877H136.228V60.0549H137.598C137.772 60.0549 138.299 60.0549 138.632 60.39C138.849 60.6091 138.955 60.9382 138.949 61.3701V63.8876H138.948ZM141.488 66.9524C141.727 66.8166 141.958 66.6471 142.189 66.4393C142.536 66.129 143.117 65.4076 143.111 64.0677V60.8668C143.111 60.4941 143.077 60.0847 143.009 59.6498C142.941 59.2093 142.772 58.7857 142.505 58.3905C142.236 57.9953 141.826 57.6629 141.287 57.4035C140.748 57.1448 140.002 57.0129 139.069 57.0129H132.119V74.8019H136.228V68.6829H138.354C138.633 68.6829 138.875 68.7705 139.035 68.9301C139.187 69.0807 139.263 69.2909 139.262 69.5549V74.4467V74.8019H143.448V69.7429C143.447 68.8554 143.187 67.3466 141.488 66.9524ZM112.556 65.2876C113.365 65.2536 113.712 64.8352 113.712 63.8875V61.37C113.719 60.9381 113.612 60.609 113.396 60.3899C113.063 60.0548 112.536 60.0548 112.364 60.0548H110.992V65.2876H112.556ZM117.264 58.4314C117.523 58.8322 117.684 59.2694 117.745 59.7307C117.801 60.1698 117.83 60.5789 117.83 60.947V64.3369C117.83 64.8415 117.801 65.1482 117.746 65.6593C117.687 66.1917 117.535 66.6794 117.293 67.1096C117.043 67.5511 116.665 67.9116 116.167 68.1812C115.674 68.4495 114.996 68.5857 114.15 68.5857H110.994V74.6498V74.8018H110.842H107.022H106.871V74.6498V57.1645V57.0132H107.022H113.985C114.869 57.0132 115.578 57.1483 116.091 57.416C116.606 57.6833 117.001 58.0253 117.264 58.4314Z" fill="white"/>
</g>
</svg>
