<svg width="220" height="112" viewBox="0 0 220 112" fill="none" xmlns="http://www.w3.org/2000/svg">
<g opacity="0.4">
<path d="M31.7841 50.6813C32.136 51.0309 32.5943 51.2016 33.0526 51.2016V35C32.1115 35 31.1622 35.3577 30.4421 36.0731L25.8184 40.658C25.8184 40.658 25.8021 40.6742 25.7939 40.6824L23.748 42.7147L31.776 50.6813H31.7841Z" fill="white"/>
<path d="M16.0802 50.3155C14.6399 51.7463 14.6399 54.0631 16.0802 55.4939L26.3586 65.6961C26.8332 66.1676 27.0951 66.8017 27.0951 67.4601V73.0612C27.0951 75.0854 28.7481 76.7275 30.7858 76.7275H33.0444V65.5823C32.2342 65.5823 31.4159 65.2734 30.794 64.6555L16.2111 50.1936" fill="white"/>
<path d="M17.1931 49.2181L31.7841 63.6963C32.136 64.0458 32.5943 64.2166 33.0526 64.2166V59.1764C32.2424 59.1764 31.4241 58.8675 30.8021 58.2497L19.4436 46.9825L17.1931 49.2181Z" fill="white"/>
<path d="M20.4256 46.0151L31.7841 57.2904C32.1197 57.6237 32.5697 57.8107 33.0526 57.8107V52.5755C32.2424 52.5755 31.4241 52.2665 30.8021 51.6487L22.766 43.682L20.4174 46.0151H20.4256Z" fill="white"/>
<path d="M43.3309 43.682L35.303 51.6487C34.6811 52.2665 33.8709 52.5673 33.0526 52.5673V57.8026C33.5354 57.8026 33.9855 57.6156 34.321 57.2823L45.6795 46.0151L43.3309 43.682Z" fill="white"/>
<path d="M34.321 50.6813L42.3489 42.7147L40.3031 40.6824C40.3031 40.6824 40.2867 40.6661 40.2785 40.658L35.6549 36.0731C34.9348 35.3577 33.9855 35 33.0444 35V51.2016C33.5027 51.2016 33.9609 51.0309 34.3128 50.6813" fill="white"/>
<path d="M49.894 50.1936L35.303 64.6718C34.6811 65.2896 33.8709 65.5985 33.0526 65.5985V76.7438H35.3112C37.3489 76.7438 39.0019 75.1016 39.0019 73.0775V67.4764C39.0019 66.8098 39.2719 66.1757 39.7384 65.7042L50.0249 55.502C51.4652 54.0712 51.4652 51.7544 50.0249 50.3237L49.894 50.1936Z" fill="white"/>
<path d="M46.6616 46.9825L35.303 58.2578C34.6811 58.8756 33.8709 59.1764 33.0526 59.1764V64.2166C33.5108 64.2166 33.9691 64.0458 34.321 63.6963L48.912 49.2181L46.6616 46.9825Z" fill="white"/>
<path d="M63.8794 47.4622H73.6995L75.1725 44.1292H60.2951V67.1025H63.8794" fill="white"/>
<path d="M198.144 54.1119V67.1025H195.018V65.8343C193.742 67.0131 192.359 67.5984 190.886 67.5984C189.028 67.5984 187.49 66.9399 186.27 65.6148C185.067 64.2654 184.462 62.5826 184.462 60.5584C184.462 58.5342 185.067 56.9165 186.27 55.5996C187.481 54.2745 188.987 53.616 190.804 53.616C192.367 53.616 193.774 54.2501 195.018 55.5183L195.002 54.1119H198.144ZM187.645 60.5584C187.645 61.8266 187.989 62.859 188.684 63.6557C189.396 64.4605 190.288 64.8669 191.369 64.8669C192.522 64.8669 193.447 64.4767 194.159 63.6963C194.871 62.8915 195.223 61.8672 195.223 60.6235C195.223 59.3797 194.871 58.3554 194.159 57.5506C193.447 56.7621 192.531 56.3719 191.393 56.3719C190.321 56.3719 189.429 56.7702 188.709 57.5669C187.997 58.3716 187.645 59.3715 187.645 60.5584Z" fill="white"/>
<path d="M116.515 46.5111L119.641 44.1292V67.1025H116.515V65.8343C115.288 67.013 113.905 67.5984 112.358 67.5984C110.517 67.5984 108.986 66.9399 107.767 65.6148C106.564 64.2654 105.958 62.5826 105.958 60.5584C105.958 58.5342 106.564 56.9328 107.767 55.6077C108.962 54.2745 110.468 53.6079 112.284 53.6079C113.855 53.6079 115.271 54.242 116.515 55.5101V46.5029V46.5111ZM109.134 60.5584C109.134 61.8266 109.477 62.859 110.173 63.6557C110.885 64.4605 111.777 64.8669 112.857 64.8669C114.011 64.8669 114.936 64.4767 115.648 63.6963C116.36 62.8915 116.711 61.8672 116.711 60.6234C116.711 59.3797 116.36 58.3554 115.648 57.5506C114.936 56.762 114.019 56.3718 112.882 56.3718C111.81 56.3718 110.918 56.7702 110.197 57.5668C109.486 58.3716 109.134 59.3715 109.134 60.5584Z" fill="white"/>
<path d="M180.509 53.616V67.1025H177.399V55.9898L180.509 53.616Z" fill="white"/>
<path d="M180.509 47.3321V50.5594L177.399 52.925V49.7059L180.509 47.3321Z" fill="white"/>
<path d="M90.41 54.1119H93.5361V55.2175C94.6245 54.1607 95.852 53.616 97.2104 53.616C98.7734 53.616 99.9928 54.1119 100.868 55.0874C101.621 55.9166 102.006 57.2579 102.006 59.1277V67.1106H98.8798V59.8512C98.8798 58.5424 98.6916 57.6481 98.3233 57.1441C97.9633 56.6401 97.3086 56.38 96.3593 56.38C95.3282 56.38 94.5917 56.7133 94.1662 57.388C93.7406 58.0465 93.5279 59.209 93.5279 60.8511V67.1106H90.4018V54.12L90.41 54.1119Z" fill="white"/>
<path d="M170.321 46.5111L173.447 44.1292V67.1025H170.321V65.8343C169.093 67.013 167.71 67.5984 166.164 67.5984C164.322 67.5984 162.792 66.9399 161.573 65.6148C160.37 64.2654 159.764 62.5826 159.764 60.5584C159.764 58.5342 160.37 56.9328 161.573 55.6077C162.768 54.2745 164.273 53.6079 166.09 53.6079C167.661 53.6079 169.077 54.242 170.321 55.5101V46.5029V46.5111ZM162.948 60.5584C162.948 61.8266 163.291 62.859 163.987 63.6557C164.699 64.4605 165.591 64.8669 166.671 64.8669C167.825 64.8669 168.75 64.4767 169.462 63.6963C170.174 62.8915 170.525 61.8672 170.525 60.6234C170.525 59.3797 170.174 58.3554 169.462 57.5506C168.75 56.762 167.833 56.3718 166.696 56.3718C165.624 56.3718 164.732 56.7702 164.011 57.5668C163.3 58.3716 162.948 59.3715 162.948 60.5584Z" fill="white"/>
<path d="M132.325 56.2418L129.756 57.5912C129.347 56.7783 128.847 56.3637 128.25 56.3637C127.964 56.3637 127.718 56.4531 127.522 56.6401C127.317 56.8271 127.219 57.0628 127.219 57.3555C127.219 57.8595 127.816 58.3635 129.019 58.8675C130.672 59.5667 131.777 60.2089 132.35 60.7942C132.923 61.3876 133.209 62.1761 133.209 63.176C133.209 64.4523 132.726 65.5254 131.769 66.3871C130.836 67.2 129.715 67.6146 128.397 67.6146C126.139 67.6146 124.543 66.5334 123.602 64.3629L126.253 63.1517C126.622 63.7857 126.9 64.1922 127.096 64.3629C127.473 64.7043 127.923 64.8832 128.446 64.8832C129.494 64.8832 130.026 64.4117 130.026 63.4687C130.026 62.924 129.617 62.42 128.806 61.9485C128.496 61.7941 128.176 61.6477 127.865 61.5014C127.554 61.3551 127.235 61.2088 126.908 61.0543C126.008 60.6153 125.369 60.1845 125.001 59.7455C124.527 59.1927 124.297 58.4855 124.297 57.6075C124.297 56.4531 124.698 55.502 125.5 54.7541C126.319 54.0062 127.317 53.6242 128.487 53.6242C130.206 53.6242 131.491 54.5021 132.334 56.2499" fill="white"/>
<path d="M78.0694 54.1119V61.5827C78.0694 63.7776 78.9451 64.8751 80.7045 64.8751C82.4639 64.8751 83.3477 63.7776 83.3477 61.5827L83.3314 54.1119H86.4574V61.6477C86.4574 62.7045 86.3265 63.6231 86.0564 64.3954C85.7946 65.0864 85.3527 65.7042 84.7144 66.257C83.6669 67.1512 82.3248 67.6065 80.7045 67.6065C79.0842 67.6065 77.7585 67.1594 76.711 66.257C76.0645 65.7042 75.6144 65.0864 75.3444 64.3954C75.0825 63.7776 74.9598 62.859 74.9598 61.6477V54.1119H78.0694Z" fill="white"/>
<path d="M137.154 46.5111L140.263 44.1292V67.1025H137.154V46.5111Z" fill="white"/>
<path d="M63.8794 66.7367V57.4449H69.5342L71.0072 54.1119H63.8794V47.0882" fill="white"/>
<path d="M144.216 54.1119H147.342V55.2175C148.43 54.1607 149.658 53.616 151.016 53.616C152.579 53.616 153.799 54.1119 154.674 55.0874C155.427 55.9166 155.812 57.2579 155.812 59.1277V67.1106H152.686V59.8512C152.686 58.5424 152.497 57.6481 152.129 57.1441C151.769 56.6401 151.114 56.38 150.165 56.38C149.134 56.38 148.398 56.7133 147.972 57.388C147.546 58.0465 147.334 59.209 147.334 60.8511V67.1106H144.208V54.12L144.216 54.1119Z" fill="white"/>
<path d="M204.388 48.6409C204.83 48.8848 205.182 49.2262 205.436 49.6652C205.69 50.1042 205.82 50.6001 205.829 51.1529C205.829 51.7057 205.722 52.2015 205.477 52.6568C205.231 53.1039 204.896 53.4616 204.462 53.7217C204.028 53.9818 203.529 54.1119 202.973 54.12C202.408 54.12 201.909 54.0062 201.459 53.7624C201.017 53.5185 200.665 53.1689 200.411 52.7299C200.158 52.291 200.027 51.7869 200.018 51.2423C200.018 50.6895 200.133 50.1936 200.37 49.7465C200.616 49.2994 200.951 48.9498 201.385 48.6978C201.819 48.4377 202.318 48.3076 202.883 48.2995C203.439 48.2995 203.938 48.4133 204.38 48.6572M204.626 52.86C205.043 52.421 205.248 51.852 205.239 51.1529C205.231 50.4619 205.01 49.901 204.577 49.4701C204.143 49.0393 203.586 48.8279 202.899 48.836C202.203 48.8442 201.647 49.0718 201.238 49.5108C200.829 49.9497 200.624 50.5188 200.632 51.2179C200.64 51.9089 200.853 52.4779 201.279 52.9088C201.704 53.3396 202.261 53.551 202.956 53.5429C203.644 53.5347 204.2 53.3071 204.617 52.8681M204.036 51.1529C203.922 51.3073 203.758 51.4211 203.545 51.4943L204.364 52.6649L203.464 52.6893L202.76 51.5593H202.514L202.531 52.7056H201.786L201.745 49.649L203.12 49.6327C203.447 49.6327 203.709 49.714 203.906 49.8766C204.102 50.0473 204.208 50.2749 204.208 50.5676C204.208 50.7952 204.151 50.9903 204.036 51.1447M202.506 50.9496H203.095C203.202 50.9415 203.292 50.909 203.357 50.8521C203.431 50.7952 203.464 50.7139 203.464 50.6082C203.464 50.5025 203.423 50.4294 203.357 50.3725C203.284 50.3237 203.194 50.2993 203.087 50.2993H202.498L202.506 50.9496Z" fill="white"/>
</g>
</svg>
