<svg width="220" height="112" viewBox="0 0 220 112" fill="none" xmlns="http://www.w3.org/2000/svg">
<g opacity="0.4">
<path d="M119.786 51.0862C118.969 51.0862 118.277 50.8773 117.715 50.4543C117.148 50.0366 116.867 49.4256 116.867 48.6266C116.867 47.9321 117.08 47.389 117.512 46.9869C117.939 46.5849 118.522 46.3864 119.255 46.3864C119.677 46.3864 120.119 46.47 120.593 46.6371C121.066 46.8042 121.582 47.0914 122.149 47.4882C123.07 47.1332 123.825 46.5326 124.413 45.6919C125.001 44.8512 125.292 43.812 125.292 42.5692C125.292 41.436 125.027 40.564 124.491 39.953C123.955 39.342 123.273 39.0392 122.435 39.0392C121.389 39.0392 120.863 39.4778 120.863 40.3603C120.863 40.6527 120.952 40.9452 121.129 41.2272C121.306 41.5091 121.649 41.765 122.149 41.9843C122.654 42.2037 123.382 42.3446 124.35 42.4073L123.596 44.9922C121.545 44.846 120.02 44.329 119.021 43.4465C118.027 42.564 117.528 41.5144 117.528 40.2924C117.528 39.1384 117.949 38.1828 118.787 37.4413C119.625 36.6945 120.837 36.3238 122.43 36.3238C123.538 36.3238 124.584 36.5535 125.558 37.0183C126.531 37.483 127.317 38.1775 127.915 39.1175C128.513 40.0522 128.81 41.2376 128.81 42.6632C128.81 44.0888 128.461 45.4935 127.759 46.7467C127.056 47.9948 126.078 49.0026 124.819 49.7546C125.636 50.4909 126.416 51.2794 127.16 52.1201C127.905 52.9608 128.581 53.7702 129.185 54.5483L126.484 56.4073C125.563 55.1645 124.709 54.0992 123.923 53.2063C123.138 52.3133 122.409 51.5405 121.738 50.8877C121.108 51.0131 120.458 51.0757 119.791 51.0757M76.3375 56.6893C76.3375 56.0992 76.5405 55.5927 76.9516 55.1593C77.3575 54.7311 77.8571 54.5117 78.4451 54.5117C79.0332 54.5117 79.5224 54.7258 79.9231 55.1593C80.3186 55.5927 80.5216 56.0992 80.5216 56.6893C80.5216 57.2794 80.3238 57.812 79.9231 58.235C79.5276 58.658 79.0332 58.8668 78.4451 58.8668C77.8571 58.8668 77.3627 58.658 76.9516 58.235C76.5405 57.8172 76.3375 57.3003 76.3375 56.6893ZM66.3769 54.0104C67.0274 53.8433 67.553 53.6136 67.9641 53.3159C68.3701 53.0235 68.5782 52.611 68.5782 52.0888C68.5782 51.4778 68.3128 51.0078 67.7768 50.6684C67.2408 50.3342 66.3769 50.1619 65.1852 50.1619C63.8634 50.1619 62.8642 50.4125 62.1824 50.9191C61.5007 51.4256 61.1624 52.1044 61.1624 52.9661C61.1624 53.5352 61.2821 54.0835 61.5215 54.6214C61.7609 55.1593 62.2189 55.7598 62.8902 56.4334C63.5615 57.107 64.5451 57.9164 65.8461 58.8616L63.4887 61.2585C61.6464 59.765 60.1997 58.376 59.1537 57.0809C58.1076 55.7859 57.5821 54.3446 57.5821 52.7467C57.5821 51.9478 57.7329 51.2376 58.04 50.6162C58.3418 49.9948 58.7686 49.4569 59.315 48.9922C58.9195 48.5692 58.5916 48.0888 58.3418 47.5405C58.092 46.9922 57.9672 46.3551 57.9672 45.6188C57.9672 44.9869 58.0764 44.4491 58.295 43.9948C58.5136 43.5457 58.8258 43.1697 59.2213 42.8773C59.7261 42.4543 60.3142 42.1671 60.9959 42.0104C61.6777 41.8538 62.5831 41.7755 63.7124 41.7755H67.2616V39.6292H56.0104V36.6319H116.117V39.6292H110.997V44.8929H109.425C108.212 44.8929 107.25 44.9504 106.552 45.0653C105.85 45.1802 105.256 45.3734 104.778 45.6501C103.857 46.1775 103.393 46.9661 103.393 48.0157C103.393 48.9399 103.753 49.6971 104.476 50.2872C105.199 50.8773 106.375 51.1697 108.009 51.1697H108.306C108.4 51.1697 108.519 51.1593 108.665 51.1384C108.582 50.8251 108.54 50.5483 108.54 50.3185C108.54 49.5614 108.795 49.0183 109.31 48.6945C109.826 48.3708 110.382 48.2089 110.991 48.2089C112.017 48.2089 112.808 48.4909 113.364 49.0601C113.921 49.6292 114.197 50.2768 114.197 51.0131C114.197 51.7493 114.041 52.2715 113.723 52.6371C113.411 53.0026 113 53.295 112.501 53.5039C113.068 54.5117 113.822 55.6606 114.764 56.9399L111.84 58.2663C111.397 57.5718 110.986 56.846 110.601 56.0888C110.216 55.3316 109.883 54.6684 109.612 54.1044C109.066 54.1671 108.462 54.1984 107.791 54.1984C106.849 54.1984 105.912 54.0888 104.981 53.8694C104.049 53.6501 103.196 53.2898 102.42 52.799C101.645 52.3029 101.02 51.6449 100.552 50.8146C100.078 49.9843 99.8443 48.9608 99.8443 47.7389C99.8443 46.8146 100.011 46.0157 100.349 45.342C100.682 44.6684 101.145 44.0992 101.733 43.6397C102.405 43.0705 103.222 42.6475 104.184 42.3603C105.147 42.0783 106.224 41.9164 107.421 41.8695V39.6292H88.8845V44.7676C89.9097 44.0104 91.0962 43.6345 92.4337 43.6345C93.8596 43.6345 95.0305 44.0888 95.9516 44.9922C96.8727 45.8956 97.3359 47.1593 97.3359 48.7781C97.3359 49.7441 97.1694 50.7833 96.8311 51.9008C96.4981 53.0131 95.9516 54.1305 95.197 55.2428L92.0538 53.5091C92.5378 52.8564 92.9437 52.141 93.2819 51.3629C93.615 50.5849 93.7867 49.8068 93.7867 49.0287C93.7867 48.1671 93.6046 47.5457 93.2351 47.1697C92.8708 46.7937 92.392 46.6005 91.804 46.6005C91.2784 46.6005 90.7684 46.7676 90.2636 47.107C89.7588 47.4413 89.3008 47.8538 88.8793 48.3342V56.2454H85.2989V51.7076C84.6692 52.1305 84.0031 52.47 83.2901 52.7311C82.5772 52.9922 81.7393 53.1227 80.7766 53.1227C79.6889 53.1227 78.6793 52.9138 77.7582 52.4909C76.8371 52.0731 76.0981 51.4465 75.5413 50.6162C74.9844 49.7859 74.7086 48.752 74.7086 47.5091C74.7086 46.3551 74.9844 45.3525 75.5413 44.5117C76.0981 43.671 76.8631 43.0183 77.8363 42.5587C78.8094 42.094 79.9491 41.8642 81.2449 41.8642C81.7914 41.8642 82.3586 41.8903 82.9571 41.9426C83.5555 41.9948 84.0083 42.0627 84.3257 42.1462L84.0759 45.2063C83.7637 45.1227 83.3838 45.0548 82.9467 45.0026C82.5043 44.9504 82.088 44.9243 81.6873 44.9243C80.6204 44.9243 79.7878 45.1488 79.1893 45.6031C78.5908 46.0574 78.2942 46.6789 78.2942 47.4778C78.2942 48.423 78.5753 49.0966 79.1425 49.4935C79.7097 49.8903 80.3446 50.094 81.0576 50.094C81.9579 50.094 82.7541 49.8903 83.4462 49.4778C84.1384 49.0705 84.7577 48.5796 85.2989 48.0104V39.624H70.8472V44.7624H63.7749C63.166 44.7624 62.7445 44.7885 62.4999 44.8407C62.2605 44.8929 62.0523 44.9922 61.8858 45.1384C61.5944 45.3681 61.4435 45.6971 61.4435 46.1149C61.4435 46.6214 61.662 47.0914 62.1044 47.5352C63.1087 47.2637 64.1808 47.1279 65.3101 47.1279C66.9025 47.1279 68.1931 47.3577 69.1923 47.8225C70.1863 48.2872 70.9201 48.8773 71.3936 49.6031C71.8672 50.329 72.1014 51.1123 72.1014 51.953C72.1014 53.2585 71.7059 54.3081 70.9097 55.107C70.1134 55.906 68.9529 56.4961 67.4229 56.8721L66.3873 54.0052L66.3769 54.0104ZM150.62 74.2715L149.096 74.329C147.81 74.3812 146.915 74.5901 146.421 74.9504C145.926 75.3107 145.676 75.8225 145.676 76.4804C145.676 77.0601 145.853 77.4882 146.207 77.7598C146.561 78.0313 147.014 78.1671 147.571 78.1671C148.435 78.1671 149.158 77.9269 149.741 77.4413C150.329 76.9556 150.62 76.2089 150.62 75.201V74.2715ZM148.591 68.7885C149.85 68.7885 150.787 69.0653 151.391 69.624C151.994 70.1775 152.296 71.0653 152.296 72.2768V79.3473H151.057L150.73 77.8747H150.652C150.199 78.4439 149.725 78.8616 149.22 79.1332C148.721 79.4047 148.034 79.5405 147.175 79.5405C146.233 79.5405 145.458 79.2898 144.839 78.7937C144.219 78.2977 143.912 77.5196 143.912 76.4595C143.912 75.3995 144.318 74.6266 145.13 74.0679C145.942 73.5039 147.191 73.201 148.877 73.1488L150.636 73.0914V72.47C150.636 71.6031 150.449 71.0026 150.074 70.6684C149.699 70.3342 149.174 70.1671 148.492 70.1671C147.951 70.1671 147.435 70.2454 146.946 70.4073C146.457 70.5692 145.999 70.752 145.578 70.9608L145.057 69.6815C145.51 69.436 146.041 69.2272 146.66 69.0496C147.279 68.8773 147.919 68.7885 148.591 68.7885ZM134.436 64.6214V68.9452C134.436 69.4621 134.404 69.9478 134.337 70.3969H134.451C134.784 69.8695 135.242 69.4674 135.815 69.1958C136.387 68.9243 137.006 68.7885 137.678 68.7885C138.927 68.7885 139.869 69.0862 140.509 69.6919C141.144 70.2924 141.466 71.2585 141.466 72.5901V79.3525H139.785V72.705C139.785 71.0392 139.01 70.2037 137.47 70.2037C136.309 70.2037 135.518 70.5326 135.086 71.1802C134.654 71.8329 134.441 72.7676 134.441 73.9791V79.3473H132.739V64.6214H134.441H134.436ZM130.226 76.4804C130.226 77.4883 129.851 78.2507 129.107 78.7676C128.363 79.2846 127.353 79.5405 126.094 79.5405C125.375 79.5405 124.751 79.483 124.231 79.3681C123.71 79.2533 123.247 79.0914 122.851 78.8825V77.3316C123.263 77.5405 123.762 77.7285 124.35 77.906C124.938 78.0783 125.532 78.1671 126.135 78.1671C126.999 78.1671 127.624 78.0261 128.009 77.7493C128.394 77.4726 128.586 77.1018 128.586 76.6371C128.586 76.3812 128.513 76.1462 128.373 75.9373C128.232 75.7285 127.977 75.5248 127.608 75.3159C127.244 75.107 126.718 74.8773 126.036 74.6162C125.365 74.3551 124.793 74.0992 124.319 73.8433C123.84 73.5822 123.476 73.2742 123.216 72.9138C122.961 72.5535 122.831 72.0888 122.831 71.5196C122.831 70.6423 123.19 69.9634 123.903 69.483C124.616 69.0026 125.552 68.7676 126.713 68.7676C127.343 68.7676 127.931 68.8303 128.477 68.9608C129.023 69.0914 129.539 69.2585 130.012 69.4621L129.435 70.8198C128.997 70.6371 128.539 70.4856 128.066 70.3551C127.587 70.2245 127.098 70.1619 126.598 70.1619C125.901 70.1619 125.37 70.2768 125.006 70.5013C124.636 70.7258 124.454 71.0339 124.454 71.4204C124.454 71.718 124.538 71.9634 124.704 72.1567C124.871 72.3499 125.152 72.5431 125.542 72.7363C125.932 72.9295 126.458 73.1488 127.114 73.3943C127.769 73.6397 128.331 73.8903 128.794 74.1514C129.258 74.4073 129.612 74.7206 129.856 75.0914C130.101 75.4621 130.22 75.9217 130.22 76.4752L130.226 76.4804ZM120.338 68.7676C120.53 68.7676 120.739 68.7781 120.957 68.799C121.176 68.8198 121.373 68.846 121.556 68.8877L121.342 70.4595C121.176 70.423 120.988 70.3864 120.78 70.3603C120.572 70.3342 120.39 70.3238 120.218 70.3238C119.693 70.3238 119.193 70.47 118.73 70.7624C118.267 71.0548 117.897 71.4621 117.621 71.9843C117.346 72.5065 117.205 73.1175 117.205 73.8172V79.3577H115.503V68.9713H116.893L117.085 70.8721H117.163C117.486 70.3029 117.913 69.812 118.449 69.3995C118.985 68.9869 119.609 68.7781 120.333 68.7781L120.338 68.7676ZM110.622 74.2715L109.097 74.329C107.812 74.3812 106.917 74.5901 106.422 74.9504C105.928 75.3107 105.678 75.8225 105.678 76.4804C105.678 77.0601 105.855 77.4882 106.209 77.7598C106.563 78.0313 107.015 78.1671 107.572 78.1671C108.436 78.1671 109.16 77.9269 109.742 77.4413C110.33 76.9556 110.622 76.2089 110.622 75.201V74.2715ZM108.592 68.7885C109.852 68.7885 110.788 69.0653 111.392 69.624C111.996 70.1775 112.303 71.0653 112.298 72.2768V79.3473H111.064L110.736 77.8747H110.658C110.206 78.4439 109.732 78.8616 109.227 79.1332C108.728 79.4047 108.041 79.5405 107.182 79.5405C106.24 79.5405 105.465 79.2898 104.845 78.7937C104.226 78.2977 103.919 77.5196 103.919 76.4595C103.919 75.3995 104.325 74.6266 105.137 74.0679C105.949 73.5039 107.198 73.201 108.884 73.1488L110.643 73.0914V72.47C110.643 71.6031 110.455 71.0026 110.081 70.6684C109.706 70.3342 109.18 70.1671 108.499 70.1671C107.957 70.1671 107.442 70.2454 106.953 70.4073C106.464 70.5692 106.006 70.752 105.584 70.9608L105.064 69.6815C105.517 69.436 106.047 69.2272 106.667 69.0496C107.286 68.8773 107.926 68.7885 108.597 68.7885H108.592ZM96.7322 78.1305C97.8251 78.1305 98.5953 77.8329 99.0376 77.2272C99.48 76.6266 99.7037 75.718 99.7037 74.5065V74.1984C99.7037 72.9086 99.4904 71.9164 99.0636 71.2219C98.6369 70.5326 97.8511 70.1828 96.7062 70.1828C95.7903 70.1828 95.1086 70.5483 94.6506 71.2794C94.1927 72.0104 93.9637 72.9869 93.9637 74.2141C93.9637 75.4413 94.1927 76.4178 94.6506 77.1018C95.1086 77.7859 95.8007 78.1305 96.727 78.1305H96.7322ZM96.4616 79.5457C95.1762 79.5457 94.1458 79.0966 93.3704 78.1984C92.6002 77.3003 92.2099 75.9582 92.2099 74.1775C92.2099 72.3969 92.6002 71.0496 93.3756 70.1358C94.1562 69.2272 95.1866 68.7676 96.4772 68.7676C97.2735 68.7676 97.9292 68.9138 98.4392 69.2115C98.9492 69.5091 99.3603 69.8695 99.6829 70.2976H99.7974C99.7714 70.1305 99.7454 69.8799 99.7194 69.5509C99.6933 69.2219 99.6829 68.9608 99.6829 68.7676V64.6214H101.385V79.3473H100.016L99.7662 77.953H99.6881C99.3811 78.3916 98.9648 78.7676 98.4548 79.0757C97.9396 79.3838 97.2787 79.5405 96.4668 79.5405L96.4616 79.5457ZM84.8721 78.1305C85.9286 78.1305 86.678 77.8381 87.1307 77.248C87.5835 76.6632 87.8125 75.7598 87.8281 74.5431V74.1932C87.8281 72.8773 87.6095 71.8799 87.1724 71.201C86.7352 70.5222 85.9546 70.1828 84.8357 70.1828C83.9094 70.1828 83.2225 70.5483 82.7697 71.2794C82.317 72.0104 82.0932 72.9869 82.0932 74.2141C82.0932 75.4413 82.317 76.4021 82.7697 77.0914C83.2225 77.7807 83.9198 78.1253 84.8774 78.1253L84.8721 78.1305ZM87.8072 84V79.5614C87.8072 79.3264 87.8125 79.0601 87.8281 78.7467C87.8385 78.4386 87.8645 78.1723 87.9061 77.953H87.7917C87.495 78.3916 87.0891 78.7676 86.5635 79.0757C86.0431 79.3838 85.3718 79.5405 84.5443 79.5405C83.2953 79.5405 82.2805 79.0914 81.4999 78.1932C80.7193 77.295 80.329 75.953 80.329 74.1723C80.329 72.3916 80.7245 71.0444 81.5156 70.1305C82.3066 69.2219 83.337 68.7624 84.5963 68.7624C85.4082 68.7624 86.0691 68.9191 86.5843 69.2272C87.0995 69.5352 87.5106 69.9164 87.8229 70.3708H87.9009L88.1507 68.9556H89.5038V83.9948H87.802L87.8072 84ZM76.0252 74.2715L74.5004 74.329C73.215 74.3812 72.32 74.5901 71.8256 74.9504C71.3312 75.3107 71.0814 75.8225 71.0814 76.4804C71.0814 77.0601 71.2583 77.4882 71.6122 77.7598C71.9661 78.0313 72.4188 78.1671 72.9757 78.1671C73.8395 78.1671 74.5629 77.9269 75.151 77.4413C75.7338 76.9556 76.0304 76.2089 76.0304 75.201V74.2715H76.0252ZM73.9957 68.7885C75.2551 68.7885 76.1918 69.0653 76.7955 69.624C77.3991 70.1775 77.701 71.0653 77.701 72.2768V79.3473H76.4676L76.1397 77.8747H76.0617C75.6089 78.4439 75.1353 78.8616 74.6306 79.1332C74.1258 79.4047 73.444 79.5405 72.5854 79.5405C71.6434 79.5405 70.868 79.2898 70.2487 78.7937C69.6295 78.2977 69.3224 77.5196 69.3224 76.4595C69.3224 75.3995 69.7283 74.6266 70.5402 74.0679C71.352 73.5039 72.601 73.201 74.2871 73.1488L76.0461 73.0914V72.47C76.0461 71.6031 75.8587 71.0026 75.484 70.6684C75.1093 70.3342 74.5837 70.1671 73.902 70.1671C73.3608 70.1671 72.8456 70.2454 72.3564 70.4073C71.8672 70.5692 71.4092 70.752 70.9877 70.9608L70.4673 69.6815C70.9201 69.436 71.4509 69.2272 72.0702 69.0496C72.6894 68.8773 73.3296 68.7885 74.0009 68.7885H73.9957ZM66.5434 79.3473H64.8053V72.8929H57.7382V79.3473H56V65.5091H57.7382V71.3629H64.8053V65.5091H66.5434V79.3473ZM157.177 64.6214V72.3133C157.177 72.5222 157.167 72.7937 157.146 73.1279C157.125 73.4621 157.11 73.7546 157.099 74H157.177C157.256 73.8956 157.37 73.7493 157.526 73.5561C157.682 73.3629 157.838 73.1645 158 72.9661C158.161 72.7676 158.302 72.6005 158.416 72.47L161.721 68.9608H163.709L159.519 73.3995L164 79.3473H161.955L158.364 74.5013L157.188 75.53V79.3473H155.507V64.6214H157.188H157.177ZM163.995 39.6345H153.847V44.7728C154.872 44.0157 156.059 43.6397 157.396 43.6397C158.822 43.6397 159.993 44.094 160.914 44.9974C161.835 45.9008 162.298 47.1645 162.298 48.7833C162.298 49.7493 162.132 50.7885 161.793 51.906C161.46 53.0183 160.914 54.1358 160.159 55.248L157.016 53.5144C157.5 52.8616 157.906 52.1462 158.244 51.3681C158.577 50.5901 158.749 49.812 158.749 49.0339C158.749 48.1723 158.567 47.5509 158.197 47.1749C157.833 46.799 157.354 46.6057 156.766 46.6057C156.241 46.6057 155.731 46.7728 155.226 47.1123C154.721 47.4465 154.263 47.859 153.842 48.3394V56.2559H150.261V51.718C149.632 52.141 148.965 52.4804 148.252 52.7415C147.54 53.0026 146.702 53.1332 145.739 53.1332C144.651 53.1332 143.642 52.9243 142.721 52.5013C141.799 52.0835 141.06 51.4569 140.504 50.6266C139.947 49.7963 139.671 48.7624 139.671 47.5196C139.671 46.3655 139.947 45.3629 140.504 44.5222C141.06 43.6815 141.825 43.0287 142.799 42.5692C143.772 42.1044 144.911 41.8747 146.207 41.8747C146.754 41.8747 147.321 41.9008 147.919 41.953C148.518 42.0052 148.971 42.0731 149.288 42.1567L149.038 45.2167C148.726 45.1332 148.346 45.0653 147.909 45.0131C147.467 44.9608 147.05 44.9347 146.65 44.9347C145.583 44.9347 144.75 45.1593 144.152 45.6136C143.553 46.0679 143.257 46.6893 143.257 47.4882C143.257 48.4334 143.538 49.107 144.105 49.5039C144.672 49.9008 145.307 50.1044 146.02 50.1044C146.92 50.1044 147.716 49.9008 148.409 49.4882C149.101 49.0809 149.72 48.5901 150.261 48.0209V39.6345H135.778V56.2507H132.198V39.6345H129.684V36.6371H131.501C131.121 35.9896 130.808 35.3211 130.564 34.6371C130.293 33.8695 130.158 33.1279 130.158 32.4125C130.158 30.9191 130.668 29.812 131.683 29.0862C132.698 28.3603 133.973 28 135.503 28C136.195 28 136.845 28.0522 137.449 28.1567C138.058 28.2611 138.589 28.3969 139.052 28.564L138.297 31.2115C137.522 30.9191 136.798 30.7676 136.132 30.7676C135.294 30.7676 134.68 30.9765 134.295 31.3995C133.91 31.8225 133.712 32.4178 133.712 33.1958C133.712 33.7859 133.842 34.3864 134.103 35.0078C134.332 35.5509 134.623 36.094 134.977 36.6319H164V39.6292L163.995 39.6345Z" fill="white"/>
</g>
</svg>
