<svg width="220" height="112" viewBox="0 0 220 112" fill="none" xmlns="http://www.w3.org/2000/svg">
<g opacity="0.4">
<path d="M38.4948 56.8966C38.4948 51.4451 38.4948 48.699 39.2441 46.5225C40.621 42.5356 43.7192 39.403 47.688 37.9994C49.875 37.2468 52.5681 37.2468 57.9747 37.2468C63.3813 37.2468 66.0947 37.2468 68.2613 37.9994C72.21 39.3826 75.3284 42.5152 76.7053 46.5225C77.4545 48.7194 77.4545 51.4451 77.4545 56.8966C77.4545 62.3482 77.4545 65.0943 76.7053 67.2708C75.3284 71.2577 72.2302 74.3903 68.2613 75.7939C66.0744 76.5465 63.3813 76.5465 57.9747 76.5465C52.5681 76.5465 49.8547 76.5465 47.688 75.7939C43.7394 74.4106 40.621 71.2781 39.2441 67.2708C38.4948 65.0943 38.4948 62.3685 38.4948 56.8966Z" stroke="white" stroke-width="1.59941"/>
<path d="M161.26 51.2256L157.495 62.5701L153.794 51.2256H149.045L154.729 66.8987H160.079L165.83 51.2256H161.26Z" fill="white"/>
<path d="M134.848 54.6878V51.2256H130.679V66.8987H135.138V60.2939C135.138 56.6894 137.365 55.479 140.085 55.479H141.446V51.2256H140.508C137.922 51.2256 135.658 52.2183 134.848 54.6878Z" fill="white"/>
<path d="M118.262 47.1044H110.529V66.8987H118.262C124.414 66.8987 128.695 62.9362 128.672 56.9802C128.65 51.1137 124.458 47.1044 118.262 47.1044ZM118.262 62.5782H115.075V51.427H118.262C121.672 51.427 123.991 53.6889 123.991 56.9802C123.991 60.2714 121.672 62.5782 118.262 62.5782Z" fill="white"/>
<path d="M101.927 50.9123C99.9911 50.9327 98.0027 51.6711 96.733 53.5364V51.2256H92.4766V66.8987H96.9335V59.0387C96.9335 56.1726 98.3834 54.7406 100.254 54.7406C102.125 54.7406 103.353 55.9265 103.353 58.815V66.8987H107.811V57.2711C107.811 53.5547 105.627 50.8899 101.927 50.9123Z" fill="white"/>
<path d="M89.7575 51.226V66.8988H85.2985V51.226H89.7575ZM89.7575 44.934V49.3666H85.2985V44.934H89.7575Z" fill="white"/>
<path d="M147.442 51.2256H142.983V66.8987H147.442V51.2256Z" fill="white"/>
<path d="M147.442 44.934H142.983V49.3664H147.442V44.934Z" fill="white"/>
<path d="M54.0273 52.8814H49.2788V66.8987H54.0273V52.8814Z" fill="white"/>
<path d="M59.9564 46.1871H56.2123V50.8676H59.8451C63.166 50.8676 65.4622 53.2415 65.4622 56.5104C65.4622 59.7792 63.166 62.2202 59.8451 62.2202H56.2123V66.9008H59.9564C65.8409 66.9008 70.2755 62.3768 70.2755 56.49C70.2755 50.6032 65.8409 46.1911 59.9564 46.1911V46.1871Z" fill="white"/>
<path d="M54.0273 46.1871H49.2788V50.8676H54.0273V46.1871Z" fill="white"/>
<path d="M174.053 50.8676C169.084 50.8676 165.786 54.5168 165.786 59.1079C165.786 63.699 169.24 67.3035 174.278 67.2587C177.265 67.2364 179.515 65.9162 181.276 63.6542L178.067 61.616C177.198 62.7348 175.86 63.3857 174.367 63.3857C172.616 63.3857 170.88 62.3666 170.307 60.4749H181.945C182.746 55.3915 179.247 50.8696 174.053 50.8696V50.8676ZM174.189 54.4945C176.119 54.4945 177.654 55.7841 177.846 57.4501H170.321C170.89 55.4403 172.516 54.4945 174.189 54.4945Z" fill="white"/>
</g>
</svg>
