<svg width="220" height="112" viewBox="0 0 220 112" fill="none" xmlns="http://www.w3.org/2000/svg">
<g opacity="0.4">
<path fill-rule="evenodd" clip-rule="evenodd" d="M124.578 45.6091H107.437V51.199H113.166V63.1584H118.754V51.199H124.578V45.6091ZM141.327 63.1125L135.925 45.6091H129.123L123.721 63.1125H129.31L132.524 50.6671L135.738 63.1125H141.327ZM158.439 45.6091H141.299V51.199H147.028V63.1584H152.615V51.199H158.439V45.6091ZM175 63.1125L169.597 45.6091H162.797L157.393 63.1125H162.984L166.198 50.6671L169.41 63.1125H175ZM65.7618 64.3781C66.9793 59.2062 67.8825 54.1578 67.8825 54.1578C67.8825 54.1578 68.3367 52.4927 67.4283 51.3573C66.52 50.2218 63.7195 50.6006 63.7195 50.6006C63.7195 50.6006 59.3693 50.6523 54.9356 51.1864C50.9871 51.6628 46.958 52.4461 45.4727 52.7472C45.1621 53.8083 45.003 54.908 45 56.0137C45 63.8063 52.7875 70.4177 63.5989 72.7796C64.1662 70.7173 65.0191 67.5285 65.7618 64.3781Z" fill="white"/>
<path fill-rule="evenodd" clip-rule="evenodd" d="M73.7978 61.1227C73.746 54.8553 73.9213 49.0102 73.9213 49.0102C73.9213 49.0102 73.7201 48.13 74.2815 47.6995C74.8563 47.2594 76.1922 47.2697 76.1922 47.2697C76.1922 47.2697 81.3745 47.4154 87.1818 48.1603C91.4217 48.7055 96.0064 49.5798 98.0768 49.9933C94.2703 43.1822 84.1897 38.315 72.3509 38.315C60.4655 38.315 50.3561 43.2214 46.5836 50.0724C48.3988 49.707 53.3333 48.7447 57.8773 48.1611C63.6846 47.4162 68.8655 47.2705 68.8655 47.2705C68.8655 47.2705 70.2028 47.2601 70.7768 47.7002C71.3383 48.1307 71.1371 49.011 71.1371 49.011C71.1371 49.011 71.3131 54.856 71.2606 61.1235C71.2192 65.9271 71.0712 70.9651 70.981 73.688C71.4344 73.7027 71.8901 73.7109 72.3502 73.7109C72.9301 73.7109 73.5048 73.6953 74.0759 73.6717C73.9864 70.9437 73.8392 65.9167 73.7978 61.1227Z" fill="white"/>
<path fill-rule="evenodd" clip-rule="evenodd" d="M90.1244 51.1857C85.6906 50.6516 81.3397 50.5998 81.3397 50.5998C81.3397 50.5998 78.54 50.2218 77.6302 51.3565C76.7226 52.492 77.1775 54.157 77.1775 54.157C77.1775 54.157 78.0799 59.2054 79.2974 64.3774C80.0305 67.4908 80.8723 70.6404 81.4396 72.7049C92.0764 70.2809 99.7019 63.7228 99.7019 56.0129C99.7019 54.8694 99.5281 53.7539 99.2086 52.671C97.494 52.3285 93.774 51.6258 90.1244 51.1857Z" fill="white"/>
</g>
</svg>
