<svg width="220" height="112" viewBox="0 0 220 112" fill="none" xmlns="http://www.w3.org/2000/svg">
<g opacity="0.4">
<path d="M137.591 78.7353C137.591 80.5036 136.459 81.658 134.792 81.6582C133.587 81.6582 132.707 81.1477 132.247 80.206L133.443 79.5527C133.668 79.9932 134.117 80.3299 134.771 80.3301C135.639 80.3301 136.141 79.6975 136.141 78.7558V78.6123C135.864 79.0228 135.415 79.247 134.792 79.2471C133.148 79.2471 132.432 78.1963 132.432 76.6933V74.1279H133.861V76.6426C133.861 77.379 134.261 77.8799 134.977 77.8799C135.63 77.8797 136.121 77.3373 136.121 76.6123L136.117 76.6084V74.124H137.591V78.7353ZM106.191 73.9473C107.798 73.9473 108.727 75.134 108.727 76.5127V76.9404H104.965C105.067 77.6145 105.587 78.0643 106.314 78.0644C106.865 78.0644 107.327 77.799 107.561 77.3281L108.676 77.8896C108.235 78.7992 107.397 79.3212 106.325 79.3213C104.749 79.3213 103.564 78.2283 103.564 76.6123C103.564 75.1508 104.628 73.9453 106.191 73.9453V73.9473ZM128.751 73.9473C130.356 73.9473 131.286 75.134 131.286 76.5127V76.9404H127.525C127.627 77.6145 128.147 78.0644 128.874 78.0644C129.426 78.0644 129.886 77.7989 130.121 77.3281L131.235 77.8896C130.795 78.7991 129.956 79.3213 128.885 79.3213C127.309 79.3211 126.124 78.2282 126.124 76.6123C126.124 75.1509 127.188 73.9455 128.751 73.9453V73.9473ZM141.438 73.9756C143.019 73.9761 144.185 75.1211 144.185 76.6426V79.1875H142.806V78.5937C142.448 79.0438 141.896 79.3212 141.201 79.3213C139.73 79.3213 138.698 78.0928 138.698 76.6426C138.698 75.1926 139.884 73.976 141.438 73.9756ZM79.6046 71.9072C81.5717 71.3114 83.6493 72.4235 84.2452 74.3906C84.841 76.3577 83.7298 78.4353 81.7628 79.0312C79.7956 79.627 77.7179 78.515 77.1221 76.5478C76.5265 74.5808 77.6376 72.5031 79.6046 71.9072ZM90.3087 71.9072C92.2758 71.3114 94.3534 72.4226 94.9493 74.3896C95.5451 76.3568 94.4331 78.4345 92.4659 79.0303C90.4988 79.6259 88.4211 78.5148 87.8253 76.5478C87.2295 74.5806 88.3415 72.503 90.3087 71.9072ZM122.679 73.9433C124.325 73.9433 125.163 75.1283 125.163 76.539V79.1875H123.711V76.7861C123.711 76.0101 123.364 75.3564 122.577 75.3564C121.79 75.3566 121.453 76.0003 121.453 76.7666V79.1894H120.001V76.7783C120.001 76.0023 119.684 75.3584 118.876 75.3584C118.068 75.3586 117.752 76.0119 117.752 76.7783V79.1894H116.3V76.541C116.3 75.1303 117.129 73.9453 118.764 73.9453C119.734 73.9454 120.438 74.3754 120.735 75.0703C121.052 74.3734 121.768 73.9453 122.678 73.9453L122.676 73.9433H122.679ZM103.594 73.6894H101.569V79.1875H100.078V73.6894H98.0548V72.3086H103.594V73.6894ZM112.426 73.9853C114.194 73.9854 115.083 75.1809 115.083 76.6631V79.1875H113.631V76.8369C113.631 76.061 113.243 75.3956 112.426 75.3955C111.608 75.3955 111.241 76.0609 111.241 76.8369V79.1875H109.789V76.6631C109.789 75.1903 110.657 73.9853 112.426 73.9853ZM141.439 75.3428C140.691 75.3428 140.15 75.9366 140.15 76.6523C140.151 77.3679 140.691 77.9609 141.439 77.9609C142.184 77.9608 142.736 77.3697 142.736 76.6523C142.736 75.9348 142.186 75.3428 141.439 75.3428ZM106.18 75.2129C105.547 75.213 105.129 75.6216 105.025 76.1318H107.284C107.222 75.6102 106.812 75.2129 106.18 75.2129ZM128.74 75.2129C128.108 75.2129 127.69 75.6216 127.586 76.1318H129.844C129.782 75.6103 129.373 75.2129 128.74 75.2129ZM60.753 38.8545C66.9985 38.9336 72.7239 43.0176 75.1046 48.7471C76.4832 52.0637 75.8713 55.7345 77.9825 58.7724C79.9902 61.6634 83.4277 63.5164 86.9571 63.5166C89.6787 63.5166 92.1632 62.5109 94.0655 60.8535C93.2858 58.9871 92.8546 56.9399 92.8546 54.793C92.8546 46.1008 99.8988 39.0566 108.591 39.0566C117.283 39.0566 124.327 46.1027 124.327 54.793C124.327 57.0172 123.862 59.1325 123.029 61.0498C124.898 62.5885 127.286 63.5166 129.897 63.5166C134.867 63.5166 139.056 60.168 140.329 55.6025C140.809 53.8868 142.405 52.6875 144.126 52.6875C145.847 52.6875 147.35 53.8075 147.87 55.4365C149.136 60.1921 153.568 63.6526 158.766 63.4551C162.06 63.3289 165.168 61.637 167.105 58.9775C169.596 55.5572 169.713 50.4191 168.393 46.5185C167.852 44.9215 166.869 43.1024 167.445 41.3867C167.907 40.01 169.325 39.0338 170.782 39.126C172.291 39.2201 173.274 40.1713 173.952 41.3935L173.95 41.3974C174.613 42.5897 174.989 44.0443 175.284 45.2158C176.706 50.8679 176.109 58.1622 172.585 63.0176C169.197 67.6866 163.347 70.3989 157.617 70.1748C152.119 69.9582 147.241 67.1686 144.158 62.9892C140.962 67.4059 135.767 70.2822 129.899 70.2822C125.808 70.2822 122.048 68.8791 119.061 66.5361C116.279 69.0165 112.687 70.5273 108.593 70.5273C104.498 70.5273 100.769 68.9618 97.9698 66.3984C94.9563 68.8242 91.1309 70.2822 86.961 70.2822C81.2599 70.2821 76.2014 67.5622 72.9864 63.3584C72.9732 63.349 72.9575 63.3243 72.9424 63.3017C72.8861 63.2266 72.826 63.1552 72.7716 63.0801C72.7734 63.0744 72.7756 63.0671 72.7794 63.0615C72.5855 62.7829 72.3267 62.4175 72.2569 62.2949C72.1458 62.0971 72.0423 61.9028 71.9424 61.7051C71.9424 61.7013 71.9385 61.6991 71.9385 61.6953C71.7221 61.2698 71.5266 60.8348 71.3497 60.3887C71.3478 60.383 71.3438 60.3768 71.3438 60.373C71.3081 60.281 71.2702 60.1927 71.2364 60.1025C71.1818 59.9594 71.133 59.8159 71.0841 59.6709C71.0577 59.5937 71.0313 59.5146 71.0049 59.4355C70.8995 59.104 70.7997 58.7667 70.7149 58.4258C70.6735 58.2582 70.6335 58.0884 70.5977 57.9189C70.4866 57.3992 70.4002 56.8717 70.3399 56.3369C70.3136 56.0997 70.2944 55.8682 70.2794 55.6348C70.2775 55.6104 70.2735 55.5878 70.2735 55.5635C70.2528 55.2414 70.2403 54.9166 70.2403 54.5889C70.2363 49.2402 66.1078 44.9045 60.5538 44.9043C54.9995 44.9043 50.5374 49.5793 50.8878 55.209C51.1967 60.1737 55.3383 64.15 60.3106 64.2724C62.4728 64.327 64.4766 63.6673 66.1114 62.5166C67.5956 61.4694 69.666 61.995 70.5098 63.6035C71.2104 64.9407 70.8313 66.6025 69.5958 67.4707C66.9722 69.3163 63.7604 70.3798 60.295 70.3252C52.0795 70.1931 45.2522 63.6162 44.836 55.4101C44.3729 46.2793 51.6975 38.7415 60.753 38.8545ZM108.559 45.1904C103.236 45.1905 98.9192 49.5077 98.919 54.8301C98.919 60.1526 103.234 64.4696 108.559 64.4697C113.881 64.4697 118.198 60.1527 118.198 54.8301C118.198 49.5076 113.881 45.1904 108.559 45.1904ZM129.848 30.2549C131.917 30.2549 133.594 31.9321 133.594 34.001C133.594 36.0699 131.917 37.747 129.848 37.7471C127.779 37.7471 126.102 36.0699 126.102 34.001C126.102 31.9321 127.779 30.2549 129.848 30.2549ZM160.322 32.0234C161.403 30.275 163.697 29.7328 165.445 30.8135C167.194 31.8941 167.735 34.1881 166.654 35.9365C165.574 37.6849 163.28 38.2262 161.531 37.1455C159.783 36.0649 159.242 33.7717 160.322 32.0234ZM65.837 30.2568C67.8922 30.2571 69.5587 31.9232 69.5587 33.9785C69.5586 36.0337 67.8922 37.6999 65.837 37.7002C63.7816 37.7002 62.1154 36.0339 62.1153 33.9785C62.1153 31.9231 63.7815 30.2568 65.837 30.2568ZM55.1309 30.2549C57.1863 30.2549 58.8526 31.9211 58.8526 33.9765C58.8526 36.032 57.1864 37.6982 55.1309 37.6982C53.0755 37.6982 51.4092 36.032 51.4092 33.9765C51.4093 31.9212 53.0755 30.2549 55.1309 30.2549ZM152.778 30.2549C154.834 30.2549 156.5 31.9211 156.5 33.9765C156.5 36.032 154.834 37.6982 152.778 37.6982C150.723 37.6981 149.057 36.0319 149.057 33.9765C149.057 31.9212 150.723 30.255 152.778 30.2549Z" fill="white"/>
</g>
</svg>
