<svg width="220" height="112" viewBox="0 0 220 112" fill="none" xmlns="http://www.w3.org/2000/svg">
<g opacity="0.4">
<g clip-path="url(#clip0_2319_6284)">
<path d="M89.8261 27.7526H84.959V26.4982H96.1482V27.7526H91.2812V40.3216H89.8261V27.7526Z" fill="white"/>
<path d="M114.011 26.4982V40.3216H112.556V33.9493H103.9V40.3216H102.445V26.4982H103.9V32.6698H112.556V26.4982H114.011Z" fill="white"/>
<path d="M132.249 39.0672V40.3216H122.465V26.4982H131.948V27.7526H123.92V32.6698H131.07V33.9242H123.92V39.0672H132.249Z" fill="white"/>
<path d="M70.7344 48.6256V62.4489H68.1002L61.201 54.0446V62.4489H58.04V48.6256H60.6993L67.5733 57.03V48.6256H70.7344Z" fill="white"/>
<path d="M87.0665 59.4886H80.6441L79.4148 62.4489H76.1283L82.2999 48.6256H85.4609L91.6576 62.4489H88.2958L87.0665 59.4886ZM86.063 57.0551L83.8804 51.7616L81.6727 57.0551H86.063Z" fill="white"/>
<path d="M99.234 51.2347H94.8185V48.6256H106.886V51.2347H102.445V62.4489H99.234V51.2347Z" fill="white"/>
<path d="M113.835 61.0691C112.731 59.9653 112.179 58.4098 112.179 56.3777V48.6256H115.391V56.2523C115.391 58.736 116.419 59.9653 118.476 59.9653C119.48 59.9653 120.232 59.6642 120.759 59.0621C121.286 58.46 121.562 57.5318 121.562 56.2523V48.6256H124.723V56.3777C124.723 58.4098 124.171 59.9653 123.067 61.0691C121.964 62.173 120.433 62.6998 118.451 62.6998C116.469 62.6998 114.939 62.1479 113.835 61.0691Z" fill="white"/>
<path d="M140.629 62.4489L137.969 58.5854H135.034V62.4489H131.823V48.6256H137.819C139.048 48.6256 140.102 48.8263 141.005 49.2277C141.908 49.6291 142.611 50.2061 143.087 50.9588C143.564 51.7114 143.815 52.5895 143.815 53.6181C143.815 54.6467 143.564 55.5247 143.087 56.2774C142.611 57.03 141.883 57.5819 140.98 57.9833L144.091 62.4239H140.654L140.629 62.4489ZM139.826 51.8368C139.324 51.4103 138.597 51.2096 137.643 51.2096H135.034V56.0265H137.643C138.597 56.0265 139.324 55.8258 139.826 55.3993C140.328 54.9728 140.579 54.3958 140.579 53.6181C140.579 52.8404 140.328 52.2382 139.826 51.8368Z" fill="white"/>
<path d="M161 59.89V62.4489H150.288V48.6256H160.749V51.1846H153.474V54.1951H159.896V56.6788H153.474V59.89H161Z" fill="white"/>
<path d="M71.211 84.225C70.2577 83.8989 69.5301 83.4724 69.0284 82.9205L69.6054 81.7915C70.1072 82.2933 70.7594 82.6947 71.6124 83.0208C72.4403 83.3219 73.2933 83.4724 74.1714 83.4724C75.4007 83.4724 76.3289 83.2466 76.9561 82.795C77.5833 82.3435 77.8843 81.7414 77.8843 81.0138C77.8843 80.4619 77.7087 80.0103 77.3826 79.6842C77.0565 79.358 76.63 79.1072 76.1533 78.9315C75.6515 78.7559 74.9993 78.5552 74.1212 78.3545C73.0926 78.0786 72.2396 77.8277 71.6375 77.6019C71.0103 77.351 70.4835 76.9747 70.057 76.4729C69.6054 75.9712 69.4047 75.2938 69.4047 74.4408C69.4047 73.7384 69.5803 73.1112 69.9566 72.5342C70.3329 71.9571 70.8849 71.5056 71.6626 71.1543C72.4152 70.8031 73.3686 70.6526 74.4975 70.6526C75.2752 70.6526 76.0529 70.7529 76.8307 70.9787C77.5833 71.2045 78.2356 71.5056 78.7875 71.8819L78.2858 73.0359C77.7087 72.6596 77.0815 72.3586 76.4293 72.1829C75.777 72.0073 75.1247 71.907 74.4975 71.907C73.2933 71.907 72.365 72.1328 71.7629 72.6094C71.1608 73.0861 70.8347 73.6882 70.8347 74.4157C70.8347 74.9677 71.0103 75.4193 71.3365 75.7454C71.6626 76.0715 72.0891 76.3475 72.5908 76.5231C73.0926 76.6987 73.77 76.8994 74.648 77.1001C75.6515 77.351 76.4794 77.6019 77.1066 77.8277C77.7338 78.0786 78.2607 78.4298 78.6872 78.9315C79.1136 79.4333 79.3394 80.0856 79.3394 80.9386C79.3394 81.641 79.1638 82.2682 78.7875 82.8452C78.4112 83.4222 77.8342 83.8738 77.0565 84.2C76.2787 84.5261 75.3254 84.7017 74.1965 84.7017C73.1679 84.7017 72.1894 84.5261 71.2361 84.2L71.211 84.225Z" fill="white"/>
<path d="M88.9481 72.0325H84.0811V70.7781H95.2702V72.0325H90.4032V84.6015H88.9481V72.0325Z" fill="white"/>
<path d="M103.675 83.7986C102.571 83.1965 101.693 82.3435 101.066 81.2898C100.438 80.2111 100.112 79.0319 100.112 77.7023C100.112 76.3726 100.413 75.1684 101.066 74.1148C101.693 73.0611 102.571 72.2081 103.675 71.606C104.779 71.0039 106.033 70.6777 107.413 70.6777C108.793 70.6777 110.022 70.9788 111.126 71.5809C112.23 72.183 113.083 73.036 113.735 74.0897C114.362 75.1684 114.688 76.3726 114.688 77.7023C114.688 79.0319 114.362 80.2362 113.735 81.3149C113.108 82.3937 112.23 83.2216 111.126 83.8237C110.022 84.4258 108.793 84.7269 107.413 84.7269C106.033 84.7269 104.804 84.4258 103.675 83.7986ZM110.373 82.6697C111.251 82.1679 111.954 81.4905 112.455 80.6125C112.957 79.7344 113.208 78.756 113.208 77.6772C113.208 76.5984 112.957 75.62 112.455 74.7419C111.954 73.8639 111.276 73.1865 110.373 72.6848C109.495 72.183 108.491 71.9321 107.413 71.9321C106.334 71.9321 105.33 72.183 104.427 72.6848C103.549 73.1865 102.847 73.8639 102.345 74.7419C101.843 75.62 101.592 76.5984 101.592 77.6772C101.592 78.756 101.843 79.7344 102.345 80.6125C102.847 81.4905 103.549 82.1679 104.427 82.6697C105.305 83.1714 106.309 83.4223 107.413 83.4223C108.517 83.4223 109.495 83.1714 110.373 82.6697Z" fill="white"/>
<path d="M131.321 84.6015L128.16 80.1609C127.809 80.2111 127.433 80.2111 127.056 80.2111H123.343V84.6015H121.888V70.7781H127.056C128.813 70.7781 130.192 71.2046 131.196 72.0325C132.199 72.8855 132.701 74.0395 132.701 75.5197C132.701 76.5985 132.425 77.5016 131.873 78.2543C131.321 79.0069 130.544 79.5338 129.54 79.8599L132.927 84.6015H131.321ZM130.167 78.0536C130.895 77.4515 131.246 76.5985 131.246 75.4946C131.246 74.3908 130.895 73.5127 130.167 72.9106C129.44 72.3085 128.386 72.0074 127.031 72.0074H123.343V78.9567H127.031C128.411 78.9567 129.44 78.6557 130.167 78.0536Z" fill="white"/>
<path d="M144.668 79.8097V84.6014H143.213V79.8097L137.668 70.753H139.224L143.965 78.5302L148.707 70.753H150.162L144.618 79.8097H144.668Z" fill="white"/>
</g>
</g>
<defs>
<clipPath id="clip0_2319_6284">
<rect width="102.96" height="58.2035" fill="white" transform="translate(58.04 26.4982)"/>
</clipPath>
</defs>
</svg>
