<svg xmlns="http://www.w3.org/2000/svg" width="100" height="100" viewBox="0 0 100 100" fill="none"><metadata><rdf:RDF xmlns:rdf="http://www.w3.org/1999/02/22-rdf-syntax-ns#" xmlns:dc="http://purl.org/dc/elements/1.1/"><rdf:Description><dc:creator>RealFaviconGenerator</dc:creator><dc:source>https://realfavicongenerator.net</dc:source></rdf:Description></rdf:RDF></metadata><g clip-path="url(#clip0_2348_231)">
<rect width="100" height="100" rx="50" fill="#E4572E"></rect>
<rect width="100" height="100" rx="50" fill="white" fill-opacity="0.02"></rect>
<mask id="mask0_2348_231" style="mask-type:luminance" maskUnits="userSpaceOnUse" x="12" y="12" width="77" height="76">
<path d="M88.6916 12H12V88H88.6916V12Z" fill="white"></path>
</mask>
<g mask="url(#mask0_2348_231)">
<path d="M50.3529 20.2867L46.8286 22.8462L48.1748 18.7042L44.6504 16.1421H49.0066L50.3529 12L51.6991 16.1421H56.0553L52.531 18.7042L53.8773 22.8462L50.3529 20.2867Z" fill="white"></path>
<path d="M66.4719 24.3612L62.9476 26.9233L64.2939 22.7787L60.7695 20.2191H65.1257L66.4719 16.0746L67.8183 20.2191H72.1769L68.6525 22.7787L69.9988 26.9233L66.4719 24.3612Z" fill="white"></path>
<path d="M78.1272 36.3575L74.6028 38.917L75.9492 34.7725L72.4248 32.2129H76.781L78.1272 28.0708L79.4736 32.2129H83.8297L80.3054 34.7725L81.6516 38.917L78.1272 36.3575Z" fill="white"></path>
<path d="M82.9895 53.1285L79.4651 55.6881L80.8114 51.546L77.2871 48.9839H81.6433L82.9895 44.8418L84.3357 48.9839H88.6919L85.1677 51.546L86.5139 55.6881L82.9895 53.1285Z" fill="white"></path>
<path d="M78.0794 68.9247L74.555 71.4868L75.9013 67.3423L72.377 64.7827H76.7331L78.0794 60.6381L79.4256 64.7827H83.7819L80.2575 67.3423L81.6037 71.4868L78.0794 68.9247Z" fill="white"></path>
<path d="M66.4506 80.6463L62.9262 83.206L64.2724 79.0638L60.748 76.5017H65.1042L66.4506 72.3596L67.7968 76.5017H72.153L68.6286 79.0638L69.9748 83.206L66.4506 80.6463Z" fill="white"></path>
<path d="M33.9729 24.3612L37.4973 26.9233L36.1511 22.7787L39.6754 20.2191H35.3193L33.9729 16.0746L32.6267 20.2191H28.2705L31.7949 22.7787L30.4485 26.9233L33.9729 24.3612Z" fill="white"></path>
<path d="M22.3231 36.3575L25.8474 38.917L24.5012 34.7725L28.0255 32.2129H23.6693L22.3231 28.0708L20.9768 32.2129H16.6182L20.145 34.7725L18.7987 38.917L22.3231 36.3575Z" fill="white"></path>
<path d="M17.7025 53.1285L21.2268 55.6881L19.8806 51.546L23.4049 48.9839H19.0487L17.7025 44.8418L16.3562 48.9839H12L15.5244 51.546L14.1781 55.6881L17.7025 53.1285Z" fill="white"></path>
<path d="M22.3656 68.9247L25.8899 71.4868L24.5437 67.3423L28.0704 64.7827H23.7118L22.3656 60.6381L21.0193 64.7827H16.6631L20.1874 67.3423L18.8412 71.4868L22.3656 68.9247Z" fill="white"></path>
<path d="M33.9944 80.6463L37.5188 83.206L36.1726 79.0638L39.6969 76.5017H35.3406L33.9944 72.3596L32.6482 76.5017H28.292L31.8164 79.0638L30.47 83.206L33.9944 80.6463Z" fill="white"></path>
<path d="M50.3938 85.4408L46.8694 88.0004L48.2157 83.8583L44.6914 81.2987H49.0476L50.3938 77.1542L51.74 81.2987H56.0962L52.572 83.8583L53.9182 88.0004L50.3938 85.4408Z" fill="white"></path>
<path d="M47.276 59.1802L39.585 51.4891L42.5433 48.5308L47.276 53.2636L58.1198 42.4198L61.0781 45.3781L47.276 59.1802Z" fill="white"></path>
</g>
</g><defs>
<clipPath id="clip0_2348_231">
<rect width="100" height="100" rx="50" fill="white"></rect>
</clipPath>
</defs></svg>