<svg width="17" height="17" viewBox="0 0 17 17" fill="none" xmlns="http://www.w3.org/2000/svg">
<rect x="0.5" y="0.5" width="16" height="16" rx="8" fill="#E0FF00"/>
<g clip-path="url(#clip0_978_356)">
<path d="M5.08196 11.3382L4.73194 11.7007L3.38923 13.0923L4.0875 13.7678L5.44079 12.3677C6.29251 13.0262 7.36469 13.4103 8.52277 13.3901C11.2333 13.3427 13.4002 11.1001 13.3529 8.38954C13.3357 7.4066 13.029 6.49426 12.5152 5.73451L11.8349 5.74639L13.6107 3.90742L12.9113 3.23195L11.5323 4.65997C10.6654 3.95406 9.55454 3.53844 8.35118 3.55944C5.64064 3.60676 3.47496 5.8506 3.52228 8.56114C3.54045 9.60246 3.88377 10.563 4.45288 11.3492L5.08196 11.3382ZM12.3807 8.40651C12.4186 10.5809 10.6802 12.3799 8.5058 12.4178C7.61699 12.4334 6.79205 12.1486 6.12328 11.6609L11.541 6.05066C12.0518 6.70201 12.3651 7.5165 12.3807 8.40651ZM8.36815 4.53166C9.30344 4.51534 10.1682 4.82918 10.8533 5.36307L5.41094 10.9988C4.85344 10.3316 4.5108 9.47826 4.4945 8.54416C4.45654 6.36978 6.19376 4.56962 8.36815 4.53166Z" fill="black"/>
</g>
<defs>
<clipPath id="clip0_978_356">
<rect width="10.3803" height="10.3803" fill="white" transform="translate(13.7799 13.5986) rotate(179)"/>
</clipPath>
</defs>
</svg>
