<svg width="149" height="37" viewBox="0 0 149 37" fill="none" xmlns="http://www.w3.org/2000/svg">
<g clip-path="url(#clip0_2343_186)">
<mask id="mask0_2343_186" style="mask-type:luminance" maskUnits="userSpaceOnUse" x="0" y="0" width="31" height="31">
<path d="M30.6363 0.25H0.363281V30.25H30.6363V0.25Z" fill="white"/>
</mask>
<g mask="url(#mask0_2343_186)">
<path d="M15.502 3.52105L14.1108 4.53141L14.6422 2.89637L13.251 1.88504H14.9705L15.502 0.25L16.0334 1.88504H17.7529L16.3617 2.89637L16.8932 4.53141L15.502 3.52105Z" fill="#0F172A"/>
<path d="M21.8662 5.12945L20.475 6.1408L21.0064 4.50477L19.6152 3.49441H21.3348L21.8662 1.8584L22.3976 3.49441H24.1181L22.7269 4.50477L23.2584 6.1408L21.8662 5.12945Z" fill="#0F172A"/>
<path d="M26.4658 9.8648L25.0746 10.8752L25.606 9.23915L24.2148 8.2288H25.9344L26.4658 6.59375L26.9972 8.2288H28.7168L27.3256 9.23915L27.857 10.8752L26.4658 9.8648Z" fill="#0F172A"/>
<path d="M28.3857 16.4849L26.9945 17.4953L27.5259 15.8603L26.1348 14.8489H27.8543L28.3857 13.2139L28.9171 14.8489H30.6367L29.2455 15.8603L29.7769 17.4953L28.3857 16.4849Z" fill="#0F172A"/>
<path d="M26.4472 22.7203L25.056 23.7316L25.5875 22.0956L24.1963 21.0853H25.9158L26.4472 19.4492L26.9786 21.0853H28.6982L27.307 22.0956L27.8384 23.7316L26.4472 22.7203Z" fill="#0F172A"/>
<path d="M21.8565 27.3472L20.4653 28.3576L20.9967 26.7226L19.6055 25.7112H21.325L21.8565 24.0762L22.3879 25.7112H24.1074L22.7162 26.7226L23.2476 28.3576L21.8565 27.3472Z" fill="#0F172A"/>
<path d="M9.03708 5.12945L10.4283 6.1408L9.89688 4.50477L11.2881 3.49441H9.56853L9.03708 1.8584L8.50568 3.49441H6.78613L8.17733 4.50477L7.64588 6.1408L9.03708 5.12945Z" fill="#0F172A"/>
<path d="M4.43749 9.8648L5.82866 10.8752L5.29726 9.23915L6.68846 8.2288H4.9689L4.43749 6.59375L3.90608 8.2288H2.18555L3.57771 9.23915L3.0463 10.8752L4.43749 9.8648Z" fill="#0F172A"/>
<path d="M2.61426 16.4849L4.00545 17.4953L3.47404 15.8603L4.86522 14.8489H3.14567L2.61426 13.2139L2.08284 14.8489H0.363281L1.75448 15.8603L1.22306 17.4953L2.61426 16.4849Z" fill="#0F172A"/>
<path d="M4.45508 22.7203L5.84625 23.7316L5.31485 22.0956L6.707 21.0853H4.98649L4.45508 19.4492L3.92366 21.0853H2.2041L3.5953 22.0956L3.06388 23.7316L4.45508 22.7203Z" fill="#0F172A"/>
<path d="M9.04587 27.3472L10.4371 28.3576L9.90567 26.7226L11.2969 25.7112H9.57727L9.04587 24.0762L8.51447 25.7112H6.79492L8.18612 26.7226L7.65467 28.3576L9.04587 27.3472Z" fill="#0F172A"/>
<path d="M15.5185 29.2398L14.1273 30.2502L14.6587 28.6151L13.2676 27.6047H14.9871L15.5185 25.9688L16.0499 27.6047H17.7695L16.3783 28.6151L16.9097 30.2502L15.5185 29.2398Z" fill="#0F172A"/>
<path d="M14.2879 18.8738L11.252 15.8378L12.4197 14.6701L14.2879 16.5383L18.5684 12.2578L19.7361 13.4256L14.2879 18.8738Z" fill="#0F172A"/>
</g>
</g>
<path d="M43.315 28.455C39.605 28.455 37.295 26.285 37.295 22.855C37.295 19.635 39.57 17.64 43.77 17.325L48.67 16.94V16.66C48.67 14.945 47.62 14.035 45.695 14.035C43.42 14.035 42.195 14.91 42.195 16.485H37.715C37.715 12.53 40.97 9.94 45.975 9.94C51.05 9.94 53.92 12.775 53.92 17.78V28H49.16L48.81 25.69C48.25 27.3 45.94 28.455 43.315 28.455ZM45.205 24.465C47.27 24.465 48.705 23.45 48.705 21.455V20.51L45.975 20.755C43.63 20.965 42.79 21.49 42.79 22.61C42.79 23.87 43.56 24.465 45.205 24.465ZM63.1759 28H57.7859V1.61H63.1759V28ZM74.2895 28H68.8995V14.98H65.5745V10.5H68.8995V5.075H74.2895V10.5H77.6145V14.98H74.2895V28ZM78.9209 19.215C78.9209 13.685 82.9809 9.975 88.5809 9.975C94.1459 9.975 98.2059 13.685 98.2059 19.215C98.2059 24.745 94.1459 28.42 88.5809 28.42C82.9809 28.42 78.9209 24.745 78.9209 19.215ZM84.3459 19.18C84.3459 21.84 86.0609 23.59 88.5809 23.59C91.0659 23.59 92.7809 21.84 92.7809 19.18C92.7809 16.555 91.0659 14.805 88.5809 14.805C86.0609 14.805 84.3459 16.555 84.3459 19.18ZM106.406 28H101.331V1.61H106.721V12.53C107.771 10.955 110.081 9.905 112.601 9.905C117.501 9.905 120.616 13.72 120.616 19.425C120.616 24.85 117.151 28.455 112.181 28.455C109.731 28.455 107.631 27.37 106.686 25.76L106.406 28ZM106.756 19.145C106.756 21.77 108.506 23.52 111.026 23.52C113.581 23.52 115.191 21.735 115.191 19.145C115.191 16.555 113.581 14.77 111.026 14.77C108.506 14.77 106.756 16.52 106.756 19.145ZM121.635 36.4V31.885H124.61C126.43 31.885 127.2 31.325 127.9 29.435L128.215 28.595L121.18 10.5H126.955L130.77 21.735L135.005 10.5H140.605L131.715 31.815C130.245 35.385 128.285 36.89 125.205 36.89C123.91 36.89 122.685 36.715 121.635 36.4Z" fill="#0F172A"/>
<path d="M142.699 28.455C140.914 28.455 139.479 27.02 139.479 25.305C139.479 23.555 140.914 22.12 142.699 22.12C144.414 22.12 145.919 23.555 145.919 25.305C145.919 27.02 144.414 28.455 142.699 28.455Z" fill="#E4572E"/>
<defs>
<clipPath id="clip0_2343_186">
<rect width="30" height="30" fill="white"/>
</clipPath>
</defs>
</svg>
