<svg width="186" height="23" viewBox="0 0 186 23" fill="none" xmlns="http://www.w3.org/2000/svg">
<path d="M102.892 0.0155656C108.104 -0.112576 114.134 0.497817 118.38 3.82862C122.656 7.18348 123.263 14.088 119.563 18.0872C116.033 21.9029 110.314 22.7241 105.305 22.9943C97.8279 23.1078 86.4317 21.6093 86.0128 12.0226C85.6018 2.6176 95.2032 0.312559 102.892 0.0155656Z" fill="#E6FB29"/>
<path d="M125 0.0758786L135.467 0.079946C140.493 0.0760106 156.294 -1.41211 152.94 8.62709C152.544 9.80996 150.415 10.7479 149.35 11.1269C153.055 12.1832 155.957 13.8748 154.704 18.4382C152.241 23.8401 143.339 22.9432 138.452 22.9457L125.013 22.9313L125 0.0758786Z" fill="#E6FB29"/>
<path d="M17.3362 0C19.5792 0.0290756 20.6528 0.302771 21.9079 2.30395C23.0673 4.15251 24.2971 6.0688 25.4636 7.92033L35 22.989L28.532 22.9775C28.0842 22.0553 26.2553 19.2402 25.6042 18.178L18.0937 18.1734L9.25744 18.1683C8.58918 19.5242 7.15436 21.6171 6.31236 22.9831C4.20828 23.0079 2.10395 23.0054 0 22.9758C4.64521 15.8979 8.89421 8.51644 13.5741 1.46463C14.3741 0.259353 16.0744 0.121471 17.3362 0Z" fill="#E6FB29"/>
<path d="M178.952 0L186 0.0337681C184.217 2.10683 182.399 4.13122 180.622 6.21708C177.931 9.15406 175.227 12.441 172.56 15.4574L172.561 22.9915C170.511 23.007 168.461 23.0013 166.412 22.9743C166.44 20.4576 166.443 17.9406 166.419 15.4238C163.35 11.7863 160.006 8.21547 156.92 4.57709C155.66 3.0929 154.185 1.53986 153 0.01781C155.308 -0.0159606 157.677 0.00988779 159.99 0.00711755C162.931 3.12654 166.645 7.76459 169.521 11.1249C172.389 7.48374 175.945 3.63522 178.952 0Z" fill="#E6FB29"/>
<path d="M56.0033 0L87 0.00264184L86.9928 4.03438L74.5835 4.03768L74.5883 10.8442L74.5945 23L68.361 22.9803L68.3745 4.03807L56 4.00034L56.0033 0Z" fill="#E6FB29"/>
<path d="M38 0L44.0749 0.0174183C43.94 6.19038 44.0669 12.7556 44.0656 18.9646L63.9526 18.9681C64.0146 20.3003 63.9984 21.664 63.9973 23L38.0033 22.9896L38 0Z" fill="#E6FB29"/>
<path d="M181.881 18.0191C183.189 17.8976 184.467 18.3377 184.902 19.8271C185.075 20.4184 185.017 21.0596 184.744 21.6051C184.338 22.4127 183.754 22.7121 182.993 22.9868C181.835 23.092 180.64 22.5688 180.167 21.3525C179.931 20.7476 179.946 20.0635 180.206 19.4702C180.581 18.6128 181.126 18.3393 181.881 18.0191Z" fill="#E6FB29"/>
<path d="M181.766 18C182.713 18.0274 183.546 18.3568 183.895 19.3995C184.07 19.92 184.025 20.4967 183.772 20.9785C183.416 21.6566 182.969 21.7876 182.333 22C181.321 21.9473 180.432 21.7123 180.079 20.5224C179.935 20.045 179.99 19.524 180.228 19.0933C180.603 18.4052 181.107 18.1814 181.766 18Z" fill="#0B0B0B"/>
<path d="M181.199 19.0485C181.977 18.9986 182.545 18.8187 183 19.717C182.934 20.5221 182.752 20.1445 182.525 20.8372C182.49 20.9454 182.862 21.5931 182.967 21.8336L182.851 21.997L182.431 21.9901C182.238 21.4921 182.162 21.2918 181.893 20.8306C181.554 20.765 181.671 21.6922 181.206 22L181.075 21.7721C180.99 21.1635 180.921 19.5737 181.199 19.0485Z" fill="#E6FB29"/>
</svg>
