<svg width="131" height="131" viewBox="0 0 131 131" fill="none" xmlns="http://www.w3.org/2000/svg">
<g clip-path="url(#clip0_2209_1863)">
<path d="M107.66 31.7155L111.993 27.3828L128.613 10.7478L120.267 2.38678L103.516 19.1233C93.2999 10.9362 80.3454 6.03838 66.2607 6.03838C33.2949 6.03838 6.47303 32.8457 6.47303 65.8115C6.47303 77.7662 10.0087 88.9238 16.0947 98.2702H24.3688L2.38672 120.252L10.7477 128.613L27.8175 111.543C38.2071 120.31 51.6253 125.599 66.2607 125.599C99.2265 125.599 126.034 98.7773 126.034 65.8115C126.034 53.1469 122.063 41.3951 115.311 31.7155H107.66ZM18.2972 65.8115C18.2972 39.3664 39.8156 17.8626 66.2607 17.8626C77.0706 17.8626 87.04 21.4997 95.0677 27.5712L28.0059 94.6331C21.9344 86.6053 18.2972 76.6359 18.2972 65.8115ZM66.2607 113.775C54.8857 113.775 44.438 109.776 36.2219 103.139L103.588 35.7728C110.225 44.0034 114.21 54.451 114.21 65.8115C114.21 92.2566 92.7058 113.775 66.2607 113.775Z" fill="#E0FF00"/>
</g>
<defs>
<clipPath id="clip0_2209_1863">
<rect width="126.226" height="126.226" fill="white" transform="translate(2.38672 2.38678)"/>
</clipPath>
</defs>
</svg>
