<svg width="186" height="24" viewBox="0 0 186 24" fill="none" xmlns="http://www.w3.org/2000/svg">
<g style="mix-blend-mode:difference" clip-path="url(#clip0_907_1274)">
<path d="M19.8371 12.2488C18.9415 11.702 17.9712 11.2841 16.9556 11.0077C15.7352 10.6657 14.4915 10.4102 13.2341 10.2431C11.7721 10.0284 10.544 9.81896 9.56046 9.60425C8.76153 9.44942 7.97857 9.2233 7.22124 8.92871C6.74435 8.76298 6.32059 8.47567 5.99315 8.09607C5.75361 7.77271 5.62847 7.38084 5.63694 6.98064C5.60991 6.49023 5.73945 6.00382 6.00738 5.58963C6.27531 5.17544 6.66818 4.85429 7.13086 4.67125C8.33577 4.18628 9.63122 3.95785 10.9321 4.00094C12.3654 3.94785 13.7878 4.26562 15.0576 4.9226C15.5965 5.22785 16.0447 5.66711 16.3572 6.19644C16.6698 6.72577 16.8358 7.32663 16.8386 7.93897H21.5224C21.5928 6.83167 21.3875 5.7242 20.9242 4.71293C20.4609 3.70165 19.7537 2.81723 18.8642 2.13665C17.0531 0.740183 14.4657 0.0419509 11.1022 0.0419509C9.18057 -0.00689683 7.26537 0.280348 5.44556 0.890317C4.08068 1.34107 2.87455 2.16579 1.96862 3.26779C1.18692 4.2893 0.775133 5.53931 0.799006 6.8183C0.772461 7.81292 1.04032 8.79366 1.56989 9.64091C2.11436 10.4589 2.84182 11.1432 3.69646 11.6414C4.67195 12.2173 5.71917 12.6661 6.81188 12.9767C8.04073 13.3283 9.29318 13.5943 10.5599 13.7727C12.2399 14.0101 13.5974 14.2405 14.6323 14.4639C15.4382 14.6003 16.2093 14.8902 16.9024 15.3175C17.1373 15.4843 17.3261 15.7063 17.4514 15.9633C17.5768 16.2204 17.6348 16.5043 17.6201 16.7891C17.6358 17.4049 17.4328 18.0069 17.046 18.491C16.579 19.0192 15.9655 19.4015 15.2809 19.5907C14.3 19.8784 13.279 20.011 12.2559 19.9835C11.0194 20.0009 9.78858 19.8151 8.61414 19.4336C7.63617 19.1285 6.74287 18.6052 6.00378 17.9045C5.38213 17.3283 4.98046 16.5592 4.86607 15.726H0.00686551C-0.0287286 16.4009 0.0743451 17.076 0.309905 17.7107C0.603457 18.5119 1.03708 19.2563 1.59116 19.9102C2.258 20.7025 3.04742 21.3865 3.93038 21.9368C4.99032 22.5935 6.14448 23.0896 7.35415 23.4083C10.8187 24.2337 14.4446 24.1288 17.8541 23.1046C19.2032 22.6637 20.3843 21.829 21.2406 20.7114C21.9865 19.6422 22.3716 18.3688 22.3411 17.0719C22.3727 16.0751 22.1497 15.0866 21.6925 14.1969C21.2536 13.4017 20.6147 12.7309 19.8371 12.2488Z" fill="#E0FF00"/>
<path d="M24.9766 4.10037H35.2957V23.9057H40.2825V7.13768L37.199 4.10037H40.2825H50.5645V0H24.9766V4.10037Z" fill="#E0FF00"/>
<path d="M75.8386 13.0762C75.8386 14.9143 75.4612 16.3073 74.7115 17.2656C73.9526 18.226 72.8929 18.9127 71.6972 19.2189C70.2998 19.5855 68.858 19.7617 67.4121 19.7426C65.9276 19.7633 64.447 19.5871 63.0101 19.2189C61.8048 18.921 60.7358 18.2331 59.9744 17.2656C59.2408 16.3073 58.874 14.9143 58.874 13.0762V-0.015625H53.9775V13.5999C53.95 14.9824 54.1807 16.3581 54.658 17.6584C55.0737 18.7583 55.7204 19.7594 56.556 20.5962C57.3894 21.4111 58.368 22.0679 59.4428 22.5338C60.6305 23.0443 61.882 23.3966 63.1643 23.5811C64.5705 23.8055 65.9929 23.9158 67.4174 23.9111C68.8031 23.9159 70.1867 23.8055 71.5536 23.5811C72.8086 23.3897 74.0329 23.0376 75.1953 22.5338C76.2796 22.0622 77.2712 21.4063 78.1247 20.5962C78.9772 19.7668 79.6357 18.7642 80.0545 17.6584C80.5301 16.3577 80.7589 14.9821 80.7297 13.5999V-0.015625H75.8386V13.0762Z" fill="#E0FF00"/>
<path d="M109.864 3.56102C108.632 2.37025 107.138 1.47438 105.499 0.942644C103.303 0.24946 101.004 -0.0745043 98.6992 -0.0156736H84.8234V23.8586H98.6992C100.943 23.914 103.179 23.5826 105.307 22.8794C106.953 22.3298 108.452 21.4223 109.694 20.2243C110.788 19.1334 111.62 17.8145 112.128 16.3649C112.64 14.9045 112.899 13.3696 112.894 11.8246C112.902 10.2989 112.669 8.78124 112.203 7.32624C111.735 5.90706 110.934 4.61689 109.864 3.56102ZM107.37 14.7572C107.071 15.6937 106.56 16.5513 105.876 17.2656C105.086 18.061 104.118 18.662 103.048 19.0199C101.603 19.4883 100.087 19.7062 98.5663 19.664H89.8102V4.20514H98.5716C100.091 4.1638 101.606 4.37628 103.053 4.83356C104.116 5.17805 105.083 5.75857 105.882 6.53026C106.564 7.2175 107.075 8.05095 107.376 8.96534C107.68 9.89389 107.833 10.8644 107.827 11.8403C107.832 12.8298 107.679 13.814 107.376 14.7572H107.37Z" fill="#E0FF00"/>
<path d="M137.908 13.0762C137.908 14.9091 137.53 16.3073 136.786 17.2656C136.025 18.2275 134.964 18.9157 133.766 19.2242C132.369 19.591 130.927 19.7672 129.481 19.7478C127.998 19.7684 126.52 19.5923 125.085 19.2242C123.878 18.9256 122.809 18.2357 122.049 17.2656C121.315 16.3125 120.943 14.9143 120.943 13.0762V-0.015625H116.052V13.5999C116.025 14.9823 116.256 16.3579 116.732 17.6584C117.146 18.7565 117.791 19.7559 118.625 20.591C119.461 21.4047 120.442 22.0613 121.517 22.5286C122.704 23.0461 123.956 23.4071 125.239 23.6021C126.645 23.8217 128.068 23.9303 129.492 23.9268C130.877 23.9308 132.261 23.8223 133.628 23.6021C134.885 23.3998 136.111 23.039 137.275 22.5286C138.357 22.0552 139.346 21.3995 140.199 20.591C141.051 19.7635 141.71 18.7626 142.129 17.6584C142.611 16.3589 142.847 14.9833 142.825 13.5999V-0.015625H137.934L137.908 13.0762Z" fill="#E0FF00"/>
<path d="M168.706 1.46113C163.579 -0.451886 157.92 -0.451886 152.794 1.46113C150.735 2.30333 148.979 3.73093 147.748 5.56149C146.602 7.50812 145.999 9.71842 145.999 11.9687C145.999 14.2189 146.602 16.4292 147.748 18.3758C148.979 20.2064 150.735 21.634 152.794 22.4762C157.919 24.3965 163.581 24.3965 168.706 22.4762C170.755 21.6291 172.504 20.2021 173.73 18.3758C174.876 16.4292 175.479 14.2189 175.479 11.9687C175.479 9.71842 174.876 7.50812 173.73 5.56149C172.504 3.73521 170.755 2.30823 168.706 1.46113ZM169.237 16.3911C168.381 17.5694 167.19 18.4715 165.814 18.9833C164.196 19.5773 162.479 19.8651 160.752 19.8316C159.02 19.86 157.296 19.5724 155.67 18.9833C154.219 18.4518 152.968 17.4959 152.085 16.244C151.201 14.992 150.728 13.5038 150.728 11.9791C150.728 10.4545 151.201 8.96626 152.085 7.71428C152.968 6.4623 154.219 5.50644 155.67 4.97498C157.294 4.37363 159.018 4.07873 160.752 4.10568C162.48 4.07335 164.199 4.36847 165.814 4.97498C166.853 5.44703 167.777 6.13228 168.526 6.98483C169.274 7.83739 169.829 8.83759 170.153 9.91846C170.477 10.9993 170.563 12.136 170.405 13.2522C170.247 14.3685 169.849 15.4387 169.237 16.3911Z" fill="#E0FF00"/>
<path d="M183.23 19.8263H181.853V20.6746H183.23C183.37 20.6835 183.509 20.6405 183.618 20.5542C183.663 20.5127 183.698 20.4622 183.721 20.4062C183.744 20.3501 183.754 20.2899 183.751 20.2295C183.755 20.1729 183.745 20.1161 183.722 20.0641C183.699 20.0121 183.663 19.9664 183.618 19.931C183.504 19.8551 183.368 19.8183 183.23 19.8263Z" fill="#E0FF00"/>
<path d="M182.746 17.5957C182.103 17.5957 181.474 17.7837 180.939 18.1358C180.404 18.488 179.987 18.9885 179.74 19.5741C179.494 20.1598 179.43 20.8041 179.555 21.4258C179.681 22.0475 179.991 22.6186 180.446 23.0668C180.901 23.515 181.48 23.8202 182.112 23.9439C182.743 24.0676 183.397 24.0041 183.991 23.7615C184.586 23.5189 185.094 23.1082 185.452 22.5811C185.809 22.0541 186 21.4345 186 20.8006C186 20.3797 185.916 19.963 185.752 19.5741C185.589 19.1853 185.349 18.832 185.047 18.5344C184.745 18.2368 184.386 18.0007 183.991 17.8397C183.597 17.6786 183.174 17.5957 182.746 17.5957ZM183.863 20.9839C183.982 21.0036 184.091 21.0627 184.171 21.1515C184.245 21.2573 184.281 21.3846 184.272 21.5128V22.1988H183.671V21.5547C183.674 21.4656 183.654 21.3773 183.613 21.2981C183.588 21.2638 183.557 21.2349 183.52 21.2133C183.483 21.1916 183.443 21.1777 183.4 21.1724C183.259 21.1433 183.114 21.131 182.97 21.1357H181.837V22.1831H181.236V19.3081H183.23C183.431 19.3046 183.63 19.3347 183.82 19.3971C183.975 19.4514 184.11 19.5498 184.208 19.6799C184.309 19.8265 184.359 20.0008 184.352 20.1774C184.355 20.2968 184.329 20.4151 184.277 20.523C184.231 20.6155 184.162 20.6948 184.075 20.7535C183.987 20.8164 183.888 20.8626 183.783 20.8896L183.608 20.9263C183.694 20.9413 183.779 20.9606 183.863 20.9839Z" fill="#E0FF00"/>
</g>
<defs>
<clipPath id="clip0_907_1274">
<rect width="186" height="24" fill="white"/>
</clipPath>
</defs>
</svg>
