<svg width="257" height="105" viewBox="0 0 257 105" fill="none" xmlns="http://www.w3.org/2000/svg">
<g opacity="0.5" clip-path="url(#clip0_2683_730)">
<path d="M149.56 62.9804C149.76 63.1404 149.93 63.1804 150.11 63.1804C151.82 63.2304 153.45 62.9704 154.87 61.9304C155.97 61.1204 156.51 59.9404 156.95 58.7104C157.24 57.9004 157.4 57.0604 157.54 56.2104C157.56 56.0604 157.56 55.9004 157.7 55.7304C158.09 55.6004 158.51 55.6304 159 55.7304V72.7504C158.53 72.9304 158.39 72.9304 157.66 72.8204C157.46 72.1704 157.45 71.4604 157.29 70.7804C157.11 69.9804 156.88 69.2004 156.53 68.4604C155.54 66.3704 153.83 65.3404 151.59 65.1104C150.94 65.0404 150.28 65.0204 149.67 65.1104C149.5 65.3704 149.55 65.5904 149.55 65.8104C149.55 69.5804 149.55 73.3404 149.55 77.1104C149.55 78.8804 150.16 79.6604 151.92 79.8204C154.46 80.0504 156.98 79.8804 159.41 79.0304C161.53 78.2904 163.22 76.9604 164.58 75.1804C165.41 74.0904 166.12 72.9204 166.7 71.6904C166.92 71.2204 167.15 70.9004 167.72 70.9904C167.78 70.9904 167.84 70.9504 167.89 70.9304C168.07 70.6504 167.87 70.3004 168.1 69.9904C168.45 69.8804 168.85 69.9504 169.24 69.9404C169.61 69.9404 169.63 70.2504 169.7 70.4904C170.04 71.7504 170.43 72.9804 170.95 74.1804C171.66 75.8004 172.49 77.3404 173.86 78.5404C175.39 79.8804 177.15 80.6104 179.2 80.6804C180.75 80.7404 182.24 80.5504 183.57 79.6904C185.06 78.7404 185.83 77.3704 185.99 75.5904C186.21 73.2004 185.17 71.5804 183.14 70.4704C181.03 69.3204 178.86 68.2904 176.72 67.2204C175.16 66.4404 173.6 65.6704 172.25 64.5604C169.57 62.3504 168.29 59.4904 168.43 56.0404C168.53 53.4704 169.36 51.1604 171.28 49.3504C172.73 47.9804 174.48 47.1804 176.43 46.8304C179.16 46.3304 181.86 46.4404 184.5 47.3704C185.23 47.6304 185.97 47.8304 186.71 48.0604C186.92 48.1204 187.13 48.1904 187.35 48.2204C188.12 48.3504 188.56 48.0904 188.83 47.3604C188.88 47.2204 188.95 47.0704 188.99 46.9304C189.06 46.6504 189.25 46.5504 189.53 46.5504C189.9 46.5504 190.27 46.5504 190.62 46.5504C190.82 47.0604 190.87 56.7404 190.7 57.5304C190.48 57.6804 190.23 57.5904 190 57.5904C189.76 57.5904 189.52 57.6504 189.27 57.5504C189.1 57.3404 189.09 57.0704 189.01 56.8204C188.02 53.3304 186.08 50.5804 182.76 48.9504C180.88 48.0304 178.91 47.9104 176.94 48.7104C175.12 49.4404 173.94 51.2604 174.03 53.1104C174.12 55.1704 175.11 56.6604 176.91 57.6004C178.82 58.6004 180.76 59.5404 182.69 60.5104C184.12 61.2304 185.59 61.9004 186.95 62.7504C189 64.0304 190.7 65.6504 191.53 67.9604C192.79 71.4404 192.54 74.8204 190.34 77.8904C189.05 79.6804 187.27 80.9004 185.18 81.6404C182.83 82.4604 180.42 82.6204 177.95 82.4604C175.94 82.3304 174.08 81.6604 172.17 81.1504C171.96 81.0904 171.75 81.0204 171.54 80.9604C170.69 80.7304 170.16 80.8904 169.91 81.7004C169.65 82.5304 169.15 82.6004 168.47 82.5204C168.34 82.5104 168.2 82.5204 168.03 82.3604V74.6604H167.92C167.46 76.9304 167.01 79.2104 166.56 81.4504C166.03 81.6104 137.76 81.6604 136.94 81.5204C136.76 81.0404 136.75 80.9204 136.91 80.2804C137.41 80.2204 137.93 80.1604 138.45 80.1004C138.62 80.0804 138.8 80.0604 138.97 80.0204C140.31 79.7104 141.19 79.0404 141.18 77.2104C141.16 68.6904 141.18 60.1604 141.18 51.6404C141.18 51.4204 141.18 51.2004 141.16 50.9804C141.07 50.2104 140.73 49.5804 140.03 49.2304C139.23 48.8304 138.4 48.5804 137.49 48.8704C137.13 48.9804 136.76 49.0504 136.41 49.1804C135.42 49.5304 134.86 50.2304 134.76 51.2804C134.72 51.7404 134.71 52.2004 134.71 52.6704C134.71 62.2904 134.71 71.9204 134.71 81.5404C134.71 81.8404 134.77 82.1604 134.6 82.4504C134.18 82.5704 133.76 82.5104 133.35 82.5104C133.07 82.5104 132.94 82.2804 132.79 82.1004C131.1 80.0504 129.4 77.9904 127.71 75.9404C125.7 73.4904 123.68 71.0504 121.67 68.6004C118.51 64.7604 115.36 60.9104 112.2 57.0704C111.71 56.4804 111.21 55.9004 110.67 55.2704C110.56 55.4504 110.6 55.6304 110.6 55.7904C110.6 62.3104 110.6 68.8304 110.6 75.3504C110.6 75.9504 110.65 76.5404 110.75 77.1204C111.04 78.8804 112.02 79.8304 113.8 80.1004C114.32 80.1804 114.84 80.2304 115.37 80.3004C115.57 80.7004 115.44 81.0904 115.47 81.4504C114.93 81.6504 88.7599 81.6804 88.0299 81.5004C87.8899 81.1304 87.9599 80.7504 87.9999 80.3404C88.5199 80.1804 89.0299 80.2004 89.5199 80.1404C89.9399 80.0804 90.3399 79.9904 90.7299 79.8504C91.9599 79.4104 92.6199 78.5304 92.6699 77.2204C92.6699 77.0004 92.6699 76.7804 92.6699 76.5604C92.6699 68.4804 92.6699 60.4004 92.6699 52.3104C92.6699 51.9804 92.6699 51.6504 92.6199 51.3204C92.4099 49.8904 91.6099 49.0904 90.1799 48.8504C89.6599 48.7604 89.1399 48.6904 88.6099 48.7004C88.4199 48.7004 88.2099 48.7304 87.9999 48.5604C87.8899 48.1904 87.8999 47.7804 87.9899 47.4304C88.1599 47.2604 88.3199 47.3104 88.4699 47.3104C93.4499 47.3104 98.4199 47.3204 103.4 47.3304C107.05 47.3304 110.71 47.3304 114.36 47.3204C114.75 47.3204 114.97 47.4804 115.19 47.7504C117.26 50.3204 119.33 52.8904 121.41 55.4504C124.23 58.9204 127.05 62.3804 129.87 65.8504C130.49 66.6204 131.11 67.4004 131.73 68.1604C131.88 68.3404 132 68.5604 132.23 68.6704C132.36 68.4404 132.3 68.2104 132.3 68.0004C132.3 63.0204 132.3 58.0504 132.3 53.0704C132.3 52.4504 132.22 51.8404 132.06 51.2404C131.86 50.4604 131.38 49.9204 130.7 49.5304C129.9 49.0704 129.01 48.9104 128.13 48.7304C127.55 48.6104 127.54 48.6304 127.53 48.0204C127.53 47.8004 127.47 47.5804 127.6 47.3104H166.02V57.4504C165.67 57.6904 165.28 57.5804 164.92 57.5704C164.59 57.5704 164.58 57.2904 164.54 57.0504C164.38 56.0304 164.13 55.0204 163.73 54.0604C163 52.3004 161.92 50.8404 160.16 49.9904C159.24 49.5404 158.25 49.2804 157.23 49.2604C155.43 49.2204 153.62 49.2504 151.81 49.2504C151.32 49.2504 150.85 49.3704 150.39 49.5304C149.98 49.6704 149.73 49.9504 149.63 50.3704C149.57 50.6304 149.53 50.8804 149.53 51.1504C149.53 54.9604 149.53 58.7704 149.53 62.5804C149.53 62.7104 149.55 62.8404 149.55 62.9804H149.56ZM101.02 64.3404C101.02 68.4104 101.02 72.4804 101.02 76.5504C101.02 76.8804 101.01 77.2104 101.03 77.5404C101.12 78.5504 101.51 79.3804 102.51 79.7604C103.4 80.1004 104.32 80.3004 105.28 80.1104C107.36 79.7104 108.26 78.7004 108.22 76.7204C108.22 76.5204 108.22 76.3204 108.22 76.1304V53.8804C108.22 52.2804 108.24 52.2604 107.2 51.0504C106.51 50.2504 105.74 49.5404 104.81 49.0004C103.6 48.2904 101.32 49.2004 101.1 50.7504C101.04 51.1904 101 51.6204 101 52.0604C101 56.1504 101 60.2504 101 64.3404H101.02Z" fill="white"/>
<path d="M0.120169 81.54C-0.00983073 81.32 0.0101693 81.14 0.0101693 80.97C0.0101693 80.77 -0.0198307 80.57 0.100169 80.34C0.570169 80.16 1.12017 80.27 1.62017 80.13C1.85017 80.07 2.10017 80.05 2.33017 79.99C3.83017 79.61 4.42017 78.86 4.43017 77.31C4.43017 70.07 4.43017 62.82 4.43017 55.58C4.43017 54.11 4.43017 52.63 4.43017 51.16C4.43017 50.14 3.90017 49.47 2.97017 49.1C2.31017 48.84 1.62017 48.72 0.910169 48.71C0.650169 48.71 0.380169 48.76 0.100169 48.58C-0.0298307 48.2 0.0101693 47.8 0.0701693 47.42C0.240169 47.29 0.400169 47.33 0.550169 47.33C6.19017 47.33 11.8202 47.32 17.4602 47.35C19.7702 47.36 22.0102 47.85 24.1402 48.74C25.3402 49.24 26.4402 49.94 27.3402 50.92C29.4302 53.2 29.5602 57.08 27.6702 59.52C26.8202 60.62 25.7302 61.36 24.4702 61.88C23.4802 62.29 22.4802 62.66 21.4002 63.09C22.3502 63.37 23.2202 63.59 24.0602 63.89C26.2902 64.68 28.2102 65.89 29.5302 67.94C31.1802 70.51 31.0702 74.03 29.2902 76.53C27.8802 78.5 25.9302 79.66 23.7202 80.45C22.0602 81.04 20.3302 81.35 18.5702 81.52C17.4302 81.63 16.2802 81.62 15.1402 81.62C10.4302 81.62 5.72017 81.62 1.01017 81.62C0.730169 81.62 0.440169 81.66 0.150169 81.55L0.120169 81.54ZM12.8202 64.35C12.7002 64.66 12.7302 64.9 12.7302 65.14C12.7302 69.06 12.7302 72.98 12.7302 76.9C12.7302 77.14 12.7302 77.39 12.7502 77.63C12.8402 78.74 13.4502 79.5 14.5402 79.71C17.4702 80.29 20.5902 78.98 21.4502 75.7C22.1002 73.23 21.9602 70.77 21.1402 68.36C20.6102 66.81 19.6002 65.64 18.0702 65.01C17.0102 64.57 15.8802 64.34 14.7302 64.31C14.1002 64.29 13.4602 64.21 12.8202 64.36V64.35ZM12.8002 62.44C12.9602 62.56 13.0902 62.54 13.2202 62.55C14.4602 62.56 15.6802 62.41 16.8802 62.14C18.5702 61.75 19.6502 60.71 20.0402 59.04C20.5502 56.89 20.6102 54.72 20.0102 52.57C19.2402 49.81 17.2902 48.81 14.6802 49C13.4302 49.09 12.8002 49.82 12.7302 51.08C12.7302 51.26 12.7202 51.43 12.7202 51.61C12.7202 54.98 12.7202 58.35 12.7202 61.72C12.7202 61.96 12.6802 62.2 12.7902 62.45L12.8002 62.44Z" fill="white"/>
<path d="M30.2097 47.3501H47.3697C47.4297 47.7501 47.4297 48.1101 47.3697 48.5001C46.9597 48.6601 46.5497 48.6901 46.1397 48.7001C45.7397 48.7101 45.3497 48.7201 44.9597 48.8101C43.4897 49.1601 42.7297 50.0201 42.6197 51.5201C42.5997 51.8301 42.5997 52.1401 42.5997 52.4401C42.5997 59.0001 42.5997 65.5701 42.5997 72.1301C42.5997 73.7701 42.9997 75.3101 43.7997 76.7401C44.7897 78.5201 46.3097 79.5701 48.3197 79.8001C49.8797 79.9801 51.4397 79.9501 52.9697 79.4901C55.0997 78.8601 56.6197 77.5301 57.5297 75.4901C58.1897 74.0001 58.5897 72.4501 58.5897 70.8201C58.5997 64.7201 58.5897 58.6201 58.5997 52.5201C58.5997 52.0601 58.5497 51.6001 58.4197 51.1501C58.0997 50.0501 57.3997 49.3101 56.3097 48.9701C55.7397 48.7901 55.1597 48.6701 54.5597 48.6701C54.2997 48.6701 54.0297 48.7301 53.7597 48.5301C53.6397 48.1701 53.6797 47.7801 53.7497 47.3401H64.8197C65.0297 47.7001 64.9497 48.0701 64.8997 48.4401C64.6397 48.6201 64.3597 48.6501 64.0797 48.6801C63.3997 48.7501 62.7997 49.0101 62.2497 49.3901C61.3797 49.9901 61.0897 50.9101 61.0097 51.9101C60.9797 52.2601 60.9997 52.6101 60.9997 52.9701C60.9997 58.8301 61.0297 64.6901 60.9697 70.5401C60.9497 73.1101 60.2997 75.5501 58.8397 77.7201C57.4097 79.8501 55.3897 81.1401 52.9697 81.8401C50.6797 82.5001 48.3397 82.6301 45.9697 82.4201C43.8397 82.2301 41.7997 81.7601 39.8797 80.8101C38.0097 79.8801 36.3997 78.6501 35.3497 76.8001C34.7397 75.7301 34.3797 74.5801 34.3697 73.3401C34.3597 69.7301 34.3497 66.1201 34.3497 62.5001C34.3497 59.5501 34.3497 56.6001 34.3497 53.6501C34.3497 52.8101 34.2997 51.9801 34.2397 51.1401C34.1797 50.1201 33.6797 49.4001 32.7097 49.0301C32.1297 48.8101 31.5297 48.6901 30.9097 48.6601C30.1697 48.6201 30.1397 48.5901 30.1497 47.8501C30.1497 47.7001 30.1697 47.5501 30.1897 47.3101L30.2097 47.3501Z" fill="white"/>
<path d="M215.22 46.6103C215.38 47.3003 215.36 57.0003 215.2 57.5303C215.13 57.5503 215.04 57.5803 214.96 57.5903C214.59 57.5903 214.22 57.5903 213.87 57.5903C213.65 57.4403 213.65 57.2203 213.61 57.0403C213.06 54.8103 212.01 52.8403 210.42 51.2003C208.83 49.5603 206.95 48.4003 204.61 48.2303C202.58 48.0903 200.74 48.5903 199.45 50.3103C197.91 52.3703 198.44 55.4803 200.53 57.0303C201.08 57.4403 201.68 57.7603 202.29 58.0703C205.07 59.4603 207.86 60.8003 210.6 62.2603C212.13 63.0803 213.5 64.1003 214.59 65.4603C216 67.2203 216.72 69.2303 216.78 71.4903C216.83 73.7103 216.38 75.7903 215.1 77.6203C213.7 79.6103 211.81 80.9703 209.51 81.7403C207.18 82.5203 204.78 82.6503 202.34 82.4703C200.43 82.3303 198.65 81.6803 196.82 81.2103C196.54 81.1403 196.27 81.0403 196 80.9703C195.28 80.7803 194.91 80.9303 194.52 81.5803C194.5 81.6203 194.48 81.6603 194.45 81.6903C194.25 81.9503 194.31 82.3503 193.97 82.5203C193.83 82.5903 193.1 82.5603 192.67 82.4803C192.5 82.0203 192.46 70.7903 192.63 70.0203C193.06 69.8903 193.52 69.9803 193.94 69.9303C194.23 70.1203 194.21 70.4103 194.28 70.6603C194.79 72.5103 195.43 74.3103 196.37 75.9903C197.46 77.9403 198.99 79.4203 201.11 80.1803C203.12 80.9003 205.16 80.9503 207.18 80.1803C209.22 79.4103 210.48 77.5903 210.52 75.4003C210.52 74.8703 210.55 74.3403 210.45 73.8203C210.21 72.4903 209.37 71.5703 208.29 70.8803C206.68 69.8403 204.91 69.0903 203.21 68.2103C201.63 67.3903 199.99 66.6803 198.46 65.7503C195.72 64.0703 193.7 61.8203 193.14 58.5503C192.63 55.5503 193.06 52.7103 195.01 50.2503C196.27 48.6603 197.93 47.6503 199.86 47.1203C202.75 46.3303 205.64 46.3203 208.51 47.2503C209.37 47.5303 210.23 47.7803 211.1 48.0403C211.35 48.1203 211.61 48.1803 211.87 48.2203C212.7 48.3403 213.03 48.1503 213.34 47.3703C213.4 47.2103 213.48 47.0503 213.54 46.8803C213.62 46.6703 213.77 46.5703 213.99 46.5703C214.38 46.5803 214.78 46.5203 215.2 46.6303L215.22 46.6103Z" fill="white"/>
<path d="M86.8602 46.6601V57.5201C86.3402 57.6401 85.8702 57.6301 85.3602 57.5201C85.1102 56.7201 84.9302 55.9101 84.6002 55.1401C83.4202 52.4001 81.6102 50.2201 78.8602 48.9301C76.8702 48.0001 74.8402 47.8901 72.8002 48.8501C69.4802 50.4001 69.4902 54.9001 71.8902 56.8201C72.3602 57.1901 72.8402 57.5301 73.3802 57.7901C76.2902 59.2501 79.2202 60.6801 82.1102 62.1801C84.0702 63.2001 85.7502 64.5701 86.9302 66.4801C87.6402 67.6201 88.0802 68.8501 88.2702 70.1701C88.5802 72.3101 88.3502 74.3901 87.4202 76.3501C86.2702 78.7801 84.3302 80.3801 81.9002 81.4101C79.4102 82.4601 76.8002 82.6301 74.1302 82.4701C71.9902 82.3401 70.0002 81.6001 67.9702 81.0501C66.7502 80.7201 66.3202 80.9101 65.8702 82.1101C65.7902 82.3401 65.7002 82.5201 65.4302 82.5201C65.0402 82.5201 64.6402 82.5801 64.2602 82.4701C64.0802 81.9901 64.0402 70.7601 64.2202 69.9901C64.6802 69.8601 65.1502 69.9001 65.6102 69.9601C65.8202 70.1601 65.8402 70.4101 65.9102 70.6401C66.4102 72.4701 67.0502 74.2501 67.9802 75.9101C69.2202 78.1401 70.9802 79.7701 73.5102 80.3901C75.5202 80.8801 77.5302 80.8801 79.4202 79.8601C81.0002 79.0101 81.9202 77.6801 82.1202 75.8801C82.1802 75.3301 82.1902 74.7901 82.1402 74.2401C82.0302 72.9101 81.3702 71.9301 80.3502 71.1401C79.7702 70.7001 79.1502 70.3301 78.5002 70.0001C76.2402 68.8601 73.9702 67.7301 71.7102 66.6101C70.3402 65.9301 69.0502 65.1401 67.9202 64.1101C65.9602 62.3001 64.8102 60.0901 64.6602 57.4001C64.5802 55.9201 64.6402 54.4501 65.1302 53.0301C66.1302 50.1101 68.1402 48.1901 71.0302 47.2401C74.0102 46.2601 77.0402 46.2501 80.0602 47.1801C81.0302 47.4801 82.0002 47.7701 82.9702 48.0601C83.1802 48.1201 83.3902 48.1801 83.6102 48.2101C84.3102 48.3101 84.7202 48.0701 84.9702 47.4601C85.2235 46.8268 85.6968 46.5235 86.3902 46.5501C86.5402 46.5501 86.7002 46.5501 86.8902 46.6601H86.8602Z" fill="white"/>
<path d="M123.64 43.7902C123.5 43.4402 123.6 43.1902 124 43.1302C124.99 42.9802 125.51 42.3002 125.92 41.4802C126.25 40.8102 126.56 40.1302 126.83 39.4302C128.27 35.7402 129.7 32.0502 131.15 28.3602C131.9 26.4502 132.65 24.5502 133.41 22.6502C133.45 22.5502 133.49 22.4402 133.53 22.3402C133.61 22.1502 133.71 21.9802 133.96 21.9902C134.2 22.0002 134.29 22.1802 134.37 22.3702C134.71 23.2302 135.04 24.0902 135.37 24.9602C136.92 28.9902 138.46 33.0202 140 37.0402C140.58 38.5602 141.12 40.1002 141.85 41.5602C142.32 42.5002 143.02 43.0702 144.09 43.1702C145.14 43.2702 145.9 42.7202 146.07 41.6902C146.14 41.2802 146.19 40.8602 146.19 40.4402C146.19 35.6002 146.19 30.7502 146.19 25.9102C146.19 25.4802 146.05 25.1502 145.78 24.8302C144.98 23.9002 144.08 23.1602 142.77 23.1602C142.56 23.1602 142.36 23.1102 142.36 22.8402C142.36 22.5302 142.57 22.4902 142.81 22.4902C144.33 22.4902 145.85 22.4902 147.37 22.4902C147.64 22.4902 147.81 22.6202 147.97 22.8302C150.1 25.6902 152.23 28.5502 154.36 31.4102C155.99 33.6002 157.63 35.7802 159.26 37.9702C159.31 38.0402 159.36 38.1202 159.48 38.1002C159.63 37.9402 159.56 37.7302 159.56 37.5502C159.56 33.5602 159.56 29.5802 159.56 25.5902C159.56 25.1702 159.54 24.7502 159.43 24.3502C159.25 23.7102 158.84 23.3302 158.2 23.2102C157.79 23.1302 157.38 23.1102 156.98 23.1302C156.77 22.9502 156.78 22.7702 156.87 22.5602C156.92 22.5402 156.98 22.4902 157.04 22.4902C159.04 22.4902 161.05 22.4902 163.05 22.5002C163.65 22.5002 163.65 22.5102 163.6 23.0602C163.36 23.2202 163.09 23.1602 162.83 23.1702C161.66 23.2202 161.07 23.7702 161.02 24.9202C160.97 26.0602 160.9 27.2002 160.9 28.3502C160.92 33.1502 160.9 37.9502 160.9 42.7502C160.9 43.0802 160.93 43.4102 160.94 43.7402C160.94 43.9202 160.94 44.1102 160.74 44.1802C160.54 44.2502 160.35 44.2202 160.2 44.0402C160.15 43.9702 160.09 43.9002 160.04 43.8302C157.87 40.9502 155.7 38.0602 153.53 35.1802C151.67 32.7002 149.81 30.2202 147.94 27.7402C147.85 27.6202 147.8 27.4602 147.61 27.4202C147.46 27.5502 147.52 27.7402 147.52 27.9002C147.52 32.1702 147.52 36.4402 147.52 40.7202C147.52 41.1402 147.58 41.5502 147.66 41.9602C147.79 42.5902 148.18 42.9702 148.79 43.1202C149.13 43.2002 149.48 43.2602 149.84 43.2602C150.05 43.2602 150.25 43.2802 150.27 43.5502C150.29 43.8602 150.07 43.9002 149.83 43.9202C149.7 43.9202 149.57 43.9202 149.43 43.9202C145.4 43.9202 141.37 43.9202 137.34 43.9202C137.21 43.9202 137.08 43.9202 136.94 43.9202C136.75 43.9002 136.6 43.8302 136.58 43.6102C136.56 43.3702 136.69 43.2402 136.92 43.2002C137.07 43.1702 137.23 43.1602 137.38 43.1302C138.25 42.9702 138.58 42.5502 138.54 41.6702C138.52 41.3102 138.44 40.9702 138.32 40.6402C137.92 39.5502 137.48 38.4602 137.09 37.3602C136.94 36.9502 136.73 36.7802 136.27 36.7802C134.16 36.8002 132.04 36.8002 129.93 36.7802C129.46 36.7802 129.21 36.9402 129.06 37.3802C128.67 38.4802 128.23 39.5602 127.81 40.6502C127.74 40.8302 127.68 41.0202 127.63 41.2202C127.36 42.3602 127.76 42.9502 128.91 43.1202C129.11 43.1502 129.3 43.1602 129.5 43.2002C129.7 43.2402 129.8 43.3702 129.79 43.5802C129.77 43.8002 129.64 43.8802 129.44 43.9002C129.33 43.9102 129.22 43.9102 129.11 43.9102C127.48 43.9102 125.85 43.9102 124.22 43.9102C124.03 43.9102 123.82 43.9402 123.64 43.7802V43.7902ZM133.23 27.2502C133.17 27.2502 133.11 27.2502 133.06 27.2502C132 29.9602 130.93 32.6702 129.84 35.4402H136.38C135.31 32.6602 134.27 29.9602 133.23 27.2602V27.2502Z" fill="white"/>
<path d="M58.0905 22.5203C59.5405 22.5203 61.0005 22.4803 62.4505 22.5303C63.8805 22.5803 65.3005 22.7803 66.6705 23.2303C68.5005 23.8403 69.8905 25.0203 70.8905 26.6503C72.3805 29.1003 72.8105 31.7603 72.5205 34.5803C72.3205 36.5503 71.7105 38.3603 70.5505 39.9703C69.2805 41.7503 67.5505 42.8503 65.4605 43.4103C64.1805 43.7603 62.8705 43.9003 61.5405 43.9103C58.9605 43.9303 56.3905 43.9103 53.8105 43.9103C53.6105 43.9103 53.4105 43.9103 53.2205 43.9103C53.0005 43.9103 52.8205 43.8303 52.8205 43.5703C52.8205 43.3103 52.9905 43.2503 53.2105 43.2403C53.5205 43.2203 53.8305 43.2003 54.1305 43.1403C54.9605 42.9903 55.3605 42.5903 55.5205 41.7603C55.6105 41.3103 55.6605 40.8503 55.6605 40.3803C55.6605 35.6203 55.6605 30.8703 55.6605 26.1103C55.6605 25.6003 55.5805 25.1003 55.5105 24.6003C55.4005 23.7603 54.8705 23.2703 54.0205 23.1803C53.7605 23.1503 53.4905 23.1603 53.2305 23.1503C52.9805 23.1403 52.7905 23.0503 52.8205 22.7603C52.8505 22.4803 53.0605 22.4903 53.2705 22.4903C53.6205 22.4903 53.9705 22.4903 54.3305 22.4903C55.5905 22.4903 56.8405 22.4903 58.1005 22.4903V22.5103L58.0905 22.5203ZM58.4705 33.2603C58.4705 35.8103 58.4505 38.3703 58.4705 40.9203C58.4805 42.4603 58.1605 42.2203 59.8305 42.5503C61.2805 42.8403 62.7405 42.8103 64.1205 42.2503C66.4505 41.3103 67.9405 39.5403 68.6705 37.1703C69.4605 34.5903 69.4705 31.9603 68.7005 29.3703C68.0505 27.1903 66.7505 25.4803 64.6805 24.4603C62.9305 23.6003 61.0705 23.5903 59.2005 24.0203C58.4805 24.1903 58.4705 24.1803 58.4705 24.9403C58.4705 27.7103 58.4705 30.4903 58.4705 33.2603Z" fill="white"/>
<path d="M87.3803 22.52C87.5303 22.95 87.6903 26.55 87.5803 27.1C87.4303 27.2 87.2703 27.25 87.0503 27.12C86.9303 26.64 86.8103 26.13 86.6603 25.63C86.3603 24.61 85.7303 23.95 84.6303 23.83C84.3703 23.8 84.1103 23.74 83.8403 23.74C82.0803 23.74 80.3203 23.74 78.5603 23.74C78.4103 23.74 78.2503 23.73 78.1103 23.82C77.9403 24.33 77.9203 31.32 78.0903 31.96C78.2403 32.09 78.4203 32.06 78.5903 32.06C79.9803 32.06 81.3603 32.06 82.7503 32.06C83.1503 32.06 83.5503 32 83.9103 31.85C84.4803 31.62 84.8003 31.15 84.9603 30.57C85.0703 30.17 85.1403 29.75 85.2203 29.35C85.2603 29.15 85.3303 29.01 85.5603 29.04C85.7603 29.06 85.8003 29.22 85.8003 29.38C85.8003 31.65 85.8003 33.92 85.8003 36.18C85.8003 36.35 85.7303 36.48 85.5403 36.5C85.3603 36.52 85.2403 36.42 85.2103 36.25C85.1303 35.86 85.0603 35.47 84.9803 35.09C84.7503 34.01 84.1303 33.45 83.0203 33.4C82.1403 33.36 81.2603 33.38 80.3803 33.37C79.6103 33.37 78.8503 33.37 78.0803 33.37C77.9303 33.53 77.9703 33.74 77.9703 33.93C77.9703 36.35 77.9703 38.77 77.9703 41.2C77.9703 41.31 77.9703 41.42 77.9803 41.53C78.0303 42.27 78.3503 42.59 79.1003 42.63C79.4103 42.65 79.7203 42.64 80.0203 42.64C81.3003 42.64 82.5703 42.63 83.8503 42.62C85.1503 42.62 86.1803 42.09 86.9603 41.04C87.4703 40.35 87.9003 39.61 88.3003 38.84C88.4703 38.5 88.6703 38.37 89.0003 38.58C89.1003 38.79 88.9803 38.94 88.9303 39.11C88.4903 40.52 88.0503 41.92 87.6103 43.33C87.4403 43.88 87.3903 43.93 86.7603 43.93C85.2203 43.93 83.6803 43.93 82.1403 43.93C79.1503 43.93 76.1503 43.93 73.1603 43.93C72.9803 43.93 72.8103 43.93 72.6303 43.93C72.4303 43.93 72.2903 43.83 72.3003 43.61C72.3003 43.4 72.4203 43.29 72.6303 43.28C72.9403 43.27 73.2403 43.25 73.5503 43.18C74.5403 42.93 74.9203 42.52 75.0403 41.51C75.0703 41.25 75.0703 40.98 75.0703 40.72C75.0703 35.72 75.0703 30.72 75.0703 25.73C75.0703 25.33 75.0303 24.94 74.9603 24.55C74.8003 23.73 74.3803 23.32 73.5503 23.23C73.1603 23.19 72.7703 23.17 72.3803 23.13C72.3203 22.58 72.3303 22.56 72.7703 22.53C72.8803 22.53 72.9903 22.53 73.1003 22.53C77.7903 22.53 82.4803 22.53 87.1703 22.52C87.2303 22.52 87.3003 22.54 87.3603 22.55L87.3803 22.52Z" fill="white"/>
<path d="M106.1 29.26C105.6 29.38 105.53 29.07 105.44 28.8C105.19 28.03 104.89 27.27 104.52 26.54C102.77 23.08 98.7101 22.41 96.0001 24.03C94.9701 24.65 94.2001 25.5 93.6401 26.55C92.9401 27.87 92.5901 29.29 92.4001 30.77C92.2201 32.15 92.2201 33.54 92.3001 34.92C92.4201 36.9 92.8801 38.8 94.1501 40.4C95.4001 41.98 97.0401 42.81 99.0501 42.87C99.6801 42.89 100.32 42.9 100.96 42.77C102.76 42.4 104 41.26 105.07 39.87C105.4 39.44 105.72 39 106.05 38.55C106.36 38.65 106.61 38.75 106.42 39.11C105.53 40.76 104.44 42.23 102.81 43.23C101.84 43.83 100.77 44.18 99.6501 44.3C96.8501 44.6 94.2901 44.01 92.2001 42.03C90.9901 40.88 90.1201 39.46 89.5901 37.87C88.4401 34.42 88.5801 31 90.1601 27.72C91.9801 23.98 94.9801 21.99 99.2001 22C100.45 22 101.62 22.41 102.74 22.97C102.92 23.06 103.09 23.16 103.27 23.25C104.05 23.62 104.51 23.47 104.88 22.69C104.96 22.53 105.01 22.36 105.08 22.2C105.14 22.07 105.25 22 105.4 22.02C105.55 22.03 105.63 22.13 105.66 22.28C105.69 22.43 105.73 22.58 105.74 22.73C105.87 24.9 105.99 27.07 106.11 29.27L106.1 29.26Z" fill="white"/>
<path d="M123.89 38.5701C124.15 38.6701 124.31 38.8301 124.14 39.1501C122.64 42.0201 120.25 44.2901 116.56 44.3501C115.18 44.3701 113.85 44.2101 112.55 43.7001C110.84 43.0301 109.58 41.8401 108.58 40.3501C107.24 38.3301 106.66 36.0901 106.64 33.6701C106.62 31.0901 107.17 28.6801 108.58 26.5201C110.59 23.4401 113.44 21.8801 117.15 22.0001C118.35 22.0401 119.48 22.4401 120.55 22.9801C120.67 23.0401 120.79 23.1001 120.9 23.1601C121.85 23.6401 122.21 23.5101 122.66 22.5601C122.77 22.3201 122.78 21.9301 123.19 22.0101C123.59 22.0901 123.45 22.4701 123.47 22.7301C123.6 24.5901 123.72 26.4601 123.84 28.3201C123.86 28.6201 123.92 28.9301 123.78 29.2101C123.37 29.3701 123.29 29.0901 123.22 28.8401C122.99 28.1001 122.73 27.3801 122.37 26.7001C121.56 25.1301 120.39 23.9801 118.65 23.4601C115.8 22.6101 112.81 23.8801 111.43 26.5201C110.76 27.8101 110.37 29.1701 110.18 30.6001C109.89 32.8201 109.87 35.0301 110.4 37.2201C110.83 38.9701 111.65 40.4901 113.13 41.6101C115.39 43.3301 119.61 43.5401 121.88 40.9601C122.43 40.3301 122.96 39.6801 123.46 39.0101C123.58 38.8601 123.65 38.6601 123.88 38.5701H123.89Z" fill="white"/>
</g>
<defs>
<clipPath id="clip0_2683_730">
<rect width="216.79" height="60.56" fill="white" transform="translate(0 22)"/>
</clipPath>
</defs>
</svg>
