<svg width="257" height="105" viewBox="0 0 257 105" fill="none" xmlns="http://www.w3.org/2000/svg">
<g opacity="0.5" clip-path="url(#clip0_2319_5181)">
<path d="M203.546 82.2008C201.971 78.4197 200.367 74.6526 198.778 70.8715C198.636 70.5341 198.508 70.1968 198.352 69.7892C198.607 69.6345 198.863 69.494 199.246 69.2831C197.614 65.3614 195.953 61.4116 194.236 57.3213H197.131C197.231 56.9418 197.358 56.6466 197.358 56.3514C197.373 49.0562 197.373 41.761 197.358 34.4518C197.358 34.255 197.302 34.0582 197.273 33.8333C196.989 33.7631 196.748 33.6928 196.365 33.5803V21.9699C194.946 21.4779 193.612 21.759 192.321 21.7169C190.987 21.6606 189.653 21.6888 188.319 21.7028C186.999 21.7309 185.679 21.5904 184.203 21.8715C184.189 24.1627 184.189 26.4116 184.175 28.6606V35.2952H182.756C179.137 30.8394 175.49 26.3414 171.786 21.8012H160.589C160.504 22.1245 160.362 22.4056 160.362 22.7008C160.347 27.6345 160.362 32.5823 160.362 37.5161C160.362 37.6707 160.418 37.8253 160.475 38.0643C160.745 38.2048 161.057 38.3454 161.44 38.5281V51.6426H158.517C158.219 50.2229 158.417 48.761 158.375 47.3273C158.347 45.9076 158.375 44.488 158.375 43.0683V38.6406C157.963 38.4719 157.637 38.3454 157.24 38.1767C157.169 37.6145 157.098 36.996 157.041 36.4197C155.579 36.0964 141.09 36.1104 139.742 36.4478C139.472 37.8112 139.557 39.1888 139.713 40.6365C140.068 40.6647 140.352 40.6928 140.749 40.7349V43.8835C142.75 44.1928 144.723 43.8835 146.752 44.0944V47.3273C144.226 48.3394 141.714 48.3394 139.217 47.2289C136.676 46.1044 135.385 44.0241 134.718 41.4096C134.349 41.2691 133.966 41.1285 133.569 40.9739C133.327 38.7249 133.725 36.6586 135.002 34.8032C136.662 32.3574 140.224 30.741 144.212 31.9357C146.014 32.4699 147.59 33.4116 149.193 34.6345C151.62 32.0482 153.777 29.2932 156.076 26.5241C155.707 26.2008 155.423 25.9056 155.097 25.6526C151.918 23.2349 148.398 21.6466 144.368 21.239C144.24 21.2249 144.113 21.0843 143.999 21H138.252C137.443 21.1968 136.634 21.3795 135.839 21.5763C128.616 23.4317 123.791 27.747 121.761 34.9297C121.038 37.4458 121.265 40.004 121.336 42.5904C121.776 42.745 122.116 42.8574 122.542 42.998C123.209 46.1185 124.529 49 126.686 51.488C125.494 51.8253 121.023 51.8675 119.306 51.5442V43.2791C118.881 43.1104 118.554 42.9699 118.157 42.8153V21.9839C116.794 21.4498 115.46 21.7731 114.169 21.7169C112.835 21.6606 111.501 21.7028 110.167 21.7028C108.833 21.7028 107.527 21.7169 106.052 21.7169C105.867 25.6386 105.981 29.4056 105.966 33.1586C105.938 36.9257 105.952 40.7068 105.952 44.4317C106.35 44.6426 106.619 44.7831 106.889 44.9237V51.6004C105.64 51.8534 104.462 51.8112 103.171 51.6285C103.526 50.5321 103.951 49.5201 104.178 48.4799C104.405 47.4116 104.434 46.3012 104.561 45.1908C104.079 44.9518 103.724 44.7831 103.327 44.5723C103.142 43.1667 102.717 41.8454 101.894 40.6506C100.616 38.7952 98.8282 37.6145 96.813 36.7149C93.8896 35.4076 90.7533 34.8032 87.6171 34.1988C86.6804 34.0161 85.758 33.7771 84.8498 33.496C84.1118 33.2711 83.5158 32.8494 83.4164 31.9779C83.7996 31.0924 84.5375 30.8253 85.46 30.7972C88.9085 30.6847 92.0731 31.5703 95.0107 33.2992C95.5074 33.5803 96.0041 33.8896 96.6285 34.2691C98.6011 31.5562 100.545 28.8855 102.575 26.1165C102.021 25.7088 101.595 25.3293 101.113 25.0201C97.5794 22.7149 93.6767 21.506 89.4477 21.253C89.1071 21.253 88.7807 21.0843 88.4402 21H84.6085C83.53 21.1968 82.4514 21.3655 81.3871 21.5904C78.2934 22.2651 75.5545 23.5582 73.5251 26.0462C70.9423 29.2369 70.3462 32.8775 71.5951 36.7008C72.3472 39.0622 74.263 40.5663 76.4059 41.7329C78.8468 43.0683 81.529 43.7008 84.2111 44.3474C85.2329 44.6004 86.2831 44.7691 87.319 45.008C88.4969 45.2751 89.689 45.4859 90.6682 46.3012C90.9662 46.5542 91.4345 46.5964 91.8603 46.7369C92.0731 47.3273 91.8603 47.7771 91.2926 47.988C90.7959 48.1566 90.2708 48.2831 89.7458 48.3112C88.0428 48.4237 86.354 48.1988 84.6795 47.8474C83.7003 47.6506 82.7069 47.5663 81.7135 47.3835C81.2452 47.2992 80.7627 47.2149 80.3511 46.99C78.9887 46.2871 77.669 45.5141 76.3208 44.7691C76.1079 44.6426 75.8667 44.5301 75.5261 44.3474C74.3198 45.753 73.1277 47.1305 71.9499 48.508C72.1343 48.7329 72.2621 48.8875 72.4466 49.0843C71.7938 49.8574 71.1551 50.6165 70.3746 51.5582C70.3179 50.6586 70.2753 49.9558 70.2185 49.1827C69.9773 49.0562 69.7076 48.9297 69.3528 48.747C69.2535 48.4237 69.1542 48.0301 69.0548 47.6928C68.9555 47.6084 68.9271 47.5522 68.8845 47.5522C62.7255 47.4819 56.5665 47.4257 50.2939 47.3554V43.7992H67.4086C67.7492 42.5341 67.8202 37.2209 67.5506 35.2811C66.174 34.9016 64.7549 35.1406 63.3357 35.0984C61.9024 35.0703 60.4691 35.0984 59.0358 35.0984H50.2939V31.7811C52.2807 31.753 54.2817 31.7671 56.2827 31.7671H68.6007C69.1542 30.6566 68.8278 29.5462 68.8845 28.4779C68.9413 27.4237 68.8987 26.3695 68.8987 25.3293V22.1526C68.2317 21.506 67.5647 21.7169 66.9545 21.7169C58.014 21.7028 49.0735 21.7028 40.133 21.7028C39.5653 21.7028 38.9976 21.745 38.3448 21.7731V52.7249C38.6712 52.7671 38.9267 52.8092 39.3099 52.8655V57.2088C40.0052 57.2369 40.5729 57.2791 41.1405 57.2932H57.2619C57.8295 57.2932 58.3972 57.3213 59.05 57.3494V60.3855C58.7945 60.5261 58.4965 60.6948 58.1417 60.8775V83.6345C59.3196 84.0281 67.1958 84.1125 69.0406 83.761C69.4096 82.3554 69.1684 80.8936 69.2109 79.4458C69.2535 77.9699 69.2251 76.494 69.2251 75.0321V61.7631C69.5657 61.5663 69.8779 61.3976 70.2895 61.1727V52.2189C72.2904 53.4418 74.2205 54.6084 76.2924 55.8735V61.3695C75.9944 61.5382 75.6822 61.7068 75.37 61.8755V83.6767C76.5762 84.1968 77.8109 83.9016 79.0029 83.9578C80.1666 84 81.3445 83.9859 82.5082 83.9578C83.7144 83.9157 84.9491 84.1265 86.2405 83.761V69.3815C90.2992 74.3855 94.1451 79.1225 97.9909 83.8735H107.542C107.925 82.6647 108.053 73.2189 107.825 64.0823C108.123 63.9839 108.45 63.8574 108.904 63.7028V57.3775H114.822C115.191 58.4458 114.964 59.5422 115.006 60.6245C115.035 61.6647 115.006 62.7189 115.006 63.8153C114.666 63.998 114.353 64.1526 114.013 64.3353V83.8173C114.581 83.8735 115.091 83.9578 115.602 83.9578C119.221 83.9719 122.84 84.0281 126.459 83.9438C129.694 83.8594 132.887 83.4378 135.953 82.243C142.041 79.8675 145.659 74.6245 145.645 68.2289V66.5843C146 66.4016 146.355 66.2048 146.71 66.0221C146.653 63.1827 145.73 60.6667 144.155 58.1225C145.603 57.8695 146.88 57.7008 148.143 57.4197C149.434 57.1386 150.712 56.759 151.989 56.4217C152.329 57.4759 152.429 61.9036 152.187 66.1205C151.946 66.247 151.691 66.3875 151.35 66.5562V83.7329C152.528 84.1827 153.763 83.9016 154.955 83.9578C156.118 84 157.296 84 158.46 83.9578C159.666 83.9157 160.901 84.1546 162.235 83.7048V67.5823C162.547 67.4277 162.859 67.2731 163.356 67.0201C163.384 63.8996 163.413 60.6667 163.441 57.2932H173.474C173.886 55.8735 173.645 54.5522 173.687 53.2731C173.73 52.008 173.687 50.743 173.687 49.492V41.3815C176.455 44.8112 179.009 47.9598 181.634 51.1928C181.294 51.3896 181.01 51.5442 180.641 51.755C178.47 56.9137 176.256 62.1285 174.028 67.4137C173.659 67.5402 173.276 67.6667 172.793 67.8353C170.594 73.0361 168.38 78.2932 166.123 83.6486C167.514 84.2108 168.791 83.9016 170.026 83.9438C171.303 84 172.58 83.9578 173.858 83.9578H177.774C178.37 82.496 178.952 81.1185 179.534 79.7129H190.518C191.086 81.0763 191.654 82.4116 192.207 83.7189C193.527 84.0281 202.311 84.0703 203.915 83.7751C204.156 83.1707 203.744 82.6928 203.532 82.2008H203.546ZM97.9057 62.7189C97.5652 62.8594 97.2813 62.9859 96.9549 63.1265C96.8698 63.745 96.7846 64.3494 96.6569 65.2209C96.0609 64.49 95.621 63.9277 95.1384 63.3233C95.3655 63.1827 95.5358 63.0843 95.8054 62.9297C94.8262 61.0743 93.1375 59.739 91.988 57.8835C93.9606 57.3353 95.8906 56.7871 97.9057 56.2249V62.7189ZM134.406 69.0301C134.321 70.8996 133.384 72.3052 131.724 73.2048C129.708 74.3153 127.523 74.4137 125.096 74.1606C125.096 71.1667 125.096 68.243 125.096 65.2771C125.409 65.0663 125.692 64.8695 126.189 64.5321V61.2149C128.46 60.99 130.532 61.2149 132.518 62.1004C133.867 62.7048 134.846 63.7028 135.286 65.1787C134.988 65.3193 134.718 65.4317 134.42 65.5723C134.42 66.739 134.477 67.8916 134.406 69.0301ZM185.182 71.7008C184.331 71.7289 183.493 71.7008 182.528 71.7008C182.642 70.6325 183.139 69.7892 183.451 68.8193C183.82 68.6928 184.203 68.5522 184.657 68.3976C185.097 67.259 185.565 66.0924 186.176 64.5462C186.758 66.0361 187.197 67.1888 187.652 68.3414C187.311 68.496 187.041 68.6225 186.687 68.7771C187.013 69.6908 187.325 70.5622 187.666 71.5321C186.828 71.8554 185.991 71.6727 185.182 71.7008Z" fill="white"/>
<path d="M25.3315 23.7832C21.7127 22.2089 17.8669 21.8012 13.9926 21.7169C9.90553 21.6326 5.81844 21.6888 1.71715 21.7169C1.1495 21.7169 0.581843 21.8715 0 21.9418V57.237C1.43332 57.2651 2.86664 57.3494 4.29997 57.3213C9.08243 57.237 13.8649 57.49 18.6332 57.0261C21.5566 56.745 24.3665 56.0422 27.0061 54.735C27.375 54.5522 27.7014 54.2852 28.0136 54.0181C28.411 53.6808 28.7232 53.2591 29.1206 52.9358C31.8169 50.729 33.6476 48.002 34.5842 44.6426C35.1661 42.5342 35.2512 40.4117 35.1661 38.2611C34.9106 31.4438 31.7176 26.5522 25.3315 23.7832ZM20.62 45.5422C19.3995 47.2008 17.7533 48.0583 15.6956 47.8615C13.2831 47.6225 11.495 46.4278 10.6293 44.1225C10.1184 42.7591 10.2035 41.3675 10.5441 39.9478C11.2111 37.1928 12.6019 34.9016 14.7731 33.0884C15.3692 32.5824 16.0929 32.1888 16.8309 31.9358C18.25 31.4438 19.5414 31.739 20.549 32.9478C21.585 34.1988 22.0817 35.6888 22.2945 37.2631C22.3797 37.8816 22.3655 38.5141 22.3939 39.0342C22.4081 41.4378 22.0107 43.6306 20.62 45.5422Z" fill="white"/>
</g>
<defs>
<clipPath id="clip0_2319_5181">
<rect width="204" height="63" fill="white" transform="translate(0 21)"/>
</clipPath>
</defs>
</svg>
