<svg width="257" height="105" viewBox="0 0 257 105" fill="none" xmlns="http://www.w3.org/2000/svg">
<g opacity="0.6">
<g clip-path="url(#clip0_2683_749)">
<path d="M180.695 39.3598C180.778 39.1836 180.746 39.0311 180.746 38.8835C180.746 36.0445 180.746 33.2007 180.746 30.3617C180.746 30.2759 180.746 30.1854 180.746 30.0997C180.746 29.7377 180.917 29.5566 181.26 29.5566C182.783 29.5566 184.302 29.5566 185.825 29.5566C187.006 29.5566 188.186 29.5566 189.367 29.5566C189.802 29.5566 189.807 29.5566 189.811 30.0235C189.811 30.0997 189.811 30.1759 189.811 30.2473C189.811 45.2284 189.811 60.2047 189.811 75.1857C189.811 75.9955 189.83 75.9145 189.094 75.9145C187.219 75.9145 185.343 75.905 183.468 75.924C183.075 75.924 182.825 75.8145 182.658 75.4525C182.57 75.2619 182.44 75.0904 182.338 74.9047C182.251 74.7379 182.163 74.6951 181.996 74.8189C180.889 75.6382 179.653 76.1384 178.301 76.3337C177.505 76.448 176.708 76.4671 175.903 76.3861C174.917 76.2908 173.949 76.1146 173.023 75.7573C172.009 75.3715 171.064 74.857 170.273 74.0949C169.43 73.2803 168.911 72.2848 168.749 71.0939C168.694 70.6842 168.689 70.2698 168.689 69.8602C168.689 61.0764 168.698 52.2878 168.685 43.504C168.685 41.5177 169.541 40.0886 171.194 39.1264C172.361 38.4452 173.62 38.1213 174.963 38.1118C176.194 38.1023 177.421 38.1451 178.621 38.4738C179.269 38.6548 179.898 38.8787 180.473 39.2455C180.533 39.2836 180.602 39.3122 180.695 39.355V39.3598ZM177.759 57.2513C177.759 61.0525 177.759 64.8585 177.759 68.6598C177.759 68.7741 177.764 68.8837 177.759 68.998C177.722 69.7792 178.125 70.4842 179.135 70.5223C180.13 70.5604 180.713 70.0507 180.746 69.0361C180.746 68.9503 180.746 68.8598 180.746 68.7741C180.746 61.0811 180.746 53.3834 180.746 45.6904C180.746 45.5523 180.75 45.4142 180.736 45.276C180.695 44.9235 180.593 44.5901 180.324 44.3424C179.797 43.8517 178.681 43.8708 178.158 44.3757C178.023 44.5091 177.926 44.6615 177.861 44.8425C177.759 45.1188 177.759 45.4046 177.759 45.6952C177.759 49.5488 177.759 53.4025 177.759 57.2561V57.2513Z" fill="white"/>
<path d="M153.577 39.5317C154.508 38.8457 155.489 38.4885 156.531 38.3075C158.04 38.0502 159.559 37.9597 161.059 38.3456C162.337 38.679 163.508 39.2411 164.453 40.2319C165.12 40.9321 165.444 41.7895 165.573 42.7422C165.643 43.2519 165.634 43.7664 165.634 44.2761C165.634 54.6032 165.634 64.9256 165.634 75.2528C165.634 75.691 165.421 75.9101 164.995 75.9101C162.388 75.9101 159.781 75.9101 157.179 75.9101C157.096 75.9101 157.008 75.9101 156.925 75.9101C156.605 75.9006 156.582 75.872 156.573 75.5338C156.573 75.4195 156.573 75.3099 156.573 75.1956C156.573 65.4353 156.573 55.6702 156.573 45.9099C156.573 45.6193 156.573 45.3335 156.489 45.0573C156.332 44.5285 155.934 44.1903 155.401 44.1522C155.184 44.1379 154.961 44.1332 154.744 44.1522C154.105 44.2046 153.665 44.6476 153.6 45.305C153.582 45.5146 153.586 45.7289 153.586 45.9433C153.586 55.7036 153.586 65.4686 153.586 75.2289C153.586 75.6831 153.369 75.9101 152.934 75.9101C150.327 75.9101 147.72 75.9101 145.118 75.9101C145.021 75.9101 144.924 75.9053 144.826 75.9101C144.609 75.9244 144.507 75.8244 144.521 75.6005C144.525 75.5005 144.521 75.4004 144.521 75.3004C144.521 63.1869 144.521 51.0687 144.521 38.9553C144.521 38.3122 144.488 38.3456 145.123 38.3456C147.729 38.3456 150.336 38.3456 152.938 38.3456C152.998 38.3456 153.059 38.3456 153.119 38.3456C153.563 38.3456 153.582 38.3646 153.586 38.841C153.586 39.041 153.586 39.2363 153.586 39.5221L153.577 39.5317Z" fill="white"/>
<path d="M117.246 39.5027C117.672 39.2408 118.056 38.9788 118.482 38.7978C119.394 38.4119 120.348 38.2119 121.32 38.1499C122.473 38.0785 123.635 38.0261 124.765 38.35C126.024 38.712 127.196 39.2503 128.117 40.2363C128.849 41.0175 129.191 41.9797 129.261 43.0515C129.27 43.1754 129.261 43.304 129.261 43.4278C129.261 54.0551 129.261 64.6776 129.261 75.3048C129.261 75.9622 129.312 75.9288 128.64 75.9288C126.011 75.9288 123.381 75.9288 120.751 75.9288C120.408 75.9288 120.237 75.7478 120.237 75.3858C120.237 65.5874 120.237 55.789 120.237 45.9858C120.237 45.6333 120.214 45.2856 120.089 44.9521C120.019 44.7664 119.927 44.5806 119.765 44.4615C119.209 44.0471 118.598 44.0661 117.987 44.2757C117.422 44.471 117.274 44.9855 117.214 45.5285C117.195 45.7 117.204 45.8762 117.204 46.0525C117.204 55.8033 117.204 65.5493 117.204 75.3C117.204 75.9574 117.26 75.9241 116.584 75.9241C113.954 75.9241 111.324 75.9241 108.694 75.9241C108.349 75.9241 108.176 75.7446 108.176 75.3858C108.176 63.2199 108.176 51.0541 108.176 38.893C108.176 38.5342 108.349 38.3548 108.694 38.3548C111.361 38.3548 114.028 38.3548 116.695 38.3548C116.718 38.3548 116.746 38.3548 116.769 38.3548C117.195 38.3548 117.2 38.3643 117.204 38.793C117.204 38.9931 117.204 39.1931 117.204 39.3932C117.204 39.417 117.218 39.4408 117.232 39.5075L117.246 39.5027Z" fill="white"/>
<path d="M105.296 57.3228C105.296 61.2145 105.31 65.1063 105.287 68.998C105.277 70.5842 104.902 72.0704 103.916 73.3375C103.073 74.4141 101.971 75.1 100.721 75.5621C99.6286 75.9669 98.4989 76.1908 97.3414 76.3099C96.2395 76.4242 95.1329 76.4862 94.0263 76.4338C92.517 76.3623 91.0168 76.2146 89.563 75.7669C88.3129 75.381 87.1508 74.819 86.1924 73.8853C85.2247 72.9469 84.6367 71.7799 84.3728 70.4461C84.2246 69.7078 84.169 68.9599 84.169 68.2121C84.169 60.8525 84.1644 53.493 84.169 46.1382C84.169 45.095 84.2941 44.0661 84.6459 43.0801C85.3173 41.1985 86.6368 39.9743 88.3916 39.1979C89.5491 38.6882 90.7714 38.4215 92.0215 38.2547C93.3318 38.0832 94.6468 38.0642 95.9571 38.1309C98.3554 38.25 100.615 38.893 102.638 40.2649C104.212 41.3319 105.037 42.8705 105.24 44.7902C105.291 45.2665 105.296 45.7381 105.296 46.2145C105.296 49.9204 105.296 53.6216 105.296 57.3276V57.3228ZM96.221 57.2847C96.221 53.493 96.221 49.7013 96.221 45.9096C96.221 45.7095 96.221 45.5095 96.2071 45.3094C96.1469 44.6425 95.7857 44.1805 95.1931 44.0423C94.8968 43.9709 94.5912 43.9756 94.2902 44.0518C93.8087 44.1662 93.5078 44.4758 93.3457 44.9521C93.2485 45.2427 93.2392 45.538 93.2392 45.8429C93.2392 53.4501 93.2392 61.0621 93.2392 68.6693C93.2392 68.7551 93.2392 68.8456 93.2392 68.9313C93.2855 70.0365 93.781 70.6748 94.9755 70.57C95.5126 70.5223 95.883 70.2556 96.0867 69.7364C96.2163 69.4029 96.221 69.0552 96.221 68.7027C96.221 64.8967 96.221 61.0955 96.221 57.2895V57.2847Z" fill="white"/>
<path d="M218.014 74.6663C217.074 75.7952 215.852 76.1001 214.588 76.2858C213.722 76.4145 212.847 76.4716 211.967 76.4335C210.638 76.3811 209.323 76.2382 208.078 75.6999C206.129 74.852 205.124 73.3134 205.004 71.1747C204.851 68.45 204.953 65.7205 204.948 62.9958C204.948 61.2524 205.592 59.7472 206.786 58.5182C207.615 57.6655 208.587 56.9939 209.578 56.3556C211.078 55.3934 212.634 54.5455 214.203 53.7166C214.875 53.3594 215.532 52.9831 216.129 52.5019C216.282 52.3781 216.426 52.2447 216.569 52.1066C216.852 51.8255 216.995 51.4969 216.991 51.0729C216.972 49.3724 216.981 47.6671 216.981 45.9665C216.981 45.6426 216.981 45.3187 216.884 44.9995C216.722 44.4422 216.37 44.104 215.805 44.0135C215.24 43.9277 214.773 44.0849 214.449 44.6042C214.055 45.2329 213.949 45.9522 213.856 46.6715C213.736 47.5956 213.763 48.5197 213.791 49.4438C213.824 50.4156 213.893 51.3873 213.981 52.359C214.06 53.2308 214.069 53.245 213.226 53.245C210.791 53.245 208.356 53.245 205.92 53.245C205.837 53.245 205.749 53.245 205.666 53.245C205.286 53.2403 205.277 53.2308 205.277 52.8449C205.277 50.3298 205.235 47.8147 205.291 45.2996C205.351 42.4463 206.698 40.4266 209.245 39.2643C210.467 38.707 211.763 38.4355 213.083 38.2592C214.527 38.0687 215.977 38.0687 217.421 38.1402C219.167 38.2259 220.875 38.5546 222.454 39.3977C224.491 40.4885 225.593 42.2415 225.917 44.5518C225.982 44.9995 225.987 45.4473 225.987 45.8998C225.987 55.6982 225.987 65.4966 225.987 75.295C225.987 75.9476 226.052 75.9191 225.366 75.9191C223.116 75.9191 220.861 75.9191 218.611 75.9191C218.528 75.9191 218.44 75.9191 218.356 75.9191C218.037 75.9095 218.009 75.8857 218 75.5475C217.995 75.2855 218 75.0235 218 74.671L218.014 74.6663ZM216.991 64.3772V64.039C216.991 62.5623 216.991 61.0857 216.991 59.609C216.991 59.2803 216.986 59.2756 216.694 59.3565C216.153 59.509 215.629 59.7186 215.157 60.033C214.389 60.5474 213.99 61.2476 214.004 62.2241C214.032 64.3867 214.014 66.5541 214.014 68.7167C214.014 68.8787 214.009 69.0454 214.027 69.2026C214.088 69.7313 214.296 70.16 214.796 70.3935C215.014 70.4935 215.245 70.503 215.477 70.5221C216.273 70.5888 216.778 70.1982 216.958 69.3979C217.014 69.1502 217 68.8977 217 68.65C217 67.2258 217 65.7967 217 64.3725L216.991 64.3772Z" fill="white"/>
<path d="M4.53741 60.7338C5.88937 60.7338 7.24133 60.7338 8.5933 60.7338C9.04704 60.7338 9.06556 60.7528 9.06556 61.2196C9.06556 63.7967 9.07482 66.3737 9.07482 68.9555C9.07482 69.3127 9.16279 69.6414 9.31558 69.9653C9.6582 70.6751 10.987 70.8561 11.4315 70.0368C11.6769 69.589 11.8204 69.1127 11.876 68.6173C12.0704 66.8548 12.0056 65.0971 11.5889 63.368C11.4361 62.7344 11.1815 62.139 10.8111 61.6007C10.5611 61.2387 10.2508 60.9529 9.86192 60.7433C7.98214 59.7382 6.1255 58.695 4.3198 57.5565C3.60215 57.104 2.90302 56.6277 2.23629 56.1085C1.12972 55.2463 0.578751 54.0745 0.361141 52.7074C0.259281 52.0643 0.22224 51.4165 0.22224 50.7639C0.22687 49.1348 0.21298 47.5104 0.2315 45.8813C0.24076 44.981 0.361141 44.0903 0.638941 43.2281C1.16676 41.5895 2.18536 40.3843 3.64382 39.5555C4.81058 38.8934 6.06994 38.5456 7.3756 38.3265C8.98222 38.055 10.6027 38.0502 12.2186 38.1312C14.0104 38.2217 15.7744 38.5313 17.3996 39.3935C19.2794 40.3891 20.4137 41.9515 20.7702 44.0998C20.8628 44.6667 20.9138 45.2383 20.9138 45.8147C20.9138 48.0916 20.9138 50.3685 20.9138 52.6454C20.9138 52.6978 20.9138 52.7455 20.9138 52.7979C20.9045 53.1218 20.8767 53.1551 20.548 53.1551C19.5479 53.1551 18.5524 53.1551 17.5524 53.1551C15.8578 53.1551 14.1678 53.1551 12.4732 53.1551C12.0612 53.1551 12.038 53.1218 12.089 52.6978C12.0982 52.6121 12.1075 52.5216 12.1075 52.4358C12.1399 51.4879 12.1491 50.5352 12.2093 49.5873C12.2417 49.0109 12.288 48.4393 12.251 47.8629C12.1862 46.8674 12.1584 45.8623 11.7556 44.9239C11.7047 44.8096 11.6537 44.6952 11.5889 44.5904C11.1167 43.8378 10.1305 43.7854 9.57949 44.4809C9.35262 44.7715 9.22298 45.1049 9.15816 45.4669C9.01926 46.2338 8.99148 47.0008 9.04704 47.7772C9.10723 48.6251 9.18131 49.4682 9.36651 50.3018C9.57486 51.245 10.0471 51.9881 10.8111 52.5645C11.9825 53.4457 13.2326 54.1983 14.5058 54.9081C15.5522 55.494 16.6264 56.0322 17.682 56.5943C18.571 57.0707 19.2469 57.8185 19.8303 58.6426C20.6637 59.8239 21.0619 61.1577 21.0619 62.6153C21.0665 64.7541 21.0943 66.8977 21.048 69.0365C21.0064 71.0514 20.3072 72.7948 18.7839 74.1333C17.8996 74.9098 16.8625 75.4004 15.7559 75.7386C14.5151 76.1197 13.2418 76.2912 11.9501 76.3769C11.1583 76.4293 10.3712 76.4531 9.57949 76.4198C8.09326 76.3579 6.62091 76.2054 5.19024 75.7577C4.12071 75.4242 3.116 74.9622 2.25018 74.2238C1.17602 73.314 0.513931 72.147 0.20835 70.7608C0.0555601 70.0654 0 69.3413 0 68.6125C0 66.2213 0 63.83 0 61.4435C0 61.3435 0 61.2435 0 61.1434C0.00926002 60.7766 0.0416701 60.7385 0.407441 60.7385C1.78255 60.7385 3.15767 60.7385 4.53278 60.7385L4.53741 60.7338Z" fill="white"/>
<path d="M60.1855 57.2421C60.1855 53.4361 60.1855 49.6301 60.1855 45.8289C60.1855 44.8428 60.3337 43.8854 60.6717 42.9613C61.2273 41.456 62.2366 40.3557 63.5932 39.584C64.7785 38.9076 66.0657 38.5598 67.3991 38.336C69.0566 38.0549 70.7234 38.0597 72.3856 38.1359C74.0802 38.2121 75.747 38.5074 77.3119 39.2362C79.5205 40.2604 80.8122 41.9895 81.1317 44.4713C81.1873 44.9095 81.1965 45.343 81.1965 45.7812C81.1965 48.6964 81.1965 51.6117 81.1965 54.5317C81.1965 54.5841 81.1965 54.6317 81.1965 54.6841C81.1873 55.0175 81.1687 55.0461 80.8354 55.0461C78.0713 55.0461 75.3072 55.0461 72.543 55.0461C72.1865 55.0461 72.168 55.0223 72.168 54.6222C72.168 51.7451 72.168 48.8632 72.168 45.986C72.168 45.6955 72.1402 45.4097 72.0893 45.1286C71.9689 44.4713 71.5013 44.0521 70.8485 44.014C70.3253 43.9854 69.853 44.0807 69.5104 44.538C69.2881 44.8428 69.2465 45.2048 69.2048 45.5621C69.1909 45.6717 69.2048 45.786 69.2048 45.9003C69.2048 53.4837 69.2048 61.0719 69.2048 68.6553C69.2048 68.9983 69.2326 69.3317 69.3344 69.6556C69.5058 70.2082 69.9039 70.5321 70.4595 70.5702C70.6031 70.5797 70.7512 70.5797 70.8994 70.5702C71.4457 70.5464 71.8115 70.2558 72.006 69.7366C72.1356 69.3841 72.1773 69.0126 72.1773 68.6315C72.1773 65.8163 72.1773 63.0011 72.1773 60.1811C72.1773 59.7937 72.3625 59.6 72.7329 59.6C75.3859 59.6 78.0435 59.6 80.6965 59.6C81.2058 59.6 81.2058 59.6 81.2058 60.1097C81.2058 63.1487 81.2243 66.1926 81.1919 69.2317C81.1687 71.1799 80.5159 72.8805 79.0436 74.1809C78.187 74.9383 77.1916 75.4242 76.122 75.7528C74.8812 76.1339 73.6079 76.3197 72.3162 76.3911C71.5244 76.434 70.7327 76.4673 69.9456 76.4292C68.464 76.3578 66.987 76.2149 65.5564 75.7671C64.2229 75.3527 63.0006 74.7382 62.0098 73.695C61.0097 72.6375 60.4958 71.3609 60.2735 69.9271C60.1948 69.4032 60.1948 68.8792 60.1948 68.3552C60.1948 64.6492 60.1948 60.9433 60.1948 57.2421H60.1855Z" fill="white"/>
<path d="M45.0821 52.7402C45.0821 60.2617 45.0821 67.7832 45.0821 75.2999C45.0821 75.9715 45.0914 75.9144 44.4895 75.9144C41.8596 75.9144 39.2298 75.9144 36.5999 75.9144C36.4888 75.9144 36.3823 75.9144 36.2712 75.9144C36.086 75.9144 36.0073 75.8191 36.0119 75.6381C36.0119 75.538 36.0119 75.438 36.0119 75.338C36.0119 60.2712 36.0119 45.2044 36.0119 30.1424C36.0119 29.485 36.0119 29.547 36.586 29.547C39.2298 29.547 41.8689 29.547 44.5126 29.547C44.6098 29.547 44.7071 29.5517 44.8043 29.547C45.0126 29.5327 45.0867 29.647 45.0867 29.8423C45.0867 29.9661 45.0867 30.0948 45.0867 30.2186C45.0867 37.7258 45.0867 45.233 45.0867 52.7402H45.0821Z" fill="white"/>
<path d="M32.9654 57.1749C32.9654 63.2293 32.9654 69.2884 32.9654 75.3427C32.9654 75.727 32.7787 75.9191 32.4052 75.9191C29.7522 75.9191 27.0992 75.9191 24.4416 75.9191C24.3814 75.9191 24.3212 75.9191 24.261 75.9191C23.9184 75.9096 23.8999 75.8905 23.8906 75.5237C23.8906 75.4713 23.8906 75.4237 23.8906 75.3713C23.8906 63.2102 23.8906 51.0444 23.8906 38.8833C23.8906 38.7976 23.8906 38.707 23.8906 38.6213C23.8906 38.4355 23.974 38.3403 24.1545 38.3498C24.2379 38.3498 24.3258 38.3498 24.4092 38.3498C27.0853 38.3498 29.7661 38.3498 32.4423 38.3498C32.5163 38.3498 32.5904 38.3498 32.6599 38.3498C32.8821 38.3355 32.9654 38.4546 32.9562 38.6689C32.9516 38.7833 32.9562 38.8928 32.9562 39.0071C32.9562 45.0615 32.9562 51.1206 32.9562 57.1749H32.9654Z" fill="white"/>
<path d="M48.1387 57.0894C48.1387 51.035 48.1387 44.9759 48.1387 38.9216C48.1387 38.5373 48.3254 38.3452 48.6989 38.3452C51.3519 38.3452 54.0049 38.3452 56.6625 38.3452C56.7597 38.3452 56.857 38.3452 56.9542 38.3452C57.1163 38.3452 57.2042 38.4167 57.2089 38.5882C57.2089 38.6882 57.2089 38.7882 57.2089 38.8882C57.2089 51.0493 57.2089 63.2152 57.2089 75.3763C57.2089 75.462 57.2089 75.5525 57.2089 75.6382C57.2089 75.824 57.1255 75.9145 56.9449 75.9098C56.8616 75.9098 56.7736 75.9098 56.6903 75.9098C54.0142 75.9098 51.3334 75.9098 48.6572 75.9098C48.597 75.9098 48.5369 75.9098 48.4767 75.9098C48.1803 75.8955 48.1572 75.8717 48.1479 75.5525C48.1479 75.4382 48.1479 75.3286 48.1479 75.2143C48.1479 69.1695 48.1479 63.1247 48.1479 57.0846L48.1387 57.0894Z" fill="white"/>
<path d="M141.54 57.1611C141.54 63.2154 141.54 69.2745 141.54 75.3289C141.54 75.9243 141.596 75.9195 140.961 75.9195C138.345 75.9195 135.729 75.9195 133.109 75.9195C133.035 75.9195 132.961 75.9195 132.891 75.9195C132.558 75.91 132.535 75.8862 132.525 75.5623C132.525 75.4861 132.525 75.4098 132.525 75.3384C132.525 63.2011 132.525 51.0639 132.525 38.9266C132.525 38.5455 132.714 38.355 133.09 38.355C135.72 38.355 138.35 38.355 140.98 38.355C141.04 38.355 141.1 38.355 141.16 38.355C141.517 38.3645 141.535 38.3788 141.545 38.7313C141.545 38.8456 141.545 38.9552 141.545 39.0695C141.545 45.1 141.545 51.1305 141.545 57.1611H141.54Z" fill="white"/>
<path d="M192.794 57.1271C192.794 51.0585 192.794 44.9899 192.794 38.9212C192.794 38.5401 192.981 38.3496 193.355 38.3496C195.984 38.3496 198.614 38.3496 201.244 38.3496C201.327 38.3496 201.415 38.3496 201.499 38.3496C201.777 38.3639 201.8 38.3877 201.809 38.6878C201.809 38.7878 201.809 38.8879 201.809 38.9879C201.809 51.0871 201.809 63.1862 201.809 75.2854C201.809 75.9427 201.865 75.9142 201.193 75.9142C198.6 75.9142 196.008 75.9142 193.415 75.9142C192.734 75.9142 192.794 75.9427 192.794 75.2949C192.794 69.2406 192.794 63.1815 192.794 57.1271Z" fill="white"/>
<path d="M28.4561 29.5474C29.8219 29.5474 31.1831 29.5474 32.549 29.5474C32.9518 29.5474 32.9657 29.5569 32.9657 29.9618C32.9657 31.9529 32.9657 33.9393 32.9657 35.9304C32.9657 36.3353 32.9518 36.3448 32.549 36.3496C29.7988 36.3496 27.0439 36.3496 24.2937 36.3496C23.914 36.3496 23.8955 36.3353 23.8955 35.9542C23.8955 33.9536 23.8955 31.9481 23.8955 29.9475C23.8955 29.5664 23.914 29.5521 24.2937 29.5474C25.6827 29.5474 27.0717 29.5474 28.4561 29.5474Z" fill="white"/>
<path d="M52.6846 29.5474C54.0505 29.5474 55.4117 29.5474 56.7775 29.5474C57.2035 29.5474 57.2128 29.5569 57.2128 29.9856C57.2128 31.9624 57.2128 33.9393 57.2128 35.9161C57.2128 36.34 57.2035 36.3496 56.7729 36.3496C54.0458 36.3496 51.3188 36.3496 48.5917 36.3496C48.1426 36.3496 48.1426 36.3496 48.1426 35.8923C48.1426 33.9297 48.1426 31.9624 48.1426 29.9999C48.1426 29.5521 48.1426 29.5474 48.5963 29.5474C49.9622 29.5474 51.3234 29.5474 52.6892 29.5474H52.6846Z" fill="white"/>
<path d="M137.03 29.5518C138.382 29.5518 139.734 29.5518 141.081 29.5518C141.535 29.5518 141.539 29.5518 141.539 30.0376C141.539 31.9906 141.539 33.9437 141.539 35.8919C141.539 36.3444 141.539 36.3444 141.09 36.3444C138.386 36.3444 135.687 36.3444 132.983 36.3444C132.9 36.3444 132.812 36.3444 132.728 36.3397C132.594 36.3349 132.534 36.2539 132.529 36.1253C132.529 36.0491 132.529 35.9729 132.529 35.9014C132.529 33.9389 132.529 31.9716 132.529 30.009C132.529 29.5565 132.529 29.5565 132.983 29.5565C134.335 29.5565 135.687 29.5565 137.034 29.5565L137.03 29.5518Z" fill="white"/>
<path d="M197.307 36.3493C195.956 36.3493 194.604 36.3493 193.256 36.3493C192.802 36.3493 192.798 36.3493 192.798 35.8634C192.798 33.9104 192.798 31.9574 192.798 30.0092C192.798 29.5566 192.798 29.5566 193.247 29.5566C195.951 29.5566 198.65 29.5566 201.354 29.5566C201.437 29.5566 201.525 29.5566 201.609 29.5614C201.743 29.5662 201.803 29.6471 201.808 29.7758C201.808 29.852 201.808 29.9282 201.808 29.9996C201.808 31.9622 201.808 33.9295 201.808 35.892C201.808 36.3446 201.808 36.3446 201.354 36.3446C200.002 36.3446 198.65 36.3446 197.303 36.3446L197.307 36.3493Z" fill="white"/>
</g>
</g>
<defs>
<clipPath id="clip0_2683_749">
<rect width="226" height="46.9057" fill="white" transform="translate(0 29.5474)"/>
</clipPath>
</defs>
</svg>
