<svg width="257" height="105" viewBox="0 0 257 105" fill="none" xmlns="http://www.w3.org/2000/svg">
<g opacity="0.6" clip-path="url(#clip0_2683_998)">
<path d="M65.6985 20.1576C65.7121 20.2011 65.7447 20.2555 65.7447 20.3126C65.7474 41.8515 65.7501 63.3904 65.7501 84.9293C65.7501 85.0054 65.723 85.0815 65.7175 85.125C65.6061 85.2636 65.4838 85.2554 65.3642 85.2582C65.0435 85.2582 64.7228 85.2582 64.4021 85.2582C43.2545 85.2582 22.107 85.2582 0.959448 85.2554C0.701253 85.2554 0.44034 85.2826 0.241937 85.2283C0.0734311 85.1304 0.0272277 85.019 0.0190742 84.8967C0.0109207 84.7363 0.0109207 84.576 0.0109207 84.4156C0.0109207 63.1757 0.00820284 41.9384 0.00820284 20.6985C0.00820284 20.5218 -0.0216935 20.3397 0.0326634 20.2093C0.130506 20.0571 0.23922 20.0136 0.36424 20.0109C0.625154 20.0054 0.886067 20.0027 1.14426 20.0027C18.9461 20.0027 36.7507 20.0027 54.5526 20.0027C57.9798 20 61.4043 20 64.8288 20C65.0082 20 65.1903 20 65.3696 20.0054C65.4947 20.0082 65.6061 20.0435 65.6985 20.1549V20.1576ZM35.6337 31.4965C35.5549 31.7248 35.5875 31.964 35.5875 32.2004C35.5875 37.8046 35.5875 43.4061 35.5875 49.0103C35.5875 49.1516 35.5875 49.2902 35.5875 49.4315C35.5875 49.5511 35.5848 49.6761 35.756 49.7876C41.6863 49.7876 47.671 49.7876 53.6557 49.7876C53.7318 49.7876 53.8052 49.7604 53.8813 49.7441C53.9058 49.668 53.9384 49.6136 53.9384 49.5593C53.9384 43.5963 53.9384 37.6334 53.9384 31.6704C53.9384 31.6161 53.9058 31.559 53.8895 31.4992C53.8297 31.4802 53.7753 31.4448 53.721 31.4448C47.7553 31.4448 41.7896 31.4448 35.824 31.4448C35.7696 31.4448 35.7125 31.4802 35.6337 31.5046V31.4965ZM11.9477 73.373C12.1434 73.479 12.2847 73.46 12.4233 73.4573C15.5244 73.4573 18.6282 73.4491 21.7292 73.4518C22.2728 73.4518 22.8082 73.3703 23.3355 73.2915C24.3873 73.1339 25.382 72.786 26.3006 72.2207C27.116 71.7179 27.7927 71.071 28.358 70.3209C29.2087 69.1875 29.7441 67.902 30.0241 66.5078C30.2116 65.5647 30.323 64.6189 30.2931 63.654C30.2768 63.1349 30.2687 62.6158 30.1545 62.1048C30.1002 61.8711 30.0676 61.6347 30.0268 61.4009C29.948 60.9498 29.8338 60.5095 29.6735 60.0746C29.4207 59.3897 29.0429 58.7836 28.638 58.1884C28.0292 57.2943 27.2301 56.6012 26.2762 56.1093C24.9961 55.4488 23.6181 55.1173 22.1831 55.1064C19.2206 55.0847 16.2582 55.0928 13.2957 55.0901C12.956 55.0901 12.6163 55.0874 12.2738 55.0901C12.1543 55.0901 12.0319 55.0901 11.9477 55.2015C11.8879 55.7315 11.8526 71.3809 11.9096 73.0795C11.9124 73.1773 11.9314 73.2725 11.945 73.373H11.9477ZM30.2986 40.2371C30.323 39.8647 30.2143 39.2016 30.0594 38.533C29.7496 37.204 29.1598 36.0217 28.3445 34.94C28.0536 34.5541 27.7574 34.1763 27.3823 33.8746C26.7165 33.3365 26.0288 32.8309 25.2651 32.4205C24.091 31.79 22.8408 31.5318 21.5362 31.434C20.8133 31.3796 20.1039 31.5454 19.3864 31.5726C19.3076 31.5753 19.2342 31.6161 19.1554 31.6324C18.1607 31.8226 17.2556 32.2221 16.3832 32.7277C15.3124 33.3501 14.44 34.1817 13.7007 35.1683C13.2033 35.8287 12.812 36.5381 12.513 37.31C12.1488 38.2503 11.9694 39.2288 11.9178 40.2289C11.8879 40.8051 11.9178 41.3813 12.0156 41.9602C12.1108 42.5336 12.2168 43.1044 12.4097 43.648C13.0049 45.3249 13.9779 46.7409 15.4021 47.8253C15.7989 48.127 16.1848 48.445 16.6305 48.6787C17.2883 49.0211 17.9786 49.2821 18.6852 49.5131C19.2234 49.6897 19.786 49.7169 20.3377 49.774C21.2128 49.8637 22.1016 49.8256 22.9631 49.6435C24.6618 49.2848 26.1512 48.4939 27.4258 47.3143C28.2113 46.586 28.8309 45.7298 29.3093 44.7759C29.9724 43.4523 30.304 42.0444 30.2986 40.2479V40.2371ZM42.1919 70.1578C42.2326 68.4728 40.8982 66.8556 38.9196 66.8339C37.0198 66.8122 35.5467 68.4211 35.5712 70.0899C35.6011 72.0195 37.0035 73.4056 38.8217 73.46C40.765 73.5171 42.2816 71.7994 42.1919 70.1578ZM42.1864 58.3243C42.2381 57.8623 42.0886 57.4329 41.8956 57.0089C41.613 56.3838 41.121 55.9544 40.5965 55.5521C40.4361 55.4298 40.2513 55.3592 40.0665 55.2803C39.6099 55.0901 39.1343 55.0683 38.6532 55.0928C37.4057 55.158 36.4925 55.7886 35.9245 56.8594C35.457 57.7454 35.4435 58.7238 35.7968 59.6506C36.1555 60.591 36.8459 61.2433 37.8324 61.5341C38.6016 61.7597 39.3653 61.7352 40.1263 61.4689C40.5911 61.3058 40.9933 61.0503 41.3059 60.6807C41.8739 60.0067 42.2544 59.2511 42.1837 58.3243H42.1864ZM47.3612 58.4575C47.3612 58.433 47.3612 58.4928 47.3612 58.5526C47.3449 59.6669 47.8803 60.485 48.7473 61.1264C49.3751 61.5885 50.0818 61.7271 50.84 61.6836C51.601 61.6428 52.2887 61.4227 52.8295 60.8519C52.9246 60.7514 53.0306 60.6562 53.1258 60.5557C53.9194 59.7131 54.1015 58.7103 53.8623 57.615C53.721 56.9763 53.3704 56.4653 52.9138 55.987C51.9571 54.9841 50.0845 54.7775 48.875 55.5684C47.8694 56.2261 47.3123 57.1393 47.3612 58.4602V58.4575ZM47.3639 70.1741C47.2688 71.1199 47.6765 71.8918 48.3315 72.5631C48.8587 73.104 49.53 73.3486 50.2557 73.4383C51.0113 73.5307 51.7233 73.3757 52.3729 72.9599C53.1883 72.4408 53.6992 71.7315 53.8922 70.7666C54.1776 69.3425 53.4845 67.9863 52.3321 67.2959C51.6282 66.8719 50.8699 66.7768 50.0818 66.8774C49.5436 66.9453 49.0245 67.1329 48.6087 67.4916C47.8042 68.1874 47.277 69.0272 47.3666 70.1714L47.3639 70.1741Z" fill="white"/>
<path d="M50.0742 46.0313C50.0253 46.0421 49.9492 46.072 49.8731 46.072C46.4296 46.072 42.9861 46.072 39.5426 46.0693C39.4882 46.0693 39.4339 46.0313 39.385 46.015C39.2436 45.8492 39.2953 45.6616 39.2953 45.4877C39.2953 43.0253 39.2953 40.5657 39.2953 38.1033C39.2953 37.4619 39.2953 36.8232 39.2926 36.1818C39.2926 35.9019 39.3007 35.6219 39.2246 35.3773C39.2844 35.2197 39.3822 35.1572 39.51 35.149C39.6703 35.1409 39.8307 35.1382 39.991 35.1382C43.1546 35.1382 46.3182 35.1382 49.4818 35.1382C49.6965 35.1382 49.9248 35.0919 50.1069 35.2061C50.2264 35.3067 50.2455 35.4235 50.2482 35.5458C50.2482 35.6464 50.2509 35.747 50.2509 35.8448C50.2509 39.0056 50.2509 42.1692 50.2455 45.3301C50.2455 45.4714 50.2455 45.61 50.2346 45.7486C50.2292 45.8519 50.1857 45.9416 50.077 46.0258L50.0742 46.0313Z" fill="white"/>
<path d="M15.6871 69.5951C15.5919 69.394 15.6245 69.2119 15.6245 69.0325C15.6245 65.8716 15.6245 62.7108 15.6273 59.5499C15.6273 59.3189 15.5593 59.0634 15.7604 58.8786C15.9154 58.7808 16.0784 58.8025 16.2361 58.7998C17.8967 58.7998 19.5573 58.7835 21.2179 58.8053C22.0604 58.8161 22.8975 58.9738 23.6585 59.3434C24.8353 59.9168 25.6996 60.8029 26.1209 62.0721C26.3682 62.8168 26.5068 63.5778 26.4715 64.3687C26.4307 65.3009 26.2024 66.1706 25.8029 67.0159C25.4115 67.8421 24.8163 68.4699 24.0553 68.9347C23.384 69.3451 22.6447 69.5625 21.8511 69.644C19.9948 69.8397 18.1358 69.6957 16.2768 69.7391C16.0811 69.7446 15.8719 69.7718 15.6898 69.5924L15.6871 69.5951Z" fill="white"/>
<path d="M26.57 40.6366C26.6271 40.9927 26.5129 41.3433 26.4314 41.6911C26.195 42.7212 25.7465 43.6426 24.9692 44.3927C24.4909 44.8547 24.0098 45.3032 23.3901 45.5641C22.5911 45.9038 21.7567 46.1267 20.8843 46.0614C19.7265 45.9772 18.6638 45.6103 17.7343 44.8846C17.3022 44.5476 16.9652 44.1426 16.6417 43.7078C16.0492 42.9115 15.7829 42.0037 15.6388 41.0443C15.6008 40.7888 15.6062 40.5225 15.6388 40.267C15.685 39.911 15.772 39.5631 15.8454 39.2098C16.0139 38.4053 16.4352 37.7312 16.9488 37.1089C17.4 36.5653 17.9544 36.1332 18.5632 35.7826C19.0144 35.5216 19.5172 35.3803 20.0254 35.2553C20.9251 35.0351 21.8219 35.1085 22.6835 35.3966C23.4418 35.6494 24.1539 36.0244 24.7409 36.5952C25.116 36.9594 25.4639 37.3372 25.7411 37.7856C26.1134 38.389 26.3526 39.0358 26.4749 39.7316C26.5265 40.0278 26.5999 40.3186 26.57 40.6339V40.6366Z" fill="white"/>
<path fill-rule="evenodd" clip-rule="evenodd" d="M99.9535 43.0019C101.049 42.972 102.038 43.3008 102.9 43.9042C103.696 44.4586 104.283 45.2196 104.636 46.1491C104.829 46.6601 104.911 47.1901 104.99 47.7201C105.044 48.0737 104.97 48.4209 104.898 48.7654C104.875 48.8711 104.853 48.9765 104.835 49.0817C104.674 49.9704 104.253 50.7505 103.631 51.3837C102.802 52.229 101.812 52.8079 100.587 52.8758C100.49 52.8815 100.393 52.8965 100.296 52.9116C100.254 52.918 100.212 52.9245 100.171 52.9302C100.142 52.9341 100.114 52.9409 100.085 52.9478C100.035 52.9597 99.9846 52.9717 99.9344 52.9682C98.6707 52.8921 97.5047 52.5741 96.5344 51.6908C95.9256 51.1364 95.5152 50.4651 95.2 49.7231C95.0913 49.4649 95.0097 49.1986 95.007 48.9132C95.007 48.7936 94.9961 48.6713 94.9608 48.5571C94.8956 48.3424 94.8874 48.1223 94.9064 47.9049C94.9144 47.8154 94.9208 47.7255 94.9273 47.6354C94.9495 47.3258 94.9717 47.0152 95.0559 46.7226C95.2788 45.9535 95.5913 45.2196 96.192 44.6462C96.2405 44.5997 96.2886 44.553 96.3367 44.5063C96.6038 44.2468 96.8697 43.9885 97.1921 43.7928C97.7602 43.4476 98.35 43.1813 99.0213 43.0997C99.112 43.0888 99.2025 43.0749 99.2927 43.0611C99.5158 43.0269 99.7367 42.993 99.9535 43.0046V43.0019ZM99.8882 51.1744H100.195C101.057 51.1744 101.712 50.7668 102.272 50.1498C102.663 49.7204 102.843 49.204 102.978 48.6523C103.199 47.7581 102.954 46.9563 102.544 46.179C102.497 46.0921 102.424 46.0187 102.353 45.948C102.309 45.9012 102.265 45.8534 102.22 45.8056C102.088 45.6616 101.955 45.5173 101.802 45.399C101.166 44.8989 100.44 44.6462 99.6273 44.725C99.3719 44.7494 99.1191 44.8337 98.8745 44.9207C97.9042 45.2713 97.2655 45.9562 96.991 46.94C96.8252 47.5352 96.7818 48.1468 96.934 48.7746C97.1949 49.8508 97.858 50.5602 98.8337 51.0168C99.187 51.1826 99.5703 51.188 99.8855 51.1772L99.8882 51.1744ZM89.5281 52.8025C89.0117 52.8922 88.5551 52.8705 88.1393 52.8324C87.93 52.721 87.8485 52.5661 87.7941 52.3867C87.7126 52.1204 87.6202 51.854 87.5278 51.5904C87.0413 50.1717 86.5548 48.753 86.071 47.3342C86.0086 47.1492 85.9553 46.9587 85.9022 46.7687L85.9022 46.7687L85.8672 46.6439C85.8635 46.631 85.86 46.6181 85.8565 46.6052L85.8565 46.6051C85.829 46.5039 85.802 46.4046 85.6959 46.3395C85.6868 46.3532 85.6769 46.3666 85.6669 46.3801C85.6412 46.4149 85.6153 46.4498 85.6035 46.489C85.4143 47.1789 85.1725 47.8506 84.9305 48.5228L84.9305 48.5228L84.9305 48.5228L84.8643 48.7067C84.5571 49.5653 84.2713 50.431 83.9852 51.2976L83.9852 51.2977L83.9852 51.2977L83.9852 51.2977L83.9852 51.2978L83.9851 51.2978L83.9851 51.2978L83.9851 51.2979L83.9851 51.2979L83.9851 51.2979L83.9851 51.298L83.9851 51.298L83.9851 51.298L83.9851 51.2981L83.985 51.2981L83.985 51.2982L83.985 51.2982L83.985 51.2982L83.985 51.2983L83.985 51.2983L83.985 51.2983L83.985 51.2984L83.985 51.2984C83.8763 51.6276 83.7675 51.957 83.6576 52.2861L83.6458 52.3218C83.5798 52.5219 83.5148 52.7194 83.2608 52.8297C83.1407 52.8691 82.9986 52.8645 82.8496 52.8596C82.7829 52.8574 82.7147 52.8552 82.6465 52.8569C82.5103 52.8606 82.3729 52.8592 82.2508 52.858H82.2508H82.2507H82.2507H82.2506H82.2506H82.2506H82.2505H82.2504H82.2504H82.2503H82.2503H82.2502H82.2502H82.2502H82.2501H82.2501H82.25H82.25H82.25H82.2499H82.2499H82.2499H82.2498H82.2498H82.2498H82.2497H82.2497H82.2497C82.1943 52.8574 82.1422 52.8569 82.0948 52.8569C81.8203 52.7482 81.7089 52.5824 81.6735 52.3405C81.6436 52.1448 81.592 51.9491 81.5268 51.7616C81.3936 51.3743 81.257 50.9877 81.1205 50.6011C80.9839 50.2145 80.8473 49.8279 80.7141 49.4406C80.4392 48.6443 80.1664 47.8472 79.8936 47.0498L79.8936 47.0497L79.8935 47.0496L79.8935 47.0494C79.6486 46.3337 79.4036 45.6177 79.1568 44.9018C79.0848 44.6938 79.0094 44.4873 78.9339 44.2807C78.8585 44.0742 78.7831 43.8676 78.7111 43.6597C78.6594 43.5075 78.6187 43.3499 78.7301 43.2058C79.1324 43.0971 79.9015 43.089 80.4478 43.1841C80.6016 43.2946 80.6555 43.4626 80.7092 43.6296L80.7092 43.6297C80.7162 43.6515 80.7232 43.6734 80.7304 43.695C80.8651 44.1174 80.9996 44.5398 81.1341 44.9624L81.1341 44.9626L81.1342 44.9628L81.1344 44.9633L81.1344 44.9633L81.1344 44.9634C81.5754 46.3489 82.0167 47.7352 82.4644 49.1199C82.4835 49.1802 82.4958 49.243 82.5083 49.3068C82.5386 49.4615 82.57 49.6216 82.7009 49.764C82.8476 49.6227 82.9156 49.4406 82.9645 49.2612C83.1944 48.435 83.4712 47.6231 83.7481 46.8111C83.923 46.2982 84.0979 45.7853 84.2609 45.2687C84.3781 44.8982 84.5019 44.529 84.6258 44.1593L84.6258 44.1593L84.6258 44.1593L84.6258 44.1593L84.6258 44.1593L84.6259 44.1593L84.6259 44.1593L84.6259 44.1593L84.6259 44.1592L84.626 44.1589C84.6802 43.9972 84.7344 43.8354 84.7882 43.6733C84.7997 43.6392 84.8103 43.6047 84.8209 43.5698L84.8209 43.5698C84.8629 43.4323 84.9065 43.2897 85.0192 43.1488C85.4867 43.0862 85.9759 43.0944 86.4923 43.1542C86.6482 43.484 86.7426 43.8257 86.8361 44.1638L86.8361 44.1638C86.8974 44.3856 86.9583 44.6059 87.0358 44.8202C87.1707 45.1897 87.293 45.5643 87.4156 45.9396L87.4156 45.9397C87.4733 46.1164 87.5311 46.2933 87.5903 46.47L87.5914 46.4732L87.5914 46.4733C87.7759 47.0212 87.9603 47.5691 88.1447 48.1197L88.1461 48.1237C88.3277 48.6714 88.5094 49.2192 88.7155 49.8319C88.9118 49.5504 88.9849 49.2545 89.0553 48.969C89.0951 48.8079 89.134 48.6502 89.1938 48.5002C89.328 48.1604 89.4363 47.8103 89.5449 47.4594L89.5449 47.4594L89.5449 47.4594L89.5449 47.4594L89.5449 47.4594L89.5449 47.4594L89.5449 47.4593L89.5449 47.4593L89.5449 47.4593L89.5449 47.4593L89.5449 47.4593C89.5727 47.3696 89.6005 47.2798 89.6287 47.1902C89.6953 46.9809 89.7591 46.7703 89.823 46.5596C89.8869 46.349 89.9507 46.1384 90.0173 45.9291C90.1074 45.6447 90.2021 45.3614 90.2969 45.0778C90.348 44.9251 90.399 44.7723 90.4495 44.6191C90.5315 44.3713 90.6127 44.1226 90.6941 43.8736L90.6943 43.873C90.7556 43.6852 90.817 43.4971 90.8789 43.3091C90.9387 43.2221 91.0311 43.1705 91.1289 43.1569C91.5154 43.102 91.9019 43.1145 92.2898 43.1271C92.382 43.1301 92.4743 43.1331 92.5667 43.1352C92.6482 43.1352 92.7189 43.1759 92.7977 43.2874C92.7263 43.6851 92.5741 44.0711 92.4203 44.4614C92.3281 44.6952 92.2353 44.9305 92.159 45.1708C92.0322 45.572 91.8899 45.9688 91.7476 46.3654C91.6672 46.5894 91.5869 46.8133 91.5094 47.038C91.3808 47.4081 91.2549 47.7801 91.1292 48.1517L91.1291 48.1518L91.1291 48.1519L91.129 48.1521L91.129 48.1522L91.129 48.1523L91.1289 48.1524L91.1289 48.1525L91.1288 48.1526L91.1288 48.1528L91.1287 48.153L91.1287 48.1531L91.1286 48.1533L91.1285 48.1535L91.1285 48.1536L91.1284 48.1538L91.1284 48.154L91.1283 48.1541L91.1283 48.1543L91.1282 48.1545L91.1281 48.1546L91.1281 48.1548L91.1281 48.1549C91.0362 48.4263 90.9444 48.6974 90.8517 48.9677C90.6397 49.5928 90.4277 50.2179 90.213 50.8403C90.0616 51.2795 89.9076 51.7188 89.7493 52.1704L89.749 52.1712L89.7484 52.1729C89.6768 52.3771 89.6044 52.5839 89.5308 52.7944L89.5281 52.8025ZM159.334 47.6766C159.457 47.8803 159.589 47.9389 159.708 47.9914C159.738 48.0048 159.768 48.0177 159.796 48.0326C160.695 48.5082 161.174 49.5084 160.972 50.5031C160.812 51.294 160.394 51.8783 159.679 52.2806C159.141 52.5823 158.575 52.7453 157.966 52.7508C157.214 52.7577 156.462 52.7569 155.71 52.7561H155.71H155.71H155.709H155.709H155.709H155.709H155.708H155.708H155.708H155.708H155.708H155.707H155.707H155.707H155.707H155.707H155.706H155.706H155.706H155.706H155.706C155.278 52.7557 154.85 52.7552 154.422 52.7562C154.376 52.7562 154.329 52.7556 154.282 52.755C154.049 52.752 153.817 52.749 153.588 52.8214C153.384 52.8839 153.194 52.8214 153.028 52.6937C152.936 52.5875 152.938 52.465 152.941 52.3438C152.941 52.3254 152.941 52.307 152.941 52.2887V43.7003C152.941 43.6779 152.941 43.6552 152.94 43.6326C152.938 43.5157 152.936 43.3987 152.993 43.3008C153.072 43.1785 153.18 43.135 153.305 43.1323C153.466 43.1269 153.626 43.1242 153.786 43.1242C154.054 43.1242 154.322 43.1259 154.591 43.1277C155.204 43.1317 155.818 43.1357 156.431 43.1187C157.034 43.1024 157.629 43.1676 158.222 43.2492C158.727 43.3171 159.195 43.5182 159.589 43.8335C160.108 44.2494 160.391 44.8011 160.432 45.4914C160.478 46.2877 160.268 46.9536 159.635 47.4591C159.57 47.5124 159.502 47.5604 159.43 47.6106L159.429 47.6109C159.399 47.6322 159.368 47.6539 159.336 47.6766H159.334ZM158.635 48.9811C158.309 48.8452 158.043 48.7773 157.757 48.7773C157.254 48.7788 156.752 48.7768 156.25 48.7748L156.249 48.7748H156.249H156.249H156.249H156.249H156.249H156.249H156.248H156.248H156.248H156.248H156.248H156.248H156.247H156.247H156.247H156.247H156.247H156.247H156.246H156.246H156.246C155.87 48.7733 155.495 48.7718 155.118 48.7718C154.999 48.7718 154.876 48.7718 154.77 48.9349L154.767 49.1285C154.756 49.7052 154.745 50.3137 154.787 50.9244C154.788 50.9619 154.812 50.9968 154.833 51.0273C154.843 51.041 154.851 51.0539 154.857 51.0657C154.988 51.1641 155.126 51.1604 155.26 51.1568L155.26 51.1567C155.278 51.1563 155.295 51.1558 155.313 51.1556L155.336 51.1554C155.59 51.1564 155.844 51.1559 156.098 51.1555H156.098H156.098H156.098H156.099H156.099H156.099H156.099H156.099H156.099H156.099H156.099H156.099H156.099H156.099H156.099H156.099H156.099H156.1H156.1H156.1H156.1C156.545 51.1547 156.99 51.1539 157.434 51.1608C158.024 51.169 158.529 50.9842 158.929 50.5955C159.065 50.3894 159.109 50.1857 159.15 49.9937L159.157 49.9623C159.122 49.8091 159.089 49.6665 159.053 49.5132L159.026 49.3997C158.927 49.2937 158.821 49.1809 158.714 49.0681L158.712 49.0651L158.632 48.9811H158.635ZM154.921 47.1403L154.921 47.1402L154.921 47.1402L154.921 47.1401C154.902 47.131 154.881 47.1204 154.854 47.1094C154.735 46.6596 154.724 45.4526 154.827 44.9071C154.901 44.8201 155.004 44.8201 155.102 44.8201C155.566 44.8183 156.031 44.8189 156.496 44.8195C156.729 44.8198 156.962 44.8201 157.195 44.8201C157.564 44.8201 157.901 44.9207 158.241 45.1381C158.292 45.2115 158.35 45.292 158.412 45.3784L158.413 45.3794L158.413 45.3799L158.413 45.3803C158.466 45.4533 158.521 45.5304 158.578 45.611C158.58 45.6621 158.584 45.7141 158.588 45.7667L158.588 45.767C158.596 45.8684 158.604 45.9721 158.597 46.0757C158.575 46.4182 158.404 46.6682 158.111 46.8503C157.741 47.0786 157.322 47.1439 156.912 47.1683C156.455 47.1976 155.998 47.1876 155.539 47.1777C155.359 47.1738 155.179 47.1698 154.999 47.1683C154.975 47.1666 154.953 47.1556 154.922 47.1404L154.921 47.1403L154.921 47.1403ZM199.191 52.7522C199.331 52.7543 199.477 52.7565 199.636 52.6855L199.644 52.6882C199.653 52.6596 199.664 52.6338 199.673 52.61C199.69 52.5683 199.704 52.5326 199.704 52.498C199.712 49.4975 199.712 46.497 199.712 43.4965C199.712 43.4397 199.696 43.3843 199.68 43.3334L199.68 43.333C199.674 43.3134 199.668 43.2945 199.664 43.2764L199.591 43.2389C199.371 43.1247 199.352 43.115 199.147 43.1323C199.019 43.1429 198.89 43.1359 198.761 43.1289C198.493 43.1145 198.227 43.1 197.976 43.241C197.881 43.4176 197.886 43.5978 197.892 43.7757C197.893 43.8169 197.894 43.8579 197.894 43.8987C197.889 45.5376 197.889 47.1792 197.889 48.818C197.889 48.9569 197.882 49.0944 197.875 49.2304L197.875 49.2306V49.2309V49.2311V49.2313V49.2315L197.875 49.2327C197.872 49.285 197.869 49.337 197.867 49.3888C197.744 49.3963 197.695 49.3319 197.652 49.2749L197.641 49.261C197.438 48.9952 197.234 48.7298 197.031 48.4644C196.712 48.0489 196.393 47.6336 196.076 47.2172C195.592 46.5826 195.108 45.9473 194.625 45.312L194.624 45.3117C194.141 44.6765 193.657 44.0413 193.173 43.4068C193.086 43.2927 192.991 43.1948 192.809 43.1296C192.714 43.1296 192.615 43.129 192.512 43.1284C192.296 43.1272 192.066 43.1259 191.836 43.1296C191.632 43.135 191.434 43.1704 191.287 43.4122V43.9042V52.1257C191.287 52.2643 191.293 52.4056 191.301 52.5442C191.303 52.5701 191.314 52.5948 191.327 52.6208C191.333 52.6329 191.339 52.6454 191.344 52.6584C191.401 52.7426 191.496 52.7752 191.627 52.8187C191.877 52.7525 192.15 52.7529 192.428 52.7533C192.526 52.7535 192.626 52.7536 192.725 52.7508L192.732 52.7504C192.849 52.7452 192.969 52.7398 193.065 52.604C193.113 52.3929 193.107 52.168 193.1 51.9394V51.9394V51.9393V51.9392V51.9391V51.939V51.9388V51.9387V51.9386V51.9385V51.9384V51.9383V51.9382V51.9381V51.938V51.9379V51.9378V51.9376V51.9375V51.9374V51.9373V51.9372C193.098 51.831 193.095 51.7241 193.097 51.6174C193.105 51.3483 193.104 51.0777 193.103 50.8078V50.8074V50.8071C193.103 50.7175 193.103 50.6279 193.103 50.5384V49.5192V48.4403C193.103 48.327 193.102 48.2138 193.101 48.1005C193.1 47.874 193.099 47.6476 193.103 47.4211C193.103 47.3229 193.103 47.2247 193.102 47.1253V47.1248V47.1243V47.1238V47.1233V47.1227V47.1222V47.1216V47.1211V47.1205V47.12V47.1194V47.1188V47.1182V47.1176V47.117V47.1163V47.1157V47.115V47.115V47.1149V47.1148V47.1148V47.1147V47.1146V47.1146V47.1145V47.1144V47.1144V47.1143V47.1142V47.1142V47.1141V47.114V47.114V47.1139V47.1138V47.1138V47.1137C193.1 46.8617 193.098 46.6013 193.119 46.3122C193.157 46.3544 193.191 46.3917 193.223 46.4258L193.223 46.4261C193.292 46.5014 193.348 46.5611 193.396 46.6247L193.612 46.9035C194.261 47.7405 194.911 48.5796 195.557 49.4187C195.842 49.7886 196.125 50.1598 196.409 50.5309L196.409 50.5311L196.409 50.5313L196.409 50.5317L196.41 50.5322L196.41 50.5328L196.411 50.5332C196.853 51.1129 197.296 51.6925 197.745 52.267L197.791 52.3267C197.955 52.5405 198.124 52.7609 198.378 52.8404C198.441 52.8316 198.501 52.8228 198.559 52.8142C198.715 52.7912 198.858 52.7701 199.003 52.7562C199.065 52.7503 199.128 52.7512 199.191 52.7522ZM140.865 68.1965C139.517 66.4601 138.198 64.7603 136.888 63.073L136.028 61.9645C135.906 61.9748 135.908 62.0371 135.91 62.0949C135.911 62.1132 135.911 62.131 135.908 62.1466C135.901 62.1846 135.903 62.2251 135.906 62.2656C135.907 62.2858 135.908 62.306 135.908 62.326C135.908 64.0654 135.908 65.8048 135.903 67.547C135.903 67.5882 135.904 67.6295 135.906 67.6712V67.6712V67.6713C135.912 67.8302 135.918 67.994 135.84 68.1748C135.31 68.3732 134.756 68.4221 134.231 68.2889C134.087 68.1558 134.082 68.0362 134.079 67.9166C134.077 67.8493 134.078 67.7821 134.078 67.7157C134.079 67.6827 134.079 67.65 134.079 67.6176V59.3391C134.079 59.3045 134.078 59.2697 134.077 59.2348C134.072 59.1107 134.068 58.9862 134.117 58.8716C134.169 58.7955 134.237 58.7466 134.318 58.7466C134.626 58.7448 134.932 58.7454 135.233 58.746C135.382 58.7463 135.529 58.7466 135.674 58.7466C135.988 58.9474 136.187 59.2298 136.382 59.5072L136.382 59.5073C136.451 59.6053 136.52 59.7027 136.593 59.7957C137.319 60.7124 138.035 61.638 138.751 62.5625L138.985 62.8641C139.288 63.256 139.588 63.6491 139.888 64.0425L139.888 64.0431C140.048 64.2525 140.208 64.462 140.368 64.6715C140.382 64.6893 140.394 64.7083 140.407 64.7274C140.46 64.807 140.514 64.8883 140.648 64.8971C140.701 64.7562 140.694 64.6092 140.688 64.4641L140.688 64.464C140.685 64.416 140.683 64.3682 140.683 64.3209C140.684 63.6652 140.685 63.0091 140.685 62.3529V62.3529V62.3528V62.3528V62.3527V62.3526V62.3526V62.3525V62.3524V62.3524V62.3523V62.3523V62.3522V62.3521V62.3521V62.352V62.3519V62.3519V62.3518V62.3517C140.685 61.3682 140.685 60.3844 140.689 59.4016C140.689 59.357 140.686 59.312 140.684 59.267C140.675 59.1144 140.666 58.9618 140.757 58.8254C141.192 58.7031 141.898 58.6977 142.409 58.8064C142.514 58.9137 142.509 59.0449 142.504 59.1743L142.503 59.1988L142.502 59.2323L142.502 59.2575V62.0786V67.5388C142.502 67.5915 142.504 67.6444 142.506 67.6972C142.513 67.8624 142.52 68.0258 142.458 68.1721C142.363 68.327 142.227 68.3596 142.083 68.3542C141.967 68.348 141.849 68.3542 141.732 68.3604C141.432 68.3762 141.133 68.392 140.865 68.2047V68.1965ZM165.861 43.1272C165.695 43.1207 165.527 43.1142 165.4 43.2657H165.403C165.325 43.389 165.328 43.5239 165.331 43.6573V43.6575V43.6576V43.6578C165.332 43.683 165.332 43.7081 165.332 43.7332V52.2509L165.332 52.2834L165.332 52.2938L165.331 52.3234V52.3235V52.3236V52.3237V52.3238C165.328 52.4582 165.326 52.5937 165.408 52.7156C165.509 52.8379 165.648 52.8733 165.786 52.8325C166.038 52.7567 166.293 52.7566 166.549 52.7565C166.633 52.7564 166.716 52.7564 166.8 52.7537L166.823 52.7535L166.848 52.7535H166.848H166.848H166.848H166.848C166.97 52.7539 167.1 52.7544 167.235 52.5961C167.261 52.277 167.257 51.9303 167.254 51.5753V51.575C167.252 51.4191 167.25 51.2615 167.251 51.104C167.252 51.0274 167.252 50.9508 167.253 50.8741V50.8735C167.257 50.436 167.262 49.9953 167.199 49.533C167.799 49.4839 168.371 49.4969 168.943 49.5099L169.126 49.514C169.195 49.6078 169.262 49.6982 169.328 49.7867L169.328 49.7869L169.329 49.7882L169.33 49.7892L169.331 49.7906L169.331 49.7909L169.332 49.7921L169.332 49.7921C169.45 49.9504 169.564 50.1029 169.673 50.2587C170.186 50.998 170.697 51.7372 171.203 52.4792C171.317 52.6477 171.431 52.8108 171.684 52.8515C171.945 52.7999 172.238 52.751 172.54 52.7483C172.612 52.7476 172.684 52.7516 172.758 52.7557C172.997 52.769 173.248 52.7829 173.516 52.6395C173.226 52.1738 172.917 51.7453 172.613 51.3228L172.613 51.3227L172.612 51.3226C172.523 51.1978 172.433 51.0736 172.344 50.949C172.14 50.6621 171.933 50.3772 171.724 50.0895L171.724 50.0893L171.724 50.0888C171.521 49.8099 171.316 49.5283 171.11 49.2395C171.259 49.1142 171.415 49.0403 171.567 48.9684C171.613 48.9467 171.658 48.9252 171.703 48.9025C171.899 48.8019 172.081 48.6851 172.249 48.5383C172.804 48.0573 173.127 47.443 173.233 46.7337C173.38 45.7743 173.135 44.91 172.467 44.187C171.956 43.6353 171.293 43.3798 170.57 43.244C170.018 43.138 169.461 43.1189 168.901 43.1244C168.276 43.1313 167.653 43.1305 167.03 43.1297C166.673 43.1293 166.317 43.1288 165.96 43.1298C165.927 43.1298 165.894 43.1285 165.861 43.1272ZM171.127 47.1454C171.102 47.1904 171.076 47.235 171.053 47.28V47.2854C170.613 47.6876 170.151 47.8235 169.629 47.8154C169.191 47.8081 168.752 47.8105 168.314 47.813C168.095 47.8142 167.875 47.8154 167.656 47.8154L167.625 47.8155C167.498 47.8163 167.366 47.8171 167.243 47.7067C167.161 47.6306 167.14 47.5055 167.17 47.3914C167.266 47.0094 167.259 46.6238 167.252 46.2378C167.248 46.047 167.245 45.8561 167.254 45.6656C167.257 45.5985 167.254 45.5306 167.252 45.4634V45.4632V45.4631V45.4629V45.4628V45.4626V45.4624V45.4623V45.4621V45.462V45.4619V45.4617V45.4616V45.4614V45.4613V45.4612V45.461V45.4609V45.4608C167.246 45.3136 167.24 45.1695 167.297 45.0432C167.387 44.9345 167.49 44.929 167.588 44.929C167.86 44.929 168.132 44.9296 168.404 44.9302C168.948 44.9314 169.494 44.9326 170.04 44.929C170.377 44.9263 170.651 45.0513 170.904 45.2715C171.385 45.6873 171.434 46.2771 171.263 46.8614C171.234 46.9615 171.18 47.0543 171.127 47.1454ZM205.322 52.6506C205.314 52.6262 205.304 52.602 205.294 52.5778C205.274 52.5295 205.254 52.4812 205.248 52.4305C205.235 52.292 205.235 52.1507 205.235 52.0122V52.0119V43.9753C205.235 43.9316 205.233 43.8875 205.232 43.8433C205.224 43.6292 205.216 43.415 205.39 43.255C205.537 43.1355 205.697 43.1273 205.86 43.1273C206.173 43.1273 206.487 43.1232 206.801 43.1191C207.508 43.1098 208.215 43.1005 208.92 43.1382C209.836 43.1871 210.744 43.3339 211.567 43.8095C211.828 43.9617 212.081 44.1166 212.29 44.334C212.445 44.4917 212.6 44.6466 212.761 44.7961C213.369 45.3614 213.704 46.0789 213.869 46.8752L213.882 46.9364L213.897 47.0031C213.971 47.3498 214.046 47.6996 214.005 48.0602C213.908 48.9163 213.782 49.767 213.293 50.5063C212.592 51.5635 211.616 52.2538 210.396 52.599C210.032 52.7023 209.66 52.7621 209.274 52.7566C208.527 52.7494 207.781 52.7518 207.034 52.7542L207.033 52.7542C206.66 52.7554 206.287 52.7566 205.914 52.7566C205.901 52.7566 205.888 52.7568 205.875 52.757L205.838 52.7578C205.684 52.7611 205.52 52.7647 205.325 52.6506H205.322ZM207.213 51.0199C207.609 51.0657 207.982 51.0609 208.348 51.0562C208.525 51.054 208.701 51.0517 208.877 51.0553C209.238 51.0634 209.589 51.0145 209.942 50.9275C210.73 50.7318 211.266 50.2345 211.682 49.5659C211.873 49.2582 211.929 48.9197 211.985 48.5789C211.993 48.5283 212.002 48.4777 212.01 48.4271C212.1 47.9297 211.986 47.0736 211.788 46.6143C211.616 46.2175 211.345 45.9077 211.035 45.6196C210.562 45.182 210.002 44.9455 209.361 44.932C208.865 44.9211 208.369 44.9241 207.873 44.9272C207.749 44.9279 207.626 44.9287 207.502 44.9292L207.487 44.9292C207.394 44.929 207.296 44.9287 207.208 45.0244C207.205 45.0353 207.199 45.0481 207.193 45.0622L207.193 45.0623L207.193 45.0624L207.192 45.0625L207.192 45.0626C207.178 45.0938 207.162 45.1311 207.162 45.1684C207.159 47.0247 207.156 48.8837 207.159 50.74C207.159 50.7926 207.172 50.8453 207.189 50.9141C207.197 50.9448 207.205 50.9787 207.213 51.0172V51.0199ZM117.263 52.6463L117.267 52.6447L117.264 52.6474L117.263 52.6463ZM117.197 52.544C117.216 52.5736 117.238 52.6071 117.263 52.6463C116.977 52.7797 116.716 52.766 116.467 52.7529C116.401 52.7493 116.335 52.7459 116.269 52.7453C116.078 52.7436 115.893 52.7751 115.719 52.8049L115.719 52.8049C115.616 52.8225 115.516 52.8395 115.421 52.8486C115.185 52.8051 115.079 52.6637 114.973 52.5116C114.424 51.7261 113.872 50.9406 113.318 50.1579C113.21 50.0047 113.097 49.8557 112.983 49.7038L112.983 49.7037C112.939 49.6455 112.895 49.5869 112.85 49.5274C112.34 49.4874 111.839 49.4982 111.316 49.5094C111.198 49.5119 111.079 49.5145 110.959 49.5165C111.01 49.8561 110.976 50.1381 110.943 50.4147L110.943 50.4149L110.943 50.4151L110.943 50.4153C110.936 50.4727 110.929 50.5299 110.923 50.5873C110.902 50.8044 110.905 51.0245 110.909 51.2446V51.2446C110.912 51.3855 110.914 51.5263 110.91 51.6663C110.906 51.7698 110.909 51.8739 110.912 51.9776V51.9778V51.978V51.9781V51.9783V51.9784V51.9786V51.9787V51.9789V51.979V51.9792V51.9793V51.9795V51.9796V51.9798V51.9799V51.9801C110.919 52.2105 110.925 52.4396 110.863 52.6583C110.41 52.7806 109.703 52.7915 109.184 52.6936C109.085 52.6126 109.083 52.4986 109.081 52.3867L109.081 52.3621V52.0631V43.9585C109.081 43.9028 109.078 43.8467 109.076 43.7911V43.7911C109.07 43.6105 109.063 43.4352 109.129 43.2981C109.271 43.1404 109.409 43.1323 109.551 43.1323C109.922 43.1323 110.294 43.1302 110.666 43.1281C111.575 43.1231 112.485 43.1181 113.394 43.1431C113.886 43.1567 114.386 43.2328 114.867 43.3796C115.255 43.4965 115.595 43.7085 115.927 43.9286C116.158 44.0835 116.354 44.2901 116.476 44.5537C116.515 44.6378 116.555 44.7209 116.596 44.804L116.596 44.8041C116.72 45.0593 116.844 45.3144 116.916 45.5974C117.047 46.1029 117.011 46.5948 116.875 47.0731C116.688 47.739 116.356 48.3261 115.739 48.7039C115.585 48.798 115.43 48.8904 115.277 48.9815C115.16 49.0508 115.045 49.1195 114.932 49.1876C114.875 49.2999 114.927 49.3701 114.979 49.4409L114.979 49.441C114.986 49.4507 114.993 49.4604 115 49.4703C115.349 49.9567 115.698 50.4439 116.048 50.931C116.397 51.4182 116.746 51.9054 117.095 52.392C117.127 52.4346 117.156 52.4799 117.197 52.544ZM113.557 44.9233C114.119 44.9152 114.562 45.1272 114.889 45.5321L114.891 45.5348C115.054 45.8583 115.103 46.1681 115.09 46.4942C115.076 46.7905 114.97 47.0324 114.766 47.2444C114.448 47.5732 114.079 47.7961 113.611 47.7988C112.793 47.8042 111.973 47.8042 111.155 47.8042H111.154C111.115 47.8042 111.078 47.7904 111.033 47.7738C111.012 47.766 110.989 47.7577 110.964 47.7499C110.887 47.5498 110.896 47.3402 110.905 47.1306V47.1306V47.1306V47.1305V47.1305V47.1305V47.1304V47.1304V47.1304V47.1303V47.1303V47.1303V47.1302V47.1302V47.1302V47.1301V47.1301C110.908 47.0438 110.912 46.9576 110.91 46.872C110.906 46.7118 110.908 46.5522 110.91 46.3926V46.3923C110.912 46.2326 110.914 46.073 110.91 45.9126C110.907 45.8008 110.928 45.6906 110.949 45.5819C110.984 45.4026 111.017 45.2274 110.94 45.0565C111.023 44.9226 111.134 44.9254 111.237 44.9281C111.252 44.9284 111.266 44.9288 111.279 44.9288C111.591 44.9265 111.904 44.9275 112.217 44.9285C112.664 44.9299 113.111 44.9313 113.557 44.9233ZM173.037 63.557C173.048 63.9783 173.029 64.4512 172.901 64.9213C172.627 65.9188 172.078 66.7341 171.268 67.3674C170.893 67.6609 170.51 67.9409 170.047 68.1121C168.675 68.6176 167.302 68.6448 165.963 68.0577C165.033 67.6501 164.294 66.9978 163.761 66.1063C163.242 65.2393 162.984 64.3017 163.046 63.3097C163.147 61.6925 163.818 60.3554 165.191 59.4231C165.878 58.9557 166.623 58.6458 167.468 58.5996C167.554 58.5949 167.639 58.5751 167.725 58.5553C167.837 58.5293 167.948 58.5034 168.058 58.5127C169.121 58.5915 170.148 58.7736 171.039 59.4395C171.659 59.9015 172.17 60.4478 172.532 61.1272C172.877 61.7714 173.064 62.459 173.037 63.1955C173.035 63.2591 173.036 63.3228 173.036 63.4009V63.4015C173.037 63.4466 173.037 63.4966 173.037 63.5543V63.557ZM171.113 63.4782H171.088C171.088 63.4104 171.089 63.3426 171.09 63.2748C171.093 63.1227 171.095 62.9709 171.086 62.8205C171.078 62.6846 171.053 62.5405 170.999 62.4155C170.98 62.3717 170.961 62.3276 170.942 62.2834L170.941 62.2811L170.941 62.281C170.842 62.0488 170.742 61.8141 170.596 61.6137C170.178 61.043 169.678 60.5755 168.949 60.4016C168.612 60.3228 168.281 60.2874 167.941 60.3037C167.023 60.3472 166.253 60.6679 165.68 61.4398C165.218 62.0595 165.006 62.7389 164.979 63.4918C164.954 64.1087 165.166 64.6604 165.438 65.204C165.835 66.003 166.531 66.3999 167.332 66.6445C167.792 66.7831 168.262 66.7668 168.748 66.6771C169.871 66.4732 170.8 65.5899 171.067 64.3723C171.11 64.1743 171.11 63.9672 171.111 63.76C171.111 63.6658 171.111 63.5716 171.116 63.4782H171.113ZM79.6116 68.1087C79.6183 68.1256 79.6258 68.1446 79.633 68.1662C79.8314 68.3211 80.0842 68.351 80.3478 68.351C80.6659 68.3501 80.9837 68.3516 81.3014 68.3531H81.302H81.3026H81.3031H81.3037H81.3043H81.3049H81.3054H81.306H81.3066H81.3071H81.3077H81.3083H81.3088H81.3094C81.9499 68.3561 82.5901 68.3592 83.2314 68.3429C83.5669 68.3345 83.9023 68.2824 84.2378 68.2304C84.3372 68.2149 84.4366 68.1995 84.536 68.1852C84.898 68.1344 85.2188 67.9764 85.5408 67.8178C85.6321 67.7728 85.7236 67.7278 85.8161 67.6851C86.8163 67.2258 87.4794 66.4349 87.9115 65.4647C88.4008 64.3694 88.447 63.2197 88.1018 62.0646C88.0203 61.7983 87.9279 61.5374 87.8001 61.2846C87.5843 60.8602 87.2645 60.5288 86.9432 60.1958C86.9045 60.1557 86.8657 60.1155 86.8271 60.0752C85.9574 59.1647 84.8513 58.7924 83.6418 58.7407C82.812 58.7031 81.9796 58.7124 81.1474 58.7216H81.1473C80.7774 58.7257 80.4076 58.7298 80.038 58.7298L80.0048 58.7296C79.8977 58.7284 79.7856 58.7272 79.6846 58.8331C79.6054 58.9416 79.6109 59.0756 79.6166 59.2119C79.6183 59.2533 79.62 59.2948 79.6194 59.3359C79.6166 59.465 79.6201 59.595 79.6236 59.7248C79.6304 59.9779 79.6372 60.2304 79.5977 60.4747C79.5256 60.9145 79.5262 61.3498 79.5269 61.7868L79.527 61.9097C79.5252 62.7632 79.5258 63.6179 79.5264 64.4723V64.4723V64.4723V64.4724V64.4724V64.4725V64.4725V64.4726V64.4726V64.4727V64.4727V64.4728V64.4728V64.4728V64.4729C79.5267 64.8997 79.527 65.3264 79.527 65.7528C79.527 65.7959 79.5256 65.8393 79.5242 65.8827C79.5205 66.0003 79.5168 66.1179 79.5406 66.2311C79.6616 66.81 79.6273 67.389 79.5929 67.9679L79.5895 68.0249C79.5877 68.0485 79.598 68.0745 79.6116 68.1087ZM81.4512 61.0753V60.5155L81.4539 60.51C82.1307 60.3769 83.7342 60.3986 84.2615 60.5508C85.0931 60.79 85.7291 61.3091 86.0852 62.0837C86.3569 62.6816 86.4575 63.3529 86.3352 64.0161C86.3278 64.0578 86.3207 64.0997 86.3135 64.1416L86.3135 64.1416C86.2709 64.3917 86.228 64.6437 86.1232 64.8858C85.8025 65.6305 85.2481 66.1115 84.4979 66.3806C84.0278 66.5491 83.5467 66.6768 83.0357 66.6496C82.8025 66.6373 82.5681 66.6398 82.334 66.6424C82.2081 66.6438 82.0823 66.6452 81.9568 66.6442C81.9402 66.6442 81.9235 66.6444 81.9068 66.6447H81.9068C81.7839 66.6464 81.6594 66.6481 81.5518 66.5572C81.4416 66.438 81.4468 66.2872 81.4518 66.1401C81.4529 66.1095 81.4539 66.079 81.4539 66.049C81.4512 65.2516 81.4512 64.4541 81.4512 63.6567V63.6519V61.0753ZM133.867 52.602C133.876 52.6341 133.885 52.6696 133.894 52.7102L133.889 52.7129C133.942 52.7197 133.989 52.7272 134.032 52.7341C134.108 52.7463 134.171 52.7564 134.234 52.7564C134.885 52.7564 135.536 52.755 136.186 52.7536C136.837 52.7523 137.488 52.7509 138.139 52.7509C138.308 52.7509 138.469 52.7184 138.632 52.6856L138.672 52.6775C139.392 52.5335 140.023 52.2019 140.626 51.7942C141.474 51.2208 142.001 50.4136 142.317 49.4596C142.388 49.2461 142.426 49.0217 142.464 48.7982C142.476 48.7258 142.488 48.6535 142.501 48.5817C142.511 48.5303 142.522 48.4788 142.533 48.4274C142.568 48.2615 142.603 48.0961 142.597 47.9322C142.586 47.6142 142.539 47.2935 142.472 46.9837C142.194 45.7416 141.534 44.7577 140.485 44.0212C139.596 43.3934 138.58 43.1923 137.539 43.1379C136.795 43.0985 136.048 43.1083 135.3 43.1182C134.965 43.1226 134.631 43.127 134.296 43.127C134.155 43.127 134.016 43.1461 133.902 43.2765C133.898 43.2893 133.891 43.3035 133.884 43.3187L133.884 43.3187C133.868 43.3517 133.85 43.3896 133.85 43.4287C133.842 46.4319 133.837 49.4324 133.837 52.4357C133.837 52.4865 133.85 52.5373 133.867 52.602ZM135.666 45.2691C135.665 45.1775 135.664 45.0793 135.783 44.9507L135.78 44.948C135.831 44.9459 135.882 44.9422 135.935 44.9384C136.018 44.9324 136.103 44.9262 136.188 44.9262L136.191 44.9262C136.731 44.9235 137.268 44.9208 137.808 44.9262C139.199 44.9426 140.373 45.9781 140.564 47.356C140.566 47.3734 140.567 47.3907 140.568 47.4079C140.569 47.431 140.57 47.4537 140.574 47.4756C140.797 48.3806 140.487 49.177 140.025 49.9135C139.71 50.4163 139.194 50.718 138.631 50.9001C138.332 50.9979 138.017 51.0631 137.691 51.0577C137.21 51.0495 136.731 51.0506 136.269 51.0516H136.269H136.268H136.268H136.268H136.268H136.268H136.268H136.268H136.268H136.268H136.268H136.268H136.268C136.116 51.0519 135.966 51.0523 135.818 51.0523C135.648 50.9026 135.656 50.7435 135.663 50.5954C135.665 50.566 135.666 50.5371 135.666 50.5087V46.1303C135.666 46.0369 135.666 45.9436 135.665 45.8503C135.665 45.6637 135.664 45.4771 135.666 45.2904L135.666 45.2691ZM129.124 59.9763L129.112 60.0106C129.093 60.0608 129.075 60.1107 129.049 60.1567L129.048 60.158C129.01 60.2283 128.97 60.3038 128.91 60.3497C128.758 60.4705 128.645 60.6263 128.533 60.781C128.413 60.9465 128.293 61.1109 128.128 61.2303C127.916 61.2303 127.772 61.1189 127.636 60.9993C127.152 60.5726 126.581 60.3687 125.948 60.3008C125.845 60.2902 125.743 60.2679 125.64 60.2455L125.64 60.2455C125.586 60.2335 125.531 60.2215 125.475 60.2111L125.358 60.2355L125.288 60.2498C125.078 60.2929 124.867 60.336 124.66 60.3905C124.509 60.4292 124.361 60.4817 124.229 60.5283L124.229 60.5283C124.176 60.5472 124.125 60.5651 124.078 60.5807C123.548 60.9042 123.203 61.3417 122.901 61.8174C122.806 61.9668 122.716 62.1326 122.673 62.3011C122.66 62.3537 122.646 62.4063 122.632 62.4589C122.495 62.9828 122.358 63.5093 122.526 64.065C122.555 64.1609 122.565 64.2618 122.574 64.3636C122.583 64.461 122.592 64.5592 122.619 64.6548C122.947 65.8343 124.179 66.7666 125.448 66.7774C126.25 66.7856 126.989 66.6116 127.644 66.1876C127.731 65.6957 127.734 65.1087 127.657 64.6086C127.574 64.5123 127.46 64.5129 127.35 64.5134L127.326 64.5135C127.173 64.5135 127.02 64.5138 126.867 64.5141H126.867H126.867H126.866H126.866C126.559 64.5147 126.252 64.5153 125.945 64.5135C125.908 64.5135 125.87 64.5148 125.832 64.5161C125.692 64.5211 125.55 64.5261 125.426 64.4618C125.328 64.3857 125.304 64.2879 125.309 64.1873C125.319 64.0402 125.313 63.8916 125.308 63.7447C125.298 63.4791 125.289 63.2186 125.369 62.9806C125.472 62.8664 125.565 62.8311 125.668 62.8311H129.152C129.206 62.8311 129.262 62.849 129.306 62.8633L129.306 62.8633L129.306 62.8633C129.324 62.869 129.34 62.8742 129.353 62.8773C129.532 63.0096 129.53 63.175 129.528 63.3377C129.528 63.3555 129.527 63.3733 129.527 63.391C129.527 64.171 129.527 64.951 129.53 65.7338V66.5736L129.53 66.6105C129.531 66.7379 129.532 66.8719 129.44 67.0329C128.609 67.658 127.682 68.1662 126.589 68.3782C125.616 68.5685 124.668 68.5196 123.752 68.2043C122.6 67.8075 121.689 67.0873 121.107 65.9811C120.833 65.4593 120.673 64.913 120.607 64.3314C120.596 64.2266 120.577 64.1227 120.558 64.0188C120.516 63.7884 120.474 63.5582 120.51 63.3203C120.561 62.986 120.616 62.6517 120.683 62.3202C120.933 61.0808 121.627 60.1377 122.648 59.4229C123.333 58.9446 124.086 58.6483 124.929 58.5967C125.021 58.5909 125.114 58.572 125.206 58.5531C125.331 58.5274 125.456 58.5019 125.578 58.5097C126.687 58.5831 127.761 58.7788 128.685 59.4583L128.694 59.4652C128.868 59.5933 129.04 59.7204 129.139 59.9393C129.134 59.9516 129.129 59.964 129.124 59.9763ZM98.2741 68.3486C98.5026 68.349 98.734 68.3495 98.9753 68.142V68.1338C98.9786 68.0366 98.9838 67.9397 98.989 67.8431L98.989 67.843L98.989 67.8429L98.989 67.8428L98.989 67.8427L98.989 67.8426L98.989 67.8425L98.989 67.8424L98.9891 67.8423L98.9891 67.8422L98.9891 67.8421C99.0095 67.4637 99.0297 67.0894 98.9345 66.7151C98.7419 66.6332 98.5602 66.6378 98.3819 66.6424H98.3818H98.3817C98.3411 66.6434 98.3008 66.6444 98.2605 66.6444C97.8145 66.6444 97.3683 66.6447 96.922 66.645H96.9217H96.9214H96.9211H96.9208H96.9205H96.9202C96.026 66.6456 95.1314 66.6462 94.2381 66.6444C94.1934 66.6444 94.1484 66.6463 94.1035 66.6481C93.9517 66.6543 93.8003 66.6605 93.6619 66.5955C93.5586 66.0873 93.564 64.8914 93.67 64.4484C93.7828 64.366 93.9111 64.3718 94.0371 64.3776C94.069 64.379 94.1008 64.3805 94.1321 64.3805H95.9938H97.7957C97.9561 64.3777 98.1191 64.3723 98.2523 64.1793C98.304 63.9263 98.2968 63.6508 98.2893 63.3696C98.2859 63.237 98.2823 63.1032 98.2849 62.9699C98.2877 62.8884 98.2713 62.8096 98.1545 62.7144C98.0482 62.6707 97.9053 62.6748 97.7562 62.6792H97.7562H97.7561H97.756H97.756H97.7559H97.7558H97.7557H97.7557C97.7104 62.6805 97.6646 62.6818 97.6191 62.6818H94.0777C94.0546 62.6818 94.0312 62.6827 94.0075 62.6835C93.8722 62.6884 93.7293 62.6935 93.6021 62.5432C93.5858 61.9181 93.5803 61.2604 93.6157 60.6027C93.6175 60.5687 93.6405 60.5359 93.6691 60.4949C93.684 60.4737 93.7005 60.4502 93.7162 60.4233H94.3033C94.7436 60.4233 95.1839 60.4239 95.6242 60.4245C96.5047 60.4257 97.3853 60.4269 98.2659 60.4233C98.3047 60.4233 98.3442 60.4255 98.3838 60.4277C98.5413 60.4365 98.7015 60.4454 98.8339 60.3173C98.8676 59.9727 98.9093 59.7291 98.9409 59.545L98.9409 59.5449L98.9409 59.5449C99.0062 59.1641 99.028 59.0371 98.8448 58.7953C98.6922 58.7115 98.521 58.7177 98.3485 58.724C98.3028 58.7257 98.2571 58.7273 98.2115 58.7273H94.2489C93.9092 58.7287 93.5688 58.7287 93.2284 58.7287C92.888 58.7287 92.5476 58.7287 92.2078 58.7301C92.1942 58.7301 92.1806 58.7299 92.1668 58.7298C92.0408 58.7283 91.9115 58.7268 91.811 58.8469C91.7468 58.9838 91.7537 59.1348 91.7605 59.2857C91.7627 59.3326 91.7648 59.3794 91.7648 59.4258C91.7648 60.3327 91.7645 61.2395 91.7642 62.1464C91.7636 63.9601 91.763 65.7738 91.7648 67.5875C91.7655 67.6382 91.7629 67.6894 91.7604 67.7407C91.7522 67.9068 91.744 68.0733 91.8436 68.2208C91.9993 68.3676 92.1823 68.3597 92.3613 68.3519H92.3613C92.4011 68.3502 92.4406 68.3485 92.4796 68.3485C93.2395 68.3503 93.9982 68.3497 94.7573 68.3491H94.7576H94.7579H94.7582H94.7585H94.7588H94.7591H94.7594H94.7597H94.76H94.7603C95.1405 68.3488 95.5208 68.3485 95.9014 68.3485H98.2415L98.2741 68.3486ZM204.227 66.7235C204.292 67.2263 204.295 67.6965 204.227 68.1558C204.058 68.272 203.891 68.2644 203.73 68.2572C203.692 68.2554 203.653 68.2537 203.615 68.2537C202.953 68.2568 202.289 68.2563 201.625 68.2559H201.624C201.126 68.2556 200.628 68.2552 200.131 68.2564C199.87 68.2564 199.615 68.2646 199.357 68.3162C199.183 68.3509 199.001 68.3488 198.819 68.3468C198.759 68.3461 198.699 68.3454 198.639 68.3461C198.433 68.3492 198.227 68.3488 198.021 68.3483C197.867 68.348 197.712 68.3476 197.557 68.3488C197.394 68.3488 197.234 68.3461 197.112 68.2102C197.031 68.091 197.034 67.9564 197.037 67.8226V67.8225V67.8225V67.8224C197.038 67.8058 197.038 67.7893 197.038 67.7729L197.038 67.7482V59.2223C197.038 59.2054 197.038 59.1885 197.038 59.1716C197.036 59.0493 197.035 58.9252 197.109 58.801C197.263 58.709 197.436 58.7164 197.607 58.7237C197.653 58.7257 197.699 58.7276 197.745 58.7276C198.852 58.7258 199.96 58.7264 201.068 58.727H201.069C201.622 58.7273 202.176 58.7276 202.729 58.7276C203.05 58.7276 203.371 58.7276 203.692 58.7304C203.776 58.7304 203.859 58.7398 203.933 58.7483C203.964 58.7518 203.993 58.7551 204.02 58.7575C204.113 58.8255 204.162 58.8934 204.162 58.975C204.162 59.0947 204.166 59.2147 204.169 59.3346C204.18 59.669 204.19 60.0014 204.118 60.3176C203.953 60.4418 203.787 60.4332 203.627 60.4249C203.587 60.4229 203.548 60.4209 203.509 60.4209C202.849 60.4236 202.189 60.4236 201.528 60.4236C200.867 60.4236 200.206 60.4236 199.544 60.4263C199.503 60.4263 199.461 60.4245 199.419 60.4226L199.418 60.4226C199.261 60.4157 199.098 60.4086 198.927 60.4942C198.845 60.6426 198.853 60.8092 198.861 60.9779C198.864 61.0441 198.867 61.1106 198.865 61.1764C198.857 61.4156 198.859 61.6575 198.865 61.8967C198.865 61.9589 198.864 62.0214 198.863 62.0833V62.0834C198.859 62.2567 198.855 62.426 198.897 62.5761C199.035 62.6959 199.172 62.6889 199.303 62.6823C199.332 62.6809 199.361 62.6794 199.389 62.6794C200.163 62.6812 200.938 62.6806 201.713 62.68H201.713H201.713H201.713H201.714H201.714H201.714H201.715H201.715H201.715C202.102 62.6797 202.488 62.6794 202.873 62.6794C202.897 62.6794 202.921 62.679 202.945 62.6784L203.006 62.6767C203.16 62.672 203.312 62.6674 203.447 62.7202C203.577 62.846 203.571 62.988 203.565 63.1262C203.564 63.1671 203.562 63.2077 203.564 63.2474C203.571 63.3972 203.568 63.5489 203.565 63.6993L203.564 63.7883C203.563 63.8004 203.563 63.8126 203.563 63.8249C203.563 63.8418 203.563 63.8588 203.564 63.8759V63.876V63.8761V63.8762V63.8763C203.565 64.0261 203.566 64.1798 203.414 64.3182C203.277 64.329 203.135 64.3173 202.991 64.3053C202.77 64.287 202.543 64.2683 202.316 64.3291C202.061 64.3981 201.799 64.3891 201.538 64.3801C201.419 64.376 201.299 64.3719 201.18 64.3753C201 64.3794 200.819 64.3787 200.639 64.378C200.459 64.3774 200.279 64.3767 200.099 64.3808C199.983 64.3833 199.866 64.3806 199.75 64.378C199.486 64.3721 199.22 64.3661 198.949 64.4188C198.838 64.6747 198.851 64.9378 198.865 65.1976L198.865 65.198C198.869 65.294 198.874 65.3896 198.873 65.4842C198.871 65.5569 198.868 65.6299 198.866 65.7028C198.855 65.9869 198.844 66.2705 198.9 66.5387C199.04 66.6614 199.189 66.6534 199.333 66.6457C199.367 66.6438 199.402 66.642 199.435 66.642C200.116 66.6447 200.797 66.6447 201.478 66.6447C202.159 66.6447 202.84 66.6447 203.52 66.6474C203.561 66.6474 203.602 66.6464 203.643 66.6453C203.823 66.6407 204.012 66.6359 204.232 66.7154L204.227 66.7235ZM186.257 52.7476C186.517 52.7527 186.792 52.7581 187.077 52.6779L186.738 51.8939L186.735 51.8866C186.382 51.0687 186.041 50.2793 185.696 49.4899C185.616 49.305 185.536 49.1201 185.456 48.9352L185.453 48.9287L185.449 48.9211L185.446 48.9119L185.441 48.9006C185.065 48.0339 184.689 47.1669 184.297 46.3073C184.115 45.9075 183.946 45.5017 183.777 45.0976C183.511 44.4577 183.247 43.8222 182.935 43.2225C182.451 43.0866 181.761 43.0757 181.212 43.1845C181.202 43.2005 181.189 43.2176 181.175 43.2357L181.175 43.2363L181.175 43.2364V43.2364C181.145 43.2763 181.112 43.3209 181.095 43.3693C180.942 43.8358 180.738 44.2799 180.533 44.7233C180.428 44.9515 180.323 45.1795 180.225 45.4104C180.045 45.8331 179.86 46.2549 179.674 46.6769L179.674 46.677L179.674 46.6771L179.674 46.6772L179.674 46.6774L179.673 46.6775L179.673 46.6777L179.673 46.6778L179.673 46.678C179.545 46.9692 179.417 47.2604 179.29 47.552C179.15 47.876 179.01 48.2004 178.871 48.5248L178.868 48.5309L178.868 48.5316C178.669 48.994 178.471 49.4562 178.268 49.9166C178.027 50.4657 177.782 51.0125 177.536 51.5592L177.536 51.5594C177.413 51.8325 177.29 52.1055 177.168 52.3789C177.124 52.4713 177.1 52.5665 177.184 52.6888C177.36 52.7879 177.569 52.7727 177.776 52.7577C177.824 52.7541 177.873 52.7506 177.921 52.7486C178.032 52.7439 178.14 52.7696 178.247 52.7951C178.393 52.8298 178.538 52.8642 178.69 52.8219C178.904 52.6643 179.051 52.4858 179.133 52.2865C179.172 52.1893 179.211 52.092 179.25 51.9946L179.251 51.994L179.251 51.9935C179.368 51.7019 179.485 51.4103 179.611 51.1233C179.626 51.0887 179.641 51.0539 179.656 51.0191L179.656 51.0185C179.734 50.8343 179.811 50.6498 179.951 50.5036C179.971 50.499 179.99 50.4939 180.008 50.4891C180.055 50.4767 180.097 50.4656 180.138 50.4656H183.922C184.022 50.4656 184.12 50.4792 184.237 50.5824C184.457 51.1124 184.693 51.6804 184.933 52.2512L184.954 52.3037C185.046 52.5268 185.14 52.7532 185.46 52.8464C185.702 52.7367 185.97 52.742 186.257 52.7476ZM181.277 48.8675C181.076 48.8593 180.883 48.8267 180.641 48.7017V48.699C181.082 47.6681 181.513 46.6633 181.936 45.6767L181.965 45.6088C182.09 45.5653 182.139 45.6332 182.169 45.7039C182.584 46.6551 183 47.6091 183.413 48.5604C183.446 48.6365 183.457 48.7126 183.416 48.7914C183.046 48.8811 182.201 48.9082 181.277 48.8675ZM154.547 61.5214C154.773 61.9644 155.11 62.2008 155.523 62.3313C155.96 62.4672 156.401 62.6003 156.849 62.6982C157.542 62.8477 158.184 63.1059 158.771 63.5C159.657 64.0952 159.909 64.9486 159.776 65.9569C159.752 66.1526 159.692 66.3483 159.624 66.5358C159.284 67.4463 158.616 68.0034 157.692 68.2535C157.192 68.3894 156.683 68.5144 156.159 68.4763C154.92 68.3839 153.767 68.0388 152.767 67.2696C152.643 67.1742 152.523 67.0745 152.409 66.9799L152.362 66.9407C152.333 66.743 152.443 66.637 152.549 66.5332C152.585 66.4987 152.62 66.4644 152.65 66.4271C152.762 66.2857 152.873 66.1444 152.984 66.0058C152.994 65.9944 153.003 65.9829 153.012 65.9713L153.044 65.93L153.044 65.9296C153.146 65.798 153.25 65.6631 153.457 65.6063C154.588 66.5304 155.841 67.0902 157.328 66.6418C157.741 66.3021 158.091 65.9786 157.958 65.4486C157.54 64.7393 156.863 64.5572 156.172 64.405C155.371 64.2283 154.577 64.0245 153.865 63.5951C153.319 63.2662 152.876 62.8314 152.751 62.1764C152.582 61.2795 152.677 60.4179 153.283 59.6868C153.607 59.2954 154.047 59.0481 154.506 58.847C154.892 58.6758 155.3 58.5807 155.732 58.6078C155.912 58.6187 156.094 58.6187 156.273 58.6078C156.822 58.5752 157.341 58.7138 157.86 58.866C158.447 59.04 158.936 59.377 159.374 59.7222C159.475 59.8988 159.461 60.0401 159.374 60.157C159.183 60.4107 158.983 60.6613 158.79 60.905L158.79 60.9051L158.789 60.9052C158.73 60.9799 158.671 61.0539 158.613 61.1273C158.428 61.1767 158.305 61.0869 158.191 61.0028L158.178 60.9937L158.156 60.9778C157.626 60.5973 157.031 60.3717 156.398 60.2467C155.979 60.1652 155.564 60.1679 155.178 60.3962C154.748 60.6489 154.468 60.9778 154.544 61.5241L154.547 61.5214ZM109.246 60.5828C109.413 60.3632 109.584 60.1384 109.693 59.8663L109.69 59.8609C109.674 59.837 109.661 59.8112 109.648 59.7861C109.623 59.7367 109.599 59.6895 109.56 59.6625C108.698 59.0482 107.769 58.6107 106.681 58.6025C106.596 58.6025 106.509 58.6037 106.423 58.6049C106.25 58.6073 106.076 58.6098 105.901 58.6025C105.385 58.5808 104.912 58.7466 104.458 58.9585C104.04 59.1542 103.692 59.4478 103.415 59.8364C102.909 60.5403 102.871 61.3231 102.988 62.1303C103.023 62.383 103.11 62.6412 103.279 62.8478C103.665 63.3207 104.113 63.7175 104.7 63.9159C105.284 64.1143 105.88 64.2774 106.486 64.4187L106.515 64.4253C107.085 64.5563 107.677 64.6925 108.073 65.2966C108.106 65.4026 108.157 65.5738 108.195 65.7042C108.095 66.2886 107.741 66.5604 107.236 66.7044C106.945 66.7862 106.658 66.7783 106.367 66.7703H106.367L106.342 66.7696C105.602 66.7479 104.934 66.5169 104.339 66.0739C104.189 65.9627 104.037 65.8552 103.881 65.7448L103.881 65.7448C103.805 65.6905 103.727 65.6356 103.648 65.5792C103.367 65.783 103.167 66.0446 102.972 66.2989C102.832 66.4822 102.694 66.6617 102.531 66.8131C102.556 66.9572 102.624 67.0251 102.711 67.0822C102.799 67.1401 102.886 67.1983 102.974 67.2564L102.974 67.2565L102.974 67.2566L102.974 67.2566L102.974 67.2567C103.137 67.3649 103.299 67.4726 103.463 67.5768C104.347 68.1394 105.331 68.3759 106.358 68.4683C106.879 68.5149 107.382 68.3886 107.881 68.2637L107.953 68.2454C108.733 68.0497 109.32 67.5959 109.695 66.8865C109.786 66.7169 109.844 66.5294 109.902 66.3428L109.902 66.3425C109.915 66.299 109.929 66.2556 109.943 66.2125C110.174 65.4977 109.997 64.8318 109.676 64.1904C109.532 63.9023 109.307 63.6767 109.03 63.4973C108.758 63.3234 108.478 63.1794 108.182 63.0516C107.664 62.8282 107.117 62.7068 106.571 62.5854L106.456 62.5597C105.901 62.4347 105.385 62.2363 104.956 61.8449C104.752 61.5704 104.714 61.266 104.82 60.9344C105.32 60.2658 105.977 60.0674 106.779 60.2794C107.345 60.4289 107.885 60.6191 108.369 60.9589L108.386 60.9708C108.525 61.0681 108.672 61.1709 108.894 61.1056C108.988 60.9213 109.115 60.7537 109.246 60.5829L109.246 60.5828ZM185.395 60.1433C185.388 60.1578 185.381 60.1741 185.374 60.1912C185.353 60.2382 185.33 60.2918 185.292 60.3336C185.004 60.6652 184.713 60.994 184.417 61.3174C184.391 61.3451 184.346 61.3555 184.307 61.3643C184.292 61.3677 184.279 61.3708 184.267 61.3745C184.121 61.3636 184.034 61.2794 183.949 61.1951C183.352 60.6027 182.582 60.3961 181.794 60.2222C181.756 60.214 181.713 60.2058 181.675 60.214C181.604 60.2286 181.534 60.2427 181.463 60.2568C180.814 60.3867 180.171 60.5152 179.663 61.0375C179.128 61.5892 178.794 62.2116 178.663 62.9699C178.516 63.8179 178.709 64.5761 179.128 65.3127C179.612 66.1688 180.375 66.6064 181.3 66.7341C182.112 66.8455 182.889 66.6363 183.569 66.1471C183.745 66.0211 183.916 65.8902 184.088 65.7584L184.088 65.7584L184.088 65.7583C184.168 65.6967 184.249 65.635 184.33 65.5736C184.648 65.6952 184.852 65.9232 185.054 66.1479C185.132 66.2344 185.209 66.3205 185.292 66.3998C185.398 66.5004 185.425 66.6417 185.382 66.8428C185.088 67.2505 184.637 67.5467 184.178 67.8267C183.254 68.3893 182.234 68.5551 181.177 68.4681C180.028 68.3757 179.036 67.9137 178.179 67.1146C177.41 66.3971 177.033 65.4921 176.774 64.5163C176.736 64.3765 176.735 64.2278 176.734 64.079V64.0789C176.733 64.0253 176.733 63.9717 176.731 63.9184C176.728 63.8357 176.729 63.7523 176.73 63.6689V63.6686C176.731 63.5714 176.733 63.4741 176.728 63.3776C176.685 62.4671 176.959 61.6463 177.416 60.8744C177.42 60.8679 177.424 60.8605 177.427 60.8531C177.432 60.842 177.437 60.831 177.446 60.8228C178.34 59.6324 179.411 58.7246 180.979 58.6023C181.051 58.5966 181.123 58.5827 181.195 58.5689C181.26 58.5562 181.326 58.5436 181.392 58.5371C181.422 58.5339 181.453 58.5304 181.484 58.5268C181.612 58.5119 181.743 58.4967 181.87 58.5099C182.669 58.586 183.458 58.7355 184.172 59.1106C184.613 59.3416 185.001 59.6596 185.36 60.0074C185.377 60.0241 185.382 60.052 185.389 60.0878L185.389 60.088C185.392 60.1049 185.396 60.1234 185.401 60.1433H185.395ZM223.897 68.3451C224.373 68.3585 224.855 68.3722 225.41 68.1639L225.415 68.1585C225.422 67.5281 225.422 66.8991 225.422 66.2725V66.2683C225.422 65.6427 225.422 65.0195 225.429 64.3997C225.66 64.0518 225.889 63.7062 226.118 63.3622L226.118 63.3621C226.49 62.8006 226.86 62.2435 227.231 61.6873C227.62 61.1007 228.01 60.5154 228.401 59.9296L228.413 59.9119L228.891 59.1951L228.901 59.1815L228.912 59.165C228.983 59.0609 229.058 58.9531 228.951 58.7548C228.378 58.7194 227.766 58.7167 227.201 58.7385C226.896 58.9458 226.734 59.2158 226.574 59.4802C226.537 59.5415 226.5 59.6026 226.462 59.6625C226.201 60.0651 225.941 60.4676 225.682 60.87L225.68 60.8735L225.677 60.8769L225.671 60.8869C225.328 61.4188 224.985 61.9503 224.641 62.4809C224.634 62.491 224.627 62.5015 224.62 62.512C224.573 62.5838 224.524 62.66 224.396 62.6576C224.273 62.5741 224.206 62.4389 224.14 62.3029L224.139 62.3026C224.111 62.244 224.082 62.1852 224.048 62.1303C223.836 61.7856 223.615 61.4462 223.394 61.1068C222.962 60.4427 222.531 59.7787 222.162 59.0755C222.086 58.9314 221.983 58.8091 221.752 58.7303C221.593 58.7303 221.428 58.73 221.257 58.7297H221.257H221.257H221.257H221.256C220.9 58.7291 220.521 58.7285 220.143 58.7303C220.023 58.733 219.901 58.752 219.83 58.945C220.021 59.2434 220.224 59.5454 220.428 59.8507L220.429 59.8513C220.628 60.1493 220.83 60.4505 221.026 60.7551C221.359 61.2733 221.697 61.7879 222.035 62.3018L222.271 62.6603C222.676 63.2773 223.083 63.8942 223.494 64.5139V65.7777C223.493 65.8427 223.493 65.9077 223.492 65.9727L223.491 66.0775V66.0785C223.487 66.3777 223.484 66.677 223.494 66.9762C223.498 67.1104 223.493 67.2451 223.487 67.3787C223.476 67.6593 223.464 67.9352 223.545 68.1911C223.641 68.2971 223.73 68.3406 223.833 68.3433L223.897 68.3451ZM211.239 60.5022C210.97 60.4309 210.738 60.4361 210.517 60.441C210.435 60.4428 210.355 60.4446 210.274 60.4424C210.114 60.4383 209.953 60.4397 209.793 60.441C209.633 60.4424 209.474 60.4438 209.315 60.4397C209.23 60.4374 209.145 60.4399 209.061 60.4424C208.848 60.4488 208.633 60.4553 208.418 60.3853C208.312 60.2054 208.322 60.0172 208.331 59.8323C208.334 59.7799 208.336 59.7276 208.336 59.676C208.336 59.5007 208.305 59.3311 208.274 59.1651L208.274 59.1649L208.274 59.1643C208.262 59.1016 208.251 59.0393 208.241 58.9775C208.271 58.9383 208.297 58.9036 208.321 58.8726C208.335 58.8538 208.348 58.8364 208.361 58.8202L208.388 58.7845C208.975 58.6948 212.902 58.6649 215.607 58.7274L215.639 58.7278L215.67 58.7278C215.789 58.7277 215.911 58.7275 216.031 58.8035L216.036 58.8104C216.041 58.8164 216.046 58.8229 216.052 58.8296L216.053 58.8302C216.077 58.8587 216.107 58.8933 216.118 58.934C216.179 59.1769 216.17 59.4236 216.161 59.6706C216.157 59.7829 216.153 59.8954 216.156 60.0075C216.158 60.1298 216.139 60.2467 216.047 60.3391C215.945 60.4388 215.815 60.4379 215.687 60.4371L215.653 60.437C215.052 60.437 214.451 60.437 213.851 60.4397C213.804 60.4397 213.757 60.4377 213.71 60.4357C213.558 60.4294 213.406 60.423 213.258 60.4832C213.135 60.5998 213.144 60.7439 213.153 60.8855C213.155 60.9221 213.158 60.9584 213.158 60.9941C213.154 62.1461 213.154 63.298 213.155 64.4499V64.4614C213.155 64.8467 213.155 65.2319 213.155 65.6172V67.7181C213.155 67.7485 213.156 67.7794 213.158 67.8105C213.163 67.9376 213.169 68.0666 213.082 68.1692C212.991 68.2557 212.885 68.2558 212.783 68.2558C212.767 68.2558 212.75 68.2558 212.734 68.2562L212.651 68.2578C212.419 68.2618 212.19 68.2658 211.959 68.3242C211.72 68.3839 211.484 68.3513 211.28 68.1502C211.226 67.9953 211.232 67.8294 211.238 67.6633C211.24 67.6108 211.242 67.5583 211.242 67.5061C211.239 65.4052 211.239 63.3043 211.239 61.2034V60.5022ZM122.683 43.1288C122.546 43.1317 122.407 43.1345 122.267 43.1352H122.265C122.158 43.3821 122.164 43.5908 122.17 43.7866C122.171 43.83 122.172 43.8728 122.172 43.9152V52.0742V52.3732C122.172 52.4928 122.172 52.6151 122.311 52.7183C122.327 52.721 122.346 52.7245 122.366 52.7282C122.427 52.7397 122.501 52.7537 122.574 52.7537C124.574 52.7564 126.574 52.7537 128.574 52.7509L128.575 52.7509C128.673 52.7509 128.777 52.7482 128.888 52.6232C128.959 52.1585 128.961 51.6502 128.888 51.1637C128.719 51.0385 128.551 51.0465 128.39 51.0541C128.352 51.0559 128.314 51.0577 128.276 51.0577C127.745 51.0566 127.214 51.0569 126.682 51.0572H126.682H126.682C125.973 51.0577 125.264 51.0581 124.556 51.055C124.522 51.055 124.487 51.057 124.452 51.0591C124.311 51.0674 124.165 51.0759 124.047 50.9517C123.989 50.8033 123.995 50.65 124.001 50.4969V50.4968V50.4968C124.002 50.4509 124.004 50.405 124.004 50.3592C124.002 49.8663 124.003 49.3722 124.003 48.8784V48.8781C124.004 48.6315 124.004 48.385 124.004 48.1388C124.004 47.6449 124.004 47.1514 124.005 46.6579V46.653V46.6527C124.005 45.6679 124.006 44.6834 124.004 43.6978C124.004 43.6667 124.006 43.635 124.007 43.603V43.603V43.6029C124.015 43.4564 124.023 43.3034 123.874 43.1651C123.492 43.1121 123.095 43.1203 122.683 43.1288ZM116.136 68.1829C115.647 68.3623 115.171 68.3732 114.69 68.3405C114.587 68.3351 114.497 68.2916 114.432 68.1965C114.34 67.748 114.31 63.693 114.367 59.282C114.367 59.2511 114.366 59.2198 114.364 59.1884C114.358 59.0621 114.353 58.9336 114.438 58.8226C114.845 58.6976 115.593 58.684 116.142 58.7955C116.248 58.8743 116.283 58.9857 116.288 59.108C116.294 59.2684 116.294 59.4287 116.294 59.5864C116.294 60.176 116.294 60.7656 116.294 61.3551V61.3553C116.293 63.1246 116.293 64.8935 116.297 66.6609C116.297 67.161 116.269 67.6556 116.136 68.1802V68.1829ZM190.216 58.7518C190.14 58.7573 190.072 58.8143 189.999 58.972H189.996C190.069 59.2034 190.067 59.457 190.065 59.7137C190.064 59.7554 190.064 59.7972 190.064 59.839V67.5087C190.064 67.5611 190.064 67.6137 190.063 67.6666C190.063 67.7729 190.062 67.88 190.064 67.9871C190.067 68.1067 190.075 68.229 190.192 68.3051C190.711 68.3703 191.35 68.3703 191.616 68.2969C191.714 68.2697 191.803 68.2262 191.893 68.0469V67.5359V65.0192C191.893 64.4005 191.893 63.7816 191.894 63.1625C191.894 61.9241 191.895 60.6852 191.893 59.4476C191.893 59.4045 191.895 59.3609 191.897 59.3169C191.903 59.1446 191.91 58.9657 191.817 58.7817C191.304 58.6849 190.788 58.7166 190.275 58.7482L190.216 58.7518Z" fill="white"/>
</g>
<defs>
<clipPath id="clip0_2683_998">
<rect width="228" height="65.2609" fill="white" transform="translate(0 20)"/>
</clipPath>
</defs>
</svg>
