<svg width="257" height="105" viewBox="0 0 257 105" fill="none" xmlns="http://www.w3.org/2000/svg">
<g opacity="0.6">
<g clip-path="url(#clip0_2683_953)">
<path d="M47.5533 22.9997C47.5533 23.6674 47.5588 24.3379 47.5588 25.0057C47.5588 25.3506 47.3877 25.5934 47.087 25.7507C46.8828 25.8583 46.662 25.9107 46.4385 25.9355C46.204 25.9604 45.9777 26.0266 45.7432 26.057C45.6108 26.0735 45.5556 26.1563 45.5169 26.2749C44.9844 28.0023 44.4463 29.7296 43.9083 31.4541C43.5882 32.4778 43.2626 33.5015 42.9453 34.528C42.3603 36.4071 41.7781 38.2861 41.1931 40.1652C40.8896 41.1365 40.5833 42.105 40.2826 43.0763C40.0591 43.7965 39.8383 44.5166 39.6148 45.2341C39.5845 45.3306 39.5679 45.4382 39.4741 45.5403H35.7049C34.8192 42.7948 33.9445 40.0438 33.0642 37.2928C32.1868 34.5418 31.3011 31.7908 30.4181 29.0315C28.6356 34.5335 26.8586 40.0273 25.0844 45.5045C24.8553 45.5734 21.6021 45.5872 21.2545 45.5238C20.755 43.9123 20.2473 42.2871 19.7424 40.6619C19.2402 39.0422 18.738 37.4252 18.2358 35.8055C17.7308 34.1776 17.2231 32.5496 16.7209 30.9216C16.2215 29.3046 15.7331 27.6849 15.2144 26.0818C14.8143 26.01 14.4528 25.9466 14.0913 25.8859C13.9589 25.8638 13.8347 25.8252 13.7133 25.77C13.3988 25.632 13.2139 25.3837 13.2056 25.0471C13.1863 24.4262 13.2001 23.8026 13.2001 23.1818C13.2001 23.1128 13.2249 23.0521 13.258 22.9941H21.6352C21.6352 23.6536 21.6435 24.3131 21.6352 24.9726C21.6325 25.3727 21.4366 25.6513 21.0613 25.7948C20.9647 25.8307 20.8626 25.8583 20.7633 25.8831C20.4819 25.9549 20.2004 26.0238 19.9328 26.0928C19.85 26.2253 19.9134 26.3301 19.9438 26.435C20.2418 27.4945 20.5453 28.5541 20.8433 29.6137C21.2986 31.2251 21.7511 32.8393 22.2037 34.4535C22.5155 35.56 22.8273 36.6637 23.1363 37.7702C23.3019 38.3551 23.4095 38.9539 23.5254 39.5941C23.6909 38.9291 23.8068 38.2972 24.0055 37.6901C24.4083 36.454 24.8167 35.2206 25.2223 33.9844C25.6473 32.6958 26.0694 31.4072 26.4944 30.1186C27.1594 28.0961 27.8216 26.0735 28.4976 24.0565C28.677 23.5184 29.0743 23.1873 29.6289 23.0521C29.6841 23.0383 29.7421 23.0383 29.7862 22.9969H31.37C31.4059 23.03 31.4501 23.041 31.4997 23.0493C32.013 23.1293 32.3468 23.4301 32.5372 23.9047C32.5952 24.0537 32.6393 24.2082 32.689 24.36C33.2712 26.1425 33.8534 27.925 34.4356 29.7047C35.0703 31.6473 35.7077 33.5898 36.3423 35.5324C36.5961 36.3105 36.8417 37.0941 37.1039 37.8695C37.2667 38.3524 37.3687 38.849 37.5067 39.3402C37.5784 39.3071 37.5784 39.2464 37.5895 39.1912C37.675 38.689 37.7716 38.1923 37.9096 37.7012C38.3041 36.2857 38.7125 34.8757 39.1099 33.4629C39.7279 31.2803 40.346 29.0949 40.9558 26.9123C41.0248 26.664 41.1352 26.4212 41.1379 26.1425C40.9255 26.0956 40.724 26.0514 40.5226 26.0045C40.3212 25.9604 40.117 25.9218 39.9156 25.8693C39.3775 25.7286 39.1264 25.4085 39.1209 24.8511C39.1154 24.3324 39.1209 23.8137 39.1209 23.2949C39.1209 23.1901 39.1209 23.088 39.1816 22.9941H47.5588L47.5533 22.9997Z" fill="white"/>
<path d="M226 53.0288C225.876 53.4924 225.82 53.967 225.735 54.4388C225.625 55.0293 225.536 55.6253 225.434 56.2186C225.36 56.6325 225.142 56.8091 224.711 56.8311C224.435 56.8449 224.168 56.7815 223.903 56.7235C223.243 56.5773 222.578 56.5469 221.91 56.6435C220.928 56.787 220.153 57.2809 219.546 58.0563C219.215 58.4812 218.936 58.9392 218.685 59.4166C218.621 59.538 218.594 59.6594 218.594 59.7946C218.594 62.3194 218.594 64.8469 218.594 67.3716C218.594 67.4544 218.577 67.5427 218.657 67.6393C219.096 67.7221 219.557 67.8076 220.015 67.8931C220.191 67.9263 220.371 67.9456 220.539 67.998C221.036 68.147 221.309 68.5057 221.314 69.0189C221.32 69.6977 221.314 70.3765 221.314 71.0553C221.314 71.1215 221.303 71.185 221.295 71.2926C220.627 71.3312 219.962 71.3036 219.3 71.3092C218.63 71.3147 217.962 71.3092 217.291 71.3092H211.304C211.199 71.1933 211.221 71.0967 211.221 71.0056C211.221 70.3931 211.215 69.7805 211.221 69.1679C211.227 68.4588 211.569 68.067 212.261 67.9456C212.772 67.8573 213.279 67.7579 213.787 67.6669C213.842 67.6558 213.898 67.6448 213.961 67.5841V56.1772C213.417 56.0751 212.871 55.9758 212.327 55.8737C212.236 55.8571 212.143 55.8433 212.052 55.8157C211.527 55.6584 211.246 55.3439 211.227 54.7975C211.202 54.0718 211.224 53.3461 211.227 52.6205C211.227 52.6039 211.24 52.5846 211.246 52.568C211.309 52.4908 211.4 52.5101 211.48 52.5101C213.302 52.5101 215.12 52.5073 216.941 52.5101C217.493 52.5101 217.766 52.7253 217.934 53.2578C218.056 53.6469 218.081 54.0525 218.136 54.4526C218.166 54.6678 218.174 54.8831 218.216 55.0955C218.257 55.308 218.246 55.5287 218.332 55.755C218.61 55.319 218.881 54.8914 219.201 54.4995C219.965 53.5669 220.862 52.797 222.032 52.4218C223.138 52.0658 224.253 52.0576 225.362 52.4466C225.589 52.5266 225.768 52.6867 225.997 52.7529V53.0343L226 53.0288Z" fill="white"/>
<path d="M19.4941 64.3008C19.5686 64.596 19.5576 71.0666 19.4803 71.2928H0.0741944C-0.0141031 71.2128 0.00245271 71.1245 0.00245271 71.0417C0.00245271 70.374 -0.00306588 69.7035 0.00245271 69.0357C0.005212 68.5059 0.275623 68.1445 0.791611 67.9955C1.25241 67.8603 1.73253 67.8078 2.20437 67.7223C2.38648 67.6892 2.57687 67.6837 2.75623 67.6036V48.5093C2.47202 48.4265 2.19057 48.4017 1.91464 48.3493C1.58077 48.2858 1.24689 48.2389 0.915779 48.1672C0.314253 48.0402 0.005212 47.6539 0.00245271 47.0497C-0.000306588 46.4095 0.00245271 45.7693 0.00245271 45.1264C0.00245271 45.0436 -0.00858447 44.9553 0.0300457 44.8753C0.0355642 44.8698 0.0438421 44.8615 0.0493607 44.856C0.0576386 44.8505 0.0631572 44.8422 0.0714351 44.8395C0.107306 44.8312 0.145936 44.8174 0.181807 44.8174C6.57509 44.8174 12.9711 44.8174 19.3644 44.8174C19.4003 44.8174 19.4389 44.8284 19.4665 44.8339C19.5631 44.9112 19.541 45.0133 19.541 45.1043C19.541 47.2428 19.541 49.384 19.541 51.5225C19.541 51.608 19.5493 51.6935 19.5051 51.7736C19.4251 51.8646 19.3175 51.8425 19.2154 51.8425C18.6415 51.8425 18.0648 51.8453 17.4909 51.8425C16.8452 51.837 16.5361 51.5335 16.4699 50.8851C16.4009 50.2035 16.3126 49.5247 16.2326 48.846C16.0229 48.7825 8.31897 48.7577 7.83609 48.8156C7.76987 49.006 7.74503 55.5814 7.81677 56.0146C8.55075 56.0146 9.29024 56.0146 10.0325 56.0174C10.7775 56.0174 11.5225 56.0174 12.2675 56.0174H16.7403C16.7928 56.354 16.7624 56.6713 16.7679 56.9859C16.7734 57.3059 16.7679 57.626 16.7679 57.9461C16.7679 58.2662 16.7707 58.5669 16.7679 58.8787C16.7624 59.1961 16.79 59.5161 16.7431 59.8693C16.2354 59.8969 15.7387 59.8776 15.2448 59.8831C14.7536 59.8859 14.2652 59.8831 13.7741 59.8831H7.84161C7.76987 60.0901 7.75055 66.8641 7.81402 67.2284C8.01544 67.2863 15.838 67.3029 16.2133 67.2477C16.2768 67.0959 16.2851 66.9248 16.2961 66.7593C16.3347 66.2047 16.412 65.6556 16.481 65.1065C16.5361 64.6705 16.7707 64.2428 17.4191 64.2621C18.0234 64.2814 18.6249 64.2649 19.2292 64.2676C19.312 64.2676 19.4003 64.2566 19.4941 64.298V64.3008Z" fill="white"/>
<path d="M98.4577 69.8804V73.6634C98.5129 73.7517 98.5902 73.7572 98.6619 73.7738C99.1834 73.8952 99.7159 73.9669 100.246 74.058C100.853 74.1628 101.211 74.5795 101.217 75.192C101.223 75.8432 101.217 76.4917 101.217 77.1429C101.217 77.2174 101.225 77.2946 101.187 77.3636C100.993 77.4298 91.5153 77.4547 91.1318 77.3884C91.0518 77.3029 91.0766 77.1953 91.0738 77.0932C91.0738 76.5193 91.0738 75.9426 91.0738 75.3686C91.0738 75.1865 91.1014 75.0099 91.1483 74.8389C91.2477 74.4746 91.4877 74.2428 91.8437 74.1159C92.1582 74.0028 92.4921 74.0111 92.8149 73.9448C93.1626 73.8731 93.513 73.8041 93.8745 73.7296V56.175C93.502 56.1115 93.1433 56.0481 92.7818 55.9846C92.5307 55.9404 92.2796 55.9018 92.0341 55.8466C91.4187 55.7087 91.118 55.3748 91.0876 54.7153C91.0573 54.0283 91.0821 53.3384 91.0849 52.6514C91.0849 52.6155 91.1042 52.5796 91.1125 52.5548C91.2063 52.4831 91.3029 52.5051 91.3967 52.5051C93.1709 52.5051 94.9424 52.5051 96.7166 52.5051C97.3595 52.5051 97.7403 52.8086 97.881 53.4322C97.9831 53.882 98.0742 54.3345 98.168 54.7843C98.179 54.8395 98.179 54.8974 98.2425 54.9499C98.5488 54.6353 98.855 54.3207 99.1944 54.0421C100.122 53.2832 101.12 52.6514 102.304 52.3672C103.24 52.1437 104.183 52.1105 105.138 52.2099C106.512 52.3506 107.641 52.9659 108.617 53.9206C109.655 54.9333 110.273 56.175 110.67 57.5408C110.913 58.3741 111.068 59.224 111.139 60.0904C111.186 60.6809 111.25 61.2714 111.23 61.8647C111.181 63.4733 110.93 65.0489 110.317 66.5499C109.856 67.6785 109.216 68.6967 108.322 69.5355C107.356 70.4405 106.247 71.0973 104.939 71.3815C104.227 71.536 103.504 71.6077 102.779 71.5719C102.017 71.5332 101.258 71.4532 100.544 71.1469C99.8622 70.8544 99.2275 70.4902 98.6757 69.9935C98.6205 69.9439 98.5764 69.8776 98.4632 69.8776L98.4577 69.8804ZM98.4467 62.2068C98.4467 63.5175 98.4467 64.8281 98.4467 66.136C98.4467 66.3016 98.4743 66.4368 98.5957 66.572C99.1089 67.1459 99.7104 67.5847 100.444 67.822C101.267 68.0869 102.108 68.1338 102.955 67.9848C103.499 67.8882 104.004 67.6895 104.451 67.3501C105.086 66.87 105.516 66.2409 105.833 65.5235C106.269 64.5439 106.413 63.5009 106.451 62.4441C106.484 61.5694 106.46 60.6947 106.349 59.8228C106.239 58.9453 106.018 58.1037 105.557 57.3394C105.094 56.5668 104.434 56.0563 103.54 55.8687C103.066 55.7694 102.591 55.7611 102.111 55.8052C101.463 55.8659 100.85 56.026 100.29 56.3626C99.6608 56.7379 99.131 57.229 98.6453 57.7726C98.5019 57.9299 98.4412 58.0927 98.4412 58.3052C98.4494 59.6048 98.4439 60.9072 98.4439 62.2068H98.4467Z" fill="white"/>
<path d="M81.6334 45.546H75.4995C75.4223 45.4163 75.4499 45.2922 75.4499 45.1708C75.4499 41.8817 75.4554 38.5926 75.4443 35.3035C75.4443 34.702 75.3754 34.1005 75.1022 33.5459C74.7821 32.8974 74.2551 32.5277 73.5542 32.398C72.3981 32.1855 71.4323 32.558 70.5714 33.3279C70.1962 33.6645 70.0582 34.0205 70.0637 34.5254C70.0913 37.0308 70.0748 39.539 70.0775 42.0472C70.0775 42.1659 70.0527 42.2928 70.1189 42.4197C70.4307 42.5356 70.7756 42.5411 71.104 42.6157C71.2612 42.6515 71.4185 42.6819 71.5731 42.7122C72.0311 42.8033 72.3236 43.0654 72.3732 43.5373C72.4395 44.194 72.3898 44.8507 72.4036 45.4964C72.1691 45.5764 64.1505 45.5929 63.847 45.5239C63.778 45.4439 63.8029 45.3474 63.8001 45.2563C63.8001 44.7569 63.8056 44.2574 63.8001 43.758C63.7918 43.0682 64.2085 42.7674 64.7631 42.6764C65.2074 42.6019 65.6516 42.5356 66.1069 42.417V32.7181C65.9027 32.5884 65.6682 32.6105 65.4502 32.5608C65.1218 32.4835 64.7797 32.4642 64.4568 32.3538C64.0043 32.1993 63.8001 31.9206 63.7974 31.4488C63.7974 30.9218 63.7974 30.392 63.7974 29.865C63.7974 29.7822 63.7863 29.6939 63.8249 29.6139C63.8995 29.5366 63.9988 29.5587 64.0898 29.5587C65.5799 29.5587 67.0699 29.5559 68.5599 29.5587C69.0593 29.5587 69.4015 29.8291 69.5229 30.312C69.5864 30.5686 69.636 30.8279 69.694 31.0846C69.716 31.1811 69.7436 31.2805 69.7712 31.3853C69.934 31.3108 69.9892 31.1591 70.0941 31.0514C70.6818 30.4499 71.3771 30.0112 72.1442 29.6718C72.7237 29.4152 73.3335 29.2938 73.9571 29.2883C75.3643 29.2772 76.526 29.7877 77.3427 30.9825C77.5993 31.3577 77.8339 31.7385 77.9829 32.2241C78.085 32.0641 78.1595 31.9482 78.2285 31.8323C78.7941 30.8666 79.6302 30.2154 80.6456 29.7905C81.3078 29.5118 82.0059 29.3683 82.7316 29.3241C83.7167 29.2634 84.6604 29.3904 85.5737 29.7684C86.5229 30.1602 87.2486 30.8059 87.7646 31.6888C88.1785 32.398 88.4158 33.1678 88.54 33.9735C88.6255 34.5226 88.6558 35.0745 88.6531 35.6319C88.6476 37.7703 88.6531 39.9115 88.6531 42.05C88.6531 42.1686 88.6282 42.2956 88.6945 42.4253C89.1222 42.5384 89.5692 42.5963 90.0107 42.6791C90.1707 42.7095 90.3197 42.7536 90.4659 42.8226C90.7667 42.9633 90.9488 43.2117 90.9599 43.529C90.9847 44.1857 90.9681 44.8452 90.9681 45.4798C90.8853 45.5847 90.7971 45.5681 90.7143 45.5681C88.8104 45.5681 86.9037 45.5681 84.9998 45.5681C84.9253 45.5681 84.848 45.5791 84.779 45.5212C84.7156 45.4136 84.7432 45.2866 84.7432 45.168C84.7432 41.9175 84.7487 38.6643 84.7349 35.4139C84.7349 34.7958 84.6742 34.175 84.39 33.5983C84.0671 32.9416 83.5456 32.5553 82.8365 32.409C82.0749 32.2517 81.3575 32.3787 80.6732 32.7319C80.3035 32.9223 80.0303 33.212 79.8233 33.5734C79.4977 34.1363 79.3653 34.7379 79.3653 35.3835C79.3736 37.6268 79.3653 39.8702 79.3681 42.1135C79.3681 42.2073 79.357 42.3011 79.3956 42.4087C79.6302 42.5163 79.8951 42.5163 80.1517 42.5687C80.4469 42.6267 80.7477 42.6653 81.0347 42.7564C81.4817 42.8999 81.6886 43.1896 81.6914 43.6642C81.6914 44.2022 81.6914 44.7375 81.6914 45.2756C81.6914 45.3584 81.7024 45.4439 81.6417 45.5488L81.6334 45.546Z" fill="white"/>
<path d="M165.888 67.6343C166.153 67.6812 166.409 67.7419 166.669 67.7723C166.997 67.8109 167.317 67.8854 167.64 67.9544C168.313 68.0951 168.617 68.4842 168.617 69.1712C168.617 69.7645 168.617 70.3577 168.617 70.9537C168.617 71.0558 168.636 71.1607 168.584 71.2573C168.388 71.3235 161.669 71.3456 161.299 71.2821C161.208 71.169 161.247 71.031 161.247 70.9041C161.247 67.397 161.247 63.8927 161.247 60.3856C161.247 59.9138 161.263 59.442 161.241 58.9729C161.205 58.2499 161.034 57.5601 160.629 56.942C160.245 56.3571 159.696 56.0232 159.023 55.8769C158.043 55.6645 157.091 55.7831 156.186 56.2025C155.447 56.5447 154.779 57 154.191 57.5712C154.067 57.6926 154.015 57.8195 154.015 57.9933C154.02 61.1031 154.017 64.2128 154.017 67.3225C154.017 67.4163 154.001 67.5129 154.062 67.6095C154.277 67.7116 154.525 67.7198 154.765 67.7612C155.107 67.8192 155.45 67.8882 155.792 67.9516C156.448 68.073 156.766 68.5366 156.749 69.0884C156.727 69.7203 156.744 70.3522 156.744 70.9813C156.744 71.0751 156.76 71.169 156.713 71.2573C156.515 71.3207 147.097 71.3428 146.714 71.2821C146.634 71.2076 146.653 71.1083 146.653 71.0172C146.653 70.4046 146.647 69.7921 146.653 69.1795C146.658 68.4704 146.956 68.0979 147.652 67.9489C148.148 67.8412 148.651 67.7612 149.15 67.6702C149.233 67.6564 149.321 67.6619 149.398 67.5708V56.1805C149.048 56.117 148.7 56.0508 148.35 55.9873C148.091 55.9377 147.831 55.899 147.575 55.8383C146.987 55.7004 146.686 55.3748 146.661 54.776C146.634 54.0696 146.656 53.3632 146.658 52.6569C146.658 52.621 146.678 52.5851 146.686 52.5575C146.788 52.483 146.896 52.5079 146.995 52.5079C148.75 52.5079 150.502 52.5161 152.257 52.5023C152.853 52.4968 153.267 52.8721 153.399 53.4019C153.482 53.7302 153.551 54.0613 153.626 54.3924C153.648 54.4918 153.675 54.5911 153.7 54.696C153.819 54.6849 153.868 54.5966 153.929 54.5304C154.862 53.5509 156.004 52.9135 157.276 52.4941C157.77 52.3313 158.283 52.2568 158.802 52.2319C159.048 52.2209 159.288 52.1712 159.533 52.1823C160.518 52.2236 161.484 52.3478 162.386 52.781C163.338 53.2363 164.1 53.9068 164.655 54.8036C165.248 55.7611 165.615 56.8013 165.742 57.9243C165.802 58.4679 165.841 59.0115 165.841 59.5551C165.841 62.1185 165.841 64.6819 165.841 67.2452C165.841 67.3667 165.819 67.4908 165.885 67.6398L165.888 67.6343Z" fill="white"/>
<path d="M35.633 71.2677C35.5778 71.1325 35.5999 71.0083 35.5999 70.8897C35.5999 67.0736 35.5999 63.2547 35.5999 59.4386C35.5999 58.6688 35.4867 57.9155 35.128 57.2229C34.6783 56.3537 33.9333 55.9288 32.9813 55.8102C31.5271 55.6308 30.3048 56.1716 29.179 57.0132C28.9445 57.187 28.732 57.3885 28.5057 57.5733C28.3705 57.6837 28.3236 57.8162 28.3264 57.9928C28.3346 58.8399 28.3291 59.6897 28.3291 60.5368C28.3291 62.7719 28.3291 65.0041 28.3291 67.2392C28.3291 67.3523 28.3126 67.4654 28.3457 67.5703C28.3954 67.6475 28.4699 67.653 28.5471 67.6668C29.0852 67.7634 29.6232 67.8545 30.1558 67.9621C30.7545 68.0807 31.0884 68.4864 31.0912 69.0962C31.0939 69.7363 31.0912 70.3792 31.0912 71.0194C31.0912 71.1022 31.1077 71.1905 31.0526 71.265C30.8428 71.3257 21.3564 71.3395 21.0501 71.2788C20.9811 71.2098 20.9977 71.1215 20.9977 71.0387C20.9977 70.3792 20.9922 69.7198 20.9977 69.0603C21.0004 68.5001 21.2736 68.1414 21.82 67.9842C22.2642 67.8572 22.725 67.8076 23.1775 67.7276C23.3431 67.6972 23.5086 67.6668 23.6632 67.6393C23.7321 67.4185 23.7597 56.7097 23.6963 56.1992C23.4673 56.1026 23.2106 56.0916 22.9651 56.0447C22.6036 55.973 22.2421 55.9205 21.8834 55.8405C21.315 55.7136 20.9977 55.3107 20.9949 54.7285C20.9922 54.0884 20.9949 53.4454 20.9949 52.8053C20.9949 52.7225 20.9811 52.6342 21.0308 52.5542C21.1191 52.4824 21.2267 52.51 21.326 52.51C23.081 52.51 24.8359 52.5183 26.588 52.5018C27.1813 52.4962 27.5841 52.8881 27.7 53.3268C27.8021 53.7076 27.8849 54.0966 27.9732 54.4802C27.9897 54.5519 27.9815 54.6319 28.0725 54.6844C28.3209 54.4609 28.5554 54.218 28.8148 54.0028C29.7695 53.2192 30.8428 52.6646 32.0431 52.3776C32.6585 52.2314 33.2876 52.1651 33.9195 52.1817C34.9045 52.2093 35.8648 52.361 36.767 52.8025C37.8018 53.3075 38.5854 54.0746 39.1428 55.0707C39.6726 56.0199 39.9927 57.0353 40.0975 58.1224C40.1362 58.5281 40.1444 58.9309 40.1444 59.3338C40.1472 61.9717 40.1444 64.6123 40.1444 67.2502C40.1444 67.3633 40.1306 67.4765 40.1665 67.5896C40.3348 67.6944 40.5307 67.6806 40.7101 67.7165C41.135 67.7993 41.5627 67.8655 41.9876 67.9511C42.2801 68.009 42.545 68.1332 42.7244 68.387C42.8347 68.5443 42.912 68.7154 42.912 68.9113C42.912 69.6563 42.912 70.4013 42.912 71.1463C42.912 71.1822 42.8982 71.2181 42.8927 71.2512C42.6857 71.3229 35.942 71.3367 35.6219 71.2677H35.633Z" fill="white"/>
<path d="M202.473 56.1718C201.921 56.0697 201.378 55.9648 200.831 55.871C200.625 55.8351 200.429 55.7744 200.252 55.6585C199.965 55.4709 199.797 55.1977 199.791 54.8583C199.777 54.1133 199.788 53.3683 199.791 52.6261C199.791 52.6012 199.811 52.5736 199.827 52.5295H207.139C207.167 53.0979 207.148 53.6498 207.153 54.2044C207.156 54.7618 207.153 55.3164 207.153 55.8738V65.9397C207.153 66.4943 207.153 67.0489 207.153 67.598C207.371 67.7056 207.578 67.7111 207.779 67.7498C208.157 67.8187 208.538 67.8932 208.919 67.9567C209.46 68.045 209.846 68.4175 209.868 68.9583C209.896 69.7006 209.876 70.4456 209.874 71.1906C209.874 71.2154 209.854 71.243 209.846 71.2651C209.752 71.3368 209.645 71.312 209.543 71.312C207.807 71.312 206.071 71.312 204.336 71.312C203.693 71.312 203.284 70.9947 203.133 70.3738C203.044 70.0179 202.973 69.6564 202.895 69.2977C202.879 69.2232 202.868 69.1515 202.81 69.0797C202.664 69.1653 202.542 69.2812 202.424 69.3998C201.855 69.9572 201.243 70.4539 200.517 70.7988C199.441 71.312 198.318 71.6128 197.112 71.6045C196.149 71.5962 195.216 71.4638 194.322 71.0968C193.864 70.9091 193.456 70.6387 193.078 70.3242C191.936 69.3777 191.265 68.1554 190.95 66.7178C190.785 65.9507 190.716 65.1781 190.719 64.3917C190.73 61.7704 190.721 59.1518 190.719 56.5305C190.719 56.4201 190.738 56.3042 190.688 56.1773C190.128 56.0559 189.554 55.9565 188.98 55.8627C188.638 55.8075 188.326 55.6889 188.111 55.3909C187.948 55.1619 187.918 54.897 187.91 54.6376C187.89 53.9892 187.904 53.338 187.904 52.6868C187.904 52.6426 187.921 52.5957 187.929 52.5571C188.144 52.4909 194.905 52.4771 195.23 52.5378C195.302 52.6537 195.272 52.7889 195.272 52.9185C195.272 56.7926 195.272 60.6666 195.274 64.5407C195.274 65.1395 195.379 65.7189 195.6 66.2791C196.017 67.3248 196.8 67.8436 197.907 67.9595C198.864 68.0588 199.764 67.8767 200.622 67.4711C201.292 67.1537 201.877 66.7123 202.396 66.1797C202.473 66.0997 202.512 66.0114 202.506 65.901C202.504 65.8458 202.506 65.7879 202.506 65.7327C202.506 62.6699 202.506 59.6071 202.506 56.5443C202.506 56.4311 202.523 56.318 202.471 56.1773L202.473 56.1718Z" fill="white"/>
<path d="M145.249 68.4649C145.152 68.6194 145.039 68.7547 144.912 68.8816C143.728 70.0846 142.313 70.8572 140.663 71.2077C139.86 71.3787 139.057 71.5001 138.235 71.5498C136.932 71.6271 135.66 71.5195 134.41 71.1442C133.34 70.8214 132.382 70.2888 131.527 69.5714C129.753 68.0841 128.795 66.1526 128.412 63.9038C128.298 63.2443 128.235 62.5793 128.246 61.9088C128.249 61.6743 128.235 61.4425 128.238 61.208C128.243 60.3554 128.376 59.5221 128.591 58.6998C128.914 57.4719 129.46 56.3516 130.257 55.361C131.48 53.8462 133.055 52.8915 134.948 52.4527C135.536 52.3175 136.132 52.2513 136.736 52.2099C137.743 52.1409 138.729 52.2458 139.703 52.4721C141.132 52.8059 142.324 53.5482 143.32 54.6188C144.233 55.6039 144.799 56.7683 145.136 58.0569C145.301 58.6943 145.387 59.3455 145.439 60.0049C145.483 60.5733 145.458 61.1307 145.37 61.6909C145.351 61.8123 145.32 61.9309 145.271 62.044C145.149 62.32 144.931 62.4662 144.633 62.4855C144.493 62.4938 144.352 62.4883 144.208 62.4883C140.539 62.4883 136.872 62.4883 133.202 62.4883C133.08 62.4883 132.959 62.4717 132.826 62.5131C132.785 62.7421 132.846 62.9657 132.876 63.1809C132.978 63.9176 133.144 64.6433 133.455 65.3276C134.04 66.619 135.006 67.4771 136.38 67.8248C137.771 68.1752 139.142 68.0952 140.472 67.5102C141.06 67.2508 141.631 66.9639 142.191 66.6521C142.58 66.4341 142.978 66.2878 143.43 66.423C143.599 66.4727 143.753 66.5445 143.861 66.6797C144.313 67.2343 144.758 67.7944 145.205 68.3546C145.227 68.3821 145.235 68.4208 145.254 68.4622L145.249 68.4649ZM132.923 59.6711H141.284C141.342 59.5441 141.325 59.4282 141.308 59.3179C141.256 58.9564 141.201 58.5922 141.102 58.239C140.748 56.9669 139.976 56.095 138.695 55.6922C138 55.4742 137.294 55.4245 136.576 55.5321C135.688 55.6673 134.896 56.004 134.264 56.6662C133.787 57.1656 133.467 57.7561 133.235 58.4018C133.091 58.8074 132.975 59.2213 132.92 59.6683L132.923 59.6711Z" fill="white"/>
<path d="M77.5305 62.5128C77.4532 62.7584 77.5305 62.9874 77.5636 63.2164C77.6712 64.0221 77.8643 64.803 78.2341 65.537C78.8522 66.7676 79.84 67.5457 81.17 67.8603C82.1799 68.0976 83.2091 68.1004 84.219 67.8382C84.7846 67.692 85.3255 67.4657 85.8387 67.1843C86.2526 66.958 86.6803 66.7593 87.0942 66.5358C87.3867 66.3786 87.715 66.3179 88.0544 66.4117C88.2696 66.4724 88.4573 66.5745 88.598 66.7483C89.0174 67.2698 89.4341 67.7941 89.8507 68.3156C89.8838 68.3597 89.9252 68.4011 89.9307 68.4618C89.9307 68.5143 89.8976 68.5474 89.8673 68.5832C88.7277 69.8718 87.3204 70.7217 85.6538 71.1328C84.7488 71.3563 83.8327 71.4971 82.8945 71.5495C81.6887 71.6157 80.5077 71.5246 79.3433 71.2128C78.0051 70.8541 76.8462 70.1781 75.8363 69.2317C74.5283 68.0093 73.7226 66.5 73.2784 64.7865C73.088 64.047 72.9887 63.2937 72.9445 62.5293C72.9224 62.1541 72.8976 61.7788 72.9031 61.4008C72.9362 59.6597 73.3032 57.9986 74.1807 56.481C75.2209 54.6847 76.711 53.4154 78.6838 52.7256C79.5613 52.4193 80.4636 52.2703 81.3935 52.2123C82.6407 52.1351 83.863 52.262 85.0385 52.6704C86.8458 53.2967 88.1896 54.4832 89.0919 56.1664C89.6079 57.1322 89.9197 58.1697 90.0521 59.2513C90.157 60.0929 90.1873 60.9372 90.0328 61.7816C89.9445 62.2617 89.5637 62.4935 89.1305 62.4935C85.3862 62.4824 81.6418 62.488 77.8974 62.488C77.776 62.488 77.6546 62.4714 77.5305 62.51V62.5128ZM85.9905 59.6762C85.996 59.2651 85.9408 58.8788 85.8553 58.4953C85.5186 57.0052 84.6467 56.0174 83.1456 55.6284C82.5662 55.4793 81.9812 55.4462 81.3852 55.5235C80.2594 55.6697 79.3185 56.1223 78.6287 57.0494C78.0796 57.7834 77.8119 58.6305 77.627 59.5107C77.616 59.5631 77.6077 59.6238 77.6739 59.6762H85.9905Z" fill="white"/>
<path d="M186.793 68.4809C186.434 68.8672 186.089 69.2369 185.692 69.557C184.519 70.5007 183.173 71.047 181.699 71.3119C181.059 71.4251 180.419 71.5051 179.768 71.5492C178.543 71.632 177.342 71.5272 176.161 71.2098C175.063 70.9146 174.075 70.3986 173.19 69.6867C171.462 68.296 170.461 66.4776 170.014 64.3309C169.884 63.7128 169.818 63.0892 169.776 62.4574C169.749 62.0048 169.721 61.5551 169.746 61.1025C169.829 59.4635 170.196 57.8935 171.029 56.4642C172.061 54.6872 173.546 53.4317 175.491 52.7391C176.377 52.4246 177.287 52.2728 178.228 52.2149C179.467 52.1376 180.676 52.2645 181.846 52.6619C183.647 53.2744 184.991 54.4444 185.902 56.1137C186.437 57.0933 186.749 58.1473 186.892 59.2483C186.994 60.0319 187.025 60.8239 186.906 61.613C186.89 61.7234 186.87 61.8365 186.837 61.9441C186.746 62.2559 186.481 62.4656 186.153 62.4877C186.051 62.496 185.946 62.4905 185.841 62.4905C182.144 62.4905 178.446 62.4905 174.749 62.4905C174.627 62.4905 174.503 62.4712 174.384 62.5125C174.313 62.6064 174.34 62.714 174.351 62.8105C174.437 63.5307 174.555 64.2454 174.809 64.9297C175.044 65.5643 175.358 66.1548 175.839 66.6377C176.556 67.3634 177.428 67.7994 178.441 67.9511C179.014 68.0367 179.588 68.0256 180.162 67.998C180.83 67.9649 181.456 67.7497 182.061 67.482C182.673 67.2144 183.261 66.8915 183.849 66.5742C184.18 66.3976 184.533 66.3066 184.911 66.4142C185.118 66.4721 185.295 66.5715 185.43 66.737C185.855 67.2668 186.277 67.7966 186.699 68.3264C186.727 68.3622 186.752 68.4036 186.798 68.4781L186.793 68.4809ZM182.85 59.6705C182.814 59.1241 182.74 58.6081 182.588 58.1032C182.43 57.5706 182.166 57.0988 181.799 56.6849C181.054 55.8461 180.071 55.5481 178.998 55.4819C178.449 55.4487 177.908 55.537 177.384 55.6971C176.702 55.904 176.12 56.2683 175.654 56.8146C175.036 57.5348 174.704 58.3874 174.514 59.3007C174.489 59.4139 174.417 59.5297 174.489 59.6705H182.853H182.85Z" fill="white"/>
<path d="M107.695 29.5973C107.8 29.5366 107.908 29.5587 108.01 29.5587C109.453 29.5587 110.896 29.5669 112.339 29.5532C112.83 29.5476 113.244 29.8098 113.377 30.3285C113.44 30.5741 113.49 30.8224 113.548 31.0708C113.573 31.1784 113.6 31.286 113.628 31.4046C113.766 31.3908 113.815 31.2915 113.887 31.2253C114.77 30.3809 115.794 29.7849 116.98 29.4842C117.372 29.3848 117.775 29.3517 118.181 29.3214C118.942 29.2607 119.687 29.3407 120.41 29.5642C121.831 30.0057 122.797 30.9604 123.376 32.3152C123.672 33.0023 123.856 33.7169 123.92 34.4675C123.95 34.8262 123.961 35.1821 123.961 35.5381C123.964 37.7151 123.961 39.8922 123.961 42.0693C123.961 42.1797 123.948 42.2956 123.986 42.417C124.116 42.4639 124.254 42.4887 124.392 42.5136C124.781 42.5825 125.17 42.6515 125.556 42.7315C126.009 42.8226 126.29 43.1178 126.315 43.5648C126.354 44.2105 126.323 44.8617 126.323 45.5405C125.796 45.6067 125.28 45.5626 124.767 45.5709C124.248 45.5791 123.73 45.5709 123.211 45.5709C122.692 45.5709 122.173 45.5764 121.655 45.5709C121.139 45.5653 120.623 45.5984 120.126 45.5515C120.021 45.4081 120.054 45.2701 120.054 45.1432C120.054 41.8817 120.051 38.623 120.054 35.3615C120.054 34.8758 120.002 34.404 119.836 33.9459C119.511 33.0519 118.89 32.5332 117.935 32.3925C116.997 32.2545 116.142 32.4725 115.33 32.925C114.858 33.1871 114.439 33.521 114.031 33.8714C113.931 33.957 113.873 34.0563 113.884 34.1915C113.89 34.2577 113.884 34.324 113.884 34.3902C113.884 36.9453 113.884 39.4976 113.884 42.0528C113.884 42.1742 113.862 42.2983 113.915 42.4253C114.127 42.5163 114.367 42.5191 114.594 42.5687C114.842 42.6239 115.096 42.6543 115.344 42.7067C115.946 42.8309 116.199 43.082 116.238 43.6973C116.274 44.2685 116.246 44.8452 116.244 45.4219C116.244 45.4577 116.222 45.4908 116.21 45.5184C115.998 45.5874 108.046 45.6095 107.701 45.5433C107.621 45.4577 107.651 45.3501 107.651 45.248C107.648 44.7569 107.651 44.2685 107.651 43.7773C107.651 43.1537 107.927 42.8171 108.545 42.6957C108.887 42.6294 109.232 42.577 109.574 42.5163C109.693 42.4942 109.812 42.4639 109.925 42.4391C109.986 42.2266 110.008 33.1982 109.952 32.7319C109.768 32.616 109.544 32.6215 109.337 32.5746C109.025 32.5056 108.708 32.4614 108.396 32.3869C107.913 32.2711 107.659 31.9482 107.654 31.4543C107.648 30.908 107.654 30.3616 107.654 29.8153C107.654 29.7491 107.648 29.6828 107.695 29.6056V29.5973Z" fill="white"/>
<path d="M50.6022 46.7932V52.665C51.0354 52.6926 51.4383 52.676 51.8411 52.6788C52.2467 52.6816 52.6524 52.6788 53.058 52.6788H55.5276C55.5579 53.777 55.5358 54.8448 55.5441 55.8906C55.4089 56.0065 55.2792 55.9706 55.1606 55.9706C53.7754 55.9706 52.3875 55.9706 51.0023 55.9706C50.8919 55.9706 50.776 55.9513 50.6684 55.9982C50.5912 56.0755 50.616 56.1748 50.616 56.2659C50.616 59.5908 50.616 62.9185 50.616 66.2435C50.616 66.5525 50.685 66.8395 50.823 67.1127C51.0906 67.6452 51.5652 67.8384 52.1198 67.8797C52.484 67.9073 52.8317 67.8411 53.1573 67.6673C53.3311 67.5735 53.5105 67.4879 53.6843 67.3913C54.0541 67.1844 54.3824 67.2396 54.6225 67.5873C54.915 68.0149 55.1799 68.4592 55.4558 68.8979C55.6545 69.2152 55.8476 69.5381 56.0491 69.8664C55.9304 70.0072 55.7952 70.1093 55.6572 70.2031C54.5866 70.9343 53.4112 71.384 52.1226 71.5303C51.1596 71.6407 50.2021 71.6296 49.2667 71.3509C47.8567 70.9288 46.8772 70.032 46.3639 68.6468C46.157 68.0867 46.0549 67.5072 46.0135 66.9112C45.9831 66.4863 45.9804 66.0641 45.9804 65.642C45.9776 62.5515 45.9804 59.4611 45.9804 56.3707C45.9804 56.2521 46.0052 56.1252 45.9473 56.0093C45.8535 55.9375 45.7458 55.9651 45.6465 55.9651C45.1857 55.9624 44.7222 55.9651 44.2614 55.9651C44.0406 55.9651 43.8337 55.9237 43.6405 55.8051C43.3425 55.623 43.188 55.3691 43.1935 55.0132C43.2018 54.4668 43.1935 53.9205 43.1963 53.3741C43.1963 53.2914 43.1797 53.2031 43.2514 53.1037C44.2227 52.9244 45.2299 52.8168 46.2232 52.6153C46.3336 52.0276 46.4357 51.4757 46.5378 50.9211C46.7475 49.7926 46.9544 48.664 47.1669 47.5382C47.2524 47.0857 47.6029 46.7629 48.1078 46.7491C48.908 46.727 49.711 46.7491 50.5112 46.7491C50.5277 46.7491 50.547 46.7629 50.6188 46.7877L50.6022 46.7932Z" fill="white"/>
<path d="M62.7207 37.4914C62.7566 38.562 62.6131 39.5553 62.3124 40.5239C61.995 41.5476 61.5315 42.4995 60.8223 43.3218C59.8924 44.3979 58.7253 45.0795 57.3705 45.4602C56.7993 45.6203 56.2116 45.6975 55.6211 45.75C54.2552 45.8714 52.9335 45.6975 51.6504 45.2395C50.9165 44.9801 50.2598 44.5855 49.6555 44.0861C48.7477 43.3383 48.0827 42.414 47.6274 41.3406C47.2935 40.5597 47.0838 39.7402 46.979 38.8931C46.9265 38.482 46.9458 38.0681 46.8907 37.657C46.841 37.2762 46.9155 36.8871 46.9458 36.5036C47.0065 35.7254 47.1666 34.9584 47.4287 34.2189C47.7488 33.3111 48.2317 32.5053 48.8635 31.7769C49.8321 30.6621 51.0627 29.9971 52.4644 29.6191C53.1018 29.4481 53.7503 29.357 54.4125 29.3211C56.0212 29.2328 57.5415 29.5474 58.9653 30.2896C60.1573 30.9105 61.0596 31.8376 61.6943 33.0296C62.2103 33.9981 62.5138 35.0301 62.66 36.1117C62.7235 36.5863 62.7594 37.0665 62.7262 37.4942L62.7207 37.4914ZM58.7087 37.7535C58.6977 37.0913 58.7087 36.6388 58.648 36.189C58.5294 35.364 58.339 34.5638 57.9002 33.8408C57.4532 33.1014 56.8186 32.613 55.9825 32.4088C55.1741 32.2101 54.3573 32.2184 53.5543 32.4612C52.9749 32.635 52.4672 32.9441 52.0726 33.4049C51.7249 33.8105 51.4932 34.2851 51.311 34.7818C51.013 35.604 50.9413 36.4677 50.8999 37.3341C50.8723 37.8887 50.9303 38.4406 51.002 38.9924C51.1207 39.892 51.3773 40.7363 51.9208 41.4813C52.3016 42.0028 52.8066 42.3533 53.4081 42.5547C54.2276 42.8306 55.072 42.8306 55.9135 42.6651C56.5123 42.5492 57.0393 42.2705 57.456 41.8318C57.9306 41.3323 58.2203 40.717 58.4052 40.0548C58.637 39.2325 58.7363 38.3964 58.7032 37.7535H58.7087Z" fill="white"/>
<path d="M119.896 67.6481C120.45 67.7474 121.019 67.8357 121.579 67.9516C122.269 68.0951 122.525 68.4676 122.545 68.9974C122.567 69.7121 122.553 70.4295 122.55 71.1469C122.55 71.1828 122.536 71.2186 122.528 71.2517C122.318 71.3235 112.804 71.34 112.501 71.2711C112.435 71.191 112.457 71.0945 112.457 71.0007C112.457 70.3688 112.465 69.7369 112.454 69.1078C112.446 68.5504 112.746 68.0565 113.486 67.9434C114.035 67.8606 114.576 67.7447 115.114 67.6426C115.221 67.5184 115.183 67.3805 115.183 67.2535C115.183 64.8612 115.183 62.4662 115.183 60.0738C115.183 58.8873 115.183 57.6981 115.183 56.5116C115.183 56.4095 115.194 56.3046 115.158 56.1915C114.896 56.1005 114.617 56.0701 114.341 56.0204C114.046 55.968 113.751 55.9018 113.453 55.8604C112.879 55.7859 112.476 55.3637 112.465 54.8036C112.448 54.1055 112.459 53.4101 112.462 52.712C112.462 52.6569 112.479 52.6044 112.484 52.5603C112.595 52.483 112.699 52.5079 112.802 52.5079C114.556 52.5079 116.309 52.5079 118.064 52.5079C118.13 52.5079 118.196 52.5079 118.262 52.5106C118.651 52.5382 118.938 52.7065 119.101 53.079C119.25 53.4239 119.28 53.7882 119.33 54.1524C119.396 54.6463 119.454 55.1402 119.515 55.6341C119.518 55.659 119.543 55.6783 119.556 55.7031C119.661 55.6783 119.672 55.5817 119.716 55.5127C120.368 54.4697 121.154 53.5536 122.216 52.9052C122.972 52.4444 123.789 52.1878 124.678 52.1712C125.158 52.1629 125.638 52.1657 126.11 52.2899C126.513 52.3947 126.893 52.5437 127.23 52.8031C127.18 53.286 127.078 53.744 127.001 54.2076C126.899 54.8201 126.794 55.4299 126.689 56.0425C126.681 56.0977 126.662 56.1529 126.656 56.2081C126.604 56.6385 126.339 56.8262 125.894 56.8344C125.665 56.8399 125.445 56.793 125.224 56.7461C124.404 56.564 123.582 56.5171 122.76 56.7241C121.984 56.92 121.355 57.3504 120.85 57.9657C120.489 58.4045 120.196 58.8873 119.937 59.3895C119.865 59.5275 119.832 59.6682 119.835 59.8227C119.835 62.3282 119.835 64.8364 119.835 67.3418C119.835 67.4329 119.816 67.5322 119.904 67.6536L119.896 67.6481Z" fill="white"/>
<path d="M71.8933 52.7947C71.9209 53.1038 71.8188 53.3825 71.7746 53.6694C71.6422 54.5138 71.4849 55.3553 71.3387 56.1969C71.2614 56.6301 71.0462 56.815 70.6102 56.8316C70.3702 56.8398 70.1411 56.7957 69.9121 56.7405C69.2913 56.5888 68.6594 56.5501 68.0303 56.6108C67.2632 56.6853 66.5706 56.9613 65.9884 57.4883C65.3565 58.0622 64.9178 58.7714 64.5398 59.5274C64.4901 59.624 64.4873 59.7261 64.4873 59.8309C64.4873 62.3364 64.4873 64.8446 64.4873 67.35C64.4873 67.4328 64.4708 67.5211 64.5343 67.6177C64.755 67.7032 65.0089 67.7225 65.2572 67.7749C65.5993 67.8439 65.9442 67.8936 66.2864 67.957C66.8631 68.0647 67.2135 68.4372 67.2384 69.0497C67.2687 69.7451 67.2466 70.4432 67.2466 71.1413C67.2466 71.1882 67.2356 71.2351 67.1804 71.2903H57.2166C57.1338 71.1799 57.1614 71.0723 57.1614 70.973C57.1614 70.3411 57.1752 69.7092 57.1559 69.0801C57.1366 68.4041 57.567 68.0509 58.1161 67.9515C58.6238 67.8577 59.1343 67.7639 59.642 67.6728C59.7165 67.659 59.7938 67.659 59.8628 67.5707V56.1942C59.5648 56.0838 59.2419 56.07 58.9329 55.9955C58.6763 55.9348 58.4114 55.9127 58.1548 55.8631C57.7519 55.7803 57.3987 55.6258 57.2332 55.2063C57.1945 55.1098 57.1614 55.0132 57.1614 54.9056C57.1614 54.1523 57.1614 53.399 57.1642 52.643C57.1642 52.6154 57.1752 52.5878 57.1835 52.5629C57.2635 52.4829 57.3628 52.5078 57.4539 52.5078C59.2447 52.5078 61.0382 52.505 62.829 52.5078C63.3781 52.5078 63.6347 52.6981 63.8334 53.2086C63.9658 53.548 63.9741 53.9095 64.0265 54.2599C64.101 54.7511 64.1535 55.245 64.2142 55.7444C64.3107 55.7168 64.3218 55.6313 64.3577 55.5733C65.0006 54.5358 65.7677 53.617 66.8107 52.9575C67.5998 52.4581 68.4552 52.1794 69.3961 52.1656C69.9452 52.1601 70.4888 52.1932 71.0158 52.3532C71.3332 52.4498 71.6312 52.5823 71.8878 52.7975L71.8933 52.7947Z" fill="white"/>
<path d="M95.8603 38.0825C95.9292 38.982 96.0755 39.8484 96.4866 40.6514C97.0495 41.7579 97.9463 42.4339 99.1604 42.6684C100.391 42.9057 101.578 42.765 102.701 42.1883C103.128 41.9676 103.564 41.7661 103.984 41.5316C104.21 41.4047 104.458 41.3522 104.72 41.3771C104.936 41.3991 105.129 41.4709 105.267 41.6392C105.642 42.0972 106.012 42.5608 106.381 43.0244C106.409 43.0602 106.423 43.1071 106.45 43.1623C106.108 43.5431 105.752 43.9018 105.341 44.2053C104.378 44.9228 103.288 45.3449 102.113 45.5602C101.277 45.7147 100.435 45.8113 99.5853 45.7837C98.3988 45.7423 97.2371 45.5408 96.1721 44.9917C94.602 44.1805 93.4514 42.9664 92.7422 41.3384C92.3394 40.4141 92.1214 39.4511 92.0221 38.4495C91.9586 37.7983 91.9448 37.1471 91.9917 36.5042C92.0579 35.5522 92.2732 34.6251 92.6567 33.7449C93.2941 32.2742 94.2792 31.107 95.6809 30.3068C96.5528 29.8101 97.4882 29.5176 98.4788 29.3769C98.8624 29.3217 99.2514 29.2914 99.6295 29.2941C100.41 29.2996 101.186 29.3879 101.944 29.6032C103.117 29.9315 104.088 30.5662 104.889 31.4657C105.578 32.2383 106.023 33.1489 106.299 34.1422C106.459 34.7244 106.55 35.3149 106.599 35.9192C106.641 36.4241 106.621 36.9125 106.53 37.4037C106.445 37.8783 106.238 38.0494 105.758 38.0494C102.579 38.0494 99.4004 38.0494 96.2217 38.0494C96.1113 38.0494 95.9955 38.03 95.8575 38.0825H95.8603ZM103.084 35.6488C103.098 35.6046 103.117 35.577 103.114 35.5522C103.07 35.199 103.045 34.8431 102.949 34.4954C102.618 33.2813 101.864 32.4949 100.626 32.2052C99.8254 32.0203 99.0334 32.0617 98.2636 32.3431C97.8166 32.5059 97.4082 32.7515 97.0854 33.1019C96.6025 33.6235 96.2935 34.2443 96.1169 34.9314C96.0562 35.1631 95.9706 35.3922 95.9844 35.646H103.084V35.6488Z" fill="white"/>
<path d="M212.375 73.0313V79.9654C212.543 80.0786 212.711 80.062 212.863 80.1089C213.004 80.1503 213.103 80.2303 213.131 80.371C213.178 80.6194 213.17 80.8705 213.134 81.0995C213.015 81.1685 212.918 81.1492 212.827 81.1519C212.413 81.1519 211.997 81.1547 211.583 81.1519C211.266 81.1492 211.172 81.0636 211.106 80.7491C211.086 80.658 211.064 80.567 211.039 80.4649C210.863 80.6056 210.705 80.7546 210.526 80.8705C209.359 81.6348 207.847 81.2982 207.35 79.7612C207.058 78.8507 207.038 77.9263 207.369 77.0185C207.634 76.2928 208.112 75.752 208.862 75.5037C209.588 75.2636 210.272 75.3657 210.918 75.843V74.1792C210.805 74.0661 210.653 74.0909 210.518 74.055C210.189 73.9667 210.137 73.9115 210.14 73.5666C210.14 73.39 210.118 73.2107 210.162 73.0368C210.374 72.9679 212.033 72.9541 212.375 73.0313ZM210.943 78.2078C210.943 77.8491 210.943 77.4903 210.943 77.1344C210.943 77.0295 210.929 76.933 210.849 76.8502C210.534 76.5301 209.869 76.4004 209.447 76.5743C209.022 76.7481 208.807 77.093 208.705 77.5097C208.575 78.0367 208.6 78.5747 208.677 79.1073C208.708 79.3142 208.791 79.5046 208.895 79.6867C209.05 79.9516 209.284 80.0841 209.588 80.1117C210.038 80.1503 210.421 80.0096 210.75 79.7033C210.882 79.5791 210.951 79.4439 210.946 79.2563C210.937 78.9086 210.946 78.5582 210.946 78.2105L210.943 78.2078Z" fill="white"/>
<path d="M201.022 80.0205V76.6487C200.865 76.6183 200.719 76.5907 200.575 76.5604C200.349 76.5107 200.247 76.4003 200.241 76.1713C200.236 75.9588 200.208 75.7408 200.263 75.5394C200.368 75.4594 200.473 75.4842 200.575 75.4842C200.942 75.4842 201.312 75.4842 201.679 75.4842C202.167 75.4842 202.214 75.5229 202.349 75.9864C202.358 76.014 202.369 76.0388 202.382 76.0802C202.523 76.0361 202.614 75.9285 202.725 75.8485C203.257 75.4649 203.856 75.338 204.496 75.4401C205.376 75.578 205.837 76.2789 205.969 76.9908C206.016 77.2419 206.03 77.493 206.027 77.7496C206.022 78.4008 206.027 79.0492 206.027 79.7004C206.027 79.8025 206.008 79.9074 206.061 80.026C206.204 80.0536 206.359 80.084 206.513 80.1143C206.687 80.1502 206.795 80.2495 206.833 80.4261C206.886 80.6607 206.875 80.8924 206.847 81.116C206.646 81.207 205.04 81.2374 204.648 81.1601C204.559 81.0663 204.595 80.9476 204.595 80.84C204.595 79.7667 204.595 78.6905 204.595 77.6172C204.595 77.4185 204.573 77.2253 204.499 77.0377C204.347 76.6514 203.983 76.4969 203.583 76.5355C203.141 76.5769 202.785 76.8004 202.482 77.115V79.9984C202.639 80.0729 202.802 80.0702 202.954 80.1088C203.213 80.1778 203.301 80.2744 203.304 80.5448C203.307 80.7407 203.329 80.9394 203.285 81.1325C203.078 81.2125 200.575 81.2263 200.263 81.1491C200.203 80.9062 200.227 80.6524 200.244 80.4041C200.255 80.244 200.385 80.164 200.528 80.1254C200.683 80.084 200.84 80.0591 201.019 80.0205H201.022Z" fill="white"/>
<path d="M220.24 80.5561C220.031 80.7023 219.843 80.8624 219.622 80.9728C219.09 81.2376 218.538 81.3204 217.95 81.2018C216.769 80.959 216.491 79.629 217.051 78.8757C217.183 78.6963 217.357 78.5666 217.545 78.459C218.033 78.1776 218.56 78.0258 219.12 77.9513C219.448 77.9072 219.777 77.9182 220.141 77.8906C220.144 77.5016 220.16 77.1208 219.912 76.7924C219.763 76.5965 219.542 76.5386 219.313 76.5193C219.065 76.4972 218.825 76.5441 218.599 76.6462C218.428 76.7234 218.262 76.8173 218.094 76.9028C217.694 77.1097 217.47 77.049 217.249 76.6655C217.183 76.5524 217.089 76.453 217.067 76.293C217.302 76.0309 217.605 75.8432 217.931 75.697C218.618 75.3879 219.33 75.272 220.075 75.468C220.812 75.6611 221.399 76.3399 221.488 77.1015C221.581 77.9182 221.512 78.7377 221.535 79.5572C221.54 79.7062 221.515 79.858 221.559 80.0153C221.664 80.076 221.786 80.0925 221.902 80.1174C222.062 80.1532 222.186 80.2443 222.205 80.4126C222.23 80.6444 222.241 80.8789 222.194 81.0969C222.108 81.1742 222.02 81.1549 221.937 81.1549C221.59 81.1549 221.239 81.1549 220.892 81.1549C220.538 81.1549 220.475 81.1024 220.356 80.7741C220.331 80.7051 220.331 80.6223 220.246 80.5589L220.24 80.5561ZM220.152 78.7901C219.802 78.7488 219.498 78.8095 219.195 78.8591C218.924 78.9033 218.665 78.9833 218.428 79.1268C218.204 79.262 218.102 79.502 218.152 79.7807C218.196 80.0125 218.356 80.1753 218.61 80.2139C219.153 80.294 219.636 80.167 220.031 79.7669C220.1 79.698 220.155 79.629 220.152 79.5241C220.149 79.2896 220.152 79.055 220.152 78.7901Z" fill="white"/>
<path d="M199.077 74.3973V80.0208C199.234 80.0539 199.38 80.0787 199.526 80.1146C199.78 80.1753 199.86 80.2719 199.86 80.5257C199.86 80.7299 199.888 80.9396 199.838 81.1383C199.615 81.2128 196.974 81.2211 196.698 81.1466C196.646 80.9038 196.665 80.6499 196.682 80.3988C196.693 80.236 196.825 80.1615 196.969 80.1256C197.131 80.0843 197.3 80.0567 197.46 80.0263C197.526 79.8194 197.551 74.9216 197.49 74.3973C197.358 74.2787 197.173 74.309 197.016 74.2621C196.748 74.1821 196.671 74.1049 196.671 73.8289C196.671 73.6413 196.646 73.4537 196.704 73.2246C197.736 73.1971 198.776 73.2109 199.819 73.2164C199.891 73.4868 199.869 73.7296 199.849 73.9697C199.838 74.1269 199.717 74.207 199.568 74.2511C199.408 74.298 199.228 74.2787 199.074 74.3973H199.077Z" fill="white"/>
<path d="M216.476 81.1436C216.258 81.207 213.794 81.2208 213.455 81.1574C213.408 80.9008 213.405 80.6331 213.458 80.3655C213.488 80.2192 213.604 80.1502 213.739 80.1199C213.902 80.084 214.067 80.0564 214.25 80.0206V76.6515C214.079 76.6183 213.913 76.5935 213.75 76.5549C213.549 76.508 213.449 76.4114 213.433 76.21C213.416 75.9865 213.403 75.7602 213.447 75.5422C213.667 75.465 215.37 75.4539 215.64 75.5284C215.729 75.6333 215.695 75.7602 215.695 75.8789C215.695 77.1398 215.695 78.4036 215.695 79.6646C215.695 79.7777 215.679 79.8909 215.726 80.0123C215.856 80.0702 216.01 80.073 216.154 80.1061C216.407 80.164 216.498 80.2551 216.498 80.5062C216.498 80.7187 216.529 80.9366 216.474 81.1436H216.476Z" fill="white"/>
<path d="M214.974 74.7616C214.499 74.8086 214.08 74.3202 214.099 73.8897C214.119 73.3986 214.516 72.9791 214.999 72.9874C215.451 72.9957 215.907 73.3875 215.89 73.898C215.873 74.4029 215.504 74.7644 214.977 74.7616H214.974Z" fill="white"/>
</g>
</g>
<defs>
<clipPath id="clip0_2683_953">
<rect width="226" height="58.2625" fill="white" transform="translate(0 23)"/>
</clipPath>
</defs>
</svg>
