<svg width="3449" height="70" viewBox="0 0 3449 70" fill="none" xmlns="http://www.w3.org/2000/svg">
<path d="M112.422 59.2214H97.0189L77.0091 10.9966H90.0371L104.505 48.2809H105.224L119.476 10.9966H132.432L112.422 59.2214ZM175.539 59.2214H134.728V10.9966H175.539V20.7135H145.525V30.1426H174.46V39.7875H145.525V49.5045H175.539V59.2214ZM191.214 59.2214H180.417V10.9966H207.049C218.925 10.9966 225.691 16.2509 225.691 25.464C225.691 33.3096 221.156 37.9881 212.087 38.8518V39.4276C216.406 40.5793 218.061 42.8826 219.861 46.2655L226.843 59.2214H214.318L207.697 46.6974C205.753 42.9545 203.954 41.7309 198.339 41.7309H191.214V59.2214ZM191.214 20.7135V33.5975H206.977C212.087 33.5975 214.39 32.1579 214.39 27.1195C214.39 22.369 212.087 20.7135 206.977 20.7135H191.214ZM252.134 59.9412C237.523 59.9412 229.317 54.183 229.317 42.9545V42.5227H240.114V43.8183C240.114 48.2809 242.345 50.0803 252.134 50.0803C260.771 50.0803 262.787 48.7847 262.787 45.5457C262.787 42.5947 261.131 41.515 256.165 40.6513L242.633 38.7079C233.996 37.3403 228.885 33.0217 228.885 25.1761C228.885 17.9064 234.788 10.2768 250.982 10.2768C265.81 10.2768 272.72 17.1146 272.72 27.2635V27.6953H261.851V26.6876C261.851 22.0811 259.476 20.1377 249.903 20.1377C242.129 20.1377 239.754 21.6492 239.754 24.7443C239.754 27.5514 241.338 28.5591 245.368 29.2788L258.9 31.4382C269.697 33.1656 273.583 38.42 273.583 45.0419C273.583 52.8874 267.465 59.9412 252.134 59.9412ZM286.833 59.2214H274.741L295.831 10.9966H311.234L332.467 59.2214H320.087L315.552 48.5688H291.44L286.833 59.2214ZM300.149 28.3431L295.615 38.8518H311.378L306.843 28.3431L303.892 20.8575H303.1L300.149 28.3431ZM361.833 59.2214H351.037V20.7135H333.114V10.9966H379.756V20.7135H361.833V59.2214ZM394.423 59.2214H383.627V10.9966H394.423V59.2214ZM439.59 59.2214H400.075V10.9966H410.871V49.5045H439.59V59.2214ZM484.747 59.2214H443.936V10.9966H484.747V20.7135H454.733V30.1426H483.667V39.7875H454.733V49.5045H484.747V59.2214Z" fill="white"/>
<path d="M31.8772 33.4462C47.516 33.4462 60.1937 27.7356 60.1937 20.6912C60.1937 13.6468 47.516 7.93622 31.8772 7.93622C16.2383 7.93622 3.56055 13.6468 3.56055 20.6912C3.56055 27.7356 16.2383 33.4462 31.8772 33.4462Z" stroke="#E0FF00" stroke-width="5.74912" stroke-miterlimit="10"/>
<path d="M31.3401 62.0638C46.9789 62.0638 59.6567 56.3532 59.6567 49.3088C59.6567 42.2644 46.9789 36.5538 31.3401 36.5538C15.7012 36.5538 3.02344 42.2644 3.02344 49.3088C3.02344 56.3532 15.7012 62.0638 31.3401 62.0638Z" stroke="#E0FF00" stroke-width="5.74912" stroke-miterlimit="10"/>
<path d="M31.3166 47.8247C46.9554 47.8247 59.6332 42.1141 59.6332 35.0697C59.6332 28.0253 46.9554 22.3147 31.3166 22.3147C15.6778 22.3147 3 28.0253 3 35.0697C3 42.1141 15.6778 47.8247 31.3166 47.8247Z" stroke="#E0FF00" stroke-width="5.74912" stroke-miterlimit="10"/>
<path d="M625.198 59.9644C609.219 59.9644 599.286 50.1755 599.286 35.1322C599.286 20.0889 609.219 10.3 625.198 10.3C641.537 10.3 651.397 20.0889 651.397 35.1322C651.397 50.1755 641.537 59.9644 625.198 59.9644ZM625.198 49.5997C635.778 49.5997 639.881 45.8568 639.881 35.1322C639.881 24.4076 635.778 20.6647 625.198 20.6647C614.617 20.6647 610.73 24.4076 610.73 35.1322C610.73 45.8568 614.617 49.5997 625.198 49.5997ZM686.192 59.2446H655.89V11.0198H684.825C694.686 11.0198 700.012 15.1944 700.012 22.7521C700.012 28.7262 696.845 33.0448 688.783 33.6207V34.2685C697.709 34.9163 702.027 39.3789 702.027 45.8568C702.027 54.0623 696.989 59.2446 686.192 59.2446ZM666.686 20.7367V30.1658H683.601C687.56 30.1658 689.215 28.7982 689.215 25.4872C689.215 22.1763 687.488 20.7367 683.457 20.7367H666.686ZM666.686 39.091V49.5277H684.897C689.287 49.5277 691.087 48.1601 691.087 44.2733C691.087 40.4585 689.287 39.091 684.897 39.091H666.686ZM727.893 59.9644C713.282 59.9644 705.076 54.2062 705.076 42.9777V42.5459H715.873V43.8415C715.873 48.3041 718.104 50.1035 727.893 50.1035C736.53 50.1035 738.546 48.8079 738.546 45.5689C738.546 42.6178 736.89 41.5382 731.924 40.6745L718.392 38.7311C709.755 37.3635 704.644 33.0448 704.644 25.1993C704.644 17.9296 710.547 10.3 726.741 10.3C741.569 10.3 748.479 17.1378 748.479 27.2867V27.7185H737.61V26.7108C737.61 22.1043 735.235 20.1609 725.662 20.1609C717.888 20.1609 715.513 21.6724 715.513 24.7674C715.513 27.5746 717.096 28.5822 721.127 29.302L734.659 31.4613C745.456 33.1888 749.342 38.4432 749.342 45.0651C749.342 52.9106 743.224 59.9644 727.893 59.9644ZM794.55 59.2446H753.739V11.0198H794.55V20.7367H764.536V30.1658H793.471V39.8107H764.536V49.5277H794.55V59.2446ZM810.225 59.2446H799.428V11.0198H826.06C837.936 11.0198 844.702 16.2741 844.702 25.4872C844.702 33.3328 840.167 38.0113 831.098 38.875V39.4508C835.417 40.6025 837.072 42.9058 838.872 46.2887L845.853 59.2446H833.329L826.707 46.7206C824.764 42.9777 822.965 41.7541 817.35 41.7541H810.225V59.2446ZM810.225 20.7367V33.6207H825.988C831.098 33.6207 833.401 32.1811 833.401 27.1427C833.401 22.3922 831.098 20.7367 825.988 20.7367H810.225ZM881.222 59.2446H865.819L845.809 11.0198H858.837L873.304 48.3041H874.024L888.276 11.0198H901.232L881.222 59.2446ZM912.381 59.2446H900.289L921.379 11.0198H936.782L958.015 59.2446H945.635L941.1 48.592H916.988L912.381 59.2446ZM925.697 28.3663L921.163 38.875H936.926L932.391 28.3663L929.44 20.8807H928.648L925.697 28.3663ZM987.381 59.2446H976.585V20.7367H958.662V11.0198H1005.3V20.7367H987.381V59.2446ZM1019.97 59.2446H1009.17V11.0198H1019.97V59.2446ZM1050.45 59.9644C1034.48 59.9644 1024.54 50.1755 1024.54 35.1322C1024.54 20.0889 1034.48 10.3 1050.45 10.3C1066.79 10.3 1076.65 20.0889 1076.65 35.1322C1076.65 50.1755 1066.79 59.9644 1050.45 59.9644ZM1050.45 49.5997C1061.04 49.5997 1065.14 45.8568 1065.14 35.1322C1065.14 24.4076 1061.04 20.6647 1050.45 20.6647C1039.87 20.6647 1035.99 24.4076 1035.99 35.1322C1035.99 45.8568 1039.87 49.5997 1050.45 49.5997ZM1092.16 59.2446H1081.36V11.0198H1092.88L1110.15 33.8366L1116.78 43.9854H1117.57L1117.06 34.2685V11.0198H1127.86V59.2446H1116.34L1098.57 36.2119L1092.45 27.1427H1091.73L1092.16 35.9959V59.2446ZM1142.44 59.2446H1130.35L1151.44 11.0198H1166.84L1188.08 59.2446H1175.7L1171.16 48.592H1147.05L1142.44 59.2446ZM1155.76 28.3663L1151.22 38.875H1166.99L1162.45 28.3663L1159.5 20.8807H1158.71L1155.76 28.3663ZM1230.11 59.2446H1190.59V11.0198H1201.39V49.5277H1230.11V59.2446Z" fill="white"/>
<path d="M547.087 62.0405C562.119 62.0405 574.306 49.9341 574.306 35C574.306 20.0659 562.119 7.95941 547.087 7.95941C532.054 7.95941 519.867 20.0659 519.867 35C519.867 49.9341 532.054 62.0405 547.087 62.0405Z" stroke="#E0FF00" stroke-width="5.74912" stroke-miterlimit="10"/>
<path d="M547.086 44.4387C552.333 44.4387 556.587 40.2128 556.587 35C556.587 29.7871 552.333 25.5613 547.086 25.5613C541.839 25.5613 537.585 29.7871 537.585 35C537.585 40.2128 541.839 44.4387 547.086 44.4387Z" stroke="#E0FF00" stroke-width="5.74912" stroke-miterlimit="10"/>
<path d="M1326.52 27.6369C1324.7 27.6369 1322.88 27.9384 1321.08 28.1703C1318.44 28.5414 1315.8 28.982 1313.05 29.3994L1313.84 28.8428C1317.18 26.315 1320.54 23.8568 1323.83 21.2362C1324.75 20.5195 1325.47 19.5787 1325.91 18.5056C1326.35 17.4325 1326.5 16.2638 1326.36 15.1138C1326.29 13.6417 1325.75 12.2286 1324.83 11.0782C1323.9 9.92787 1322.63 9.09973 1321.2 8.71316C1319.81 8.20799 1318.3 8.16086 1316.89 8.57878C1315.47 8.9967 1314.23 9.8573 1313.35 11.0322C1310.69 14.279 1308.24 17.6417 1305.7 20.9579L1305.25 21.5609C1305.21 21.4253 1305.21 21.2791 1305.25 21.1435C1305.84 16.9227 1306.54 12.702 1306.96 8.45806C1307.01 7.46256 1306.86 6.46609 1306.52 5.52964C1306.18 4.59319 1305.64 3.73646 1304.95 3.01187C1304.26 2.28728 1303.43 1.71008 1302.51 1.3156C1301.59 0.921117 1300.6 0.717651 1299.59 0.717651C1298.59 0.717651 1297.59 0.921117 1296.67 1.3156C1295.75 1.71008 1294.92 2.28728 1294.23 3.01187C1293.54 3.73646 1293.01 4.59319 1292.66 5.52964C1292.32 6.46609 1292.17 7.46256 1292.23 8.45806C1292.41 10.9859 1292.72 13.4905 1293.07 15.9951C1293.3 17.8967 1293.67 19.752 1294.02 21.7928L1293.46 21.0043C1290.92 17.688 1288.44 14.3254 1285.81 11.0786C1284.96 10.045 1283.82 9.27673 1282.54 8.8655C1281.26 8.45427 1279.89 8.41749 1278.59 8.75954C1277.27 8.98632 1276.04 9.58552 1275.05 10.4859C1274.06 11.3862 1273.36 12.5498 1273.01 13.8383C1272.6 15.1643 1272.6 16.5855 1273.01 17.9118C1273.43 19.2381 1274.24 20.4062 1275.35 21.2594C1278.52 23.8336 1281.84 26.2455 1285.11 28.7269C1285.41 28.9588 1285.74 29.1675 1286.2 29.469H1285.71C1281.46 28.8892 1277.22 28.1935 1272.94 27.7529C1271.94 27.6834 1270.94 27.8171 1269.99 28.1457C1269.05 28.4743 1268.18 28.991 1267.44 29.6643C1266.7 30.3375 1266.11 31.1532 1265.7 32.0615C1265.29 32.9698 1265.07 33.9517 1265.05 34.9472C1265.04 35.9428 1265.23 36.9311 1265.61 37.8518C1265.99 38.7726 1266.56 39.6065 1267.27 40.3027C1267.99 40.9988 1268.84 41.5426 1269.78 41.9009C1270.71 42.2591 1271.71 42.4243 1272.71 42.3863C1275.61 42.1776 1278.48 41.7834 1281.37 41.3891C1282.91 41.2036 1284.45 40.8789 1286.04 40.6238C1285.84 40.8415 1285.62 41.029 1285.36 41.1804C1281.98 43.6618 1278.59 46.1896 1275.35 48.7406C1274.3 49.5716 1273.52 50.6885 1273.11 51.9536C1272.69 53.2187 1272.66 54.5767 1273.01 55.8602C1273.26 57.1929 1273.89 58.4252 1274.83 59.4057C1275.78 60.3861 1276.99 61.0722 1278.31 61.3797C1279.65 61.7988 1281.08 61.8011 1282.42 61.3864C1283.75 60.9717 1284.93 60.1599 1285.78 59.0606C1288.47 55.837 1290.94 52.428 1293.49 49.1117C1293.67 48.8798 1293.81 48.6479 1293.98 48.416C1294.02 48.5594 1294.02 48.7131 1293.98 48.8566C1293.39 53.0773 1292.69 57.2981 1292.27 61.542C1292.22 62.5375 1292.37 63.534 1292.71 64.4704C1293.05 65.4069 1293.59 66.2636 1294.28 66.9882C1294.97 67.7128 1295.8 68.29 1296.72 68.6845C1297.64 69.0789 1298.63 69.2824 1299.64 69.2824C1300.64 69.2824 1301.64 69.0789 1302.56 68.6845C1303.48 68.29 1304.31 67.7128 1305 66.9882C1305.69 66.2636 1306.22 65.4069 1306.57 64.4704C1306.91 63.534 1307.06 62.5375 1307 61.542C1306.79 58.6663 1306.37 55.8138 1306 52.9382C1305.81 51.4076 1305.49 49.9002 1305.18 48.1609C1305.51 48.6247 1305.7 48.9262 1305.91 49.2044C1308.43 52.4744 1310.83 55.837 1313.49 58.991C1314.26 59.883 1315.24 60.5768 1316.34 61.0132C1317.43 61.4497 1318.62 61.6157 1319.8 61.4973C1320.97 61.3788 1322.11 60.9793 1323.09 60.3329C1324.08 59.6865 1324.9 58.8123 1325.47 57.7851C1326.32 56.3181 1326.62 54.5994 1326.32 52.932C1326.03 51.2646 1325.14 49.7556 1323.83 48.6711C1320.59 46.0273 1317.18 43.5923 1313.87 41.0644L1312.93 40.4151H1313.54C1317.79 40.9949 1322.01 41.6906 1326.29 42.1312C1327.28 42.2107 1328.29 42.0857 1329.23 41.764C1330.18 41.4423 1331.05 40.9307 1331.79 40.261C1332.53 39.5913 1333.12 38.7777 1333.54 37.8707C1333.95 36.9637 1334.16 35.9827 1334.18 34.9884C1334.18 34.0012 1333.98 33.0239 1333.59 32.1149C1333.2 31.206 1332.63 30.3839 1331.92 29.6978C1331.2 29.0117 1330.36 28.4756 1329.43 28.1216C1328.5 27.7675 1327.51 27.6027 1326.52 27.6369V27.6369Z" fill="#E0FF00"/>
<path d="M1362.93 58.5732H1352.14V10.3484H1392.95V20.0653H1362.93V30.9339H1391.87V40.5789H1362.93V58.5732ZM1420.86 59.293C1405.17 59.293 1397.18 51.3755 1397.18 38.4196V10.3484H1407.98V37.6278C1407.98 45.8332 1411.07 48.7843 1420.86 48.7843C1430.72 48.7843 1433.75 45.8332 1433.75 37.6278V10.3484H1444.54V38.4196C1444.54 51.3755 1436.63 59.293 1420.86 59.293ZM1460.78 58.5732H1449.98V10.3484H1461.5L1478.77 33.1652L1485.39 43.314H1486.18L1485.68 33.5971V10.3484H1496.48V58.5732H1484.96L1467.18 35.5405L1461.06 26.4713H1460.34L1460.78 35.3245V58.5732Z" fill="white"/>
<path d="M1655.8 58.9296H1614.99V10.7047H1655.8V20.4216H1625.79V29.8507H1654.72V39.4957H1625.79V49.2126H1655.8V58.9296ZM1671.55 58.9296H1657.44L1676.23 35.105V34.3133L1657.44 10.7047H1671.55L1685.08 27.9073H1685.87L1698.9 10.7047H1713.01L1694.29 34.5292V35.321L1713.01 58.9296H1698.9L1685.44 41.511H1684.65L1671.55 58.9296ZM1726.3 58.9296H1715.51V10.7047H1740.7C1751.85 10.7047 1759.05 17.0387 1759.05 28.1232C1759.05 39.2078 1751.85 45.6137 1740.7 45.6137H1726.3V58.9296ZM1739.55 20.4216H1726.3V35.8968H1739.55C1745.52 35.8968 1748.33 34.1693 1748.33 28.1232C1748.33 22.2211 1745.52 20.4216 1739.55 20.4216ZM1803.69 58.9296H1762.88V10.7047H1803.69V20.4216H1773.68V29.8507H1802.61V39.4957H1773.68V49.2126H1803.69V58.9296ZM1819.37 58.9296H1808.57V10.7047H1835.2C1847.08 10.7047 1853.84 15.959 1853.84 25.1722C1853.84 33.0177 1849.31 37.6962 1840.24 38.56V39.1358C1844.56 40.2874 1846.21 42.5907 1848.01 45.9736L1855 58.9296H1842.47L1835.85 46.4055C1833.91 42.6627 1832.11 41.4391 1826.49 41.4391H1819.37V58.9296ZM1819.37 20.4216V33.3056H1835.13C1840.24 33.3056 1842.54 31.8661 1842.54 26.8276C1842.54 22.0771 1840.24 20.4216 1835.13 20.4216H1819.37ZM1869.2 58.9296H1858.41V10.7047H1869.2V58.9296ZM1885.65 58.9296H1874.85V10.7047H1889.47L1900.77 34.4572L1905.3 45.7577H1906.09L1910.48 34.4572L1921.42 10.7047H1936.11V58.9296H1925.31V34.4572L1925.67 26.8996H1924.88L1922.07 34.4572L1911.99 56.0505H1898.89L1888.82 34.4572L1886.01 26.8996H1885.22L1885.65 34.4572V58.9296ZM1982.58 58.9296H1941.77V10.7047H1982.58V20.4216H1952.57V29.8507H1981.5V39.4957H1952.57V49.2126H1982.58V58.9296ZM1998.26 58.9296H1987.46V10.7047H1998.98L2016.25 33.5215L2022.87 43.6704H2023.66L2023.16 33.9534V10.7047H2033.96V58.9296H2022.44L2004.66 35.8968L1998.54 26.8276H1997.82L1998.26 35.6809V58.9296ZM2066.53 58.9296H2055.74V20.4216H2037.81V10.7047H2084.46V20.4216H2066.53V58.9296ZM2097.18 58.9296H2085.09L2106.18 10.7047H2121.58L2142.81 58.9296H2130.43L2125.9 48.2769H2101.79L2097.18 58.9296ZM2110.5 28.0513L2105.96 38.56H2121.72L2117.19 28.0513L2114.24 20.5656H2113.45L2110.5 28.0513ZM2184.85 58.9296H2145.33V10.7047H2156.13V49.2126H2184.85V58.9296Z" fill="white"/>
<path d="M1561.69 60.9043C1576.01 60.9043 1587.62 49.3689 1587.62 35.1392C1587.62 20.9096 1576.01 9.37415 1561.69 9.37415C1547.36 9.37415 1535.75 20.9096 1535.75 35.1392C1535.75 49.3689 1547.36 60.9043 1561.69 60.9043Z" stroke="#E0FF00" stroke-width="5.74912" stroke-miterlimit="10"/>
<path d="M1589.7 6.82312L1532.95 63.177" stroke="#E0FF00" stroke-width="5.74912" stroke-miterlimit="10"/>
<path d="M2329.35 59.2214H2313.95L2293.94 10.9966H2306.97L2321.43 48.2809H2322.15L2336.4 10.9966H2349.36L2329.35 59.2214ZM2392.47 59.2214H2351.66V10.9966H2392.47V20.7135H2362.45V30.1426H2391.39V39.7875H2362.45V49.5045H2392.47V59.2214ZM2408.14 59.2214H2397.35V10.9966H2423.98C2435.85 10.9966 2442.62 16.2509 2442.62 25.464C2442.62 33.3096 2438.08 37.9881 2429.02 38.8518V39.4276C2433.33 40.5793 2434.99 42.8826 2436.79 46.2655L2443.77 59.2214H2431.25L2424.62 46.6974C2422.68 42.9545 2420.88 41.7309 2415.27 41.7309H2408.14V59.2214ZM2408.14 20.7135V33.5975H2423.9C2429.02 33.5975 2431.32 32.1579 2431.32 27.1195C2431.32 22.369 2429.02 20.7135 2423.9 20.7135H2408.14ZM2469.06 59.9412C2454.45 59.9412 2446.25 54.183 2446.25 42.9545V42.5227H2457.04V43.8183C2457.04 48.2809 2459.27 50.0803 2469.06 50.0803C2477.7 50.0803 2479.72 48.7847 2479.72 45.5457C2479.72 42.5947 2478.06 41.515 2473.09 40.6513L2459.56 38.7079C2450.92 37.3403 2445.81 33.0217 2445.81 25.1761C2445.81 17.9064 2451.72 10.2768 2467.91 10.2768C2482.74 10.2768 2489.65 17.1146 2489.65 27.2635V27.6953H2478.78V26.6876C2478.78 22.0811 2476.4 20.1377 2466.83 20.1377C2459.06 20.1377 2456.68 21.6492 2456.68 24.7443C2456.68 27.5514 2458.27 28.5591 2462.3 29.2788L2475.83 31.4382C2486.62 33.1656 2490.51 38.42 2490.51 45.0419C2490.51 52.8874 2484.39 59.9412 2469.06 59.9412ZM2503.76 59.2214H2491.67L2512.76 10.9966H2528.16L2549.4 59.2214H2537.02L2532.48 48.5688H2508.37L2503.76 59.2214ZM2517.08 28.3431L2512.54 38.8518H2528.31L2523.77 28.3431L2520.82 20.8575H2520.03L2517.08 28.3431ZM2578.76 59.2214H2567.96V20.7135H2550.04V10.9966H2596.68V20.7135H2578.76V59.2214ZM2611.35 59.2214H2600.55V10.9966H2611.35V59.2214ZM2656.52 59.2214H2617V10.9966H2627.8V49.5045H2656.52V59.2214ZM2701.68 59.2214H2660.86V10.9966H2701.68V20.7135H2671.66V30.1426H2700.6V39.7875H2671.66V49.5045H2701.68V59.2214Z" fill="white"/>
<path d="M2248.81 33.4462C2264.44 33.4462 2277.12 27.7356 2277.12 20.6912C2277.12 13.6468 2264.44 7.93622 2248.81 7.93622C2233.17 7.93622 2220.49 13.6468 2220.49 20.6912C2220.49 27.7356 2233.17 33.4462 2248.81 33.4462Z" stroke="#E0FF00" stroke-width="5.74912" stroke-miterlimit="10"/>
<path d="M2248.27 62.0637C2263.91 62.0637 2276.58 56.3531 2276.58 49.3088C2276.58 42.2644 2263.91 36.5538 2248.27 36.5538C2232.63 36.5538 2219.95 42.2644 2219.95 49.3088C2219.95 56.3531 2232.63 62.0637 2248.27 62.0637Z" stroke="#E0FF00" stroke-width="5.74912" stroke-miterlimit="10"/>
<path d="M2248.24 47.8247C2263.88 47.8247 2276.56 42.1141 2276.56 35.0697C2276.56 28.0253 2263.88 22.3147 2248.24 22.3147C2232.61 22.3147 2219.93 28.0253 2219.93 35.0697C2219.93 42.1141 2232.61 47.8247 2248.24 47.8247Z" stroke="#E0FF00" stroke-width="5.74912" stroke-miterlimit="10"/>
<path d="M2842.13 59.9643C2826.15 59.9643 2816.21 50.1754 2816.21 35.1321C2816.21 20.0889 2826.15 10.2999 2842.13 10.2999C2858.46 10.2999 2868.33 20.0889 2868.33 35.1321C2868.33 50.1754 2858.46 59.9643 2842.13 59.9643ZM2842.13 49.5996C2852.71 49.5996 2856.81 45.8568 2856.81 35.1321C2856.81 24.4075 2852.71 20.6647 2842.13 20.6647C2831.55 20.6647 2827.66 24.4075 2827.66 35.1321C2827.66 45.8568 2831.55 49.5996 2842.13 49.5996ZM2903.12 59.2446H2872.82V11.0197H2901.75C2911.61 11.0197 2916.94 15.1944 2916.94 22.752C2916.94 28.7261 2913.77 33.0448 2905.71 33.6206V34.2684C2914.64 34.9162 2918.96 39.3788 2918.96 45.8568C2918.96 54.0622 2913.92 59.2446 2903.12 59.2446ZM2883.61 20.7366V30.1657H2900.53C2904.49 30.1657 2906.14 28.7981 2906.14 25.4872C2906.14 22.1762 2904.42 20.7366 2900.39 20.7366H2883.61ZM2883.61 39.0909V49.5276H2901.82C2906.22 49.5276 2908.01 48.16 2908.01 44.2733C2908.01 40.4585 2906.22 39.0909 2901.82 39.0909H2883.61ZM2944.82 59.9643C2930.21 59.9643 2922 54.2061 2922 42.9777V42.5458H2932.8V43.8414C2932.8 48.304 2935.03 50.1034 2944.82 50.1034C2953.46 50.1034 2955.47 48.8078 2955.47 45.5689C2955.47 42.6178 2953.82 41.5381 2948.85 40.6744L2935.32 38.731C2926.68 37.3634 2921.57 33.0448 2921.57 25.1992C2921.57 17.9295 2927.47 10.2999 2943.67 10.2999C2958.5 10.2999 2965.41 17.1378 2965.41 27.2866V27.7185H2954.54V26.7108C2954.54 22.1042 2952.16 20.1608 2942.59 20.1608C2934.82 20.1608 2932.44 21.6724 2932.44 24.7674C2932.44 27.5745 2934.02 28.5822 2938.06 29.302L2951.59 31.4613C2962.38 33.1887 2966.27 38.4431 2966.27 45.065C2966.27 52.9106 2960.15 59.9643 2944.82 59.9643ZM3011.48 59.2446H2970.67V11.0197H3011.48V20.7366H2981.46V30.1657H3010.4V39.8107H2981.46V49.5276H3011.48V59.2446ZM3027.15 59.2446H3016.36V11.0197H3042.99C3054.86 11.0197 3061.63 16.274 3061.63 25.4872C3061.63 33.3327 3057.1 38.0112 3048.03 38.875V39.4508C3052.34 40.6024 3054 42.9057 3055.8 46.2886L3062.78 59.2446H3050.26L3043.64 46.7205C3041.69 42.9777 3039.89 41.7541 3034.28 41.7541H3027.15V59.2446ZM3027.15 20.7366V33.6206H3042.92C3048.03 33.6206 3050.33 32.1811 3050.33 27.1426C3050.33 22.3921 3048.03 20.7366 3042.92 20.7366H3027.15ZM3098.15 59.2446H3082.75L3062.74 11.0197H3075.77L3090.23 48.304H3090.95L3105.2 11.0197H3118.16L3098.15 59.2446ZM3129.31 59.2446H3117.22L3138.31 11.0197H3153.71L3174.94 59.2446H3162.56L3158.03 48.5919H3133.92L3129.31 59.2446ZM3142.63 28.3663L3138.09 38.875H3153.85L3149.32 28.3663L3146.37 20.8806H3145.58L3142.63 28.3663ZM3204.31 59.2446H3193.51V20.7366H3175.59V11.0197H3222.23V20.7366H3204.31V59.2446ZM3236.9 59.2446H3226.1V11.0197H3236.9V59.2446ZM3267.38 59.9643C3251.4 59.9643 3241.47 50.1754 3241.47 35.1321C3241.47 20.0889 3251.4 10.2999 3267.38 10.2999C3283.72 10.2999 3293.58 20.0889 3293.58 35.1321C3293.58 50.1754 3283.72 59.9643 3267.38 59.9643ZM3267.38 49.5996C3277.96 49.5996 3282.07 45.8568 3282.07 35.1321C3282.07 24.4075 3277.96 20.6647 3267.38 20.6647C3256.8 20.6647 3252.92 24.4075 3252.92 35.1321C3252.92 45.8568 3256.8 49.5996 3267.38 49.5996ZM3309.09 59.2446H3298.29V11.0197H3309.81L3327.08 33.8365L3333.7 43.9854H3334.5L3333.99 34.2684V11.0197H3344.79V59.2446H3333.27L3315.49 36.2118L3309.38 27.1426H3308.66L3309.09 35.9959V59.2446ZM3359.37 59.2446H3347.28L3368.37 11.0197H3383.77L3405 59.2446H3392.62L3388.09 48.5919H3363.98L3359.37 59.2446ZM3372.69 28.3663L3368.15 38.875H3383.91L3379.38 28.3663L3376.43 20.8806H3375.64L3372.69 28.3663ZM3447.04 59.2446H3407.52V11.0197H3418.32V49.5276H3447.04V59.2446Z" fill="white"/>
<path d="M2764.01 62.0405C2779.05 62.0405 2791.23 49.9341 2791.23 35C2791.23 20.0659 2779.05 7.95941 2764.01 7.95941C2748.98 7.95941 2736.79 20.0659 2736.79 35C2736.79 49.9341 2748.98 62.0405 2764.01 62.0405Z" stroke="#E0FF00" stroke-width="5.74912" stroke-miterlimit="10"/>
<path d="M2764.01 44.4387C2769.26 44.4387 2773.51 40.2128 2773.51 35C2773.51 29.7871 2769.26 25.5613 2764.01 25.5613C2758.77 25.5613 2754.51 29.7871 2754.51 35C2754.51 40.2128 2758.77 44.4387 2764.01 44.4387Z" stroke="#E0FF00" stroke-width="5.74912" stroke-miterlimit="10"/>
</svg>
